<svg width="24" height="24" viewBox="0 0 24 24" fill="none" xmlns="http://www.w3.org/2000/svg">
<g clip-path="url(#clip0)">
<path d="M22.8329 2.83495C22.8426 2.64765 22.797 2.47522 22.7021 2.33477C22.5602 2.06662 22.3022 1.90351 21.9914 1.88673C20.5694 1.80941 2.76536 1.80518 2.0081 1.80518C1.77389 1.80518 1.5709 1.8865 1.41852 2.04048C1.10018 2.23801 0.94667 2.58263 1.01668 2.94949C1.21316 3.98521 1.30797 5.07924 1.31496 6.39271C1.3152 6.46272 1.32428 6.53063 1.34281 6.60463C1.38311 7.05339 1.714 7.38261 2.15591 7.40856C2.70376 7.44088 5.79271 7.47348 9.36954 7.51136C14.6559 7.56711 21.2347 7.6366 22.0295 7.7317C22.0664 7.73617 22.1023 7.73845 22.1368 7.73845C22.2506 7.73845 22.3584 7.7154 22.4571 7.66991C22.8288 7.56516 23.039 7.24635 22.9939 6.85045C22.8247 5.36051 22.7721 4.04723 22.8329 2.83495ZM21.1942 5.94348C19.8453 5.89301 14.7378 5.85199 10.1801 5.81544C6.96498 5.78973 3.90906 5.76502 3.00932 5.74282C2.98555 4.96717 2.92681 4.2343 2.83037 3.51764L3.70246 3.51859C7.62827 3.52258 19.138 3.53441 21.1037 3.56483C21.0942 4.32574 21.1242 5.10866 21.1942 5.94348Z" fill="black"/>
<path d="M22.8332 10.0634C22.8428 9.87614 22.7972 9.70371 22.7024 9.56298C22.5605 9.29483 22.3024 9.13167 21.9916 9.11494C20.5628 9.03733 2.19345 9.03339 2.00833 9.03339C1.77411 9.03339 1.57089 9.11471 1.41875 9.26869C1.10041 9.46612 0.946945 9.81089 1.01691 10.1777C1.21338 11.2134 1.3082 12.3074 1.31519 13.6208C1.31543 13.6908 1.3245 13.7588 1.34304 13.8327C1.38334 14.2812 1.71399 14.6103 2.1559 14.6369C2.70399 14.6692 5.79475 14.7015 9.37352 14.7397C14.6583 14.7952 21.2354 14.8647 22.0299 14.9598C22.0668 14.9644 22.1026 14.9666 22.1368 14.9666C22.251 14.9666 22.3586 14.9434 22.4576 14.8981C22.8293 14.7933 23.0395 14.4743 22.9941 14.0787C22.8249 12.5888 22.7723 11.2757 22.8332 10.0634ZM21.1944 13.1717C19.8455 13.1212 14.7358 13.0802 10.1765 13.0435C6.96288 13.018 3.90881 12.9934 3.00954 12.9712C2.98578 12.195 2.92704 11.4626 2.8306 10.7457L3.7937 10.7466C7.69865 10.7508 19.1456 10.7624 21.1039 10.7928C21.0945 11.5539 21.1244 12.3369 21.1944 13.1717Z" fill="black"/>
<path d="M22.8332 17.2916C22.8428 17.1041 22.7972 16.9315 22.7024 16.791C22.5605 16.5231 22.3024 16.36 21.9916 16.3434C20.5718 16.2659 2.76558 16.262 2.00833 16.2618C1.77411 16.2618 1.57089 16.3429 1.41875 16.4968C1.10041 16.6945 0.946945 17.0391 1.01691 17.406C1.21338 18.4418 1.3082 19.5358 1.31519 20.8495C1.31543 20.9195 1.3245 20.9875 1.34304 21.0613C1.38334 21.5102 1.71423 21.8389 2.1559 21.865C2.70423 21.8974 5.79694 21.9302 9.37847 21.9678C14.661 22.0238 21.2357 22.0933 22.03 22.1884C22.0668 22.1928 22.1026 22.1947 22.1368 22.1947C22.2508 22.1947 22.3587 22.1718 22.4574 22.1266C22.829 22.0219 23.0392 21.7029 22.9941 21.3071C22.8249 19.817 22.7723 18.5039 22.8332 17.2916ZM21.1944 20.4001C19.846 20.3498 14.7407 20.3088 10.1846 20.2722C6.96735 20.2463 3.90929 20.2215 3.00954 20.1993C2.98578 19.4234 2.92704 18.691 2.8306 17.9737L3.88239 17.9751C7.76719 17.9792 19.1524 17.991 21.1042 18.0214C21.0945 18.7823 21.1244 19.5653 21.1944 20.4001Z" fill="black"/>
</g>
<defs>
<clipPath id="clip0">
<rect x="1" y="1" width="22" height="22" fill="white"/>
</clipPath>
</defs>
</svg>
