<svg width="24" height="24" viewBox="0 0 24 24" fill="none" xmlns="http://www.w3.org/2000/svg">
<path d="M22.5111 4.29275C21.3779 3.36775 20.3323 2.36066 19.2611 1.37672C18.97 1.10938 18.615 1.11552 18.3408 1.26179C18.1015 1.38948 17.8447 1.76226 17.6633 1.96434C16.0636 3.74223 14.4185 5.47862 12.5815 7.04942C12.3753 7.22579 12.0589 7.20183 11.8813 6.99663C10.329 5.20353 8.96881 3.28476 7.64726 1.34213C7.46881 1.07994 7.20037 0.984332 6.93979 1.00205C6.66876 1.02039 6.39347 1.17375 6.29687 1.21779C6.24064 1.24312 6.18553 1.27554 6.13204 1.31609C4.98066 2.18835 3.7817 3.00263 2.57929 3.81425C2.56128 3.82626 2.54483 3.8393 2.52938 3.85244C2.50282 3.87498 2.26695 3.9927 2.12763 4.2256C1.97669 4.47782 1.96317 4.8031 2.21898 5.08065C4.18439 7.21166 6.03539 9.42849 7.99291 11.5654C8.17627 11.7654 8.15539 12.066 7.94924 12.2424C5.69772 14.1694 3.85145 16.4674 1.43221 18.2364C1.29015 18.3403 1.2083 18.4583 1.17413 18.5793C1.10863 18.8119 1.23391 19.1248 1.30518 19.251C1.34393 19.3199 1.39946 19.3868 1.47446 19.4502C2.58897 20.3941 3.61464 21.4183 4.66559 22.4195C4.95165 22.6921 5.30708 22.6916 5.58421 22.5495C5.82551 22.4257 6.08889 22.0579 6.27428 21.8596C7.9094 20.108 9.58875 18.3988 11.4574 16.8582C11.6667 16.6854 11.982 16.7149 12.156 16.9237C13.6726 18.7423 14.9942 20.6832 16.2774 22.6472C16.4506 22.9121 16.7173 23.0122 16.9783 22.9987C17.2495 22.9849 17.5274 22.8361 17.6253 22.7938C17.6817 22.7691 17.7376 22.7379 17.7918 22.6983C18.9603 21.8449 20.1754 21.0511 21.3937 20.2594C21.4117 20.2474 21.4285 20.2349 21.4446 20.2219C21.4712 20.1998 21.7088 20.0861 21.8528 19.8562C22.0091 19.6066 22.0292 19.2812 21.7784 18.9992C19.8346 16.8125 18.0093 14.5401 16.0714 12.3494C15.8914 12.1461 15.9132 11.8404 16.117 11.661C18.3589 9.68596 20.1712 7.33151 22.5773 5.50589C22.7175 5.39956 22.7971 5.28009 22.8285 5.15873C22.8895 4.92527 22.7577 4.61458 22.6841 4.4893C22.6441 4.4213 22.5875 4.35518 22.5111 4.29275ZM20.5219 5.22999C18.3038 7.13916 16.5241 9.4395 14.2232 11.2786C14.1234 11.3587 14.0554 11.4452 14.0148 11.5344C13.9388 11.7018 13.9292 12.016 13.9805 12.1977C14.0086 12.2978 14.0631 12.3969 14.149 12.4917C16.0758 14.6076 17.8651 16.8234 19.7333 18.9822C19.9112 19.1874 19.8716 19.4735 19.645 19.6222C18.9666 20.0682 18.2925 20.5192 17.6282 20.9824C17.4055 21.1377 17.1048 21.0816 16.9538 20.856C15.7606 19.0709 14.5101 17.323 13.1038 15.6714C12.9279 15.4648 12.6994 15.0779 12.4753 14.9249C12.1943 14.7331 11.7908 14.6801 11.4473 14.9397C9.26356 16.5893 7.35642 18.4845 5.5153 20.4422C5.32929 20.6402 5.02093 20.6479 4.82499 20.4602C4.37707 20.0304 3.92664 19.6028 3.46563 19.1845C3.26487 19.0024 3.27267 18.7204 3.4816 18.5471C5.73752 16.6748 7.56233 14.4043 9.89939 12.6035C9.99272 12.5318 10.0586 12.4538 10.1018 12.3729C10.1824 12.2224 10.204 11.9202 10.1482 11.7442C10.1173 11.6474 10.0617 11.5516 9.97628 11.461C8.00761 9.37707 6.17485 7.1912 4.26426 5.06355C4.08283 4.86161 4.11705 4.57508 4.34115 4.42196C5.01034 3.96515 5.67499 3.50334 6.32939 3.02937C6.54933 2.87016 6.85113 2.92077 7.00614 3.1436C8.23459 4.90877 9.5198 6.63628 10.9592 8.26455C11.1389 8.46804 11.3745 8.85023 11.601 8.99961C11.8856 9.18714 12.2907 9.23359 12.6291 8.96842C14.7795 7.28316 16.6485 5.35669 18.4503 3.36898C18.6327 3.16798 18.9411 3.15418 19.1405 3.33845C19.5969 3.76118 20.0565 4.18141 20.5257 4.592C20.7305 4.77092 20.728 5.05277 20.5219 5.22999Z" fill="black"/>
</svg>
