<svg fill="none" height="35" viewBox="0 0 229 35" width="229" xmlns="http://www.w3.org/2000/svg" xmlns:xlink="http://www.w3.org/1999/xlink"><clipPath id="a"><path d="m0 0h229v35h-229z"/></clipPath><g clip-path="url(#a)" fill="#000"><path d="m74.6561 17.064c.0853.2133 0 .4267-.256.64-.256.192-.6614.32-1.216.384-.96.128-1.9414.2667-2.944.416-1.0027.128-2.0267.2667-3.072.416-.0427 1.088-.0427 2.176 0 3.264.4906 0 1.0773-.0427 1.76-.128.704-.1067 1.4186-.2347 2.144-.384.7253-.1493 1.4186-.2987 2.08-.448.6826-.1707 1.2586-.3093 1.728-.416.2346-.064.48-.1067.736-.128.256-.0427.48-.0427.672 0 .2133.0213.384.096.512.224s.192.3093.192.544c0 .064-.0747.16-.224.288-.1494.128-.3414.2667-.576.416-.2134.128-.448.256-.704.384-.2347.1067-.448.192-.64.256-1.3227.4267-2.624.8-3.904 1.12-1.28.2987-2.528.4587-3.744.48-.704.0213-1.2374-.16-1.6-.544-.3627-.4053-.5547-.9813-.576-1.728-.0427-1.0453-.0427-2.1013 0-3.168-.3627-.2133-.544-.512-.544-.896.0426-.4053.2346-.6827.576-.832.0426-.6187.0746-1.2373.096-1.856.0213-.64.0533-1.2693.096-1.888-.2347-.0427-.448-.16-.64-.352-.1707-.192-.256-.4053-.256-.64 0-.192.0426-.3627.128-.512.0853-.1707.2453-.2987.48-.384.384-.0853.8533-.1813 1.408-.288.5546-.1067 1.12-.2027 1.696-.288.5973-.0853 1.1626-.16 1.696-.224.5546-.064 1.024-.1067 1.408-.128.448-.0427.8746 0 1.28.128.4266.128.8213.3733 1.184.736.0853.2987.0213.5227-.192.672-.192.1493-.448.2453-.768.288s-.704.096-1.152.16c-.448.0427-.9174.096-1.408.16-.4694.064-.9494.128-1.44.192-.4694.0427-.9174.096-1.344.16v.16c.0213.0427.032.0853.032.128-.0427.5547-.0747 1.1093-.096 1.664-.0214.5547-.0427 1.1093-.064 1.664.896-.1493 1.8133-.2773 2.752-.384.9386-.128 1.6853-.2133 2.24-.256.448-.0427.8853.0107 1.312.16.4266.1493.8106.4053 1.152.768z"/><path d="m80.3571 14.664c.0213.3413.0533.768.096 1.28.064.4907.128 1.0133.192 1.568.064.5333.128 1.0667.192 1.6.0853.5333.16 1.024.224 1.472.2346-.4693.5226-1.0453.864-1.728.3413-.6827.6933-1.3333 1.056-1.952.384-.64.768-1.1733 1.152-1.6.4053-.448.768-.672 1.088-.672.3413 0 .6506.1707.928.512.2986.32.5546.7147.768 1.184.2133.4693.3946.9707.544 1.504.1706.5333.3093 1.0027.416 1.408.0853-.2773.192-.5867.32-.928.1493-.3627.2986-.7253.448-1.088.1706-.384.352-.7573.544-1.12.2133-.3627.4373-.6827.672-.96.2773-.2987.576-.512.896-.64.32-.1493.5546-.224.704-.224.192 0 .416.064.672.192.2773.1067.5546.256.832.448.2773.192.5333.4267.768.704.256.256.4586.5227.608.8.2986.576.5333 1.2053.704 1.888.192.6827.3306 1.3333.416 1.952.0853.6187.1386 1.1733.16 1.664.0426.4693.0746.8.096.992 0 .2773-.032.4907-.096.64-.064.128-.1814.2347-.352.32-.2347.1067-.4374.1493-.608.128-.1707-.0427-.3094-.1173-.416-.224-.1067-.1067-.192-.224-.256-.352-.064-.1493-.1067-.2773-.128-.384-.064-.4907-.1387-.992-.224-1.504-.064-.512-.1387-1.0027-.224-1.472-.0854-.4907-.192-.9387-.32-1.344-.1067-.4267-.224-.8-.352-1.12-.0427-.0853-.1174-.192-.224-.32-.0854-.1493-.192-.288-.32-.416-.1067-.128-.2134-.2347-.32-.32-.1067-.0853-.1814-.1387-.224-.16-.2134 0-.4374.2027-.672.608-.2347.384-.4587.8533-.672 1.408-.2134.5547-.416 1.1413-.608 1.76-.1707.5973-.2987 1.1093-.384 1.536 0 .5547-.1067.9707-.32 1.248-.2134.256-.4374.384-.672.384-.2347 0-.4907-.0853-.768-.256-.256-.192-.4267-.4053-.512-.64-.128-.3413-.2667-.7253-.416-1.152-.1494-.4267-.3094-.864-.48-1.312-.1494-.448-.3094-.8853-.48-1.312-.1494-.4267-.2987-.8107-.448-1.152-.2987.4053-.5974.8533-.896 1.344-.2774.4907-.5547.992-.832 1.504-.256.512-.512 1.024-.768 1.536-.2347.4907-.4587.928-.672 1.312-.1494.2347-.3094.448-.48.64-.1707.1707-.3734.256-.608.256-.1707 0-.352-.0747-.544-.224-.192-.1707-.3734-.3733-.544-.608-.1707-.2347-.3307-.5013-.48-.8-.128-.2987-.224-.5973-.288-.896-.1707-.9173-.32-1.92-.448-3.008-.1067-1.1093-.2134-2.1867-.32-3.232-.0214-.3627.0213-.6933.128-.992.128-.32.3626-.5333.704-.64.3626-.064.64-.0107.832.16s.3093.4373.352.8z"/><path d="m100.232 14.664c.021.3413.053.768.096 1.28.064.4907.128 1.0133.192 1.568.064.5333.128 1.0667.192 1.6.085.5333.16 1.024.224 1.472.235-.4693.523-1.0453.864-1.728s.693-1.3333 1.056-1.952c.384-.64.768-1.1733 1.152-1.6.405-.448.768-.672 1.088-.672.341 0 .651.1707.928.512.299.32.555.7147.768 1.184s.395.9707.544 1.504c.171.5333.309 1.0027.416 1.408.085-.2773.192-.5867.32-.928.149-.3627.299-.7253.448-1.088.171-.384.352-.7573.544-1.12.213-.3627.437-.6827.672-.96.277-.2987.576-.512.896-.64.32-.1493.555-.224.704-.224.192 0 .416.064.672.192.277.1067.555.256.832.448s.533.4267.768.704c.256.256.459.5227.608.8.299.576.533 1.2053.704 1.888.192.6827.331 1.3333.416 1.952s.139 1.1733.16 1.664c.043.4693.075.8.096.992 0 .2773-.032.4907-.096.64-.064.128-.181.2347-.352.32-.235.1067-.437.1493-.608.128-.171-.0427-.309-.1173-.416-.224s-.192-.224-.256-.352c-.064-.1493-.107-.2773-.128-.384-.064-.4907-.139-.992-.224-1.504-.064-.512-.139-1.0027-.224-1.472-.085-.4907-.192-.9387-.32-1.344-.107-.4267-.224-.8-.352-1.12-.043-.0853-.117-.192-.224-.32-.085-.1493-.192-.288-.32-.416-.107-.128-.213-.2347-.32-.32s-.181-.1387-.224-.16c-.213 0-.437.2027-.672.608-.235.384-.459.8533-.672 1.408s-.416 1.1413-.608 1.76c-.171.5973-.299 1.1093-.384 1.536 0 .5547-.107.9707-.32 1.248-.213.256-.437.384-.672.384s-.491-.0853-.768-.256c-.256-.192-.427-.4053-.512-.64-.128-.3413-.267-.7253-.416-1.152s-.309-.864-.48-1.312c-.149-.448-.309-.8853-.48-1.312-.149-.4267-.299-.8107-.448-1.152-.299.4053-.597.8533-.896 1.344-.277.4907-.555.992-.832 1.504-.256.512-.512 1.024-.768 1.536-.235.4907-.459.928-.672 1.312-.149.2347-.309.448-.48.64-.171.1707-.373.256-.608.256-.171 0-.352-.0747-.544-.224-.192-.1707-.3733-.3733-.544-.608-.1706-.2347-.3306-.5013-.48-.8-.128-.2987-.2239-.5973-.2879-.896-.1707-.9173-.3201-1.92-.4481-3.008-.1066-1.1093-.2133-2.1867-.32-3.232-.0213-.3627.0214-.6933.1281-.992.128-.32.3626-.5333.7039-.64.3627-.064.6401-.0107.8321.16.1919.1707.3089.4373.3519.8z"/><path d="m126.187 13.16c.085.5973.149 1.2373.192 1.92.064.6613.107 1.3333.128 2.016.043.6827.064 1.344.064 1.984s-.011 1.216-.032 1.728c.683.4693 1.088.8853 1.216 1.248.149.3627.171.6827.064.96-.128.384-.363.5867-.704.608-.32 0-.693-.1173-1.12-.352-.299.2133-.64.448-1.024.704-.384.2347-.789.4693-1.216.704-.427.2133-.853.4053-1.28.576s-.821.288-1.184.352c-.683.1067-1.301-.0213-1.856-.384-.533-.3627-.896-.9067-1.088-1.632-.128-.4907-.16-.992-.096-1.504.064-.5333.224-1.0347.48-1.504.256-.4907.597-.928 1.024-1.312.448-.384.971-.6827 1.568-.896.149-.064.352-.1173.608-.16.277-.0427.555-.0533.832-.032.299 0 .597.0533.896.16s.576.288.832.544c0-.3627-.011-.7573-.032-1.184 0-.448-.011-.896-.032-1.344s-.053-.864-.096-1.248c-.021-.4053-.053-.7467-.096-1.024-.043-.32-.171-.512-.384-.576-.192-.0853-.437-.0747-.736.032-.512.1707-1.109.5013-1.792.992s-1.333 1.0133-1.952 1.568c-.192.192-.416.2773-.672.256-.235-.0213-.437-.1173-.608-.288s-.267-.3627-.288-.576c-.021-.2347.064-.48.256-.736.363-.384.768-.7787 1.216-1.184s.917-.768 1.408-1.088c.491-.3413.992-.6187 1.504-.832s1.024-.3307 1.536-.352c.747-.0213 1.323.1493 1.728.512.405.3413.651.7893.736 1.344zm-3.712 6.88c-.277.064-.576.2027-.896.416-.299.192-.576.4373-.832.736-.235.2773-.416.5973-.544.96-.107.3413-.107.6827 0 1.024.043.128.128.224.256.288.149.064.309.0747.48.032.512-.1067 1.088-.3093 1.728-.608.661-.32 1.184-.6613 1.568-1.024 0-.128-.064-.288-.192-.48-.128-.2133-.277-.416-.448-.608-.171-.2133-.363-.3947-.576-.544-.192-.1493-.373-.2133-.544-.192z"/><path d="m140.576 8.744c.021.34133.032.75733.032 1.248.021.4907.042 1.024.064 1.6.021.576.053 1.1627.096 1.76.042.576.106 1.1307.192 1.664.32-.5333.682-.9387 1.088-1.216.426-.2773.853-.448 1.28-.512.661-.0853 1.237-.0107 1.728.224.49.2347.896.5653 1.216.992.32.4053.554.864.704 1.376.149.4907.224.9707.224 1.44 0 1.0027-.267 1.9307-.8 2.784-.512.8533-1.12 1.6107-1.824 2.272-.683.6613-1.366 1.216-2.048 1.664-.662.448-1.142.768-1.44.96-.427.1707-.843.2133-1.248.128-.406-.0853-.672-.2133-.8-.384-.107-.256-.139-.4693-.096-.64.042-.192.128-.3627.256-.512s.277-.2773.448-.384c.192-.128.352-.2453.48-.352-.512-2.3467-.907-4.7147-1.184-7.104-.278-2.4107-.395-4.8533-.352-7.328 0-.42667.085-.672.256-.736.192-.064.352-.096.48-.096.298.04267.565.16.8.352.234.192.384.45867.448.8zm4.672 8.48c0-.7253-.182-1.2267-.544-1.504-.363-.2987-.736-.4267-1.12-.384-.32.0427-.608.16-.864.352s-.48.4267-.672.704-.342.5867-.448.928c-.086.3413-.118.672-.096.992.042.5333.096 1.1093.16 1.728.085.6187.181 1.1733.288 1.664.341-.2347.704-.5013 1.088-.8.384-.32.736-.672 1.056-1.056.341-.384.618-.7893.832-1.216.213-.448.32-.9173.32-1.408z"/><path d="m159.005 13.96c-.384.2133-.789.4373-1.216.672-.405.2347-.821.512-1.248.832-.405.2987-.8.6613-1.184 1.088-.363.4053-.693.896-.992 1.472-.427.8107-.715 1.6427-.864 2.496-.149.832-.245 1.6533-.288 2.464 0 .384-.096.7787-.288 1.184-.171.384-.416.576-.736.576-.405 0-.736-.2027-.992-.608-.235-.4267-.395-.832-.48-1.216-.363-1.5147-.661-3.008-.896-4.48-.235-1.4933-.437-2.976-.608-4.448 0-.2987.085-.4907.256-.576.192-.0853.405-.1173.64-.096.256.0213.501.0853.736.192s.373.2773.416.512c.085.7893.192 1.6213.32 2.496.128.8533.256 1.5893.384 2.208.085-.7253.32-1.4293.704-2.112s.853-1.3013 1.408-1.856c.576-.5547 1.216-1.024 1.92-1.408.725-.384 1.461-.64 2.208-.768.32-.0427.587-.0427.8 0s.363.1173.448.224.096.2773.032.512c-.043.2347-.203.448-.48.64z"/><path d="m166.313 11.944c-.043.2133-.192.3307-.448.352s-.469.032-.64.032c-.533.0213-1.088.0747-1.664.16-.555.0853-1.141.2133-1.76.384-.256.0853-.533.0533-.832-.096s-.48-.448-.544-.896c0-.1707.064-.3093.192-.416s.277-.2027.448-.288c.277-.128.608-.2347.992-.32.384-.1067.768-.1813 1.152-.224.405-.0427.789-.0533 1.152-.032.363 0 .661.032.896.096.341.1067.608.2667.8.48.213.2133.299.4693.256.768zm-.736 10.656c.149.3413.224.7147.224 1.12.021.384-.085.6507-.32.8-.299.192-.619.1813-.96-.032s-.597-.5013-.768-.864c-.235-.448-.416-.992-.544-1.632-.128-.6613-.224-1.312-.288-1.952s-.107-1.2373-.128-1.792c0-.5547 0-.9707 0-1.248.021-.2987.107-.576.256-.832s.341-.4053.576-.448c.384.0213.693.2027.928.544.235.32.341.7253.32 1.216 0 .384.011.8107.032 1.28s.064.9387.128 1.408.139.928.224 1.376c.085.4267.192.7787.32 1.056z"/><path d="m170.735 14.44c.064.32.128.6827.192 1.088.085.384.171.7893.256 1.216.085.4053.16.8213.224 1.248s.117.832.16 1.216c.256-.5547.533-1.1413.832-1.76s.619-1.184.96-1.696c.363-.5333.736-.9707 1.12-1.312.405-.3413.843-.512 1.312-.512.704 0 1.291.256 1.76.768.491.512.896 1.152 1.216 1.92.341.7467.608 1.536.8 2.368s.352 1.568.48 2.208c.128.576-.128 1.0027-.768 1.28-.299.1493-.523.1707-.672.064s-.235-.2133-.256-.32c-.107-.256-.245-.704-.416-1.344-.149-.64-.331-1.2907-.544-1.952-.192-.6613-.416-1.2373-.672-1.728s-.544-.7147-.864-.672c-.384.0213-.725.3093-1.024.864-.256.448-.523.9493-.8 1.504-.256.5333-.512 1.088-.768 1.664-.256.5547-.512 1.12-.768 1.696-.235.5547-.459 1.0667-.672 1.536-.149.1493-.341.256-.576.32-.213.0427-.437.0213-.672-.064-.213-.064-.384-.1707-.512-.32s-.192-.2987-.192-.448c-.192-1.664-.395-3.1787-.608-4.544-.192-1.3653-.448-2.7627-.768-4.192-.149-.4907-.181-.8747-.096-1.152.107-.2987.427-.416.96-.352.747.128 1.205.5973 1.376 1.408z"/><path d="m188.074 16.168c.17.2347.33.5333.48.896.17.3413.298.6933.384 1.056.128.576.266 1.2053.416 1.888.17.6613.33 1.3547.48 2.08.17.7253.32 1.4613.448 2.208.149.7467.277 1.4613.384 2.144.128.9387.053 1.8347-.224 2.688-.256.8747-.694 1.6533-1.312 2.336-.619.6827-1.387 1.2267-2.304 1.632-.918.4053-1.952.6293-3.104.672-.256-.0213-.523-.1493-.8-.384-.278-.2133-.416-.4373-.416-.672-.022-.2347.085-.4267.32-.576.256-.128.512-.2133.768-.256.448-.0427.906-.1387 1.376-.288.49-.128.949-.32 1.376-.576.426-.256.81-.5653 1.152-.928.362-.3627.64-.7893.832-1.28.149-.384.224-.8533.224-1.408 0-.576-.043-1.1413-.128-1.696-.064-.5547-.16-1.0773-.288-1.568-.107-.512-.203-.896-.288-1.152-.15.1493-.342.3093-.576.48-.214.1707-.459.3307-.736.48-.278.1493-.587.2667-.928.352-.32.0853-.651.1173-.992.096-.363-.0213-.704-.1493-1.024-.384-.299-.2347-.566-.5333-.8-.896-.235-.384-.427-.8213-.576-1.312-.128-.4907-.192-1.0027-.192-1.536.042-1.28.362-2.4107.96-3.392.618-1.0027 1.6-1.7813 2.944-2.336.106-.0213.245-.0427.416-.064.192-.0213.384-.0213.576 0 .192 0 .373.0213.544.064.192.0427.352.1067.48.192.234.1707.352.416.352.736s-.075.5547-.224.704zm-4.032 4.384c0 .2347.021.5013.064.8.042.2773.181.48.416.608.256.1493.565.1707.928.064.384-.1067.736-.288 1.056-.544.298-.2347.49-.4907.576-.768.106-.2987.106-.6933 0-1.184-.107-.4907-.224-1.0027-.352-1.536s-.214-1.0133-.256-1.44c-.256.128-.534.3093-.832.544-.278.2347-.534.5333-.768.896-.235.3413-.438.7253-.608 1.152-.15.4267-.224.896-.224 1.408z"/><path d="m200.357 16.424c.406-.0213.811.0747 1.216.288.406.2133.608.544.608.992-.042.3627-.245.5973-.608.704-.341.0853-.618.128-.832.128-.426 0-.885.0107-1.376.032-.49.0213-.992.0533-1.504.096-.042.704-.085 1.3653-.128 1.984-.021.6187-.042 1.1733-.064 1.664-.021.4693-.032.8533-.032 1.152s.011.4587.032.48c.47-.0853.971-.224 1.504-.416.555-.2133 1.099-.4373 1.632-.672.555-.256 1.088-.512 1.6-.768.534-.2773 1.035-.5333 1.504-.768.214-.1067.406-.1387.576-.096.192.0427.31.1387.352.288.043.2347.011.5227-.096.864-.106.3413-.298.6507-.576.928-.32.256-.746.5547-1.28.896-.512.32-1.066.6293-1.664.928-.597.2987-1.205.5653-1.824.8-.597.2133-1.13.3413-1.6.384-.704.064-1.237-.128-1.6-.576-.362-.448-.565-1.0133-.608-1.696-.042-.6827-.053-1.472-.032-2.368.043-.896.086-1.8453.128-2.848-.405.0427-.8.0853-1.184.128-.362.0213-.714.0533-1.056.096-.277 0-.586-.064-.928-.192-.32-.128-.48-.3733-.48-.736 0-.128.054-.2987.16-.512.107-.2133.342-.3733.704-.48.875-.1493 1.846-.2773 2.912-.384.064-1.0027.139-1.9733.224-2.912.086-.9387.16-1.792.224-2.56.022-.256.096-.48.224-.672s.267-.288.416-.288c.363-.0213.704.0747 1.024.288.342.192.512.416.512.672-.085.7253-.17 1.5467-.256 2.464-.064.9173-.128 1.856-.192 2.816.427-.0427.832-.064 1.216-.064.406-.0213.79-.0427 1.152-.064z"/><path d="m212.14 15.432c-.043-.2347-.086-.4587-.128-.672-.043-.2133-.15-.352-.32-.416-.363-.1067-.747-.1173-1.152-.032-.406.0853-.779.224-1.12.416-.342.1707-.63.3733-.864.608-.235.2133-.363.4053-.384.576-.064.32.021.6293.256.928.234.2987.576.5973 1.024.896.746.448 1.525.9067 2.336 1.376.81.4693 1.493.9493 2.048 1.44.554.4907.928 1.0347 1.12 1.632.213.576.17 1.2373-.128 1.984-.235.576-.672 1.0453-1.312 1.408s-1.344.6507-2.112.864c-.768.192-1.536.3307-2.304.416-.768.064-1.419.096-1.952.096-.128 0-.288-.0427-.48-.128-.171-.1067-.342-.224-.512-.352-.15-.128-.288-.256-.416-.384-.107-.1493-.16-.2773-.16-.384 0-.384.17-.6507.512-.8.341-.1493.693-.224 1.056-.224.512 0 1.056-.0213 1.632-.064.597-.064 1.162-.1493 1.696-.256.533-.128 1.013-.288 1.44-.48.426-.192.725-.4373.896-.736.149-.256.053-.5547-.288-.896-.32-.3627-.758-.736-1.312-1.12-.534-.384-1.12-.7573-1.76-1.12-.619-.3627-1.152-.6933-1.6-.992s-.832-.6507-1.152-1.056c-.32-.4267-.523-.9493-.608-1.568-.022-.5547.096-1.088.352-1.6s.586-.96.992-1.344c.426-.4053.906-.7253 1.44-.96.533-.2347 1.066-.352 1.6-.352.917.0427 1.674.2987 2.272.768.597.448.949 1.12 1.056 2.016 0 .2987-.054.544-.16.736-.086.192-.246.3093-.48.352-.299.0427-.544.0107-.736-.096-.171-.128-.267-.288-.288-.48z"/><path d="m222.056 8.232c-.192.93867-.395 1.8667-.608 2.784-.192.9173-.374 1.8347-.544 2.752-.171.9173-.299 1.8347-.384 2.752-.086.9173-.096 1.8347-.032 2.752.042.2347 0 .4587-.128.672-.107.2133-.235.352-.384.416-.47.1707-.811.0533-1.024-.352-.256-1.088-.395-2.1653-.416-3.232 0-1.0667.074-2.1227.224-3.168.17-1.0453.384-2.08.64-3.104.277-1.04533.554-2.08.832-3.104.106-.42667.277-.66133.512-.704.234-.04267.458-.02133.672.064.32.10667.522.32.608.64.085.32.096.59733.032.832zm-1.28 17.216c0 .2347-.032.5547-.096.96-.043.384-.128.7467-.256 1.088-.107.3413-.267.6187-.48.832-.192.2133-.438.256-.736.128-.171-.1067-.342-.3093-.512-.608-.171-.2987-.246-.576-.224-.832.042-.512.149-1.0133.32-1.504.17-.4907.394-.7893.672-.896.128-.0427.266-.0427.416 0 .17.0427.32.1173.448.224.128.0853.234.192.32.32.085.1067.128.2027.128.288z"/><path clip-rule="evenodd" d="m49.9015 14.5053c.1096.1535.1869.3324.214.5406.577 4.4492.9859 8.91 1.3796 13.3719.0522.5883-.3185.9562-.8134 1.1088-.2214.1588-.5086.2672-.8616.2944-14.7576 1.1257-29.57.6551-44.34213 0-.90442-.0403-1.37432-.6251-1.41761-1.2159-.03475-.1085-.06036-.2231-.06036-.3526v-14.1968c0-.0271.00507-.0513.01017-.0756.00334-.0159.00669-.0319.00864-.0488.25304-2.2837 2.87167-2.0745 5.20261-1.8882.63002.0503 1.23898.099 1.77458.0963.4964-1.8693.7235-3.76068.846-5.67612.0035-.05468.0153-.1046.0271-.15443.0018-.00777.0036-.01555.0054-.02334-.5508-.00419-1.1017-.00836-1.6525-.01253-1.46488-.01109-2.9298-.02218-4.39505-.03363-1.7233-.01353-1.72484-2.25281 0-2.23929 14.30165.11197 28.60385.22135 42.90655.22394 1.7245.00051 1.7245 2.2398 0 2.23937-1.4637-.00031-2.9271-.00398-4.3908-.00764-.5419-.00136-1.0838-.00271-1.6258-.0039.0017.01163.0017.1236.0017.1236 0 .03743-.0061.07323-.0122.10934-.0018.01008-.0035.02019-.0051.03036.0215.09362.0293.19577.0173.30817-.2094 1.9765-.1379 3.926.2433 5.8765 1.96.1705 3.9175.3734 5.8724.6219.7362.0936 1.0563.5174 1.0672.9836zm-9.8541-8.0589c-8.5133-.02454-17.0272-.077-25.5408-.14065.001.01202.0022.02395.0035.03591.004.03938.008.07897.0055.12231-.1223 1.90252-.3421 3.79653-.7876 5.66193 8.8483-.0466 17.6979-.0689 26.5057.5565-.3112-1.8765-.3895-3.75572-.1885-5.6591.0046-.04337.0174-.0818.0302-.12021.0059-.01757.0117-.03514.0168-.05317-.0277-.08863-.047-.17958-.047-.27449v-.11197c0-.00299.0005-.00579.0011-.00859.0005-.00278.0011-.00555.0011-.00847zm-31.6233 7.5547c2.4929.1624 8.0227.4871 10.1983.4871 1.2225 0 2.9943.1721 4.9452.3617 2.3893.2321 5.0471.4903 7.2929.4903 1.2351 0 3.0935-.1527 5.1222-.3194 4.6718-.3837 10.247-.8417 11.1951.3194 1.3598 1.6653 1.4864 1.9235 2.0397 4.1439s1.1066 6.1061.5533 6.6612-4.5439 2.2656-5.9481 1.6879c-.6939-.2855-3.5354-.1477-6.4786-.005-3.0126.146-6.1318.2972-7.1635.005-2.0397-.5777-16.4614-.5777-18.4291-.5777-1.96761 0-4.68717 0-4.68717-.5551 0-.1817-.14392-.958-.32591-1.9398-.37404-2.0177-.9089-4.9031-.68573-5.2765.09121-.1526.20875-.6423.3595-1.2704.39753-1.6562 1.02602-4.2748 2.01191-4.2126z" fill-rule="evenodd"/><path d="m13.378 20.6241c-.084.048-.186.066-.306.054-.12-.024-.222-.102-.306-.234-.192-.252-.426-.378-.702-.378-.252 0-.48.06-.684.18-.192.108-.366.258-.522.45-.144.18-.264.384-.36.612s-.162.456-.198.684c-.06.42.012.774.216 1.062s.522.432.954.432c.348.012.738-.054 1.17-.198.444-.156.858-.354 1.242-.594.168-.072.324-.114.468-.126s.264.06.36.216c.12.192.09.39-.09.594-.18.192-.42.366-.72.522-.3.168-.618.318-.954.45-.324.12-.654.21-.99.27-.336.048-.672.048-1.008 0-.324-.048-.63-.162-.918-.342-.456-.312-.732-.756-.828-1.332s-.054-1.17.126-1.782c.072-.228.174-.456.306-.684.132-.24.288-.456.468-.648.192-.192.402-.354.63-.486.228-.144.48-.24.756-.288.444-.072.87-.024 1.278.144.408.156.678.45.81.882.024.096.024.198 0 .306-.024.096-.09.174-.198.234zm3.8935-3.798c.06 1.308.162 2.664.306 4.068.144 1.392.3 2.724.468 3.996.036.528-.108.798-.432.81-.072 0-.144-.024-.216-.072-.072-.06-.138-.132-.198-.216s-.12-.174-.18-.27c-.048-.096-.078-.18-.09-.252-.096-.612-.186-1.26-.27-1.944s-.162-1.368-.234-2.052c-.06-.696-.114-1.374-.162-2.034s-.078-1.266-.09-1.818c.024-.288.066-.528.126-.72.06-.204.186-.3.378-.288.204.012.348.096.432.252.096.144.15.324.162.54zm6.3897 2.142c.36.132.66.33.9.594.252.264.444.564.576.9.132.324.204.66.216 1.008.024.348-.012.672-.108.972-.132.336-.3.666-.504.99s-.438.612-.702.864-.564.456-.9.612-.708.234-1.116.234c-.492 0-.906-.114-1.242-.342s-.6-.522-.792-.882-.318-.768-.378-1.224c-.048-.456-.036-.912.036-1.368.048-.336.126-.66.234-.972.12-.324.27-.606.45-.846.18-.252.384-.456.612-.612.24-.156.51-.234.81-.234.168 0 .378.036.63.108.252.06.486.15.702.27.156-.144.348-.168.576-.072zm-.684 1.314c-.132-.084-.288-.192-.468-.324-.168-.144-.318-.216-.45-.216-.144 0-.288.066-.432.198-.132.132-.252.288-.36.468-.096.168-.18.342-.252.522s-.12.324-.144.432c-.036.18-.06.396-.072.648s.006.504.054.756c.048.24.138.462.27.666.144.192.354.33.63.414.168.048.366.048.594 0 .228-.06.45-.162.666-.306.228-.144.438-.336.63-.576.204-.24.36-.516.468-.828.12-.348.12-.708 0-1.08-.108-.384-.336-.66-.684-.828-.084.06-.168.09-.252.09s-.15-.012-.198-.036zm7.1873-.414c-.024-.132-.048-.258-.072-.378s-.084-.198-.18-.234c-.204-.06-.42-.066-.648-.018s-.438.126-.63.234c-.192.096-.354.21-.486.342-.132.12-.204.228-.216.324-.036.18.012.354.144.522s.324.336.576.504c.42.252.858.51 1.314.774s.84.534 1.152.81.522.582.63.918c.12.324.096.696-.072 1.116-.132.324-.378.588-.738.792s-.756.366-1.188.486c-.432.108-.864.186-1.296.234-.432.036-.798.054-1.098.054-.072 0-.162-.024-.27-.072-.096-.06-.192-.126-.288-.198-.084-.072-.162-.144-.234-.216-.06-.084-.09-.156-.09-.216 0-.216.096-.366.288-.45s.39-.126.594-.126c.288 0 .594-.012.918-.036.336-.036.654-.084.954-.144.3-.072.57-.162.81-.27s.408-.246.504-.414c.084-.144.03-.312-.162-.504-.18-.204-.426-.414-.738-.63-.3-.216-.63-.426-.99-.63-.348-.204-.648-.39-.9-.558s-.468-.366-.648-.594c-.18-.24-.294-.534-.342-.882-.012-.312.054-.612.198-.9s.33-.54.558-.756c.24-.228.51-.408.81-.54s.6-.198.9-.198c.516.024.942.168 1.278.432.336.252.534.63.594 1.134 0 .168-.03.306-.09.414-.048.108-.138.174-.27.198-.168.024-.306.006-.414-.054-.096-.072-.15-.162-.162-.27zm7.0897 1.152c-.468.276-.972.492-1.512.648-.54.144-1.122.216-1.746.216.024.42.144.756.36 1.008.216.24.486.384.81.432.192.024.384.018.576-.018.204-.036.39-.09.558-.162.18-.084.342-.174.486-.27s.27-.192.378-.288.222-.156.342-.18c.12-.036.21-.042.27-.018.168.06.228.24.18.54-.192.384-.468.714-.828.99-.36.264-.762.432-1.206.504-.384.072-.78.054-1.188-.054s-.774-.318-1.098-.63c-.276-.276-.486-.6-.63-.972s-.234-.756-.27-1.152c-.036-.372-.006-.726.09-1.062.108-.336.27-.63.486-.882.216-.264.486-.48.81-.648s.702-.264 1.134-.288c.516-.036.984.06 1.404.288s.714.546.882.954c.096.228.12.426.072.594-.036.168-.156.318-.36.45zm-2.07-1.224c-.12.024-.252.066-.396.126-.132.06-.258.138-.378.234-.108.084-.21.186-.306.306-.084.108-.132.234-.144.378.204 0 .426-.018.666-.054.252-.036.492-.078.72-.126.24-.06.456-.126.648-.198.204-.072.372-.15.504-.234-.096-.228-.276-.366-.54-.414-.252-.06-.51-.066-.774-.018zm7.0665-3.672c-.036-.216-.024-.414.036-.594.072-.18.21-.282.414-.306.18-.024.336.024.468.144.144.12.234.276.27.468.24 1.38.462 2.754.666 4.122.216 1.356.408 2.688.576 3.996.048.348.024.588-.072.72-.096.12-.21.21-.342.27-.144.06-.282.06-.414 0-.12-.06-.198-.168-.234-.324l-.018-.108-.072.018c-.396.144-.81.228-1.242.252-.432.012-.846-.042-1.242-.162s-.75-.312-1.062-.576c-.3-.276-.516-.624-.648-1.044-.288-.924-.108-1.764.54-2.52.276-.312.618-.594 1.026-.846s.9-.45 1.476-.594l.324-.072zm-1.818 6.426c.072.288.204.51.396.666s.42.264.684.324c.264.048.546.054.846.018s.594-.102.882-.198l.162-.054-.504-3.168-.36.09c-.252.072-.522.186-.81.342-.276.144-.522.318-.738.522s-.384.432-.504.684c-.108.252-.126.51-.054.774z"/></g></svg>