<svg width="229" height="35" viewBox="0 0 229 35" fill="none" xmlns="http://www.w3.org/2000/svg">
<path d="M65.6561 16.064C65.7414 16.2773 65.6561 16.4907 65.4001 16.704C65.1441 16.896 64.7387 17.024 64.1841 17.088C63.2241 17.216 62.2427 17.3547 61.2401 17.504C60.2374 17.632 59.2134 17.7707 58.1681 17.92C58.1254 19.008 58.1254 20.096 58.1681 21.184C58.6587 21.184 59.2454 21.1413 59.9281 21.056C60.6321 20.9493 61.3467 20.8213 62.0721 20.672C62.7974 20.5227 63.4907 20.3733 64.1521 20.224C64.8347 20.0533 65.4107 19.9147 65.8801 19.808C66.1147 19.744 66.3601 19.7013 66.6161 19.68C66.8721 19.6373 67.0961 19.6373 67.2881 19.68C67.5014 19.7013 67.6721 19.776 67.8001 19.904C67.9281 20.032 67.9921 20.2133 67.9921 20.448C67.9921 20.512 67.9174 20.608 67.7681 20.736C67.6187 20.864 67.4267 21.0027 67.1921 21.152C66.9787 21.28 66.7441 21.408 66.4881 21.536C66.2534 21.6427 66.0401 21.728 65.8481 21.792C64.5254 22.2187 63.2241 22.592 61.9441 22.912C60.6641 23.2107 59.4161 23.3707 58.2001 23.392C57.4961 23.4133 56.9627 23.232 56.6001 22.848C56.2374 22.4427 56.0454 21.8667 56.0241 21.12C55.9814 20.0747 55.9814 19.0187 56.0241 17.952C55.6614 17.7387 55.4801 17.44 55.4801 17.056C55.5227 16.6507 55.7147 16.3733 56.0561 16.224C56.0987 15.6053 56.1307 14.9867 56.1521 14.368C56.1734 13.728 56.2054 13.0987 56.2481 12.48C56.0134 12.4373 55.8001 12.32 55.6081 12.128C55.4374 11.936 55.3521 11.7227 55.3521 11.488C55.3521 11.296 55.3947 11.1253 55.4801 10.976C55.5654 10.8053 55.7254 10.6773 55.9601 10.592C56.3441 10.5067 56.8134 10.4107 57.3681 10.304C57.9227 10.1973 58.4881 10.1013 59.0641 10.016C59.6614 9.93067 60.2267 9.856 60.7601 9.792C61.3147 9.728 61.7841 9.68533 62.1681 9.664C62.6161 9.62133 63.0427 9.664 63.4481 9.792C63.8747 9.92 64.2694 10.1653 64.6321 10.528C64.7174 10.8267 64.6534 11.0507 64.4401 11.2C64.2481 11.3493 63.9921 11.4453 63.6721 11.488C63.3521 11.5307 62.9681 11.584 62.5201 11.648C62.0721 11.6907 61.6027 11.744 61.1121 11.808C60.6427 11.872 60.1627 11.936 59.6721 12C59.2027 12.0427 58.7547 12.096 58.3281 12.16C58.3281 12.2027 58.3281 12.256 58.3281 12.32C58.3494 12.3627 58.3601 12.4053 58.3601 12.448C58.3174 13.0027 58.2854 13.5573 58.2641 14.112C58.2427 14.6667 58.2214 15.2213 58.2001 15.776C59.0961 15.6267 60.0134 15.4987 60.9521 15.392C61.8907 15.264 62.6374 15.1787 63.1921 15.136C63.6401 15.0933 64.0774 15.1467 64.5041 15.296C64.9307 15.4453 65.3147 15.7013 65.6561 16.064Z" fill="black"/>
<path d="M71.3571 13.664C71.3784 14.0053 71.4104 14.432 71.4531 14.944C71.5171 15.4347 71.5811 15.9573 71.6451 16.512C71.7091 17.0453 71.7731 17.5787 71.8371 18.112C71.9224 18.6453 71.9971 19.136 72.0611 19.584C72.2957 19.1147 72.5837 18.5387 72.9251 17.856C73.2664 17.1733 73.6184 16.5227 73.9811 15.904C74.3651 15.264 74.7491 14.7307 75.1331 14.304C75.5384 13.856 75.9011 13.632 76.2211 13.632C76.5624 13.632 76.8717 13.8027 77.1491 14.144C77.4477 14.464 77.7037 14.8587 77.9171 15.328C78.1304 15.7973 78.3117 16.2987 78.4611 16.832C78.6317 17.3653 78.7704 17.8347 78.8771 18.24C78.9624 17.9627 79.0691 17.6533 79.1971 17.312C79.3464 16.9493 79.4957 16.5867 79.6451 16.224C79.8157 15.84 79.9971 15.4667 80.1891 15.104C80.4024 14.7413 80.6264 14.4213 80.8611 14.144C81.1384 13.8453 81.4371 13.632 81.7571 13.504C82.0771 13.3547 82.3117 13.28 82.4611 13.28C82.6531 13.28 82.8771 13.344 83.1331 13.472C83.4104 13.5787 83.6877 13.728 83.9651 13.92C84.2424 14.112 84.4984 14.3467 84.7331 14.624C84.9891 14.88 85.1917 15.1467 85.3411 15.424C85.6397 16 85.8744 16.6293 86.0451 17.312C86.2371 17.9947 86.3757 18.6453 86.4611 19.264C86.5464 19.8827 86.5997 20.4373 86.6211 20.928C86.6637 21.3973 86.6957 21.728 86.7171 21.92C86.7171 22.1973 86.6851 22.4107 86.6211 22.56C86.5571 22.688 86.4397 22.7947 86.2691 22.88C86.0344 22.9867 85.8317 23.0293 85.6611 23.008C85.4904 22.9653 85.3517 22.8907 85.2451 22.784C85.1384 22.6773 85.0531 22.56 84.9891 22.432C84.9251 22.2827 84.8824 22.1547 84.8611 22.048C84.7971 21.5573 84.7224 21.056 84.6371 20.544C84.5731 20.032 84.4984 19.5413 84.4131 19.072C84.3277 18.5813 84.2211 18.1333 84.0931 17.728C83.9864 17.3013 83.8691 16.928 83.7411 16.608C83.6984 16.5227 83.6237 16.416 83.5171 16.288C83.4317 16.1387 83.3251 16 83.1971 15.872C83.0904 15.744 82.9837 15.6373 82.8771 15.552C82.7704 15.4667 82.6957 15.4133 82.6531 15.392C82.4397 15.392 82.2157 15.5947 81.9811 16C81.7464 16.384 81.5224 16.8533 81.3091 17.408C81.0957 17.9627 80.8931 18.5493 80.7011 19.168C80.5304 19.7653 80.4024 20.2773 80.3171 20.704C80.3171 21.2587 80.2104 21.6747 79.9971 21.952C79.7837 22.208 79.5597 22.336 79.3251 22.336C79.0904 22.336 78.8344 22.2507 78.5571 22.08C78.3011 21.888 78.1304 21.6747 78.0451 21.44C77.9171 21.0987 77.7784 20.7147 77.6291 20.288C77.4797 19.8613 77.3197 19.424 77.1491 18.976C76.9997 18.528 76.8397 18.0907 76.6691 17.664C76.5197 17.2373 76.3704 16.8533 76.2211 16.512C75.9224 16.9173 75.6237 17.3653 75.3251 17.856C75.0477 18.3467 74.7704 18.848 74.4931 19.36C74.2371 19.872 73.9811 20.384 73.7251 20.896C73.4904 21.3867 73.2664 21.824 73.0531 22.208C72.9037 22.4427 72.7437 22.656 72.5731 22.848C72.4024 23.0187 72.1997 23.104 71.9651 23.104C71.7944 23.104 71.6131 23.0293 71.4211 22.88C71.2291 22.7093 71.0477 22.5067 70.8771 22.272C70.7064 22.0373 70.5464 21.7707 70.3971 21.472C70.2691 21.1733 70.1731 20.8747 70.1091 20.576C69.9384 19.6587 69.7891 18.656 69.6611 17.568C69.5544 16.4587 69.4477 15.3813 69.3411 14.336C69.3197 13.9733 69.3624 13.6427 69.4691 13.344C69.5971 13.024 69.8317 12.8107 70.1731 12.704C70.5357 12.64 70.8131 12.6933 71.0051 12.864C71.1971 13.0347 71.3144 13.3013 71.3571 13.664Z" fill="black"/>
<path d="M91.232 13.664C91.2534 14.0053 91.2854 14.432 91.328 14.944C91.392 15.4347 91.4561 15.9573 91.5201 16.512C91.584 17.0453 91.6481 17.5787 91.7121 18.112C91.7974 18.6453 91.8721 19.136 91.9361 19.584C92.1707 19.1147 92.4587 18.5387 92.8 17.856C93.1414 17.1733 93.4934 16.5227 93.856 15.904C94.24 15.264 94.6241 14.7307 95.008 14.304C95.4134 13.856 95.7761 13.632 96.0961 13.632C96.4374 13.632 96.7467 13.8027 97.0241 14.144C97.3227 14.464 97.5787 14.8587 97.792 15.328C98.0054 15.7973 98.1867 16.2987 98.336 16.832C98.5067 17.3653 98.6454 17.8347 98.752 18.24C98.8374 17.9627 98.944 17.6533 99.072 17.312C99.2214 16.9493 99.3707 16.5867 99.5201 16.224C99.6907 15.84 99.872 15.4667 100.064 15.104C100.277 14.7413 100.501 14.4213 100.736 14.144C101.013 13.8453 101.312 13.632 101.632 13.504C101.952 13.3547 102.187 13.28 102.336 13.28C102.528 13.28 102.752 13.344 103.008 13.472C103.285 13.5787 103.563 13.728 103.84 13.92C104.117 14.112 104.373 14.3467 104.608 14.624C104.864 14.88 105.067 15.1467 105.216 15.424C105.515 16 105.749 16.6293 105.92 17.312C106.112 17.9947 106.251 18.6453 106.336 19.264C106.421 19.8827 106.475 20.4373 106.496 20.928C106.539 21.3973 106.571 21.728 106.592 21.92C106.592 22.1973 106.56 22.4107 106.496 22.56C106.432 22.688 106.315 22.7947 106.144 22.88C105.909 22.9867 105.707 23.0293 105.536 23.008C105.365 22.9653 105.227 22.8907 105.12 22.784C105.013 22.6773 104.928 22.56 104.864 22.432C104.8 22.2827 104.757 22.1547 104.736 22.048C104.672 21.5573 104.597 21.056 104.512 20.544C104.448 20.032 104.373 19.5413 104.288 19.072C104.203 18.5813 104.096 18.1333 103.968 17.728C103.861 17.3013 103.744 16.928 103.616 16.608C103.573 16.5227 103.499 16.416 103.392 16.288C103.307 16.1387 103.2 16 103.072 15.872C102.965 15.744 102.859 15.6373 102.752 15.552C102.645 15.4667 102.571 15.4133 102.528 15.392C102.315 15.392 102.091 15.5947 101.856 16C101.621 16.384 101.397 16.8533 101.184 17.408C100.971 17.9627 100.768 18.5493 100.576 19.168C100.405 19.7653 100.277 20.2773 100.192 20.704C100.192 21.2587 100.085 21.6747 99.8721 21.952C99.6587 22.208 99.4347 22.336 99.2001 22.336C98.9654 22.336 98.7094 22.2507 98.432 22.08C98.176 21.888 98.0054 21.6747 97.92 21.44C97.792 21.0987 97.6534 20.7147 97.5041 20.288C97.3547 19.8613 97.1947 19.424 97.0241 18.976C96.8747 18.528 96.7147 18.0907 96.544 17.664C96.3947 17.2373 96.2454 16.8533 96.0961 16.512C95.7974 16.9173 95.4987 17.3653 95.2001 17.856C94.9227 18.3467 94.6454 18.848 94.368 19.36C94.112 19.872 93.856 20.384 93.6 20.896C93.3654 21.3867 93.1414 21.824 92.9281 22.208C92.7787 22.4427 92.6187 22.656 92.4481 22.848C92.2774 23.0187 92.0747 23.104 91.84 23.104C91.6694 23.104 91.4881 23.0293 91.2961 22.88C91.104 22.7093 90.9227 22.5067 90.752 22.272C90.5814 22.0373 90.4214 21.7707 90.272 21.472C90.1441 21.1733 90.048 20.8747 89.9841 20.576C89.8134 19.6587 89.664 18.656 89.536 17.568C89.4294 16.4587 89.3227 15.3813 89.216 14.336C89.1947 13.9733 89.2374 13.6427 89.3441 13.344C89.472 13.024 89.7067 12.8107 90.048 12.704C90.4107 12.64 90.688 12.6933 90.8801 12.864C91.0721 13.0347 91.1894 13.3013 91.232 13.664Z" fill="black"/>
<path d="M117.187 12.16C117.272 12.7573 117.336 13.3973 117.379 14.08C117.443 14.7413 117.486 15.4133 117.507 16.096C117.55 16.7787 117.571 17.44 117.571 18.08C117.571 18.72 117.56 19.296 117.539 19.808C118.222 20.2773 118.627 20.6933 118.755 21.056C118.904 21.4187 118.926 21.7387 118.819 22.016C118.691 22.4 118.456 22.6027 118.115 22.624C117.795 22.624 117.422 22.5067 116.995 22.272C116.696 22.4853 116.355 22.72 115.971 22.976C115.587 23.2107 115.182 23.4453 114.755 23.68C114.328 23.8933 113.902 24.0853 113.475 24.256C113.048 24.4267 112.654 24.544 112.291 24.608C111.608 24.7147 110.99 24.5867 110.435 24.224C109.902 23.8613 109.539 23.3173 109.347 22.592C109.219 22.1013 109.187 21.6 109.251 21.088C109.315 20.5547 109.475 20.0533 109.731 19.584C109.987 19.0933 110.328 18.656 110.755 18.272C111.203 17.888 111.726 17.5893 112.323 17.376C112.472 17.312 112.675 17.2587 112.931 17.216C113.208 17.1733 113.486 17.1627 113.763 17.184C114.062 17.184 114.36 17.2373 114.659 17.344C114.958 17.4507 115.235 17.632 115.491 17.888C115.491 17.5253 115.48 17.1307 115.459 16.704C115.459 16.256 115.448 15.808 115.427 15.36C115.406 14.912 115.374 14.496 115.331 14.112C115.31 13.7067 115.278 13.3653 115.235 13.088C115.192 12.768 115.064 12.576 114.851 12.512C114.659 12.4267 114.414 12.4373 114.115 12.544C113.603 12.7147 113.006 13.0453 112.323 13.536C111.64 14.0267 110.99 14.5493 110.371 15.104C110.179 15.296 109.955 15.3813 109.699 15.36C109.464 15.3387 109.262 15.2427 109.091 15.072C108.92 14.9013 108.824 14.7093 108.803 14.496C108.782 14.2613 108.867 14.016 109.059 13.76C109.422 13.376 109.827 12.9813 110.275 12.576C110.723 12.1707 111.192 11.808 111.683 11.488C112.174 11.1467 112.675 10.8693 113.187 10.656C113.699 10.4427 114.211 10.3253 114.723 10.304C115.47 10.2827 116.046 10.4533 116.451 10.816C116.856 11.1573 117.102 11.6053 117.187 12.16ZM113.475 19.04C113.198 19.104 112.899 19.2427 112.579 19.456C112.28 19.648 112.003 19.8933 111.747 20.192C111.512 20.4693 111.331 20.7893 111.203 21.152C111.096 21.4933 111.096 21.8347 111.203 22.176C111.246 22.304 111.331 22.4 111.459 22.464C111.608 22.528 111.768 22.5387 111.939 22.496C112.451 22.3893 113.027 22.1867 113.667 21.888C114.328 21.568 114.851 21.2267 115.235 20.864C115.235 20.736 115.171 20.576 115.043 20.384C114.915 20.1707 114.766 19.968 114.595 19.776C114.424 19.5627 114.232 19.3813 114.019 19.232C113.827 19.0827 113.646 19.0187 113.475 19.04Z" fill="black"/>
<path d="M131.576 7.744C131.597 8.08533 131.608 8.50133 131.608 8.992C131.629 9.48267 131.65 10.016 131.672 10.592C131.693 11.168 131.725 11.7547 131.768 12.352C131.81 12.928 131.874 13.4827 131.96 14.016C132.28 13.4827 132.642 13.0773 133.048 12.8C133.474 12.5227 133.901 12.352 134.328 12.288C134.989 12.2027 135.565 12.2773 136.056 12.512C136.546 12.7467 136.952 13.0773 137.272 13.504C137.592 13.9093 137.826 14.368 137.976 14.88C138.125 15.3707 138.2 15.8507 138.2 16.32C138.2 17.3227 137.933 18.2507 137.4 19.104C136.888 19.9573 136.28 20.7147 135.576 21.376C134.893 22.0373 134.21 22.592 133.528 23.04C132.866 23.488 132.386 23.808 132.088 24C131.661 24.1707 131.245 24.2133 130.84 24.128C130.434 24.0427 130.168 23.9147 130.04 23.744C129.933 23.488 129.901 23.2747 129.944 23.104C129.986 22.912 130.072 22.7413 130.2 22.592C130.328 22.4427 130.477 22.3147 130.648 22.208C130.84 22.08 131 21.9627 131.128 21.856C130.616 19.5093 130.221 17.1413 129.944 14.752C129.666 12.3413 129.549 9.89867 129.592 7.424C129.592 6.99733 129.677 6.752 129.848 6.688C130.04 6.624 130.2 6.592 130.328 6.592C130.626 6.63467 130.893 6.752 131.128 6.944C131.362 7.136 131.512 7.40267 131.576 7.744ZM136.248 16.224C136.248 15.4987 136.066 14.9973 135.704 14.72C135.341 14.4213 134.968 14.2933 134.584 14.336C134.264 14.3787 133.976 14.496 133.72 14.688C133.464 14.88 133.24 15.1147 133.048 15.392C132.856 15.6693 132.706 15.9787 132.6 16.32C132.514 16.6613 132.482 16.992 132.504 17.312C132.546 17.8453 132.6 18.4213 132.664 19.04C132.749 19.6587 132.845 20.2133 132.952 20.704C133.293 20.4693 133.656 20.2027 134.04 19.904C134.424 19.584 134.776 19.232 135.096 18.848C135.437 18.464 135.714 18.0587 135.928 17.632C136.141 17.184 136.248 16.7147 136.248 16.224Z" fill="black"/>
<path d="M150.005 12.96C149.621 13.1733 149.216 13.3973 148.789 13.632C148.384 13.8667 147.968 14.144 147.541 14.464C147.136 14.7627 146.741 15.1253 146.357 15.552C145.994 15.9573 145.664 16.448 145.365 17.024C144.938 17.8347 144.65 18.6667 144.501 19.52C144.352 20.352 144.256 21.1733 144.213 21.984C144.213 22.368 144.117 22.7627 143.925 23.168C143.754 23.552 143.509 23.744 143.189 23.744C142.784 23.744 142.453 23.5413 142.197 23.136C141.962 22.7093 141.802 22.304 141.717 21.92C141.354 20.4053 141.056 18.912 140.821 17.44C140.586 15.9467 140.384 14.464 140.213 12.992C140.213 12.6933 140.298 12.5013 140.469 12.416C140.661 12.3307 140.874 12.2987 141.109 12.32C141.365 12.3413 141.61 12.4053 141.845 12.512C142.08 12.6187 142.218 12.7893 142.261 13.024C142.346 13.8133 142.453 14.6453 142.581 15.52C142.709 16.3733 142.837 17.1093 142.965 17.728C143.05 17.0027 143.285 16.2987 143.669 15.616C144.053 14.9333 144.522 14.3147 145.077 13.76C145.653 13.2053 146.293 12.736 146.997 12.352C147.722 11.968 148.458 11.712 149.205 11.584C149.525 11.5413 149.792 11.5413 150.005 11.584C150.218 11.6267 150.368 11.7013 150.453 11.808C150.538 11.9147 150.549 12.0853 150.485 12.32C150.442 12.5547 150.282 12.768 150.005 12.96Z" fill="black"/>
<path d="M157.313 10.944C157.27 11.1573 157.121 11.2747 156.865 11.296C156.609 11.3173 156.396 11.328 156.225 11.328C155.692 11.3493 155.137 11.4027 154.561 11.488C154.006 11.5733 153.42 11.7013 152.801 11.872C152.545 11.9573 152.268 11.9253 151.969 11.776C151.67 11.6267 151.489 11.328 151.425 10.88C151.425 10.7093 151.489 10.5707 151.617 10.464C151.745 10.3573 151.894 10.2613 152.065 10.176C152.342 10.048 152.673 9.94133 153.057 9.856C153.441 9.74933 153.825 9.67467 154.209 9.632C154.614 9.58933 154.998 9.57867 155.361 9.6C155.724 9.6 156.022 9.632 156.257 9.696C156.598 9.80267 156.865 9.96267 157.057 10.176C157.27 10.3893 157.356 10.6453 157.313 10.944ZM156.577 21.6C156.726 21.9413 156.801 22.3147 156.801 22.72C156.822 23.104 156.716 23.3707 156.481 23.52C156.182 23.712 155.862 23.7013 155.521 23.488C155.18 23.2747 154.924 22.9867 154.753 22.624C154.518 22.176 154.337 21.632 154.209 20.992C154.081 20.3307 153.985 19.68 153.921 19.04C153.857 18.4 153.814 17.8027 153.793 17.248C153.793 16.6933 153.793 16.2773 153.793 16C153.814 15.7013 153.9 15.424 154.049 15.168C154.198 14.912 154.39 14.7627 154.625 14.72C155.009 14.7413 155.318 14.9227 155.553 15.264C155.788 15.584 155.894 15.9893 155.873 16.48C155.873 16.864 155.884 17.2907 155.905 17.76C155.926 18.2293 155.969 18.6987 156.033 19.168C156.097 19.6373 156.172 20.096 156.257 20.544C156.342 20.9707 156.449 21.3227 156.577 21.6Z" fill="black"/>
<path d="M161.735 13.44C161.799 13.76 161.863 14.1227 161.927 14.528C162.012 14.912 162.098 15.3173 162.183 15.744C162.268 16.1493 162.343 16.5653 162.407 16.992C162.471 17.4187 162.524 17.824 162.567 18.208C162.823 17.6533 163.1 17.0667 163.399 16.448C163.698 15.8293 164.018 15.264 164.359 14.752C164.722 14.2187 165.095 13.7813 165.479 13.44C165.884 13.0987 166.322 12.928 166.791 12.928C167.495 12.928 168.082 13.184 168.551 13.696C169.042 14.208 169.447 14.848 169.767 15.616C170.108 16.3627 170.375 17.152 170.567 17.984C170.759 18.816 170.919 19.552 171.047 20.192C171.175 20.768 170.919 21.1947 170.279 21.472C169.98 21.6213 169.756 21.6427 169.607 21.536C169.458 21.4293 169.372 21.3227 169.351 21.216C169.244 20.96 169.106 20.512 168.935 19.872C168.786 19.232 168.604 18.5813 168.391 17.92C168.199 17.2587 167.975 16.6827 167.719 16.192C167.463 15.7013 167.175 15.4773 166.855 15.52C166.471 15.5413 166.13 15.8293 165.831 16.384C165.575 16.832 165.308 17.3333 165.031 17.888C164.775 18.4213 164.519 18.976 164.263 19.552C164.007 20.1067 163.751 20.672 163.495 21.248C163.26 21.8027 163.036 22.3147 162.823 22.784C162.674 22.9333 162.482 23.04 162.247 23.104C162.034 23.1467 161.81 23.1253 161.575 23.04C161.362 22.976 161.191 22.8693 161.063 22.72C160.935 22.5707 160.871 22.4213 160.871 22.272C160.679 20.608 160.476 19.0933 160.263 17.728C160.071 16.3627 159.815 14.9653 159.495 13.536C159.346 13.0453 159.314 12.6613 159.399 12.384C159.506 12.0853 159.826 11.968 160.359 12.032C161.106 12.16 161.564 12.6293 161.735 13.44Z" fill="black"/>
<path d="M179.074 15.168C179.244 15.4027 179.404 15.7013 179.554 16.064C179.724 16.4053 179.852 16.7573 179.938 17.12C180.066 17.696 180.204 18.3253 180.354 19.008C180.524 19.6693 180.684 20.3627 180.834 21.088C181.004 21.8133 181.154 22.5493 181.282 23.296C181.431 24.0427 181.559 24.7573 181.666 25.44C181.794 26.3787 181.719 27.2747 181.442 28.128C181.186 29.0027 180.748 29.7813 180.13 30.464C179.511 31.1467 178.743 31.6907 177.826 32.096C176.908 32.5013 175.874 32.7253 174.722 32.768C174.466 32.7467 174.199 32.6187 173.922 32.384C173.644 32.1707 173.506 31.9467 173.506 31.712C173.484 31.4773 173.591 31.2853 173.826 31.136C174.082 31.008 174.338 30.9227 174.594 30.88C175.042 30.8373 175.5 30.7413 175.97 30.592C176.46 30.464 176.919 30.272 177.346 30.016C177.772 29.76 178.156 29.4507 178.498 29.088C178.86 28.7253 179.138 28.2987 179.33 27.808C179.479 27.424 179.554 26.9547 179.554 26.4C179.554 25.824 179.511 25.2587 179.426 24.704C179.362 24.1493 179.266 23.6267 179.138 23.136C179.031 22.624 178.935 22.24 178.85 21.984C178.7 22.1333 178.508 22.2933 178.274 22.464C178.06 22.6347 177.815 22.7947 177.538 22.944C177.26 23.0933 176.951 23.2107 176.61 23.296C176.29 23.3813 175.959 23.4133 175.618 23.392C175.255 23.3707 174.914 23.2427 174.594 23.008C174.295 22.7733 174.028 22.4747 173.794 22.112C173.559 21.728 173.367 21.2907 173.218 20.8C173.09 20.3093 173.026 19.7973 173.026 19.264C173.068 17.984 173.388 16.8533 173.986 15.872C174.604 14.8693 175.586 14.0907 176.93 13.536C177.036 13.5147 177.175 13.4933 177.346 13.472C177.538 13.4507 177.73 13.4507 177.922 13.472C178.114 13.472 178.295 13.4933 178.466 13.536C178.658 13.5787 178.818 13.6427 178.946 13.728C179.18 13.8987 179.298 14.144 179.298 14.464C179.298 14.784 179.223 15.0187 179.074 15.168ZM175.042 19.552C175.042 19.7867 175.063 20.0533 175.106 20.352C175.148 20.6293 175.287 20.832 175.522 20.96C175.778 21.1093 176.087 21.1307 176.45 21.024C176.834 20.9173 177.186 20.736 177.506 20.48C177.804 20.2453 177.996 19.9893 178.082 19.712C178.188 19.4133 178.188 19.0187 178.082 18.528C177.975 18.0373 177.858 17.5253 177.73 16.992C177.602 16.4587 177.516 15.9787 177.474 15.552C177.218 15.68 176.94 15.8613 176.642 16.096C176.364 16.3307 176.108 16.6293 175.874 16.992C175.639 17.3333 175.436 17.7173 175.266 18.144C175.116 18.5707 175.042 19.04 175.042 19.552Z" fill="black"/>
<path d="M191.357 15.424C191.763 15.4027 192.168 15.4987 192.573 15.712C192.979 15.9253 193.181 16.256 193.181 16.704C193.139 17.0667 192.936 17.3013 192.573 17.408C192.232 17.4933 191.955 17.536 191.741 17.536C191.315 17.536 190.856 17.5467 190.365 17.568C189.875 17.5893 189.373 17.6213 188.861 17.664C188.819 18.368 188.776 19.0293 188.733 19.648C188.712 20.2667 188.691 20.8213 188.669 21.312C188.648 21.7813 188.637 22.1653 188.637 22.464C188.637 22.7627 188.648 22.9227 188.669 22.944C189.139 22.8587 189.64 22.72 190.173 22.528C190.728 22.3147 191.272 22.0907 191.805 21.856C192.36 21.6 192.893 21.344 193.405 21.088C193.939 20.8107 194.44 20.5547 194.909 20.32C195.123 20.2133 195.315 20.1813 195.485 20.224C195.677 20.2667 195.795 20.3627 195.837 20.512C195.88 20.7467 195.848 21.0347 195.741 21.376C195.635 21.7173 195.443 22.0267 195.165 22.304C194.845 22.56 194.419 22.8587 193.885 23.2C193.373 23.52 192.819 23.8293 192.221 24.128C191.624 24.4267 191.016 24.6933 190.397 24.928C189.8 25.1413 189.267 25.2693 188.797 25.312C188.093 25.376 187.56 25.184 187.197 24.736C186.835 24.288 186.632 23.7227 186.589 23.04C186.547 22.3573 186.536 21.568 186.557 20.672C186.6 19.776 186.643 18.8267 186.685 17.824C186.28 17.8667 185.885 17.9093 185.501 17.952C185.139 17.9733 184.787 18.0053 184.445 18.048C184.168 18.048 183.859 17.984 183.517 17.856C183.197 17.728 183.037 17.4827 183.037 17.12C183.037 16.992 183.091 16.8213 183.197 16.608C183.304 16.3947 183.539 16.2347 183.901 16.128C184.776 15.9787 185.747 15.8507 186.813 15.744C186.877 14.7413 186.952 13.7707 187.037 12.832C187.123 11.8933 187.197 11.04 187.261 10.272C187.283 10.016 187.357 9.792 187.485 9.6C187.613 9.408 187.752 9.312 187.901 9.312C188.264 9.29067 188.605 9.38667 188.925 9.6C189.267 9.792 189.437 10.016 189.437 10.272C189.352 10.9973 189.267 11.8187 189.181 12.736C189.117 13.6533 189.053 14.592 188.989 15.552C189.416 15.5093 189.821 15.488 190.205 15.488C190.611 15.4667 190.995 15.4453 191.357 15.424Z" fill="black"/>
<path d="M203.14 14.432C203.097 14.1973 203.054 13.9733 203.012 13.76C202.969 13.5467 202.862 13.408 202.692 13.344C202.329 13.2373 201.945 13.2267 201.54 13.312C201.134 13.3973 200.761 13.536 200.42 13.728C200.078 13.8987 199.79 14.1013 199.556 14.336C199.321 14.5493 199.193 14.7413 199.172 14.912C199.108 15.232 199.193 15.5413 199.428 15.84C199.662 16.1387 200.004 16.4373 200.452 16.736C201.198 17.184 201.977 17.6427 202.788 18.112C203.598 18.5813 204.281 19.0613 204.836 19.552C205.39 20.0427 205.764 20.5867 205.956 21.184C206.169 21.76 206.126 22.4213 205.828 23.168C205.593 23.744 205.156 24.2133 204.516 24.576C203.876 24.9387 203.172 25.2267 202.404 25.44C201.636 25.632 200.868 25.7707 200.1 25.856C199.332 25.92 198.681 25.952 198.148 25.952C198.02 25.952 197.86 25.9093 197.668 25.824C197.497 25.7173 197.326 25.6 197.156 25.472C197.006 25.344 196.868 25.216 196.74 25.088C196.633 24.9387 196.58 24.8107 196.58 24.704C196.58 24.32 196.75 24.0533 197.092 23.904C197.433 23.7547 197.785 23.68 198.148 23.68C198.66 23.68 199.204 23.6587 199.78 23.616C200.377 23.552 200.942 23.4667 201.476 23.36C202.009 23.232 202.489 23.072 202.916 22.88C203.342 22.688 203.641 22.4427 203.812 22.144C203.961 21.888 203.865 21.5893 203.524 21.248C203.204 20.8853 202.766 20.512 202.212 20.128C201.678 19.744 201.092 19.3707 200.452 19.008C199.833 18.6453 199.3 18.3147 198.852 18.016C198.404 17.7173 198.02 17.3653 197.7 16.96C197.38 16.5333 197.177 16.0107 197.092 15.392C197.07 14.8373 197.188 14.304 197.444 13.792C197.7 13.28 198.03 12.832 198.436 12.448C198.862 12.0427 199.342 11.7227 199.876 11.488C200.409 11.2533 200.942 11.136 201.476 11.136C202.393 11.1787 203.15 11.4347 203.748 11.904C204.345 12.352 204.697 13.024 204.804 13.92C204.804 14.2187 204.75 14.464 204.644 14.656C204.558 14.848 204.398 14.9653 204.164 15.008C203.865 15.0507 203.62 15.0187 203.428 14.912C203.257 14.784 203.161 14.624 203.14 14.432Z" fill="black"/>
<path d="M213.056 7.232C212.864 8.17067 212.661 9.09867 212.448 10.016C212.256 10.9333 212.074 11.8507 211.904 12.768C211.733 13.6853 211.605 14.6027 211.52 15.52C211.434 16.4373 211.424 17.3547 211.488 18.272C211.53 18.5067 211.488 18.7307 211.36 18.944C211.253 19.1573 211.125 19.296 210.976 19.36C210.506 19.5307 210.165 19.4133 209.952 19.008C209.696 17.92 209.557 16.8427 209.536 15.776C209.536 14.7093 209.61 13.6533 209.76 12.608C209.93 11.5627 210.144 10.528 210.4 9.504C210.677 8.45867 210.954 7.424 211.232 6.4C211.338 5.97333 211.509 5.73867 211.744 5.696C211.978 5.65333 212.202 5.67467 212.416 5.76C212.736 5.86667 212.938 6.08 213.024 6.4C213.109 6.72 213.12 6.99733 213.056 7.232ZM211.776 24.448C211.776 24.6827 211.744 25.0027 211.68 25.408C211.637 25.792 211.552 26.1547 211.424 26.496C211.317 26.8373 211.157 27.1147 210.944 27.328C210.752 27.5413 210.506 27.584 210.208 27.456C210.037 27.3493 209.866 27.1467 209.696 26.848C209.525 26.5493 209.45 26.272 209.472 26.016C209.514 25.504 209.621 25.0027 209.792 24.512C209.962 24.0213 210.186 23.7227 210.464 23.616C210.592 23.5733 210.73 23.5733 210.88 23.616C211.05 23.6587 211.2 23.7333 211.328 23.84C211.456 23.9253 211.562 24.032 211.648 24.16C211.733 24.2667 211.776 24.3627 211.776 24.448Z" fill="black"/>
<path d="M40.9507 14.4206C40.9301 14.2242 40.8715 14.0554 40.7885 13.9106C40.7802 13.4708 40.5376 13.071 39.9796 12.9827C38.4981 12.7483 37.0145 12.5569 35.529 12.396C35.2401 10.556 35.1859 8.71679 35.3446 6.85216C35.3537 6.74613 35.3478 6.64976 35.3315 6.56144C35.3371 6.51748 35.3446 6.47482 35.3446 6.42964C35.3446 6.42964 35.3446 6.32401 35.3434 6.31304C36.8637 6.31719 38.3834 6.32352 39.9033 6.32393C41.2103 6.32434 41.2103 4.21181 39.9033 4.21132C29.0633 4.20888 18.2238 4.10569 7.38463 4.00006C6.07738 3.9873 6.07855 6.09983 7.38463 6.11259C8.91273 6.12746 10.4404 6.14168 11.9681 6.15614C11.9579 6.21058 11.9465 6.26421 11.9434 6.32385C11.8506 8.13086 11.6784 9.91521 11.3023 11.6787C9.39449 11.6906 6.25787 10.6324 6.01426 13.3692C6.01052 13.4095 6 13.4442 6 13.4865V26.8797C6 27.0018 6.0194 27.1099 6.04574 27.2123C6.07855 27.7697 6.43469 28.3213 7.12014 28.3594C18.3158 28.9774 29.5421 29.4213 40.7268 28.3594C40.9944 28.3338 41.212 28.2315 41.3798 28.0816C41.7549 27.9376 42.0359 27.5906 41.9963 27.0356C41.6979 22.8263 41.388 18.618 40.9507 14.4206ZM13.9629 6.17523C20.4153 6.23528 26.8679 6.28476 33.3201 6.30792C33.3201 6.31345 33.3185 6.3184 33.3185 6.32401V6.42964C33.3185 6.51918 33.3331 6.60499 33.3541 6.6886C33.3418 6.7428 33.3235 6.79252 33.3185 6.85216C33.1661 8.6478 33.2255 10.4206 33.4613 12.1909C26.786 11.6009 20.0789 11.6219 13.3728 11.6659C13.7104 9.9061 13.877 8.11932 13.9698 6.3245C13.9722 6.2712 13.9662 6.22391 13.9629 6.17523ZM18.4349 26.5348C18.4385 25.1744 18.3912 23.8157 18.3348 22.4574C18.4113 22.4879 18.4867 22.5081 18.5609 22.5168C18.6282 22.5349 18.6974 22.5481 18.7688 22.5555C20.0893 22.6942 21.3561 22.1236 22.1867 21.0491C22.2783 20.9307 22.3493 20.8007 22.3986 20.6662C22.4813 20.5255 22.5388 20.3597 22.5505 20.1612C22.6111 19.1565 22.4144 18.1774 21.8092 17.3773C20.1737 15.2173 16.6605 16.569 16.3063 19.1647C16.2379 19.305 16.1965 19.4705 16.2026 19.6681C16.2714 21.9349 16.4076 24.1973 16.4042 26.4653C13.682 26.3638 10.9606 26.2305 8.24068 26.0837V14.0292C18.4255 14.0013 28.6726 13.6263 38.7813 15.148C39.1493 18.7975 39.4279 22.4544 39.689 26.1135C32.6145 26.727 25.5232 26.7555 18.4349 26.5348ZM18.3769 19.2868C18.4917 17.7276 20.5075 18.4505 20.5314 19.8112C20.5383 20.2004 19.7595 20.3679 19.1359 20.1933C18.7002 20.0717 18.3405 19.7828 18.3769 19.2868Z" fill="black"/>
<path d="M9.40576 19.6421C9.2425 21.0454 10.3263 22.4012 11.5361 22.8402C12.8805 23.3284 14.4302 22.5931 15.2972 21.4715C15.3889 21.3531 15.4599 21.2231 15.5091 21.0887C15.5919 20.948 15.6494 20.7825 15.6611 20.5836C15.7216 19.579 15.5249 18.5998 14.9198 17.7997C13.2695 15.6204 9.71304 17.008 9.40576 19.6421ZM12.1742 20.8808C11.8192 20.6267 11.323 20.2396 11.4344 19.754C11.8018 18.1683 13.6176 18.7861 13.6427 20.2339C13.2282 20.6704 12.7684 20.8811 12.1742 20.8808Z" fill="black"/>
<path d="M35.086 16.9507C34.4213 16.4828 33.6449 16.3408 32.9175 16.4876C32.328 16.6062 31.7707 16.9148 31.3323 17.3931C30.1514 18.6804 30.0573 20.8255 30.4205 22.4842C30.5622 23.1325 31.2666 23.4192 31.808 23.139C32.4633 22.8003 32.3842 22.1385 32.3478 21.4993C32.2904 20.4909 32.1562 18.2616 33.7426 18.6065C35.3785 18.9622 34.7268 21.1395 34.8961 22.2213C35.0909 23.4636 36.7825 23.3993 36.9349 22.133C37.1612 20.2474 36.6555 18.0557 35.086 16.9507Z" fill="black"/>
<path d="M28.0851 21.0966C27.5964 21.2302 27.0907 21.2435 26.6209 21.1176C27.3099 20.4743 27.9751 19.8059 28.5647 19.0599C28.7586 18.8149 28.8611 18.5182 28.8476 18.2277C28.8963 17.8564 28.7815 17.4591 28.4104 17.1896C27.467 16.5057 26.268 16.0849 25.137 16.499C24.1485 16.8612 23.436 17.7813 23.2329 18.8446C22.6207 22.0497 26.0237 23.8442 28.6241 23.1341C29.8864 22.7886 29.3507 20.7512 28.0851 21.0966ZM25.1884 19.6235C25.1805 19.544 25.1781 19.468 25.1868 19.4057C25.2548 18.9188 25.4107 18.6864 25.812 18.4756C25.9513 18.4023 26.1409 18.4133 26.3458 18.4704C25.9743 18.8697 25.5862 19.2522 25.1884 19.6235Z" fill="black"/>
</svg>
