<svg width="359" height="280" viewBox="0 0 359 280" fill="none" xmlns="http://www.w3.org/2000/svg">
<g clip-path="url(#clip0)">
<path d="M97.9391 248C147 273 253.201 265.534 300.5 255.5C347.098 241.576 335.976 202.456 350.271 159.538C368.14 105.89 333.454 107.733 278.447 70.4665C223.439 33.1997 188.684 55.3141 97.9391 70.4666C7.19476 85.619 12.5397 139.25 0.627289 183.479C-11.2851 227.707 38.8164 217.873 97.9391 248Z" fill="#FAD551"/>
<path fill-rule="evenodd" clip-rule="evenodd" d="M255.117 162.294C252.111 148.009 241.45 136.924 227.113 131.402C224.357 129.839 221.686 123.13 217.982 121.901C217.388 121.704 218.325 123.271 217.982 123.365C216.757 123.699 215.385 123.734 214.032 122.528C211.615 120.373 210.857 114.077 209.387 111.232C201.637 96.2248 182.285 102.097 179.693 118.686C177.885 119.868 175.33 120.909 173.362 121.862C171.336 122.843 169.554 125.218 167.466 126.067C165.602 126.825 162.533 126.288 160.655 126.949C152.021 129.987 144.707 133.821 138.974 141.588C137.765 143.227 136.404 145.241 135.304 146.896C129.636 153.441 125.699 160.777 122.073 168.648C111.929 191.749 109.17 217.328 106.694 242.218C106.75 246.573 103.869 258.65 108.13 260.738C107.876 261.002 107.968 261.534 108.441 261.53C119.245 261.42 130.024 262.39 140.661 264.276C145.793 265.186 150.897 266.434 156.125 266.639C166.976 266.563 177.789 264.739 188.626 266.465C201.654 266.465 217.487 266.085 231.981 265.526C245.526 265.003 259.145 266.183 272.523 263.872C273.581 263.704 274.099 262.409 273.877 261.48C272.307 255.744 271.537 249.839 270.656 243.967C270.831 240.201 270.518 236.27 269.129 232.762C265.5 209.081 260.846 185.554 255.117 162.294Z" fill="white"/>
<path fill-rule="evenodd" clip-rule="evenodd" d="M217.982 123.452C218.325 123.358 217.388 121.791 217.982 121.988C221.686 123.216 224.357 129.926 227.113 131.489C241.45 137.011 252.111 148.096 255.117 162.381C260.846 185.641 265.5 209.168 269.129 232.849C270.518 236.356 270.831 240.288 270.656 244.054L270.794 244.982C271.62 250.547 272.39 256.132 273.877 261.567C274.099 262.496 273.581 263.791 272.523 263.959C259.297 266.244 245.836 265.117 232.443 265.596L229.651 265.701C215.806 266.211 200.959 266.552 188.626 266.552C177.789 264.826 166.976 266.65 156.125 266.725C150.897 266.52 145.793 265.273 140.661 264.363C130.024 262.477 119.245 261.507 108.441 261.617C107.968 261.621 107.876 261.089 108.13 260.824C103.869 258.737 106.75 246.66 106.694 242.305L106.918 240.063C109.342 215.882 112.233 191.143 122.073 168.734L122.368 168.097C125.913 160.468 129.789 153.351 135.304 146.983L135.641 146.476C136.674 144.929 137.886 143.15 138.974 141.675C144.707 133.908 152.021 130.074 160.655 127.036C162.533 126.375 165.602 126.912 167.466 126.154C169.419 125.36 171.104 123.23 172.972 122.156L172.972 130.171L199.997 156.876L215.325 133.3L216.884 123.644C217.26 123.62 217.627 123.549 217.982 123.452Z" fill="#A5DFFB"/>
<path fill-rule="evenodd" clip-rule="evenodd" d="M250.745 193.421C250.459 194.813 250.059 196.206 249.526 197.525C249.013 198.797 248.24 199.938 247.707 201.195C247.636 201.365 247.519 201.493 247.378 201.591L247.422 201.933L247.462 202.275C247.728 204.584 248.027 206.886 248.285 209.194L248.411 210.349C248.92 215.169 249.723 219.965 250.347 224.773C250.957 229.48 251.579 234.187 252.244 238.888C252.93 243.734 253.63 248.573 254.446 253.4C254.791 255.439 255.15 257.475 255.525 259.51L255.815 261.068C258.794 261.787 259.609 265.953 256.575 267.491C255.198 268.186 253.428 268.019 252.293 266.927C251.114 265.788 251.065 263.735 250.791 262.193L250.528 260.76C248.555 249.985 246.842 239.086 246.042 228.159C245.836 225.338 245.663 222.514 245.55 219.687C245.443 217.029 245.494 214.371 245.453 211.713L245.44 210.988C245.377 208.153 245.429 205.323 245.502 202.488C245.511 202.142 245.526 201.797 245.544 201.45C245.444 201.332 245.373 201.193 245.342 201.059L245.303 200.88C245.206 200.422 245.316 199.886 245.667 199.558C245.819 197.626 246.018 195.697 246.072 193.769C246.076 193.61 246.304 193.615 246.317 193.769C246.445 195.411 246.7 197.057 246.956 198.702C248.599 197.377 249.814 195.191 250.531 193.362C250.583 193.23 250.776 193.278 250.745 193.421ZM211.857 116.651C212.13 117.902 212.669 119.025 213.392 120.07C213.737 120.569 214.129 121.034 214.599 121.423C215.002 121.755 215.461 121.973 215.889 122.262C216.513 122.164 217.165 122.401 217.602 122.861L217.533 122.188C217.511 121.971 217.871 121.927 217.912 122.138C219.806 131.722 221.534 141.312 223.03 150.966L223.686 155.229L224.302 159.231C225.327 165.9 226.317 172.566 227.063 179.284C228.057 188.249 228.893 197.238 229.504 206.239C230.116 215.304 230.493 224.375 230.762 233.457C230.829 235.747 230.901 238.034 230.97 240.323L231.432 237.586C231.894 234.848 232.347 232.108 232.735 229.358C234.127 219.516 235.24 209.604 235.784 199.677C236.282 190.593 236.115 181.328 233.811 172.479C233.23 170.252 232.52 168.06 231.663 165.925C230.831 163.849 229.697 161.924 228.802 159.878C227.763 157.497 227.451 155.251 227.986 152.688C228.454 150.455 229.274 148.354 229.421 146.056C229.697 141.79 228.313 137.658 226.357 133.924C225.842 132.94 225.298 131.969 224.731 131.007C223.014 128.098 221.078 125.296 219.068 122.609C218.96 122.466 219.189 122.307 219.307 122.425C221.138 124.241 223.141 126.026 224.79 128.009C225.591 128.974 226.372 129.958 227.113 130.968C235.238 132.33 242.22 137.406 246.992 144.11C252.408 151.717 255.147 160.873 257.175 169.889C259.429 179.91 261.33 190.022 263.355 200.092C265.451 210.512 267.536 220.932 269.645 231.35C270.693 236.522 271.742 241.694 272.788 246.868C273.318 249.488 273.875 252.101 274.457 254.712C274.756 256.05 275.077 257.386 275.354 258.729C275.665 260.243 275.375 261.211 274.353 262.324C273.976 262.736 273.381 262.73 272.913 262.51L272.767 262.441L272.626 262.373C272.047 262.088 271.593 261.792 271.233 261.157C270.836 260.46 270.774 259.687 270.637 258.911C270.386 257.484 270.137 256.057 269.886 254.627C269.511 252.49 269.103 250.359 268.687 248.228L266.603 237.579C266.047 234.74 265.491 231.901 264.931 229.063C262.932 218.914 260.931 208.768 258.931 198.621C257.01 188.879 255.31 179.069 253.123 169.383L252.999 168.838L252.872 168.293C250.917 159.943 248.184 151.865 243.226 144.79C239.411 139.348 234.112 134.489 227.871 132.03C228.311 132.664 228.733 133.312 229.136 133.972C231.665 138.117 233.512 143.037 233.079 147.972C232.867 150.383 231.953 152.753 232.039 155.184C232.12 157.343 233.452 159.239 234.372 161.118C236.461 165.376 237.973 169.9 238.948 174.542C240.903 183.863 240.896 193.454 240.223 202.916C239.491 213.201 238.101 223.484 236.518 233.67C235.706 238.894 234.625 244.075 233.798 249.29C233.389 251.862 232.832 254.428 232.345 256.987L232.113 258.209C231.983 258.888 231.848 259.564 231.692 260.233L231.596 260.633V260.705C231.591 261.198 231.457 261.607 231.24 261.933C230.944 262.886 230.576 263.816 230.086 264.709C229.835 265.165 229.471 265.421 229.075 265.515C228.676 266.429 227.773 267.133 226.695 267.129L212.513 267.074C204.276 267.041 196.038 266.987 187.801 266.942C185.722 266.931 183.645 266.892 181.568 266.837C179.622 266.783 177.755 266.549 175.83 266.305C173.656 266.032 172.478 264.487 172.803 262.308C172.874 261.828 172.952 261.35 173.026 260.873C172.593 261.016 172.077 260.949 171.728 260.608L171.402 260.287C170.949 259.837 170.543 259.396 170.256 258.796C169.959 258.179 169.719 257.527 169.457 256.897C168.891 255.542 168.342 254.182 167.807 252.816C166.735 250.083 165.663 247.34 164.667 244.579C162.694 239.111 160.948 233.561 159.431 227.948C156.724 217.935 154.766 207.727 153.532 197.429L153.237 194.974L153.151 194.249C152.683 190.258 152.289 186.204 152.475 182.221C152.59 179.727 152.975 177.214 153.904 174.885C154.762 172.737 156.085 170.9 157.343 168.979L157.487 168.758L157.632 168.531C158.732 166.787 159.607 164.963 159.651 162.845C159.696 160.696 159.072 158.604 158.374 156.591L158.2 156.095L158.083 155.767C156.598 151.608 154.908 147.508 155.465 142.982C156.289 136.318 160.316 130.946 165.384 126.804C160.877 127.699 156.416 129.467 152.479 131.709C147.83 134.359 143.644 137.856 140.034 141.803C133.213 149.262 128.343 158.212 124.356 167.452C120.183 177.123 117.089 187.256 114.757 197.522C112.411 207.847 110.841 218.336 109.769 228.867C109.235 234.109 108.814 239.363 108.466 244.62C108.288 247.314 108.154 250.012 107.946 252.701C107.738 255.388 107.645 258.116 106.991 260.731C106.686 261.95 104.626 262.074 104.405 260.731C103.916 257.733 104.053 254.633 104.189 251.597L104.202 251.321C104.336 248.298 104.512 245.276 104.719 242.255C105.144 236.079 105.711 229.912 106.452 223.765C109.048 202.186 113.836 180.72 123.228 161.023C127.65 151.745 133.326 142.73 141.221 136.031C144.98 132.844 149.218 130.301 153.785 128.459C157.869 126.81 162.018 126.03 166.358 126.033C168.534 124.36 170.871 122.902 173.205 121.658C173.346 121.582 173.493 121.764 173.376 121.881C173.316 121.94 173.257 122.001 173.197 122.057C173.461 122.075 173.734 122.199 173.978 122.457C174.836 123.358 175.559 124.486 176.207 125.657C177.192 126.891 178.132 128.165 179.115 129.386C180.689 131.341 182.3 133.268 183.931 135.18C186.67 138.392 189.498 141.544 192.447 144.569L192.939 145.072C194.468 146.625 196.017 148.484 197.825 149.714L197.921 149.778C198.684 150.277 199.225 150.367 199.875 149.623C200.467 148.945 200.959 148.159 201.465 147.412L201.582 147.24C204.165 143.475 206.56 139.572 208.728 135.553C209.716 133.725 210.656 131.869 211.548 129.993L211.814 129.43C212.299 128.396 212.825 127.382 213.226 126.317C213.319 126.067 213.41 125.818 213.498 125.57C212.134 124.673 211.078 122.731 210.694 121.21C210.296 119.631 210.497 118.01 211.207 116.566C211.342 116.295 211.792 116.362 211.857 116.651ZM144.556 180.824C144.367 186.828 144.253 192.839 143.971 198.839L143.874 200.887C144.313 201.378 144.571 201.945 144.365 202.723C144.285 203.02 144.049 203.29 143.754 203.389L143.663 205.294C143.245 213.862 142.755 222.412 141.86 230.959C140.74 241.655 139.445 252.333 138.152 263.01C137.968 264.522 136.92 265.721 135.289 265.499C133.64 265.276 132.97 263.835 133.187 262.334C134.038 256.446 134.856 250.552 135.573 244.644L136.39 237.913C137.413 229.498 138.461 221.085 139.668 212.697C140.173 209.191 140.697 205.688 141.223 202.184L141.039 201.945C140.287 200.965 139.51 200.007 138.741 199.043C137.265 197.183 135.807 195.339 134.454 193.393C134.386 193.295 134.523 193.152 134.62 193.226C136.517 194.631 138.313 196.134 140.119 197.661L141.7 199.004C142.609 192.95 143.51 186.893 144.313 180.824C144.333 180.672 144.56 180.661 144.556 180.824ZM171.843 123.365C170.702 124.444 169.535 125.5 168.385 126.573L167.963 126.968L167.544 127.365C165.523 129.288 163.586 131.289 161.973 133.588C159.01 137.808 157.246 142.954 158.478 148.107C159.5 152.375 161.845 156.244 162.475 160.619C162.791 162.81 162.638 165.013 161.815 167.083C160.974 169.194 159.632 171.004 158.426 172.909C155.805 177.049 155.448 181.593 155.708 186.39C155.981 191.399 156.555 196.41 157.263 201.374C158.696 211.431 160.857 221.384 163.718 231.131C165.15 236.012 166.841 240.788 168.523 245.585C169.361 247.972 170.338 250.303 171.345 252.622C171.875 253.843 172.419 255.057 172.971 256.269C172.768 254.558 172.768 252.801 172.668 251.1C172.525 248.663 172.343 246.23 172.176 243.795C171.837 238.853 171.534 233.907 171.263 228.961C170.304 211.322 169.598 193.669 169.649 176.002C169.676 167.168 169.855 158.333 170.234 149.507C170.412 145.351 170.756 141.199 171.067 137.049L171.133 136.159C171.408 132.434 171.737 128.7 172.302 125.007C172.135 124.629 171.99 124.245 171.882 123.852L171.843 123.704L171.871 123.708C171.845 123.593 171.837 123.478 171.843 123.365ZM181.714 108.186C181.737 108.084 181.882 108.092 181.908 108.186C182.552 110.358 182.324 112.747 181.77 114.933C181.471 116.116 181.047 117.265 180.534 118.373L180.354 118.761C179.914 119.704 179.419 120.677 178.563 121.265C178.206 121.51 177.567 121.525 177.209 121.265L177.027 121.126C176.997 121.102 176.967 121.078 176.939 121.054C176.605 120.774 176.441 120.155 176.594 119.746C176.991 118.693 177.889 117.919 178.511 116.981C179.061 116.147 179.548 115.267 179.953 114.353C180.826 112.374 181.218 110.273 181.714 108.186Z" fill="black"/>
<path fill-rule="evenodd" clip-rule="evenodd" d="M206.663 123.767C201.866 123.796 197.79 122.428 194.679 120.164C190.798 118.773 186.116 116.627 183.272 114.374C182.163 114.659 180.836 113.474 179.987 112.849C174.709 108.887 170.566 103.088 169.338 97.2793C167.443 99.6839 164.746 99.7839 162.163 98.5887C156.748 95.5016 156.95 89.0012 158.9 84.1446C154.801 74.9003 151.961 50.4964 158.217 40.6474C159.497 39.1737 161.375 38.2923 162.727 36.781C163.93 35.4612 165.075 34.1112 166.475 33.0668C170.746 29.7989 178.102 28.059 182.709 27.2407C201.937 23.0618 216.711 30.5729 234.128 36.9086C233.126 39.4283 231.739 41.7263 230.15 43.869C234.474 45.4914 232.488 49.1392 229.133 50.9884L227.136 50.0126C230.249 61.2095 237.414 89.0533 234.323 97.9948C231.858 111.945 221.039 123.868 206.663 123.767Z" fill="white"/>
<path fill-rule="evenodd" clip-rule="evenodd" d="M227.674 52.3261H227.113L227.035 51.6637L227.035 51.6635L227.035 51.6633L227.035 51.6605L227.033 51.6472L227.026 51.591C227.019 51.5408 227.009 51.4658 226.995 51.3695C226.967 51.1767 226.923 50.899 226.862 50.5642C226.739 49.8923 226.546 49.0009 226.266 48.107C225.984 47.2048 225.626 46.3431 225.191 45.7043C224.747 45.0546 224.31 44.7564 223.894 44.7149C223.368 44.6623 222.565 44.8754 221.501 45.3505C220.468 45.812 219.317 46.4599 218.134 47.138L217.783 47.3391C216.726 47.9456 215.653 48.5613 214.674 49.0383C213.616 49.554 212.535 49.9773 211.633 49.9773C211.177 49.9773 210.561 49.8586 209.876 49.6882C209.172 49.5132 208.326 49.2655 207.382 48.9731C206.459 48.6871 205.399 48.3444 204.266 47.9783L204.266 47.9783L204.265 47.9782C203.127 47.6102 201.915 47.2185 200.696 46.8371C195.713 45.2783 190.222 43.7654 186.384 43.7654C182.621 43.7654 179.099 45.3291 176.165 47.5121C173.23 49.6956 170.938 52.4596 169.646 54.7577C168.522 56.7575 169.307 59.097 170.615 61.1357C171.252 62.128 171.973 62.984 172.539 63.5944C172.82 63.8985 173.061 64.1392 173.23 64.3027C173.315 64.3843 173.381 64.4466 173.426 64.4877C173.448 64.5082 173.465 64.5234 173.475 64.5331L173.487 64.5435L173.489 64.5455L173.489 64.5456L173.489 64.5457L173.489 64.5458L174.014 65.0116L173.584 65.5661L173.583 65.5661L173.583 65.5666L173.581 65.5689L173.574 65.579L173.542 65.6204C173.514 65.6572 173.472 65.7121 173.418 65.7831C173.312 65.9251 173.158 66.1313 172.974 66.3861C172.605 66.8964 172.114 67.5981 171.624 68.3669C171.133 69.1382 170.652 69.9632 170.296 70.7222C169.928 71.5079 169.742 72.1244 169.742 72.5115C169.742 73.5865 169.97 75.8682 170.205 77.9283C170.321 78.948 170.438 79.8981 170.525 80.5933C170.569 80.9409 170.605 81.2245 170.631 81.4212L170.66 81.648L170.668 81.707L170.67 81.722L170.67 81.7257L170.67 81.7266L170.67 81.7268L169.927 81.8252L170.67 81.7268L170.827 82.912L169.692 82.5375L169.692 82.5374L169.69 82.5368L169.681 82.5341L169.647 82.5229C169.616 82.5129 169.57 82.4981 169.51 82.4792C169.391 82.4413 169.217 82.3869 168.999 82.3215C168.565 82.1905 167.96 82.016 167.28 81.8416C165.898 81.4871 164.287 81.155 163.159 81.155C162.202 81.155 161.308 81.695 160.6 82.333C160.255 82.6433 159.978 82.9556 159.788 83.1905C159.693 83.3074 159.621 83.4037 159.574 83.4691C159.55 83.5017 159.533 83.5265 159.522 83.5421L159.511 83.5585L159.509 83.5601L159.509 83.5605L159.509 83.5608L159.509 83.5612L159.509 83.5612L159.287 83.8965H158.884H158.679C158.481 83.4302 158.287 82.9291 158.097 82.3965H158.503C158.539 82.35 158.579 82.2995 158.623 82.2458C158.849 81.9667 159.179 81.5936 159.596 81.2185C160.409 80.4858 161.653 79.655 163.159 79.655C164.493 79.655 166.266 80.033 167.653 80.3886C168.169 80.521 168.642 80.6532 169.035 80.7677C168.947 80.0698 168.831 79.1192 168.714 78.0984C168.482 76.0648 168.242 73.6897 168.242 72.5115C168.242 71.7721 168.557 70.8996 168.938 70.0856C169.332 69.2449 169.851 68.3595 170.359 67.5611C170.869 66.7602 171.378 66.033 171.759 65.5069C171.843 65.3905 171.921 65.2838 171.991 65.1882C171.834 65.031 171.646 64.8381 171.438 64.6138C170.834 63.9617 170.052 63.0349 169.353 61.9457C167.99 59.8212 166.776 56.8026 168.339 54.0227C169.734 51.541 172.166 48.6175 175.269 46.3086C178.373 43.9992 182.203 42.2654 186.384 42.2654C190.489 42.2654 196.199 43.8584 201.144 45.4055C202.417 45.804 203.617 46.1921 204.739 46.5547L204.739 46.5548C205.847 46.913 206.877 47.2464 207.826 47.5403C208.762 47.8302 209.575 48.0679 210.238 48.2325C210.919 48.4018 211.378 48.4773 211.633 48.4773C212.155 48.4773 212.957 48.2063 214.017 47.6899C214.948 47.2366 215.974 46.6475 217.041 46.0355L217.388 45.8365C218.563 45.1631 219.778 44.4778 220.89 43.981C221.971 43.4977 223.092 43.1273 224.043 43.2223C225.104 43.3283 225.881 44.0549 226.43 44.8593C226.986 45.6745 227.396 46.6963 227.698 47.659C228.001 48.6302 228.207 49.5853 228.337 50.2937C228.37 50.4698 228.397 50.6313 228.421 50.7747L227.066 50.1126C227.254 50.7918 227.458 51.5323 227.674 52.3261ZM228.526 50.8261L229.063 51.0883C229.215 51.0045 229.364 50.917 229.51 50.8261H228.526Z" fill="#ECDCBF"/>
<path fill-rule="evenodd" clip-rule="evenodd" d="M209.442 124.968C203.214 125.611 195.815 124.131 191.664 119.046C191.539 118.893 191.485 118.721 191.482 118.555C191.478 118.37 191.54 118.191 191.647 118.052C191.759 117.905 191.919 117.804 192.102 117.77C192.256 117.743 192.432 117.761 192.613 117.863L192.995 118.076C195.83 119.651 198.775 120.993 201.988 121.568C205.297 122.159 208.666 122.093 211.945 121.342C217.918 119.974 222.752 116.484 226.31 111.883C230.28 106.748 232.665 100.229 233.272 93.7105C234.009 85.8105 232.301 77.9586 230.533 70.3093C228.676 62.2719 226.646 54.2755 224.288 46.3719C224.217 46.134 224.198 45.9113 224.218 45.7062C223.522 45.4323 222.782 45.5084 222.045 45.7584C220.699 46.2153 219.358 47.2456 218.24 48.096C217.835 48.404 217.458 48.6903 217.119 48.9233C215.732 49.8772 214.216 50.5636 212.521 50.6716C210.758 50.7836 209.029 50.2328 207.428 49.5434C206.615 49.1932 205.814 48.8299 205.017 48.4681C202.747 47.4378 200.504 46.4176 198.052 45.7546C194.768 44.866 191.376 44.4283 187.974 44.4597C181.903 44.5155 175.813 46.0864 172.092 51.248C170.585 53.3389 169.602 55.742 170.369 58.3225C170.786 59.7263 171.572 61.0006 172.431 62.1727L172.726 62.5718C173.197 63.2152 173.606 63.856 173.729 64.5382C173.833 65.1097 173.752 65.7143 173.346 66.377C173.091 66.7941 172.766 67.1682 172.439 67.5411C172.203 67.81 171.966 68.0784 171.763 68.3675C171.352 68.9502 170.989 69.5779 170.704 70.2325C170.147 71.5138 169.91 72.8922 169.861 74.2824C169.801 75.9595 170.035 77.6002 170.268 79.2432C170.433 80.4082 170.598 81.5744 170.664 82.7547C170.676 82.9606 170.613 83.1141 170.525 83.2277C170.418 83.3666 170.261 83.4542 170.083 83.4785C170.029 83.4859 169.973 83.487 169.917 83.482C169.944 83.5956 169.969 83.7096 169.99 83.8241C169.877 83.6784 169.757 83.5371 169.631 83.4005C169.623 83.3964 169.615 83.3921 169.607 83.3878C169.476 83.3157 169.366 83.2059 169.296 83.0645C169.117 82.8971 168.927 82.7383 168.728 82.589C167.692 81.812 166.482 81.3514 165.269 81.3362C164.099 81.3214 162.926 81.7219 162.024 82.5675C160.232 84.2482 159.707 86.9918 159.689 89.3475C159.67 91.7522 160.223 94.6381 162.309 96.1311C163.146 96.73 164.168 97.0898 165.197 97.1002C166.05 97.1088 166.867 96.8053 167.671 96.5162C167.919 96.4271 168.165 96.3384 168.412 96.2578C168.691 96.1664 168.946 96.1722 169.168 96.2391C169.419 96.3145 169.631 96.4701 169.79 96.6778C169.948 96.8846 170.052 97.1435 170.084 97.4147C170.115 97.6772 170.079 97.9499 169.968 98.1956C169.941 98.2575 169.911 98.3176 169.881 98.3763L170.34 99.1345C172.096 102.03 173.884 104.873 176.227 107.362C177.572 108.791 178.998 110.139 180.562 111.319L180.788 111.488C180.923 111.587 181.073 111.71 181.232 111.842C181.689 112.217 182.235 112.72 182.746 112.74C182.897 112.746 183.03 112.726 183.15 112.711C183.441 112.672 183.684 112.661 183.924 112.759C184.117 112.838 184.317 112.986 184.522 113.291C184.661 113.497 184.733 113.756 184.733 114.018C184.733 114.282 184.66 114.546 184.532 114.754C184.266 115.186 183.945 115.454 183.596 115.605C183.207 115.775 182.777 115.8 182.331 115.717C181.23 115.51 180.012 114.594 179.237 113.996L179.087 113.881C177.369 112.564 175.741 111.106 174.31 109.477C171.873 106.701 169.684 103.431 168.56 99.8575C167.768 100.381 166.789 100.629 165.765 100.668C164.274 100.725 162.695 100.34 161.532 99.7851C158.969 98.5632 157.412 96.2522 156.683 93.5945C155.835 90.5082 156.111 86.9599 157.183 84.1875C157.214 84.1069 157.247 84.0266 157.28 83.945C153.978 75.5349 152.963 66.1959 153.245 57.2207C153.378 53.0196 153.662 48.6119 154.648 44.5146C155.09 42.6782 155.858 40.9293 157.084 39.4835C157.783 38.6591 158.641 38.0173 159.502 37.3772C160.248 36.8228 160.998 36.2696 161.628 35.5774L161.926 35.2488C161.991 35.1773 162.055 35.1059 162.119 35.0346C163.208 33.8287 164.267 32.6585 165.588 31.6695C167.12 30.5228 168.811 29.6252 170.567 28.8798C174.351 27.2745 178.424 26.312 182.453 25.5673C191.169 23.9566 200.116 23.8771 208.726 26.1412C212.729 27.1938 216.613 28.6345 220.492 30.0735C220.852 30.2071 221.212 30.3407 221.572 30.474C224.586 31.5894 227.601 32.7001 230.616 33.8109C232.018 34.3271 233.419 34.8433 234.82 35.36C235.124 35.4721 235.422 35.7137 235.592 36.0138C235.757 36.3067 235.806 36.6482 235.673 36.9882C234.813 39.1781 233.728 41.2325 232.407 43.1511C232.866 43.4649 233.257 43.8821 233.552 44.3705C233.926 44.9882 234.147 45.7195 234.162 46.4953C234.213 49.0935 231.86 50.8548 229.909 52.1287C229.727 52.2475 229.547 52.3177 229.373 52.3498C231.264 59.6175 233.074 66.9097 234.612 74.2597L234.718 74.7692C236.302 82.4614 237.324 90.3114 235.826 98.1058C234.536 104.818 231.538 111.295 226.855 116.295C222.265 121.196 216.106 124.281 209.442 124.968ZM168.434 80.7181C167.619 78.1168 167.187 75.2864 167.499 72.6495C167.695 70.9919 168.191 69.3962 168.998 67.9352C169.46 67.0985 170.024 66.3239 170.639 65.5943L170.851 65.3492C170.958 65.2241 171.065 65.1091 171.098 64.9649C171.118 64.8811 171.098 64.7894 171.047 64.6799C170.935 64.4374 170.726 64.2037 170.531 63.9756C170.407 63.8306 170.286 63.6883 170.184 63.5499C168.397 61.1179 167.064 58.2226 167.497 55.1386C167.92 52.1297 169.881 49.3251 171.97 47.2114C176.568 42.5572 183.698 41.4877 189.943 41.7444C193.579 41.8937 197.209 42.5378 200.671 43.663C202.379 44.2179 204.048 44.8938 205.67 45.6684L206.029 45.8417C206.223 45.9361 206.417 46.0316 206.611 46.1271C207.879 46.7522 209.152 47.3833 210.528 47.7232C213.216 48.3867 215.04 46.9892 216.956 45.5798C217.613 45.0968 218.28 44.6071 218.989 44.1773L219.135 44.0906C220.414 43.3454 221.943 42.844 223.413 42.8664C224.689 42.886 225.92 43.2956 226.923 44.2637C227.129 44.4626 227.247 44.6796 227.303 44.8956C227.414 45.0519 227.503 45.2383 227.561 45.4585C227.921 46.813 228.278 48.1686 228.634 49.5245L228.926 49.3358C229.789 48.7722 230.727 48.1283 231.151 47.1855C231.314 46.8227 231.291 46.2182 231.085 45.7737C231.014 45.6184 230.919 45.4804 230.787 45.3942C230.692 45.3315 230.577 45.302 230.443 45.3129C230.118 45.355 229.819 45.3071 229.566 45.1996C229.274 45.0755 229.041 44.8713 228.89 44.6253C228.735 44.3734 228.664 44.0772 228.702 43.77C228.735 43.5059 228.848 43.2301 229.071 42.971C230.544 41.265 231.784 39.3831 232.726 37.3405L226.493 35.0222C224.27 34.196 222.047 33.3709 219.823 32.5489L218.606 32.0992C214.562 30.6081 210.494 29.151 206.289 28.191C197.931 26.2834 189.215 26.7318 180.88 28.5274L180.377 28.6368C176.879 29.4034 173.335 30.331 170.124 31.9433C168.549 32.7346 167.051 33.6969 165.765 34.9127C165.196 35.4495 164.683 36.0374 164.169 36.6244C163.449 37.4471 162.728 38.2676 161.872 38.9606L161.078 39.6002C159.896 40.5577 158.829 41.4906 158.162 42.9755C157.465 44.5279 157.132 46.243 156.86 47.9139C156.175 52.1233 155.905 56.4002 155.931 60.6639C155.974 67.8232 157.056 74.8365 158.423 81.8252C159.52 80.2475 161.061 79.0243 163.038 78.7635C164.327 78.5935 165.605 78.8351 166.714 79.4081C167.354 79.7393 167.938 80.1811 168.434 80.7181ZM166.363 89.2192C164.919 88.6568 163.403 88.4727 161.875 88.7416C161.715 88.7696 161.562 88.7361 161.434 88.6612C161.304 88.5852 161.202 88.4651 161.146 88.3324C161.082 88.179 161.078 88.013 161.135 87.8656C161.184 87.7377 161.278 87.6135 161.451 87.5305C163.105 86.737 164.944 86.3868 166.769 86.636L166.949 86.6617C167.882 86.8008 169.194 87.0935 170.178 87.6697C170.951 88.1224 171.516 88.7465 171.657 89.5617C171.731 89.9865 171.626 90.4299 171.382 90.7514C171.147 91.0622 170.787 91.2694 170.32 91.2561C169.499 91.2326 169.012 90.8834 168.426 90.4311C168.355 90.3763 168.282 90.32 168.207 90.263C167.641 89.8375 167.023 89.476 166.363 89.2192Z" fill="black"/>
<path fill-rule="evenodd" clip-rule="evenodd" d="M212.744 108.011C214.381 107.782 216.141 106.852 217.705 107.608C218.435 107.961 218.782 109.169 218.288 109.841C217.533 110.866 216.754 111.036 215.529 111.134C214.611 111.208 213.688 111.214 212.772 111.107L212.539 111.079C210.904 110.867 209.205 110.41 207.939 109.308C207.68 109.082 207.813 108.595 208.145 108.525C209.649 108.207 211.222 108.223 212.744 108.011ZM210.818 104.23C210.817 104.217 210.837 104.217 210.838 104.23C210.877 105.168 211.14 106.038 211.626 106.841C211.633 106.853 211.615 106.863 211.609 106.851C211.123 106.048 210.857 105.169 210.818 104.23ZM215.978 84.8626C217.613 85.8596 220.105 88.1846 218.345 90.6564C216.275 92.8359 213.293 90.3369 211.824 89.2068C210.462 88.3309 208.931 90.5836 210.195 91.6063C220.811 99.4904 225.12 85.1233 216.805 83.6903C215.889 83.5324 215.549 84.5541 215.978 84.8626ZM224.347 73.7046C224.731 73.7046 225.098 73.8353 225.433 74.0772C225.762 74.3153 226.06 74.6628 226.308 75.0962C226.778 75.9164 227.072 77.0488 227.072 78.301C227.072 79.5531 226.778 80.6855 226.308 81.5057C226.06 81.9391 225.762 82.2866 225.433 82.5247C225.098 82.7666 224.731 82.8974 224.347 82.8974C223.963 82.8974 223.596 82.7666 223.261 82.5247C222.932 82.2866 222.634 81.9391 222.386 81.5057C221.916 80.6855 221.623 79.5531 221.623 78.301C221.623 77.0488 221.916 75.9164 222.386 75.0962C222.634 74.6628 222.932 74.3153 223.261 74.0772C223.596 73.8353 223.963 73.7046 224.347 73.7046ZM206.565 74.9818L206.709 74.9543C207.553 74.8004 207.979 74.8522 208.713 75.4288C209.265 75.8622 209.107 76.7156 208.713 77.1714C208.027 77.9655 207.357 77.8249 206.417 77.8552L206.351 77.8576C205.568 77.8895 204.784 77.9119 204 77.9238C203.785 77.9273 203.571 77.9264 203.356 77.9277C203.379 79.9177 202.235 81.4328 200.729 82.5847C199.755 83.3296 198.524 82.4703 198.177 81.5432C197.889 80.7759 197.827 79.8326 197.976 78.9926C198.032 78.6829 198.147 78.3468 198.323 78.0602L198.372 77.9833L198.364 77.8734C198.362 77.8463 198.364 77.82 198.363 77.7928C196.965 77.7076 195.575 77.5669 194.185 77.3902L193.721 77.3299C192.535 77.1725 190.793 77.1218 189.833 76.3479C189.803 76.3231 189.814 76.269 189.846 76.2519C190.373 75.9668 190.909 75.9829 191.499 75.9566L191.584 75.9525C192.226 75.9193 192.866 75.8916 193.507 75.8695L194.149 75.8494C195.791 75.8022 197.435 75.7223 199.075 75.6348C199.36 75.6195 199.645 75.6015 199.931 75.5839C200.23 75.4584 200.547 75.3832 200.861 75.3693C201.121 75.3576 201.37 75.3936 201.605 75.4686C202.205 75.4221 202.803 75.3716 203.402 75.3172L204 75.2616C204.844 75.181 205.731 75.1458 206.565 74.9818ZM216.93 60.0673C218.735 59.1778 220.929 59.1561 222.787 59.8922L222.91 59.9423C224.787 60.7236 227.049 62.5283 226.559 64.7762C226.111 66.8338 222.894 66.4851 222.731 64.5403C221.692 63.0967 219.363 62.78 217.898 63.698C217.01 64.2549 216.401 65.1927 215.984 66.1384C215.629 66.9439 215.562 67.9385 215.017 68.6402C214.999 68.663 214.963 68.6671 214.938 68.661C213.311 68.2835 213.273 65.6905 213.551 64.4328C213.954 62.6043 215.247 60.8975 216.93 60.0673Z" fill="black"/>
</g>
<defs>
<clipPath id="clip0">
<rect width="359" height="280" fill="white"/>
</clipPath>
</defs>
</svg>
