<svg width="359" height="280" viewBox="0 0 359 280" fill="none" xmlns="http://www.w3.org/2000/svg">
<g clip-path="url(#clip0)">
<path d="M246.02 71.883C204.456 36.4662 95.5887 40.8237 49.7463 52.1812C4.58306 67.9427 18.4376 103.267 4.58306 151.849C-12.7352 212.577 20.8826 210.491 74.1955 252.676C127.442 294.808 214.898 277.752 302.736 260.621L303.068 260.556C391.017 243.404 326.159 212.345 337.704 162.279C349.25 112.214 297.974 116.154 246.02 71.883Z" fill="#FAD551"/>
<path fill-rule="evenodd" clip-rule="evenodd" d="M247.18 175.386C246.516 173.563 247.485 171.744 248.023 169.981C249.933 163.864 244.709 148.436 241.055 148.21C239.719 144.752 236.152 143.317 233.345 141.326C230.16 139.337 227.062 137.052 223.749 135.309C223.565 133.661 221.568 133.253 220.347 134.431C216.993 132.344 212.971 132.732 209.376 131.365C206.644 126.947 206.439 122.302 205.716 118.041C205.4 116.183 205.735 114.391 204.466 112.735C200.204 106.738 183.363 104.137 177.153 107.691C173.811 105.606 173.73 109.383 173.2 111.714C172.609 112.88 172.29 114.201 172.389 115.592C170.806 118.899 169.465 123.034 166.139 125.504C161.92 128.637 155.428 129.828 151.314 131.365C150.391 130.476 150.109 129.192 150.109 129.192C143.733 130.579 137.545 133.016 132.202 136.822C126.133 138.598 121.859 143.536 118.768 148.831C118.427 149.389 118.347 149.958 118.447 150.481C108.942 164.419 104.405 181.105 103.768 197.957C97.6561 201.627 106.673 234.593 108.773 241.437C108.775 241.436 108.777 241.435 108.779 241.434C110.141 243.846 111.687 250.729 115.095 250.196C117.433 252.841 121.159 252.321 124.331 252.524C123.815 254.507 124.069 256.776 124.684 258.735C125.411 261.068 128.981 261.147 129.487 258.604C161.081 264.744 193.497 259.845 225.446 260.766C234.684 260.832 243.92 261.118 253.136 261.776C254.433 261.869 255.749 260.542 255.66 259.25C253.679 238.163 251.819 210.423 249.603 189.543C249.078 184.781 248.662 179.967 247.18 175.386Z" fill="#D08B5B"/>
<path fill-rule="evenodd" clip-rule="evenodd" d="M150.142 129.332C150.13 129.286 150.119 129.239 150.109 129.192C143.733 130.579 137.545 133.016 132.203 136.822C126.133 138.598 121.859 143.536 118.768 148.831L118.727 148.901C118.421 149.437 118.351 149.98 118.447 150.481C108.942 164.419 104.406 181.105 103.769 197.957C97.6564 201.627 106.674 234.593 108.773 241.437L108.779 241.434C109.119 242.035 109.469 242.914 109.858 243.886C111.027 246.816 112.537 250.596 115.095 250.196C116.996 252.346 119.814 252.405 122.506 252.46C123.126 252.473 123.738 252.486 124.332 252.524C123.815 254.507 124.069 258.044 124.684 260.003C125.411 262.336 226.326 264.236 253.136 261.776C254.431 261.657 255.749 260.542 255.661 259.25C254.829 250.394 254.018 240.365 253.193 230.163C252.054 216.073 250.888 201.654 249.603 189.543C249.553 189.087 249.504 188.631 249.454 188.175C248.989 183.862 248.52 179.528 247.18 175.386C246.65 173.93 247.161 172.477 247.663 171.053C247.789 170.693 247.915 170.336 248.023 169.981C249.933 163.864 245.067 148.473 241.578 148.244L241.055 148.21C240.029 145.554 237.686 144.091 235.383 142.653C234.757 142.262 234.134 141.873 233.54 141.462L233.346 141.326C232.26 140.648 231.184 139.935 230.106 139.222C228.023 137.842 225.933 136.458 223.749 135.309C223.565 133.661 221.568 133.253 220.347 134.431C219.813 134.099 219.263 133.83 218.7 133.606L218.477 136.674C214.669 150.87 204.075 158.769 186.695 160.371C160.625 162.773 148.873 136.635 148.873 133.993C148.873 132.835 149.256 131.372 150.021 129.606L150.142 129.332ZM187.449 191.461L185.135 192.957C185.135 192.957 185.135 197.644 185.67 202.816C186.206 207.987 190.388 213.761 190.388 213.761C190.388 213.761 202.713 210.373 205.128 209.916C206.938 209.573 208.466 207.258 209.596 205.546C209.973 204.975 210.305 204.471 210.589 204.13C211.299 203.278 213.266 202.9 215.451 202.479C216.761 202.226 218.149 201.959 219.392 201.566C222.708 200.516 224.005 196.201 224.005 196.201C224.005 196.201 231.253 194.636 233.588 194.113C235.922 193.591 233.588 191.461 233.588 191.461L215.492 190.828C215.492 190.828 226.326 188.511 228.646 188.192C230.967 187.873 237.2 185.937 237.2 184.437C237.2 182.99 227.999 182.993 222.888 182.995C222.703 182.995 222.522 182.995 222.348 182.995C217.377 182.995 206.362 183.93 206.362 183.93L210.589 181.904C210.589 181.904 224.894 179.133 226.801 179.133C228.709 179.133 229.504 176.278 229.504 176.278C229.504 176.278 228.684 174.375 227.319 173.317C225.955 172.258 215.235 174.375 207.444 176.278C199.654 178.181 196.591 181.423 196.591 181.423L187.449 191.461Z" fill="#92D2FA"/>
<path fill-rule="evenodd" clip-rule="evenodd" d="M215.612 173.668L224.898 152.626C224.898 152.626 226.301 149.05 228.684 149.05C231.066 149.05 252.671 149.727 252.671 149.727C252.671 149.727 257.092 150.291 255.665 152.626C254.237 154.96 233.008 198.395 233.008 198.395H224.005V196.201L234.029 193.397C234.029 193.397 235.853 191.461 233.008 191.461C230.164 191.461 213.615 190.827 213.615 190.827L229.395 188.511L237.2 185.508L236.052 183.929L229.395 182.978L207.714 183.929L213.615 181.933L226.801 179.133C226.801 179.133 229.395 177.306 229.395 175.515C229.395 173.723 222.447 173.034 222.447 173.034L215.612 173.668Z" fill="white"/>
<path fill-rule="evenodd" clip-rule="evenodd" d="M173.721 108.993C173.811 108.746 174.181 108.778 174.188 109.056C174.333 114.985 172.858 122.23 168.115 126.235C165.681 128.291 162.462 129.232 159.506 130.313L159.173 130.436L153.951 132.382C152.566 132.898 151.072 133.692 149.848 132.963C150.838 135.419 151.669 137.943 152.875 140.309C154.376 143.256 156.19 145.952 158.411 148.404C167.21 158.117 181.134 161.08 193.63 158.234C200.065 156.768 206.326 153.991 210.716 148.925C214.052 145.074 215.969 139.905 216.421 134.807C216.289 134.829 216.15 134.828 216.008 134.796C214.427 134.451 212.831 133.604 211.44 132.772L211.306 132.692C209.967 131.886 208.572 130.962 207.611 129.709C206.657 128.466 205.656 124.408 205.656 124.408C205.383 122.883 205.127 119.846 205.171 118.304C205.175 118.159 205.82 118.073 205.889 118.224C206.485 119.533 206.678 122.408 207.138 123.77L207.231 124.042C207.722 125.464 208.143 127.195 209.162 128.345C211.074 130.504 213.959 131.418 216.534 132.501C216.719 130.061 220.615 130.118 220.565 132.662C220.563 132.8 220.556 132.938 220.552 133.075C220.859 133.244 221.154 133.438 221.43 133.624L221.7 133.807C222.72 134.501 223.748 135.161 224.834 135.75C226.937 136.89 229.163 137.794 231.317 138.829C233.497 139.876 235.535 141.124 237.439 142.617C238.333 143.318 239.19 144.065 240.003 144.858L240.224 145.076C240.997 145.847 242.004 146.709 242.445 147.722C242.542 147.946 243.029 148.465 243.293 148.482C247.387 148.751 251.472 149.13 255.54 149.698C256.593 149.846 257.009 150.389 256.62 151.267C255.282 154.284 250.045 166.336 248.652 169.57C248.815 171.946 248.595 174.743 248.742 177.12C248.956 180.588 249.237 184.055 249.574 187.514C250.778 199.886 252.603 212.197 254.253 224.515C255.079 230.679 255.831 236.853 256.574 243.028C256.95 246.149 257.268 249.273 257.513 252.406C257.615 253.712 257.708 255.019 257.789 256.326L257.86 257.486C257.957 258.945 258.18 260.339 257.277 261.591C256.868 262.159 255.934 262.479 255.395 261.834C254.719 261.022 254.468 260.416 254.403 259.35C254.354 258.535 254.342 257.715 254.304 256.898C254.224 255.128 254.123 253.359 254.005 251.59C253.769 248.055 253.5 244.521 253.188 240.992C252.094 228.616 250.015 216.334 248.632 203.99C247.935 197.766 247.44 191.531 247.177 185.273C247.046 182.148 246.999 179.024 247.029 175.896C247.041 174.727 247.096 173.565 247.177 172.404C245.104 177.113 242.926 181.777 240.649 186.379L240.109 187.469C238.665 190.377 237.183 193.297 235.449 196.039L235.151 196.506C234.448 197.62 233.488 199.376 232.206 199.727C231.314 199.972 230.223 199.8 229.308 199.782C228.399 199.765 227.49 199.761 226.583 199.724C225.564 199.683 224.593 199.55 223.609 199.284C223.446 199.24 223.291 199.192 223.15 199.132C222.159 200.754 220.475 201.99 218.753 202.71C217.373 203.287 215.928 203.683 214.48 204.049L213.968 204.177C212.416 204.564 210.64 204.748 209.765 206.247L209.561 206.595C208.91 207.701 208.286 208.673 207.208 209.466C206.049 210.32 204.675 210.857 203.306 211.275C201.905 211.703 200.471 212.031 199.048 212.381L198.66 212.478C197.721 212.713 196.773 212.929 195.84 213.185C195.441 213.294 195.036 213.406 194.645 213.541C194.187 213.698 193.855 213.943 193.494 214.211C193.169 215.345 191.782 215.961 190.642 215.882C190.043 215.84 189.506 215.637 189.017 215.339C188.164 216.065 187.224 216.716 186.354 217.39C185.136 218.332 183.914 219.268 182.684 220.196C180.149 222.107 177.594 223.994 175.013 225.843C170.432 229.125 165.751 232.257 160.991 235.273C159.006 236.53 157.008 237.786 154.99 239.011L155.205 239.091L155.633 239.253C156.642 239.63 157.767 240.239 157.963 241.417C158.118 242.352 157.596 242.996 156.674 243.11C155.577 243.246 154.724 242.471 154.042 241.731C153.74 241.405 153.403 241.102 153.115 240.766C152.997 240.629 152.907 240.471 152.827 240.305C150.836 241.479 148.823 242.613 146.779 243.674L146.267 243.938C141.197 246.531 136.263 249.373 131.15 251.892C129.816 252.55 128.19 253.261 126.495 253.746C126.945 255.49 126.938 257.405 126.949 259.175C126.96 260.9 124.219 260.892 124.277 259.175L124.305 258.346C124.355 256.952 124.437 255.505 124.767 254.148C119.773 254.977 114.784 253.176 113.855 252.635C112.83 252.039 111.899 251.084 111.125 250.199C109.467 248.304 108.317 246.032 107.297 243.747C105.111 238.853 103.563 233.621 102.43 228.39C98.2563 209.101 100.052 188.455 106.83 169.965C108.524 165.345 110.523 160.827 112.814 156.473L113.099 155.935C115.385 151.628 117.926 147.339 121.154 143.674C124.516 139.857 128.664 136.889 133.179 134.585C135.383 133.46 137.651 132.486 139.968 131.622C140.34 131.483 140.715 131.359 141.091 131.24C143.506 129.7 146.437 128.227 149.369 128.284C149.569 128.288 149.73 128.364 149.85 128.478C149.992 128.502 150.133 128.532 150.275 128.574C150.587 128.664 150.917 129.007 150.872 129.359L150.857 129.476C150.849 129.533 150.838 129.588 150.821 129.642C150.925 129.658 151.028 129.683 151.129 129.717C153.934 128.925 156.695 127.713 159.432 126.735L160.056 126.515C162.349 125.711 164.701 124.923 166.582 123.332C168.453 121.75 169.86 119.7 170.877 117.484C172.13 114.753 172.692 111.796 173.721 108.993ZM229.888 252.99C230.444 252.577 231.1 253.057 231.308 253.568C231.991 255.247 231.654 257.857 230.692 259.341C229.695 260.88 227.309 260.272 227.251 258.409C227.191 256.466 228.32 254.158 229.888 252.99ZM235.626 206.623C235.675 206.404 236.014 206.406 236.065 206.623C236.527 208.593 236.517 210.715 236.652 212.735L236.668 212.959C236.831 215.187 236.968 217.421 237.066 219.653C237.257 224.043 237.486 228.434 237.743 232.822C237.87 234.997 238.007 237.173 238.152 239.348C238.608 239.093 239.078 238.87 239.565 238.673C240.294 238.378 241.004 238.345 241.788 238.353C242.742 238.362 243.46 239.202 243.334 240.137C243.196 241.156 242.3 241.592 241.369 241.447C240.338 241.285 239.303 241.035 238.262 240.932C238.378 242.613 238.498 244.294 238.624 245.974C238.793 248.199 239.012 250.42 239.167 252.646C239.181 252.858 239.197 253.071 239.214 253.284C239.834 252.961 240.493 252.796 241.24 252.592L241.435 252.538C242.519 252.226 243.68 251.795 244.684 252.525C245.358 253.015 245.493 253.823 244.934 254.47C244.087 255.451 242.833 255.261 241.662 255.211L241.032 255.188C240.438 255.164 239.891 255.126 239.342 254.977C239.443 256.426 239.496 257.881 239.318 259.31C239.222 260.082 238.206 260.285 237.937 259.497C237.235 257.438 237.089 255.219 236.832 253.063C236.592 251.049 236.446 249.021 236.289 246.998L236.241 246.392C235.888 241.942 235.605 237.49 235.398 233.031C235.191 228.573 235.067 224.115 235.018 219.653C234.995 217.626 235.029 215.593 235.108 213.567L235.133 212.959C235.225 210.875 235.161 208.664 235.626 206.623ZM142.79 253.319C142.817 253.034 143.045 252.68 143.384 252.724C143.696 252.765 144.018 252.745 144.327 252.797C144.735 252.865 145.064 253.106 145.443 253.258C146.06 253.504 146.732 253.632 147.365 253.834C148.552 254.212 149.199 255.463 148.707 256.63C148.19 257.857 146.891 258.136 145.769 257.621C144.884 257.215 144.224 256.566 143.629 255.815L143.461 255.601C143.204 255.279 142.913 254.919 142.806 254.528C142.701 254.147 142.753 253.706 142.79 253.319ZM200.465 247.549C201.944 247.341 203.207 247.846 204.575 248.323L204.686 248.361C206.079 248.842 208.11 249.175 208.824 250.601C209.255 251.461 208.92 252.602 207.907 252.857C206.302 253.259 204.863 252.086 203.536 251.296L203.467 251.255C202.186 250.505 200.864 249.874 200.046 248.579C199.828 248.234 200.017 247.612 200.465 247.549ZM148.849 129.913C148.256 130.045 147.664 130.163 147.072 130.276C144.821 131.483 142.636 132.735 140.312 133.81C137.846 134.952 135.389 136.13 133.047 137.51C128.315 140.299 124.414 143.925 121.19 148.37C115.622 156.047 111.48 164.901 108.516 173.884C107.754 176.192 107.073 178.526 106.47 180.879C107.536 179.893 108.798 179.287 110.213 178.767C110.813 178.547 111.56 178.92 111.864 179.439C112 179.673 112.077 179.903 112.063 180.177C112.032 180.781 111.639 181.467 110.99 181.587C109.478 181.866 108.008 182.409 106.55 182.886C106.329 182.959 106.139 182.931 105.987 182.846C104.54 188.979 103.634 195.238 103.314 201.536C103.042 206.867 103.21 212.24 103.8 217.563C104.254 217.359 104.697 217.168 105.195 217.052C105.84 216.902 106.474 216.72 107.103 216.513C108.919 215.918 109.747 218.916 107.891 219.373C107.201 219.543 106.506 219.684 105.802 219.788C105.189 219.878 104.646 219.838 104.068 219.744C104.51 223.065 105.113 226.362 105.882 229.613L106.051 230.324C107.05 234.476 108.213 238.666 109.896 242.589C110.721 244.513 111.814 246.341 113.164 247.946C113.827 248.735 114.562 249.411 115.365 250.052C116.033 250.585 118.304 251.743 120.993 251.743C123.682 251.743 124.41 251.488 125.767 251.021C128.451 250.097 130.998 248.622 133.515 247.308L133.775 247.173C134.888 246.597 135.996 246.013 137.102 245.423C136.962 244.296 137.207 243.348 137.794 242.307C138.429 241.18 140.002 241.741 140.119 242.894L140.122 242.938C140.14 243.198 140.184 243.462 140.238 243.726C147.63 239.675 154.866 235.341 161.987 230.824C166.574 227.914 171.112 224.917 175.584 221.833C177.819 220.291 180.035 218.722 182.229 217.121C183.378 216.283 184.522 215.438 185.661 214.586C186.135 214.231 186.601 213.858 187.076 213.501C186.96 213.356 186.848 213.212 186.739 213.069C184.964 210.744 183.812 207.973 183.238 205.114C182.892 203.389 182.724 201.598 182.673 199.839L182.651 199.075C182.616 197.786 182.607 196.437 182.844 195.189C182.521 195.367 182.191 195.541 181.862 195.727C180.682 196.396 179.5 197.064 178.317 197.728C175.948 199.057 173.571 200.372 171.164 201.633C166.865 203.886 162.524 206.029 158.066 207.95L155.897 208.886C152.131 210.506 148.336 212.097 144.421 213.301C142.213 213.98 138.903 214.821 136.663 215.339C136.663 215.339 139.362 217.883 137.409 218.758C135.455 219.633 133.837 216.276 133.773 215.972C132.741 216.188 129.795 216.71 129.795 216.71C126.995 217.251 124.28 218.321 121.778 219.691C120.908 220.167 120.665 219.242 121.587 218.597C124.282 216.712 127.426 215.646 130.67 214.751L130.829 214.707C132.02 214.381 133.207 214.041 134.393 213.689C134.263 213.217 134.187 212.728 134.202 212.188C134.236 210.985 134.342 209.779 134.406 208.577C134.54 206.055 134.711 203.542 134.911 201.025C134.988 200.055 135.074 199.082 135.173 198.111C134.537 197.77 133.989 197.317 133.28 197.095L133.16 197.06C132.402 196.855 132.658 195.878 133.332 195.795C133.941 195.719 134.548 195.754 135.15 195.883C135.243 195.903 135.331 195.926 135.415 195.951C135.526 195.052 135.648 194.154 135.787 193.261C136.156 190.903 136.416 188.419 137.182 186.153C137.239 185.985 137.488 185.925 137.581 186.101C138.696 188.223 138.735 190.826 138.86 193.189L138.876 193.471C139.024 196.049 139.032 198.653 138.985 201.234C138.936 203.895 138.845 206.548 138.725 209.207C138.677 210.277 138.679 211.387 138.497 212.411C145.132 210.253 151.651 207.67 157.898 204.612C162.306 202.454 166.675 200.211 170.994 197.883C173.158 196.716 175.333 195.569 177.495 194.398C178.252 193.988 179.009 193.576 179.766 193.164L180.9 192.545C181.962 191.965 182.848 191.389 184.085 191.348C184.454 191.336 184.784 191.509 185.019 191.77C185.684 191.299 186.452 191.009 187.258 191.016C188.472 189.339 189.704 187.676 190.985 186.049L191.931 184.844C193.57 182.766 195.305 180.656 197.394 179.075C198.326 178.369 199.352 177.839 200.421 177.402C200.169 177.34 199.923 177.217 199.704 177.013C198.682 176.066 198.541 174.306 198.334 172.983C198.119 171.612 198.202 170.385 198.414 169.019C198.497 168.488 199.376 168.377 199.591 168.865C200.043 169.893 200.522 170.879 200.934 171.919L201.055 172.233C201.497 173.404 202.438 174.636 202.376 175.906C202.359 176.254 202.242 176.557 202.062 176.801C202.96 176.503 203.871 176.237 204.767 175.96C207.589 175.087 210.422 174.24 213.298 173.563C214.064 173.383 214.833 173.216 215.606 173.062C216.01 171.14 216.6 169.253 217.296 167.4C216.637 167.062 216.211 166.497 215.644 165.993C215.113 165.522 214.749 164.948 214.296 164.407C213.884 163.915 214.115 163.026 214.856 163.054L215.066 163.063C215.833 163.099 216.576 163.178 217.272 163.536L217.52 163.664C217.86 163.841 218.232 164.043 218.564 164.282C218.997 163.285 219.447 162.297 219.903 161.319L220.494 160.055C222.026 156.764 223.554 153.347 225.478 150.283C226.333 148.92 227.471 148.07 229.104 147.938C230.787 147.802 232.535 147.977 234.22 148.038C236.173 148.108 238.125 148.191 240.076 148.293C239.575 147.769 239.119 147.186 238.617 146.683C237.783 145.849 236.903 145.059 235.977 144.328C234.144 142.882 232.13 141.691 230.037 140.665C227.944 139.639 225.79 138.744 223.825 137.477C222.582 136.674 221.47 135.665 220.456 134.573C219.818 141.461 216.493 147.86 211.499 152.668C206.311 157.661 199.142 160.404 192.128 161.571C184.975 162.761 177.509 162.325 170.666 159.837C167.137 158.555 163.753 156.722 160.735 154.424C160.702 154.624 160.662 154.821 160.584 155.007C160.479 155.257 160.35 155.469 160.202 155.689L159.939 156.073C159.773 156.315 159.604 156.555 159.416 156.78C158.96 157.323 158.313 157.561 157.617 157.558C156.284 157.554 155.275 156.247 155.634 154.954C155.859 154.141 156.342 153.652 157.094 153.334C157.332 153.233 157.575 153.149 157.819 153.066L158.002 153.004C158.249 152.919 158.493 152.839 158.747 152.792C157.318 151.53 155.992 150.158 154.805 148.678C151.081 144.034 147.408 137.531 148.653 131.364C148.674 131.258 148.769 131.191 148.872 131.174C148.944 130.741 149.175 130.323 149.49 130.041C149.278 129.985 149.064 129.942 148.849 129.913ZM187.519 236.538C188.256 236.128 189.018 237.103 188.419 237.705L187.524 238.6C186.693 239.435 185.885 240.279 185.174 241.231L185.002 241.463C184.042 242.769 183.019 244.282 181.447 244.771C179.545 245.361 177.717 243.043 178.819 241.35C179.781 239.871 181.633 239.313 183.23 238.701C184.741 238.123 186.106 237.323 187.519 236.538ZM126.166 229.711C126.6 229.143 127.729 229.442 127.433 230.245C126.472 232.853 126.08 236.409 123.652 238.141C122.868 238.7 121.638 238.443 120.993 237.798C120.26 237.065 120.23 236.032 120.65 235.138C121.161 234.047 122.418 233.255 123.3 232.424L123.379 232.349C124.327 231.427 125.352 230.777 126.166 229.711ZM227.656 232.712C228.43 232.378 230.446 231.73 231.043 232.497C231.071 232.526 231.095 232.556 231.114 232.59C231.26 232.845 231.282 233.204 231.114 233.457C230.418 234.503 229.693 235.284 228.703 236.029L228.592 236.112C227.515 236.904 226.502 237.835 225.19 238.192C223.37 238.688 222.099 236.409 223.377 235.078C224.407 234.006 225.978 233.449 227.343 232.851L227.656 232.712ZM154.582 217.812C154.278 217.262 154.9 216.586 155.463 216.931C157.07 217.913 158.942 218.65 160.746 219.179C161.477 219.394 162.136 220.134 162.081 220.933L162.073 221.054C162.051 221.337 162.012 221.617 161.833 221.852C161.204 222.674 160.305 222.991 159.345 222.504C157.205 221.419 155.74 219.905 154.582 217.812ZM201.543 216.145C201.503 215.914 201.673 215.735 201.908 215.78C203.266 216.037 204.52 216.693 205.686 217.447C206.311 217.852 206.914 218.296 207.538 218.705C208.309 219.209 208.597 219.625 208.711 220.551C208.786 221.162 208.216 221.72 207.693 221.889C206.268 222.348 204.635 220.84 203.67 219.86L203.626 219.815C202.616 218.785 201.782 217.566 201.543 216.145ZM242.324 214.544C242.015 213.708 243.081 213.015 243.779 213.425C244.436 213.812 245.148 214.133 245.768 214.576C246.337 214.983 246.857 215.465 247.403 215.907L247.673 216.121C248.674 216.926 250.327 218.918 248.895 220.073C247.532 221.173 245.725 219.768 244.811 218.741L244.747 218.669C244.221 218.061 243.572 217.4 243.19 216.69C242.831 216.021 242.587 215.254 242.324 214.544ZM228.885 149.819C227.178 150.15 226.482 152.258 225.764 153.631C224.067 156.874 222.507 160.175 220.941 163.481C220.458 164.498 219.989 165.522 219.515 166.545C219.486 166.625 219.449 166.704 219.405 166.782C218.434 168.873 217.434 170.95 216.266 172.935C217.335 172.734 218.41 172.564 219.489 172.429C219.435 171.413 220.13 170.053 220.474 169.197L220.503 169.125C220.932 168.029 221.382 166.302 222.486 165.733C222.854 165.543 223.248 165.781 223.276 166.186C223.36 167.393 222.18 168.774 221.603 169.798C221.254 170.418 220.915 171.04 220.583 171.669C220.459 171.905 220.355 172.136 220.228 172.344C220.784 172.284 221.341 172.23 221.9 172.191L222.264 172.166C224.335 172.029 226.534 171.99 228.405 173.012C230.141 173.959 231.029 175.982 230.075 177.824C228.887 180.119 226.271 180.423 223.97 180.609C221.096 180.841 218.216 181.259 215.363 181.668C212.411 182.09 209.632 183.178 206.725 183.738C206.454 183.79 206.286 183.436 206.534 183.285C208.827 181.889 211.615 181.12 214.179 180.337L214.387 180.274C215.778 179.846 217.137 179.358 218.576 179.116C219.972 178.88 221.378 178.69 222.786 178.545L222.923 178.532C224.474 178.402 228.431 178.447 228.264 176.149C228.153 174.629 225.683 174.366 224.555 174.348C219.384 174.265 214.177 175.638 209.263 177.109L208.166 177.438C206.154 178.044 204.139 178.667 202.164 179.377C199.927 180.181 198.164 181.436 196.535 183.152C194.728 185.056 192.978 187.003 191.104 188.842C189.922 190.002 188.725 191.141 187.519 192.27C187.246 192.623 187.028 193.007 186.877 193.505C186.622 194.347 186.681 195.129 186.777 195.994C187.02 198.177 187.074 200.382 187.378 202.559C187.66 204.575 188.055 206.665 188.892 208.535C189.223 209.276 189.654 210.003 190.146 210.654L190.542 211.169C190.715 211.393 190.908 211.638 191.111 211.869C191.409 211.505 191.84 211.269 192.341 211.328C193.405 211.453 194.242 211.423 195.286 211.178C196.095 210.989 196.897 210.768 197.701 210.562C199.282 210.159 200.876 209.792 202.44 209.329L202.709 209.248C203.875 208.89 205.041 208.442 206.011 207.69C207.138 206.815 207.485 205.553 208.32 204.462C210.102 202.132 213.955 202.18 216.563 201.542C218.78 201 220.913 200.144 222.447 198.535L222.536 198.439C222.468 198.152 222.578 197.828 222.845 197.679L222.903 197.647C223.007 197.589 223.119 197.565 223.229 197.567C223.371 197.358 223.509 197.142 223.634 196.912C223.736 196.722 223.993 196.862 223.959 197.049C223.939 197.161 223.911 197.27 223.885 197.379C225.371 196.997 227.003 197.07 228.511 197.071L230.469 197.064C230.808 197.06 231.313 197.043 231.358 197.023L231.404 197.002C231.526 196.949 231.353 197.037 231.438 196.923C231.532 196.799 231.624 196.672 231.715 196.545C232.04 196.091 232.347 195.623 232.647 195.15C229.369 195.986 225.972 196.506 222.625 196.939C219.033 197.405 215.394 197.728 211.771 197.731C210.772 197.732 210.781 196.224 211.771 196.186C215.608 196.039 219.425 195.836 223.236 195.344C225.207 195.09 227.17 194.77 229.121 194.397C229.875 194.253 230.626 194.1 231.376 193.938L231.938 193.815C232.291 193.737 233.287 193.625 233.773 193.299C233.869 193.135 233.964 192.971 234.059 192.807C234.012 192.231 232.549 192.308 232.206 192.307C231.233 192.305 230.26 192.313 229.286 192.316C227.34 192.321 225.395 192.305 223.448 192.289C219.56 192.257 215.657 192.122 211.772 192.288C210.829 192.328 210.334 190.815 211.266 190.417C215.381 188.659 219.949 188.277 224.343 187.737C226.654 187.453 228.966 187.125 231.224 186.55L231.783 186.408C233.202 186.044 234.769 185.6 235.964 184.733C234.168 184.006 231.935 184.09 230.074 183.987L229.931 183.978C227.324 183.818 224.713 183.736 222.101 183.732C216.757 183.725 211.412 183.914 206.074 184.168C205.94 184.174 205.912 183.963 206.043 183.934C211.529 182.737 217.105 182.16 222.72 182.071C225.334 182.03 227.951 182.067 230.563 182.182L231.522 182.227C233.749 182.323 236.221 182.349 238.085 183.694C238.369 183.899 238.519 184.161 238.542 184.438C241.042 179.454 243.35 174.365 245.668 169.311C247.47 165.38 249.205 161.417 251.072 157.518L251.677 156.256C252.487 154.573 253.316 152.889 254.237 151.267C250.793 150.806 247.33 150.486 243.865 150.242C240.707 150.018 230.405 149.524 228.885 149.819ZM227.36 203.839C227.752 203.621 228.354 203.798 228.451 204.283C228.523 204.644 228.646 205.044 228.646 205.413C228.646 205.855 228.488 206.336 228.404 206.768C228.21 207.763 227.971 208.571 227.466 209.457C227.15 210.011 226.511 210.388 225.869 210.373C225.361 210.361 224.91 210.225 224.562 209.831C224.144 209.36 223.857 208.666 224.086 208.031C224.686 206.368 225.79 204.711 227.36 203.839ZM144.058 202.179C144.977 200.569 147.155 199.13 149.056 199.272C151.91 199.486 152.493 203.331 149.729 204.249C148.077 204.797 145.805 204.234 144.36 203.331C143.97 203.088 143.827 202.583 144.058 202.179ZM114.721 196.678C114.513 196.375 114.858 196.028 115.169 196.096C115.859 196.248 116.602 196.314 117.278 196.52C117.97 196.73 118.639 197.079 119.325 197.32C120.761 197.823 122.294 198.075 123.684 198.683C124.239 198.925 124.676 199.73 124.625 200.323L124.612 200.462C124.581 200.757 124.53 201.013 124.365 201.282C123.923 202.005 123.047 202.378 122.22 202.156C120.686 201.744 119.187 200.685 117.879 199.805L117.637 199.644C117.066 199.267 116.451 198.874 115.991 198.389C115.51 197.883 115.115 197.251 114.721 196.678ZM167.453 190.822C167.276 190.186 168.068 189.765 168.529 190.195C169.45 191.054 170.414 191.85 171.316 192.731L171.377 192.791C172.023 193.441 172.964 194.693 172.123 195.534C171.046 196.611 169.546 195.012 168.968 194.179C168.236 193.122 167.796 192.058 167.453 190.822ZM237.976 185.562C236.609 187.011 234.502 187.676 232.648 188.228C230.449 188.882 228.183 189.273 225.915 189.594C223.724 189.904 221.549 190.182 219.393 190.538C221.024 190.558 222.655 190.57 224.283 190.599C226.16 190.633 228.036 190.674 229.912 190.728C231.279 190.768 232.883 190.581 234.181 191.089C234.415 191.18 234.634 191.307 234.825 191.461C235.917 189.519 236.963 187.55 237.976 185.562ZM153.65 172.016C155.077 171.562 156.418 170.961 157.931 171.117C158.333 171.158 158.621 171.55 158.402 171.936C157.685 173.198 156.519 173.911 155.372 174.755L155.27 174.83C154.014 175.764 152.666 176.616 151.3 177.383C148.948 178.703 146.841 174.925 149.216 173.816C150.645 173.149 152.146 172.494 153.65 172.016ZM179.34 168.735C181.523 168.879 183.705 168.977 185.89 169.065C188.422 169.168 187.571 173.065 185.456 172.276C183.367 171.497 181.277 170.727 179.169 170C178.527 169.779 178.579 168.725 179.299 168.734L179.34 168.735ZM123.348 161.802C123.914 161.762 124.485 161.885 125.051 161.94L125.654 161.999C126.897 162.123 128.063 162.275 129.248 162.781C131.435 163.715 130.26 167.232 128.065 167.151C126.442 167.092 125.054 166.394 123.684 165.583C122.486 164.873 121.752 163.986 120.943 162.872C120.675 162.503 121.048 162.089 121.413 162.052C122.056 161.986 122.706 161.847 123.348 161.802ZM232.979 154.619C232.617 156.878 231.718 158.996 230.365 160.839C229.685 161.765 228.49 161.8 227.816 160.839C226.862 159.479 227.45 157.921 228.169 156.614L228.382 156.232C228.703 155.658 229.197 154.822 229.762 154.244L229.771 154.185C230.074 151.82 233.352 152.292 232.979 154.619ZM144.683 140.121C145.227 139.631 146.229 139.778 146.406 140.576C146.653 141.694 146.804 142.953 146.642 144.087C146.554 144.702 146.521 145.393 146.28 145.966C146.02 146.582 145.52 147.055 145.049 147.519C144.109 148.444 142.127 148.138 141.875 146.681L141.843 146.502C141.716 145.812 141.554 145.075 141.742 144.392C141.884 143.876 142.2 143.35 142.462 142.872L142.517 142.77C143.041 141.793 143.859 140.863 144.683 140.121ZM221.181 142.499L221.378 142.501C222.897 142.531 225.674 142.901 225.689 144.778C225.693 145.221 225.365 145.68 224.926 145.782C224.018 145.992 223.431 145.455 222.784 144.913C222.255 144.47 221.638 144.116 220.997 143.861C220.305 143.585 220.35 142.497 221.181 142.499Z" fill="black"/>
<path fill-rule="evenodd" clip-rule="evenodd" d="M222.623 59.4506C226.444 56.9934 231.659 50.7237 228.695 45.9694C227.492 44.1101 225.85 43.4112 224.049 43.3552C223.619 42.815 222.906 42.6567 222.24 42.6529L222.243 42.6243C219.809 42.6691 217.416 43.524 215.458 44.9515C214.196 43.8396 212.628 43.2072 211.109 42.5235C211.746 39.312 212.718 36.1794 213.822 33.1009C214.417 31.3283 212.531 29.461 210.752 29.9966C211.189 28.075 210.184 25.8431 207.993 25.8678C206.822 25.8678 205.497 26.4972 204.364 26.7809C203.525 26.991 202.699 27.2065 201.89 27.4807C201.886 27.4587 201.884 27.4365 201.881 27.4141C204.003 25.9249 203.929 22.4964 200.811 22.8288C199.481 22.9466 198.129 23.8541 196.899 24.4083C194.872 24.5306 192.924 25.1765 190.954 25.64C185.561 26.981 179.792 28.3286 175.349 31.7313C167.654 34.7042 158.084 39.3 157.131 48.3845C143.578 43.1278 133.34 59.9136 145.63 66.519C148.042 67.6461 150.83 68.2296 153.468 67.6875C152.845 69.9988 152.249 72.318 151.692 74.6464C146.998 85.4572 143.203 96.8822 144.568 108.748C144.588 110.9 147.346 112.142 148.87 110.534C150.131 109.009 151.661 110.792 151.25 112.264C150.86 113.9 152.009 115.402 153.68 115.462C155.68 115.567 157.268 114.223 158.683 112.981C158.656 113.008 158.72 112.967 158.814 112.904C162.306 121.16 165.578 114.74 169.881 118.455C170.887 119.386 171.592 120.489 172.881 121.095C175.902 122.63 178.288 119.894 181.174 119.578C183.842 119.381 186.48 120.307 189.038 120.93C192.026 121.658 195.038 122.039 198.107 121.697C202.031 121.261 209.86 119.483 212.177 118.02C215.016 119.93 217.937 117.664 219.498 115.056C220.589 116.109 222.654 116.27 223.531 114.646C224.404 112.834 226.034 110.066 227.909 110.476C228.077 110.527 228.175 110.559 228.277 110.634C230.029 112.127 232.292 110.994 232.548 108.823C234.21 94.7581 230.821 80.6488 226.315 67.4128C225.331 64.6449 224.515 61.7678 222.623 59.4506Z" fill="#D08B5B"/>
<path fill-rule="evenodd" clip-rule="evenodd" d="M221.073 59.0616C221.002 58.8668 221.3 58.7548 221.398 58.9243C224.618 64.4739 227.193 70.3689 229.394 76.3907C231.343 81.7209 233.071 87.1541 234.302 92.6987L234.386 93.0803C235.544 98.4309 236.115 104.091 234.596 109.429L234.523 109.683C234.173 110.87 233.711 112.076 232.631 112.781C231.723 113.374 230.696 113.448 229.652 113.283C228.771 113.144 227.933 112.76 227.05 112.653C226.385 112.573 226.212 112.893 226.018 113.432L225.857 113.888C225.165 115.821 224.321 117.62 222.066 118.028C220.851 118.247 219.532 118.019 218.479 117.38C218.467 117.421 218.455 117.461 218.445 117.501L218.395 117.691C218.175 118.518 217.892 119.358 217.308 120C216.494 120.897 215.325 121.215 214.148 120.977C213.613 120.869 213.11 120.625 212.602 120.422C212.478 121.172 211.619 121.783 210.833 121.598C210.408 121.499 210.08 121.304 209.836 121.055C208.622 121.994 206.984 122.474 205.566 122.838C203.512 123.365 201.326 123.581 199.208 123.518C197.058 123.454 194.871 123.039 192.848 122.308L192.532 122.193C190.788 121.548 188.951 120.731 187.538 119.525C187.257 119.386 187.421 118.875 187.756 118.984C189.676 119.606 191.467 120.337 193.482 120.636C195.383 120.919 197.292 120.965 199.208 120.849C201.15 120.731 203.035 120.334 204.889 119.746C206.502 119.235 208.091 118.312 209.804 118.191C209.894 118.067 209.991 117.947 210.103 117.838C211.584 116.395 213.086 117.117 214.753 117.642C214.808 117.66 214.823 117.689 214.824 117.718L214.844 117.689V117.689L214.857 117.671L214.847 117.683C214.778 117.762 214.917 117.47 214.942 117.41L214.944 117.404C215.136 116.88 215.21 116.316 215.372 115.783C215.759 114.509 216.482 113.344 217.866 113.039C218.55 112.889 219.481 113.118 219.798 113.827C220.058 114.41 220.485 114.706 221.142 114.69C221.827 114.675 222.08 114.274 222.319 113.67C222.707 112.687 222.917 111.664 223.555 110.797C224.273 109.822 225.346 109.253 226.558 109.206C227.492 109.17 228.407 109.444 229.296 109.696L229.378 109.721C229.783 109.849 230.508 110.136 230.825 109.924C231.3 109.606 231.545 107.754 231.683 107.061L231.692 107.017C231.936 105.836 232.078 104.647 232.136 103.442C232.377 98.4043 231.341 93.3925 230.195 88.5165C227.832 78.4608 224.597 68.7603 221.073 59.0616ZM153.735 71.3565C153.799 71.2605 153.939 71.3436 153.889 71.4465C153.657 71.9244 153.573 72.4263 153.416 72.9241C153.243 73.4751 152.949 74.0093 152.731 74.5441C152.378 75.41 152.035 76.2809 151.69 77.1502C150.996 78.8981 150.351 80.6724 149.74 82.4511C148.512 86.0244 147.509 89.6979 146.775 93.405C146.054 97.0472 145.45 100.855 145.473 104.578C145.483 106.272 145.668 108.015 146.338 109.587C146.443 109.834 146.567 110.076 146.697 110.31L146.777 110.451C146.788 110.47 146.8 110.49 146.811 110.509L146.884 110.626C147.096 110.315 147.705 109.903 147.957 109.685L147.992 109.653L149.173 108.558C149.687 108.081 150.429 107.966 151.051 108.315C152.941 109.375 152.88 111.344 153.284 113.203L153.302 113.283C153.478 114.064 153.782 114.713 154.716 114.56C155.689 114.4 156.252 113.408 156.569 112.555L156.61 112.442C157.172 110.854 159.193 110.917 159.774 112.442L159.992 113.019C160.443 114.203 161.058 115.631 162.222 116.1C163.201 116.494 164.322 115.904 165.213 115.539C165.702 115.338 166.274 115.757 166.404 116.217C166.44 116.342 166.463 116.462 166.482 116.58C167.413 116.489 168.304 116.712 169.219 117.136C170.417 117.69 171.924 118.886 172.149 120.273C172.416 121.912 170.522 122.686 169.544 121.374C168.929 120.547 168.706 119.543 167.97 118.758C167.538 118.297 167.001 117.896 166.437 117.556C165.933 119.342 163.104 119.857 161.417 119.328C159.798 118.821 158.725 117.624 157.923 116.225C156.425 117.694 154.345 118.405 152.262 117.124C151.055 116.382 150.493 115.084 150.275 113.736C150.209 113.331 150.205 112.665 150.089 112.08L149.977 112.195C148.959 113.227 147.776 114.197 146.442 113.974C144.694 113.682 143.864 111.731 143.319 110.246C142.185 107.158 142.394 103.724 142.778 100.517C143.199 97.007 143.903 93.5299 144.835 90.1206C145.743 86.795 146.92 83.5677 148.304 80.412C149.01 78.8038 149.824 77.2352 150.698 75.7126C151.138 74.9484 151.616 74.2051 152.097 73.4664C152.593 72.7038 153.238 72.1032 153.735 71.3565ZM143.261 49.6262C145.829 47.2377 149.261 46.1489 152.723 46.64C154.357 46.8715 155.913 47.4637 157.292 48.3773C158.691 49.3041 159.598 50.4513 160.435 51.8862C160.494 51.9862 160.361 52.081 160.28 52.006C158.048 49.9441 154.668 48.8436 151.664 48.9598C146.31 49.1667 141.872 53.9149 142.205 59.3266C142.369 61.9917 143.863 64.6834 146.174 66.0549C148.622 67.5084 151.41 67.0258 154.034 66.3859C154.981 66.1549 155.459 67.2224 154.918 67.9093C152.257 71.2943 146.784 70.4091 143.712 68.0809C137.775 63.5823 137.978 54.5416 143.261 49.6262ZM151.882 54.956L152.11 54.9168C154.025 54.5998 158.103 54.234 158.702 56.577C159.008 57.7703 157.826 58.4128 156.791 58.36C155.938 58.3164 155.111 58.0487 154.269 57.8669C154.027 58.7049 153.945 59.5801 153.827 60.4428C153.724 61.1982 152.512 60.9932 152.526 60.2666C152.547 59.2561 153.015 58.397 153.752 57.7699C153.58 57.7433 153.407 57.7209 153.232 57.709C151.139 57.5681 149.07 57.9578 147.114 58.6776L147.321 58.7941V58.7941C147.419 58.8283 147.377 58.9604 147.278 58.9469L146.306 58.9959V58.9959C145.898 59.0915 145.658 58.6252 145.915 58.3226C147.422 56.5428 149.597 55.3645 151.882 54.956ZM221.719 42.4128C224.644 42.0615 227.549 43.1419 229.119 45.7213C230.575 48.114 230.702 51.1432 229.669 53.7145C229.082 55.1754 228.195 56.4855 227.097 57.612C226.555 58.1689 225.933 58.7436 225.245 59.112C224.444 59.541 223.848 59.5036 223.003 59.3462C222.459 59.2447 222.083 58.5445 222.257 58.0299L222.387 57.6397C222.528 57.2206 222.66 56.9101 223.047 56.5149C223.385 56.1702 223.789 55.891 224.161 55.5837C224.959 54.9224 225.701 54.1844 226.256 53.3024C227.27 51.6896 227.622 49.8358 227.049 47.9964C226.434 46.0212 224.807 44.7419 222.768 44.5035C221.611 44.3684 220.436 44.4906 219.294 44.6931L218.598 44.8192C217.627 44.9994 216.835 45.2088 216.165 46.1017C216.108 46.1767 215.999 46.17 215.966 46.0757C215.63 45.1058 216.656 44.2403 217.382 43.7817C218.644 42.986 220.254 42.5888 221.719 42.4128ZM208.974 41.2318C208.831 41.049 208.954 40.6783 209.233 40.7848C212.491 42.0248 215.234 45.044 217.112 47.8963C217.681 48.7593 218.19 49.6554 218.651 50.5767C219.307 49.7766 220.289 49.1977 221.207 48.8042L221.308 48.7612C222.367 48.3203 224.657 47.5658 225.305 48.9785C225.514 49.4331 225.43 49.8995 225.065 50.2518C224.499 50.7963 223.597 50.59 222.891 50.5837C221.466 50.5714 220.335 51.0229 219.074 51.4612C219.303 51.9629 219.52 52.4708 219.722 52.9857C219.998 53.6859 220.201 54.4237 220.535 55.099C220.853 55.7408 221.351 56.3142 221.776 56.8834C222.351 57.6514 221.583 58.9495 220.647 58.8574C218.709 58.6663 217.937 57.0609 217.403 55.3593L217.112 54.4287C216.676 53.0386 216.227 51.6761 215.573 50.3537C214.731 48.6536 213.726 46.9928 212.57 45.4878C211.437 44.0122 210.116 42.6948 208.974 41.2318ZM203.93 21.1953C205.133 20.7456 206.146 22.2946 205.546 23.3033C205.019 24.1893 204.706 25.1043 204.583 26.0642L209.891 24.7965V24.7965C210.946 24.5446 211.944 25.4794 211.652 26.563L210.833 29.6075V29.6075C211.892 29.2526 212.999 29.0423 214.137 28.9682C215.112 28.9048 215.65 29.9137 215.49 30.749C215.155 32.4892 214.69 34.1975 214.07 35.8568L213.618 37.0512C213.085 38.4419 212.464 39.8453 211.18 40.6288C210.56 41.0073 209.755 40.5178 209.752 39.8079C209.745 38.089 210.803 36.6203 211.392 35.0354C211.749 34.0733 212.052 33.0946 212.309 32.1033C211.313 32.3857 210.375 32.8336 209.49 33.4242L209.358 33.5139C208.311 34.2332 206.996 33.0643 207.257 31.9424L207.266 31.9023L208.267 28.1428L203.509 29.2936V29.2936C202.529 29.531 201.776 28.8441 201.683 27.8989C201.584 26.8942 201.648 25.8943 201.856 24.9259C198.712 25.9184 195.503 26.6907 192.285 27.4121L191.802 27.52C184.738 29.0924 177.521 30.4808 171.041 33.8463C168.179 35.3323 165.555 37.0916 163.168 39.2675C161.988 40.3426 160.91 41.5257 159.965 42.8135C159.522 43.4177 159.108 44.0429 158.728 44.6889L158.424 45.2147C158.278 45.4686 158.136 45.73 158.049 46.0034L158.006 46.1403C157.936 46.3715 157.86 46.6754 157.924 46.8782C158.016 47.1703 158.544 47.6505 158.916 47.519C158.967 47.501 158.993 47.5674 158.964 47.6019C158.636 47.9983 158.173 48.0698 157.703 47.8705C156.958 47.5549 156.773 46.8347 156.855 46.0831C157.059 44.223 158.35 42.1718 159.371 40.6535C163.574 34.4003 170.492 30.6585 177.469 28.3142C186.144 25.3993 195.34 24.404 203.93 21.1953Z" fill="black"/>
<path fill-rule="evenodd" clip-rule="evenodd" d="M198.18 107.49C198.18 107.49 201.173 109.801 206.755 109.801C212.338 109.801 215.58 107.733 215.58 107.733C215.58 107.733 210.687 104.76 206.755 104.519C202.824 104.278 198.18 107.49 198.18 107.49Z" fill="#FF6C6C"/>
<path fill-rule="evenodd" clip-rule="evenodd" d="M191.525 101.612C191.547 99.2838 193.564 98.8822 195.48 99.1927C198.724 99.7177 201.98 100.087 205.268 100.154L205.835 100.164C205.926 100.03 206.079 99.9295 206.286 99.9073C208.108 99.7103 209.97 99.7422 211.803 99.6881C213.401 99.6412 215.044 99.4812 216.643 99.6067L216.77 99.6179C218.723 99.8072 220.785 100.805 220.549 103.098C220.332 105.222 218.303 107.102 216.682 108.282C216.354 108.519 216.019 108.741 215.675 108.943C215.566 109.081 215.409 109.177 215.226 109.197C213.63 110.059 211.869 110.569 210.047 110.739C206.182 111.099 201.689 110.709 197.978 109.034C196.771 108.489 195.645 107.809 194.65 106.974C193.116 105.685 191.507 103.731 191.525 101.612ZM206.963 105.807C205.413 105.76 203.867 105.977 202.391 106.455C201.391 106.778 200.48 107.399 199.522 107.83C202.751 109.062 206.502 109.331 209.815 109.107C211.268 109.008 212.677 108.673 213.99 108.096C213.785 107.949 213.578 107.798 213.361 107.667C212.707 107.271 212.022 106.933 211.307 106.665C209.916 106.142 208.448 105.854 206.963 105.807ZM207.27 85.8663C206.852 85.5662 207.184 84.572 208.077 84.7257C216.189 86.1199 211.986 100.099 201.629 92.4278C200.396 91.4327 201.889 89.2408 203.218 90.0931L203.69 90.457C205.224 91.6334 207.762 93.412 209.58 91.5035C211.296 89.0985 208.866 86.8364 207.27 85.8663ZM212.762 75.2865C214.487 73.8146 216.65 74.8994 217.919 76.3901L218.143 76.6567C218.397 76.9608 218.678 77.3151 218.847 77.6938C220.254 76.4954 222.162 75.6522 223.987 76.1996C225.758 76.7324 226.767 78.4232 226.463 80.2385C226.118 82.3028 224.557 83.6902 222.879 84.7631L222.404 85.0654C220.388 86.351 218.501 87.6462 216.842 89.4134C216.571 89.7006 215.986 89.6626 215.809 89.2802L215.666 88.9725L215.522 88.665C214.345 86.1544 213.084 83.6602 212.048 81.0904C211.281 79.1859 211.032 76.7617 212.762 75.2865ZM193.368 76.3159C194.631 74.8449 196.772 73.86 198.46 75.2866C200.257 76.8062 199.905 79.3192 199.104 81.2573C198.14 83.5948 197.014 85.8808 195.932 88.1736L195.7 88.6651C195.603 88.8701 195.508 89.0751 195.413 89.2801C195.236 89.6627 194.649 89.7007 194.38 89.4133C192.772 87.7013 190.954 86.4346 189.011 85.1897L188.425 84.8164C186.719 83.7343 185.107 82.3373 184.757 80.2386C184.457 78.4273 185.46 76.7259 187.233 76.1994C189.062 75.6565 190.966 76.4934 192.375 77.6939C192.543 77.3055 192.832 76.9398 193.105 76.6198L193.368 76.3159ZM195.417 66.0666C196.034 66.868 195.375 68.1778 194.474 68.3849C193.358 68.6417 192.231 68.4855 191.135 68.804C190.131 69.0959 189.17 69.6807 188.309 70.2636C187.328 70.9281 186.424 71.6699 185.593 72.5151C185.1 73.0179 184.477 74.2091 183.715 74.2313C182.958 74.2535 183.975 71.884 184.059 71.679C184.656 70.2196 185.495 68.8767 186.544 67.7003C188.615 65.3791 193 62.9297 195.417 66.0666ZM218.541 65.4251L219.058 65.5688C220.337 65.9245 221.702 66.3616 222.8 67.1286L222.886 67.1896L223.019 67.2868C224.396 68.3142 226.345 70.3643 225.369 72.1528C225.302 72.276 225.159 72.2882 225.044 72.2379C223.746 71.6692 222.783 70.5334 221.403 70.0583L221.148 69.9715C219.811 69.521 218.157 69.0472 216.718 69.0903C215.706 69.4194 214.339 69.1468 214.076 67.9145L214.064 67.8541L214.041 67.7265C213.889 66.8844 214.115 65.811 214.985 65.4052C216.177 64.8493 217.341 65.0966 218.541 65.4251Z" fill="black"/>
<path fill-rule="evenodd" clip-rule="evenodd" d="M218.218 95.651C216.825 95.3892 215.385 95.4627 214.001 95.1579C212.651 94.8604 211.579 93.9754 210.275 93.5635C209.127 93.2008 207.782 93.4464 206.888 94.1494C206.057 93.7654 205.114 93.6823 204.169 93.8091C202.736 94.0014 201.399 94.608 200.123 95.264C199.975 95.3401 199.827 95.4126 199.679 95.486C197.321 95.427 194.903 95.4316 192.589 95.9372C190.54 96.385 188.603 97.4274 187.381 99.1685C186.013 101.117 185.767 103.599 185.556 105.902C185.422 107.364 187.451 107.66 188.139 106.602C188.852 105.504 189.594 104.405 190.544 103.495C191.623 102.462 192.936 102.056 194.407 101.962C197.653 101.754 200.922 101.928 204.172 101.784C206.056 101.701 208.153 100.976 208.912 99.3374C209.723 100.608 211.559 101.363 213.069 101.478C214.666 101.599 216.286 101.309 217.866 101.642C219.376 101.959 221.171 103.084 220.835 104.883C220.638 105.94 221.973 106.563 222.588 105.623C225.097 101.78 222.624 96.4797 218.218 95.651" fill="black"/>
</g>
<defs>
<clipPath id="clip0">
<rect width="359" height="280" fill="white"/>
</clipPath>
</defs>
</svg>
