<svg width="359" height="280" viewBox="0 0 359 280" fill="none" xmlns="http://www.w3.org/2000/svg">
<g clip-path="url(#clip0)">
<path d="M104.988 255.708C162.477 269.738 276.547 269.12 303.306 255.708C322.648 246.013 315.664 239.55 341.452 209.389C370.124 175.857 358.887 104.401 328.021 90.8987C268.921 65.0462 202.497 19.1017 104.988 35.4237C7.47949 51.7456 21.6821 108.965 8.88177 156.607C-3.91858 204.249 25.5372 236.318 104.988 255.708Z" fill="#87CEFA" fill-opacity="0.9"/>
<rect width="51.404" height="63.2798" transform="matrix(-1 0 0 1 183.521 177.996)" fill="#87CEFA"/>
<path fill-rule="evenodd" clip-rule="evenodd" d="M198.514 116.102C192.973 111.884 179.062 109.987 173.148 114.048C167.307 118.126 166.67 124.722 163.948 130.789C161.38 129.578 157.139 131.312 156.394 133.694C155.471 134.818 155.429 137.975 154.793 139.485C127.083 143.894 122.877 165.49 119.541 190.007C115.129 214.886 105.113 239.71 109.461 265.31C108.895 266.13 108.448 266.927 108.035 267.873C107.045 269.556 108.32 271.939 110.316 271.847C112.9 271.62 115.458 271.31 118.054 271.213C125.251 270.964 132.454 270.993 139.653 271.085L140.635 271.098C176.917 271.549 213.197 272.439 249.481 272.675C250.797 272.677 251.441 271.497 251.266 270.332C250.912 267.989 250.583 265.644 250.24 263.299C258.823 265.565 267.946 266.135 276.504 263.537C277.102 262.927 275.109 263.258 274.793 263.165C282.668 257.785 280.316 246.452 279.619 238.289C275.281 210.317 273.751 179.369 256.99 155.501C249.739 145.76 239.108 138.048 226.893 136.313L226.554 136.266C222.982 135.79 219.001 135.637 215.878 133.694C212.366 130.891 210.869 125.712 207.174 125.664C205.954 125.648 204.294 127.191 202.508 128.238C202.375 125.934 201.132 123.989 200.858 122.202L200.836 122.049C200.549 119.966 200.941 118.091 198.514 116.102ZM138.965 190.746C146.752 185.338 166.867 188.055 167.328 188.358C168.342 189.025 168.778 189.084 169.327 189.949C169.868 190.021 170.409 190.096 170.95 190.173C172.034 190.527 171.23 191.86 169.978 191.384C170.731 194.632 168.514 196.942 167.631 200.153C167.345 201.196 167.621 203.071 167.631 204.136C167.546 205.494 166.044 207.099 166.294 208.461C167.184 213.306 172.014 218.032 169.978 222.73C168.629 225.383 164.571 226.736 161.874 227.638C156.284 229.783 146.546 227.558 143.298 222.73C141.566 220.155 139.56 213.659 138.527 211.644L138.298 208.448C137.733 200.503 137.231 191.95 138.965 190.746Z" fill="white"/>
<path fill-rule="evenodd" clip-rule="evenodd" d="M207.462 125.678L205.234 127.045L192.291 133.441C189.782 134.143 188.527 134.985 188.527 135.966V145.956C188.527 147.293 186.173 150.323 181.464 155.046L177.113 150.71L177.21 150.142C177.624 147.696 177.831 146.06 177.831 145.234C177.831 144.345 173.575 140.971 165.062 135.112L161.338 131.607L161.735 130.4C159.439 130.508 156.948 131.922 156.394 133.695C155.471 134.818 155.429 137.975 154.793 139.485C127.083 143.894 122.877 165.49 119.541 190.007C115.129 214.886 105.113 239.71 109.461 265.311C108.895 266.13 108.448 266.927 108.035 267.873C107.045 269.556 108.32 271.939 110.316 271.847C112.9 271.62 115.458 271.31 118.054 271.214C125.251 270.964 132.454 270.993 139.653 271.085L140.635 271.098C176.917 271.549 213.197 272.439 249.481 272.675C250.797 272.677 251.441 271.497 251.266 270.333C250.912 267.989 250.583 265.644 250.24 263.299C258.823 265.565 267.946 266.135 276.504 263.537C277.102 262.927 275.109 263.258 274.793 263.165C282.668 257.785 280.316 246.452 279.619 238.289C275.281 210.317 273.751 179.369 256.99 155.501C249.739 145.76 239.108 138.048 226.893 136.313L226.554 136.266L226.212 136.222C222.73 135.779 218.902 135.575 215.878 133.695C212.459 130.965 210.95 125.984 207.462 125.678ZM176.45 184.314C177.719 184.314 180.319 186.285 184.249 190.226L184.596 190.386C189.347 192.592 192.494 194.506 194.038 196.127L194.093 196.186C195.652 197.858 198.741 202.306 203.358 209.528L210.044 213.481H212.574L214.375 226.542L210.044 235.867L200.234 232.564L184.249 228.352L175.077 219.05L169.903 217.313C170.531 219.126 170.758 220.93 169.978 222.73C168.629 225.383 164.571 226.736 161.874 227.639C156.285 229.783 146.546 227.558 143.299 222.73C141.567 220.155 139.56 213.659 138.527 211.644L138.231 207.492C137.697 199.83 137.301 191.902 138.965 190.746C146.752 185.338 166.867 188.055 167.328 188.358C168.342 189.025 168.779 189.084 169.327 189.95L169.611 189.988L168.014 187.823L168.58 187.522C172.613 185.383 175.236 184.314 176.45 184.314ZM169.978 191.384C170.699 194.494 168.698 196.744 167.751 199.747L170.17 195.119L170.17 191.444C170.107 191.429 170.043 191.409 169.978 191.384Z" fill="#FBE27C"/>
<path fill-rule="evenodd" clip-rule="evenodd" d="M208.531 125.195C207.993 124.719 207.198 125.317 207.539 125.96C208.307 127.405 209.095 128.774 210.125 130.051C210.75 130.826 211.419 131.558 212.097 132.283C210.357 133.788 208.864 135.656 207.455 137.407C205.652 139.647 203.948 141.982 201.925 144.031C199.93 146.052 197.724 147.465 195.056 148.407L194.517 148.594C191.838 149.535 188.973 150.805 187.463 153.341C187.165 153.841 187.765 154.459 188.269 154.147C190.894 152.523 193.978 152.196 196.835 151.122C199.595 150.086 202.001 148.49 204.126 146.453C206.248 144.419 208.03 142.106 209.889 139.841C211.727 137.602 213.706 135.689 215.88 133.795C219.235 136.051 223.064 137.033 226.958 137.997L227.383 138.102C231.282 139.067 235.16 140.188 238.817 141.868C242.042 143.349 245.214 145.118 247.84 147.529C250.629 150.087 252.799 153.354 254.785 156.549C259.229 163.697 262.352 171.529 265.102 179.455C267.963 187.7 270.355 196.11 272.286 204.62C273.269 208.949 274.066 213.308 274.722 217.698C275.038 219.812 275.318 221.931 275.564 224.054C275.827 226.322 275.888 228.655 276.583 230.835C276.882 231.769 277.586 232.157 278.291 232.124L278.434 233.914C278.624 236.302 278.801 238.689 278.861 241.091C278.96 245.085 278.915 249.067 278.628 253.053L278.587 253.596C278.361 256.505 277.857 259.773 275.669 261.903C273.403 264.109 269.919 264.802 266.865 264.842C259.752 264.935 252.905 261.575 246.611 258.628C240.128 255.592 233.823 252.223 227.669 248.569C224.535 246.708 221.435 244.785 218.374 242.806C216.872 241.835 215.381 240.847 213.901 239.843C213.053 239.268 212.25 238.638 211.386 238.128C211.809 237.734 211.998 237.115 211.644 236.575C214.139 234.41 215.177 230.547 215.299 227.42C215.397 224.897 215.025 222.381 214.732 219.881C214.584 218.621 214.402 217.363 214.212 216.108C214.137 215.612 214.08 215.082 213.992 214.559C220.729 218.26 227.655 221.556 234.764 224.484C238.408 225.985 242.099 227.334 245.841 228.571L246.599 228.82C250.145 229.98 253.775 231.076 257.44 231.74C257.636 231.775 257.795 231.486 257.586 231.394C254.014 229.818 250.318 228.489 246.693 227.038L246.097 226.796C246.166 226.792 246.237 226.782 246.311 226.765C248.437 226.252 250.546 225.461 252.632 224.796C254.567 224.178 256.742 223.79 258.551 222.857C258.69 222.786 258.612 222.592 258.476 222.583C256.443 222.442 254.236 223.034 252.242 223.383L251.493 223.514C250.239 223.735 248.956 223.973 247.708 224.283C247.663 223.865 247.429 223.445 247.097 223.199C243.439 220.491 243.81 215.021 243.419 210.987L243.129 207.993C242.618 202.752 242.078 197.512 241.258 192.31C241.214 192.032 240.785 192.112 240.783 192.374C240.741 198.822 241.227 205.24 241.471 211.678L241.509 212.734C241.644 216.707 241.75 220.832 244.253 223.888C243.903 223.684 243.43 223.684 243.146 224.021C242.798 224.436 242.597 224.901 242.603 225.358C240.341 224.41 238.09 223.437 235.849 222.445C228.645 219.254 221.592 215.684 214.726 211.821C213.987 211.405 213.284 211.732 212.919 212.28L212.866 212.272C212.857 212.271 212.848 212.27 212.839 212.27L212.787 212.268C212.785 212.268 212.783 212.268 212.781 212.268C211.815 211.737 210.498 212.115 209.668 212.89C209.644 212.913 209.623 212.938 209.601 212.963C208.551 212.492 207.571 211.855 206.681 211.049C204.86 209.399 203.318 207.359 201.973 205.314C199.497 201.546 197.394 197.356 194.049 194.255C191.331 191.735 187.962 190.167 184.427 189.182C184.442 189.078 184.402 188.969 184.331 188.895C184.149 188.709 184.02 188.645 183.785 188.758C183.767 188.767 183.755 188.78 183.748 188.793L183.403 188.204C183.214 187.884 183.021 187.562 182.954 187.478C182.553 186.973 182.14 186.471 181.72 185.98C181.01 185.15 180.199 184.33 179.261 183.753C177.207 182.492 175.048 183.206 172.937 183.895C171.661 184.312 170.389 184.742 169.115 185.165L168.984 185.208C168.034 185.513 166.923 185.78 166.498 186.786C166.33 187.184 166.304 187.597 166.383 187.998C157.362 185.704 147.344 186.758 138.542 189.45C138.204 189.553 137.866 189.831 137.795 190.196C136.787 195.366 136.337 200.668 136.794 205.927C137.188 210.466 138.194 214.914 140.089 219.07L140.197 219.304C141.979 223.156 144.803 227.903 149.116 229.11C151.72 229.839 154.6 229.409 157.256 229.276C159.837 229.146 162.476 229.127 165.032 228.721C167.309 228.36 169.304 227.34 170.712 225.489C171.926 223.892 172.565 221.962 173.089 220.043C173.328 220.119 173.567 220.2 173.801 220.292C174.79 220.678 175.628 221.301 176.386 222.035C177.986 223.584 179.228 225.466 180.902 226.944C182.418 228.282 184.145 229.323 185.997 230.123C189.836 231.781 193.954 232.444 198.015 233.323L198.298 233.384C201.355 234.055 204.475 234.878 207.173 236.469C207.226 236.937 207.439 237.378 207.781 237.667C207.306 238.113 207.104 238.821 207.522 239.485C208.69 241.338 210.702 242.392 212.509 243.577L212.626 243.655C214.403 244.833 216.196 245.987 218.003 247.118C221.676 249.417 225.426 251.589 229.229 253.666C235.347 257.007 241.595 260.158 247.956 263.016C247.575 264.894 247.714 266.831 247.427 268.721L247.383 268.991C247.261 269.692 247.426 270.279 247.91 270.738L247.961 270.785L247.96 270.778L248.005 270.82L248.02 270.833L248.015 270.829C248.071 270.88 248.129 270.927 248.187 270.968L248.262 271.016C248.727 271.299 249.327 271.295 249.804 271.046L249.858 271.016L249.95 270.963C250.579 270.601 251.014 269.704 250.753 268.991C250.11 267.239 249.868 265.369 249.275 263.605L249.745 263.815L250.365 264.086C257.072 266.985 264.522 269.426 271.829 267.45C275.058 266.576 278.076 264.728 279.691 261.717C281.281 258.753 281.506 255.312 281.59 252.016C281.694 247.948 281.476 243.817 280.939 239.783C280.579 237.076 280.144 234.317 279.471 231.638C279.817 231.333 280.071 230.895 280.138 230.354C280.456 227.794 279.9 225.134 279.561 222.588C279.229 220.102 278.862 217.621 278.447 215.148C277.609 210.153 276.636 205.168 275.503 200.232C273.487 191.447 270.825 182.818 267.619 174.395L267.339 173.661C264.377 165.962 260.947 158.428 256.171 151.664C253.887 148.428 251.472 145.495 248.244 143.163C245.22 140.978 241.809 139.405 238.289 138.203C234.765 137 231.143 136.193 227.457 135.692C223.713 135.182 219.762 134.87 216.27 133.335C216.712 132.544 216.332 131.475 215.589 130.984C213.087 129.331 210.773 127.182 208.531 125.195ZM128.438 197.052C128.334 196.893 128.085 196.993 128.131 197.181C129.347 202.165 130.49 207.159 131.236 212.238C132.582 221.404 132.335 230.69 132.225 239.925L132.219 240.402C132.162 245.376 132.084 250.351 131.919 255.323C131.836 257.835 131.672 260.373 131.761 262.887C131.81 264.251 132.174 265.541 132.302 266.889C132.415 268.067 132.315 269.263 132.258 270.443C132.221 271.228 133.379 271.194 133.458 270.443L133.559 269.472C133.689 268.242 133.851 267.02 134.254 265.844C134.739 264.428 134.971 263.039 135.14 261.553C135.397 259.276 135.512 256.976 135.611 254.683L135.679 253.097C136.094 243.514 136.079 233.886 135.408 224.314L135.358 223.63C134.693 214.581 133.539 204.805 128.438 197.052ZM154.377 140.022C154.695 139.892 154.583 139.411 154.231 139.495L153.591 139.647C148.901 140.771 144.296 141.987 139.918 144.077C135.538 146.168 131.829 149.29 128.882 153.128C123.154 160.589 120.773 169.657 118.894 178.717C116.805 188.783 114.904 198.887 112.797 208.95L112.406 210.825C110.457 220.198 108.616 229.576 107.26 239.06L107.163 239.748C105.795 249.501 104.973 259.591 106.465 269.369C106.76 271.303 109.98 270.822 109.854 268.91C109.491 263.385 109.23 257.889 109.482 252.351C109.734 246.812 110.253 241.298 111.028 235.807C111.68 231.187 112.652 226.624 113.512 222.04L113.647 221.317C114.367 217.418 115.109 213.523 115.85 209.628L116.957 203.797C118.616 195.065 120.307 186.325 122.219 177.648L122.332 177.138C124.203 168.789 126.96 160.045 132.571 153.416C138.265 146.688 146.415 143.3 154.377 140.022ZM175.066 228.569C174.929 228.264 174.45 228.297 174.302 228.569C173.726 229.633 173.661 230.991 173.552 232.192L173.541 232.316C173.402 233.782 173.279 235.253 173.204 236.724C173.062 239.515 172.993 242.303 173.002 245.098C173.011 247.962 173.069 250.823 173.223 253.683L173.265 254.449C173.406 256.934 173.643 259.706 174.824 261.879C175.253 262.669 176.421 262.437 176.67 261.638C177.485 259.023 177.066 255.921 176.857 253.243L176.695 251.152C176.534 249.062 176.381 246.97 176.26 244.877C176.093 242.014 175.956 239.148 175.824 236.283C175.781 235.353 175.734 234.422 175.685 233.491L175.61 232.096C175.545 230.929 175.551 229.648 175.066 228.569ZM266.684 232.275L266.323 231.927C265.216 230.844 263.816 229.175 262.179 229.279C261.526 229.32 261.111 229.862 261.246 230.504C261.535 231.876 262.935 232.589 263.944 233.426C265.048 234.344 266.089 235.325 267.128 236.315C268.049 237.193 268.936 238.096 269.801 239.027L270.124 239.378C270.434 239.716 272.642 241.713 272.404 242.231L272.391 242.254C272.324 242.353 272.435 242.49 272.545 242.455C273.499 242.154 273.439 241.337 273.079 240.509C272.386 238.918 271.173 237.447 270.114 236.089C269.057 234.734 267.914 233.472 266.684 232.275ZM171.61 192.388C172.348 190.646 175.064 190.683 176.606 190.787C180.49 191.049 184.691 192.031 188.147 193.846C191.729 195.727 194.142 198.741 196.301 202.074L196.402 202.23C198.507 205.5 200.533 209.372 203.828 211.62C205.507 212.766 207.467 213.811 209.503 214.264C209.643 214.51 209.869 214.705 210.166 214.775L210.305 214.807C210.885 214.935 211.786 215.077 212.564 214.992C212.559 215.373 212.563 215.75 212.553 216.111C212.526 217.144 212.514 218.182 212.514 219.216C212.514 221.383 212.63 223.553 212.54 225.72C212.459 227.636 212.189 229.638 211.268 231.351C210.593 232.607 209.702 233.439 208.627 234.233C205.981 232.621 202.99 231.639 199.954 230.9C196.282 230.007 192.522 229.41 188.934 228.199C187.207 227.616 185.546 226.853 184.042 225.816C182.445 224.716 181.226 223.226 179.971 221.77L179.775 221.544C178.494 220.075 177.097 218.671 175.287 217.875C173.728 217.189 171.674 217.067 170.311 216.006C169.599 215.451 169.539 214.645 169.464 213.82C170.337 213.945 171.261 213.745 172.131 213.643L172.581 213.59C173.404 213.493 174.208 213.385 175.017 213.176C175.168 213.137 175.168 212.91 175.017 212.872C174.06 212.625 173.112 212.519 172.131 212.404L171.9 212.376C171.013 212.259 170.08 212.084 169.209 212.279C169.053 211.685 168.827 211.118 168.511 210.549C168.067 209.751 167.226 208.846 167.112 207.914C167.078 207.635 167.143 207.307 167.275 207.061L167.32 206.977C167.375 206.878 167.44 206.778 167.536 206.716C167.547 206.729 167.569 206.743 167.618 206.758C168.288 206.969 168.872 206.641 169.183 206.136C170.5 206.299 171.937 206.244 173.172 206.299L174.421 206.359C175.755 206.42 177.15 206.447 178.404 206.178C178.579 206.14 178.632 205.849 178.456 205.774C176.915 205.115 175.045 204.905 173.395 204.652C172.473 204.51 171.545 204.402 170.62 204.278C170.005 204.195 169.352 204.058 168.714 204.025C167.115 202.035 167.977 198.896 170.202 198.039C171.012 198.395 171.741 198.188 172.627 198.112C173.511 198.036 174.397 197.985 175.284 197.989C177.063 197.997 178.948 198.464 180.709 198.263C180.995 198.23 181.261 197.849 180.977 197.616C179.628 196.517 177.696 196.158 175.985 195.924L175.63 195.876C175.057 195.801 174.359 195.691 173.635 195.626C173.472 195.307 173.178 195.066 172.737 195.006C172.606 194.988 172.474 194.977 172.342 194.966L172.345 194.953C171.269 194.902 171.316 193.085 171.61 192.388ZM245.253 226.368C245.272 226.397 245.293 226.425 245.315 226.452L245.349 226.491L245.172 226.419L245.253 226.368ZM152.84 188.495C157.367 188.009 161.901 188.111 166.442 188.242C166.806 189.43 168.07 190.442 169.295 190.48C168.335 191.939 168.236 193.915 168.909 195.463C167.481 196.032 166.25 197.053 165.503 198.507C164.467 200.522 164.603 202.765 165.627 204.628C164.753 205.419 164.237 206.703 164.289 207.914C164.347 209.263 165.151 210.416 165.82 211.534C166.543 212.743 166.567 213.807 166.789 215.16C167.114 217.141 168.45 218.343 170.17 219.093L170.078 219.452C169.635 221.178 169.083 222.998 167.816 224.259C166.186 225.882 163.657 225.867 161.504 225.97L161.4 225.975C159.428 226.074 157.456 226.189 155.485 226.301L154.006 226.384C151.736 226.508 149.557 226.523 147.703 225.023C144.678 222.575 142.604 218.522 141.292 214.935C138.536 207.405 138.504 199.142 139.768 191.299C144.01 189.933 148.41 188.971 152.84 188.495ZM190.492 200.988L190.459 200.99C189.527 201.097 188.886 201.851 188.658 202.746C188.327 204.047 188.49 205.224 187.693 206.398C186.873 207.606 186.368 208.573 186.249 210.065C186.2 210.679 186.223 211.291 186.086 211.892L185.987 212.313C185.882 212.762 185.795 213.194 185.848 213.676C185.896 214.116 186.11 214.458 186.551 214.599C187.988 215.059 189.098 214 189.469 212.661C189.79 211.505 189.362 210.127 189.814 209.04C190.065 208.438 190.527 207.935 190.789 207.329C191.047 206.728 191.177 206.1 191.219 205.447C191.298 204.212 190.205 202.728 190.815 201.609C190.945 201.371 190.797 200.981 190.492 200.988ZM209.584 188.243C208.611 188.045 207.507 187.592 206.547 187.968C206.054 188.162 205.81 188.764 206.227 189.182C206.95 189.907 208.002 189.947 208.977 190.118L209.063 190.134C210.215 190.347 211.37 190.549 212.526 190.741C214.702 191.101 216.882 191.419 219.07 191.69C221.318 191.968 223.572 192.215 225.828 192.402L226.702 192.473C228.608 192.626 230.592 192.741 232.463 192.449C232.734 192.406 232.691 192.011 232.463 191.941C230.413 191.321 228.166 191.155 226.047 190.893C223.795 190.613 221.546 190.318 219.303 189.968C217.064 189.619 214.828 189.244 212.6 188.829C211.593 188.642 210.588 188.446 209.584 188.243ZM174.465 186.252C175.319 185.949 176.258 185.502 177.184 185.651C178.78 185.91 180.2 187.464 181.464 188.488L180.829 188.365C177.584 187.741 173.285 187.069 170.561 189.132C170.554 189.12 170.548 189.108 170.541 189.097C170.321 188.763 170.066 188.502 169.788 188.217C169.761 188.191 169.735 188.166 169.71 188.139L169.56 187.98L169.903 187.861C170.638 187.601 171.509 187.266 171.647 187.217L171.656 187.213C172.594 186.896 173.532 186.582 174.465 186.252ZM201.132 118.243C201.266 116.526 198.592 116.54 198.46 118.243C198.171 121.961 199.008 125.644 200.809 128.904C200.823 128.928 200.837 128.949 200.851 128.971C199.724 129.557 198.585 130.12 197.42 130.622C195.929 131.266 194.411 131.851 192.866 132.348C191.468 132.798 189.745 132.975 188.57 133.911C186.091 135.884 187.023 139.978 187.499 142.632L187.574 143.051C187.811 144.417 187.983 145.818 187.407 147.129C186.792 148.529 185.548 149.567 184.438 150.569L184.214 150.772C183.231 151.667 182.108 152.755 181.387 153.968C180.729 152.608 179.832 151.496 178.883 150.245C178.206 149.352 178.688 149.057 179.174 148.185C179.642 147.345 179.871 146.45 179.725 145.492C179.455 143.723 178.04 142.445 176.632 141.485C174.97 140.352 173.114 139.512 171.395 138.457C167.863 136.291 164.424 133.814 161.325 131.063C161.239 130.987 161.091 131.087 161.16 131.191C163.607 134.913 166.478 138.129 170.005 140.859C171.436 141.966 172.938 142.884 174.451 143.85L174.886 144.129C175.493 144.522 176.251 145.048 176.525 145.717C176.802 146.391 176.212 146.899 175.895 147.457C174.888 149.228 175.374 150.881 176.568 152.384L176.624 152.453C177.81 153.915 178.71 155.274 179.14 157.141C180.064 161.153 178.777 165.331 177.429 169.097L177.376 169.246C176.647 171.276 175.872 173.291 175.239 175.353L175.065 175.923C174.491 177.821 174.021 179.693 174.665 181.643C174.884 182.307 175.789 182.464 176.165 181.839C177.492 179.637 177.822 176.987 178.654 174.566C179.464 172.206 180.394 169.889 181.177 167.519C182.185 164.469 182.86 161.185 182.493 157.985C182.504 157.966 182.516 157.949 182.525 157.929L182.782 157.368C183.481 155.849 184.157 154.522 185.429 153.312C186.756 152.048 188.197 150.93 189.241 149.401C191.509 146.08 190.106 142.385 189.832 138.754L189.801 138.308C189.751 137.554 189.724 136.53 190.217 136.008C190.771 135.42 192.071 135.27 192.806 135.01C194.706 134.338 196.579 133.555 198.363 132.614C200.061 131.719 201.706 130.729 203.237 129.571L204.013 128.987C205.238 128.063 206.508 127.055 207.328 125.797C207.423 125.652 207.262 125.419 207.091 125.488C205.72 126.044 204.469 126.928 203.187 127.697C203.167 127.65 203.143 127.603 203.117 127.556C201.531 124.686 200.879 121.507 201.132 118.243ZM157.364 137.903C156.818 136.407 154.33 136.522 154.429 138.301C154.505 139.667 155.085 140.9 155.616 142.14L155.673 142.273C156.22 143.565 156.853 144.778 157.61 145.963C159.056 148.227 160.75 150.328 162.56 152.311C164.2 154.109 166.353 155.208 168.834 155.026C169.88 154.949 170.935 154.683 171.851 154.161C172.939 153.541 174.121 151.678 175.509 152.129C175.643 152.173 175.768 151.976 175.652 151.883C174.05 150.593 172.231 152.594 170.696 153.076C168.385 153.801 166.012 152.999 164.524 151.13C162.971 149.18 161.541 146.996 160.235 144.872C159.572 143.793 158.967 142.674 158.444 141.52C157.917 140.356 157.797 139.091 157.364 137.903ZM161.091 128.694C161.158 128.487 160.901 128.291 160.719 128.409C159.666 129.094 158.754 129.999 157.783 130.793C156.705 131.674 155.619 132.536 154.517 133.385C152.91 134.624 154.774 136.904 156.189 135.551C158.124 133.7 160.244 131.28 161.091 128.694ZM166.872 121.45C166.444 119.801 163.914 120.481 164.283 122.111L164.295 122.161C164.993 124.853 163.998 127.593 161.875 129.339L161.797 129.402C160.454 130.477 162.357 132.355 163.687 131.291C166.59 128.968 167.798 125.022 166.872 121.45Z" fill="black"/>
<path fill-rule="evenodd" clip-rule="evenodd" d="M150.164 51.2616C151.029 46.0199 148.191 44.9323 150.164 39.9496C154.551 30.7172 166.504 31.115 175.276 30.4051C185.06 30.0295 194.962 31.3234 203.982 35.2517C206.136 36.1899 208.209 37.2933 210.195 38.5469C211.913 39.6311 211.676 41.6924 210.593 42.8169C218.403 53.8958 213.936 68.7669 220.168 80.4287C221.319 82.5133 222.841 84.3825 223.842 86.5515C225.363 89.8485 225.46 94.5727 222.011 96.7623C217.153 99.3743 214.443 94.2026 212.056 101.7C200.135 127.84 176.167 129.312 153.415 115.683C151.446 114.586 149.437 113.347 147.951 111.623C144.576 107.819 144.974 102.47 144.899 97.7202C144.858 94.9365 144.851 92.1523 144.878 89.3681C144.984 78.0905 148.715 62.4464 150.164 51.2616Z" fill="white"/>
<path fill-rule="evenodd" clip-rule="evenodd" d="M198.626 19.9103C184.888 13.6676 169.307 11.3002 154.321 12.853C146.925 13.6183 139.625 15.26 132.679 17.9269L132.07 18.1626C130.355 18.8238 128.507 19.48 127.204 20.8258C125.687 22.3899 125.262 24.755 126.346 26.6871C127.188 28.1883 128.702 29.2652 130.317 29.8398C129.748 30.3066 129.209 30.8272 128.702 31.4084C127.849 32.3823 127.784 33.771 128.702 34.7317C130.472 36.583 132.768 37.9224 135.241 38.5644C134.963 39.9085 135.113 41.3963 135.709 42.7359C137.419 46.5814 142.235 47.0397 145.941 46.8114L146.053 46.8042L146.259 49.1671C146.369 50.426 147.122 51.4021 148.399 51.5951C148.443 51.6018 148.488 51.6063 148.533 51.6106C146.513 58.9306 145.292 66.4769 144.165 73.9787C143.576 77.8946 143.049 81.8196 142.545 85.7472L142.378 87.0565C141.84 91.2909 141.168 95.5679 140.935 99.8336C140.727 103.704 141.464 107.4 143.845 110.524C145.982 113.324 148.896 115.422 152.03 116.98C159.11 120.5 166.563 123.122 174.394 124.338L174.916 124.418C177.939 124.88 181.053 125.27 184.043 124.432C186.671 123.696 189.426 121.798 188.833 118.748C188.633 117.718 187.195 117.673 186.702 118.47L186.589 118.652C185.998 119.592 185.35 120.465 184.319 120.949C183.112 121.519 181.712 121.678 180.392 121.694C176.707 121.737 172.87 120.817 169.322 119.895C162.696 118.172 155.891 115.362 150.464 111.105C148.154 109.296 146.3 107.035 145.646 104.124C144.837 100.536 145.581 96.6135 145.948 93.0075C146.704 85.5666 147.604 78.1396 148.553 70.7208L148.744 69.2372C149.543 63.0348 150.383 56.8303 150.782 50.592C150.948 50.3654 151.06 50.1073 151.104 49.8246L151.167 49.4184C151.221 49.0706 151.23 48.752 151.192 48.458C151.19 47.3316 151.158 46.2118 151.093 45.0851C151.082 44.8834 151.073 44.6814 151.066 44.4817C152.236 44.7398 153.414 44.9485 154.597 45.1257C162.911 46.3801 171.356 46.6943 179.738 46.0705C183.92 45.7583 188.071 45.2222 192.208 44.5513C194.314 44.2102 196.413 43.8332 198.505 43.4114C200.017 43.1084 201.497 42.6978 202.985 42.3118C204.519 44.549 205.348 47.3024 205.187 50.0064C205.005 53.0918 202.953 55.89 203.529 59.0428C204.069 61.9934 206.593 62.9083 209.084 63.639L210.144 63.9457C210.959 64.1841 211.551 64.4142 211.698 65.3955C211.951 67.0807 211.64 68.9769 211.575 70.6711C211.497 72.6749 211.394 74.6788 211.347 76.6826C211.322 77.7194 211.282 78.7606 211.284 79.7973C211.286 80.5333 211.396 81.0359 211.68 81.5114C211.461 81.7877 211.264 82.0861 211.089 82.4025C211.033 82.5057 211.172 82.6155 211.255 82.5304C211.476 82.2993 211.712 82.0906 211.96 81.9041C212.086 82.0592 212.231 82.2163 212.402 82.3846L212.415 82.3666C212.948 82.8984 213.795 82.95 214.456 82.3846L214.629 82.234C215.113 81.8092 215.446 81.4553 215.58 80.7532C215.587 80.7173 215.594 80.6814 215.598 80.6455C216.828 80.6029 218.078 80.8943 219.184 81.5072C220.938 82.4788 222.172 83.8633 222.902 85.5732C222.611 85.9143 222.271 86.2195 221.874 86.4753C221.818 86.5135 221.868 86.5965 221.928 86.5673C222.334 86.3766 222.697 86.141 223.021 85.865C223.283 86.5381 223.467 87.2607 223.579 88.0259C223.973 90.7276 223.27 94.0285 220.833 95.5679C219.778 96.2343 218.573 96.5956 217.323 96.6001C216.714 96.6021 216.187 96.4991 215.596 96.3532C215.195 96.2545 214.796 96.1109 214.377 96.1109C214.019 96.1109 213.687 96.2007 213.38 96.3802L213.466 96.3876C213.672 96.4071 213.633 96.4158 213.345 96.4158C212.449 96.4542 211.936 97.3653 212.348 98.1574L212.402 98.2798C212.413 98.3045 212.423 98.3249 212.43 98.3412L212.463 98.5513C212.466 98.5713 212.47 98.5918 212.473 98.6129L212.486 98.6555C212.488 98.6623 212.49 98.669 212.493 98.6758L211.15 100.729C209.502 103.24 207.818 105.742 205.901 108.035C204.557 109.644 203.133 111.222 201.627 112.683C200.274 113.995 198.653 114.628 197.12 115.66C196.303 116.208 196.063 117.355 196.807 118.093C198.989 120.263 202.078 118.539 203.867 116.776C205.561 115.104 207.023 113.093 208.285 111.08C210.522 107.501 212.303 103.696 213.083 99.5644C213.407 99.8628 213.822 100.049 214.241 100.195C215.081 100.487 216.006 100.608 216.893 100.639C218.593 100.695 220.295 100.282 221.825 99.5509C228.05 96.5776 228.964 87.6736 225.158 82.4227C225.671 80.9319 225.958 79.3143 226.269 77.9349L226.411 77.3183C227.985 70.431 229.041 63.1796 226.251 56.4308C225.893 55.5602 225.49 54.712 225.013 53.8997C224.63 53.2467 223.971 52.551 223.79 51.8083C223.386 50.1769 225.875 48.4625 226.601 47.1678C227.454 45.6486 227.575 43.8557 226.413 42.4664C226.265 42.2916 226.104 42.1298 225.929 41.9887C227.031 39.9871 227.082 37.4693 225.631 35.4946C224.677 34.1931 223.221 33.2821 221.63 33.0061C220.658 32.8378 219.489 32.9006 218.42 33.2013C212.57 27.7597 205.894 23.2134 198.626 19.9103ZM221.094 87.9989C219.532 86.6189 217.807 85.8963 215.679 86.0781C213.54 86.2619 210.964 87.1485 209.708 88.9863C208.715 90.4381 210.738 92.5676 212.194 91.4771C213.52 90.483 214.405 89.361 216.051 88.827C217.53 88.349 219.36 88.0416 220.908 88.3153C221.078 88.3445 221.248 88.1336 221.094 87.9989Z" fill="black"/>
<path fill-rule="evenodd" clip-rule="evenodd" d="M167.901 108.192C169.41 107.577 170.756 106.55 171.741 105.239C172.083 104.783 172.172 104.302 172.1 103.862C172.019 103.367 171.726 102.918 171.327 102.617C170.926 102.315 170.424 102.166 169.94 102.242C169.519 102.308 169.099 102.539 168.768 103.017L168.698 103.112C168.113 103.904 167.35 104.553 166.482 104.972C165.644 105.375 164.707 105.563 163.738 105.454C161.892 105.245 160.62 104.247 159.267 102.892C159.1 102.721 158.932 102.544 158.763 102.365C158.657 102.203 158.509 102.098 158.345 102.043C158.163 101.982 157.957 101.986 157.769 102.052C157.587 102.115 157.424 102.236 157.315 102.396C157.211 102.548 157.152 102.736 157.171 102.952C157.295 104.357 158.03 105.61 159.073 106.594C160.232 107.687 161.768 108.444 163.214 108.709C164.807 109.001 166.431 108.792 167.901 108.192ZM162.462 86.5247C160.767 87.5546 158.184 89.9564 160.008 92.5099C162.154 94.7613 165.245 92.1799 166.768 91.0124C168.18 90.1075 169.766 92.4347 168.456 93.4912C157.452 101.636 152.986 86.794 161.605 85.3136C162.554 85.1505 162.906 86.206 162.462 86.5247ZM182.183 77.0505C181.995 74.7265 178.455 74.1988 178.103 76.4984C177.787 78.5584 178.159 80.4507 179.087 82.3054C179.974 84.0772 182.203 83.2506 182.371 81.6372C182.597 79.4744 182.299 78.4961 182.183 77.0505ZM155.231 76.0216C154.738 75.3754 154.025 74.9342 153.171 75.1835C150.503 75.9629 151.29 79.7491 152.226 81.5921C152.736 82.5929 154.381 82.8467 155.125 81.9655C156.337 80.5284 156.918 77.6586 155.377 76.2431C155.335 76.17 155.288 76.0961 155.231 76.0216ZM179.124 66.8817L178.703 66.808C177.399 66.5826 175.778 66.366 174.856 67.4138C174.367 67.9694 174.198 69.0021 174.856 69.5339C176.012 70.4696 177.291 70.107 178.677 70.1862C179.819 70.2517 180.917 70.4407 182.017 70.7551C184.43 71.4446 186.397 72.7035 188.458 74.0858C188.729 74.2671 189.005 73.9213 188.876 73.6684C187.686 71.3385 185.38 69.4246 183.07 68.258C181.837 67.6353 180.488 67.1187 179.124 66.8817ZM157.663 65.838L157.341 65.904C153.831 66.6375 149.27 68.1027 147.608 71.5493C147.545 72.0366 147.612 72.1411 147.666 72.2093L147.684 72.232C147.729 72.2903 147.765 72.3706 147.976 72.437C148.035 72.423 148.094 72.4082 148.154 72.3925C148.916 72.1929 149.519 71.9179 150.102 71.6326L150.735 71.321C151.469 70.9611 152.21 70.6144 152.995 70.3584C154.67 69.8122 156.393 69.4275 158.142 69.222C158.521 69.1775 158.887 69.0496 159.175 68.8303C159.448 68.6222 159.657 68.334 159.752 67.951C159.876 67.4553 159.84 67.08 159.574 66.6328C159.374 66.297 159.088 66.0642 158.759 65.9305C158.424 65.7942 158.043 65.7621 157.663 65.838Z" fill="black"/>
</g>
<defs>
<clipPath id="clip0">
<rect width="359" height="280" fill="white"/>
</clipPath>
</defs>
</svg>
