<svg width="359" height="280" viewBox="0 0 359 280" fill="none" xmlns="http://www.w3.org/2000/svg">
<g clip-path="url(#clip0)">
<path d="M246.02 71.883C204.456 36.4662 95.5887 40.8237 49.7463 52.1812C4.58306 67.9427 18.4376 103.267 4.58306 151.849C-12.7352 212.577 20.8826 210.491 74.1955 252.676C127.442 294.808 214.898 277.752 302.736 260.621L303.068 260.556C391.017 243.404 326.159 212.345 337.704 162.279C349.25 112.214 297.974 116.154 246.02 71.883Z" fill="#FAD551"/>
<path fill-rule="evenodd" clip-rule="evenodd" d="M213.008 128.111C209.095 125.262 207.155 120.597 205.695 119.803C204.621 119.219 204.64 115.188 202.487 113.761C199.598 111.846 190.39 110.422 187.04 110.156C183.825 109.901 178.232 110.437 175.216 111.615C170.185 113.579 168.178 117.326 165.963 122.153C165.963 122.153 215.697 130.069 213.008 128.111Z" fill="#D08B5B"/>
<path fill-rule="evenodd" clip-rule="evenodd" d="M140.031 131.44H219.544L247.066 155.934L259.282 258.884L241.907 264.297L134.55 266.092L101.022 256.609L98.9297 184.947L140.031 131.44Z" fill="#92D2FA"/>
<path fill-rule="evenodd" clip-rule="evenodd" d="M248.102 240.182C247.548 239.906 246.97 239.589 246.338 239.567C245.251 239.529 245.25 237.838 246.338 237.876C247.287 237.91 248.12 238.305 248.955 238.722C249.929 239.209 249.072 240.667 248.102 240.182M246.338 192.59C247.079 192.591 247.826 192.684 248.396 193.203C248.734 193.511 248.707 194.086 248.396 194.398C248.062 194.732 247.538 194.706 247.2 194.398C247.31 194.498 247.201 194.399 247.161 194.377C247.152 194.372 247.147 194.368 247.144 194.366C247.136 194.364 247.127 194.362 247.113 194.359C247.025 194.336 246.938 194.315 246.848 194.299C246.847 194.303 246.66 194.286 246.616 194.284C246.523 194.281 246.43 194.281 246.338 194.281C245.879 194.28 245.493 193.894 245.493 193.435C245.493 192.979 245.881 192.59 246.338 192.59M238.391 211.556C238.149 212.618 236.52 212.165 236.761 211.106C237.112 209.566 237.048 207.988 236.761 206.442C236.563 205.377 238.193 204.925 238.391 205.993C238.735 207.847 238.812 209.708 238.391 211.556M236.256 150.79C234.998 150.491 233.753 150.456 232.465 150.455C231.376 150.455 231.378 148.764 232.465 148.764C233.901 148.765 235.303 148.827 236.706 149.16C237.765 149.412 237.314 151.041 236.256 150.79M232.038 191.974C231.308 191.609 230.578 191.244 229.848 190.878C228.874 190.391 229.731 188.933 230.701 189.418L232.891 190.514C233.865 191.001 233.008 192.459 232.038 191.974M231.735 225.27C230.809 226.606 229.507 227.436 227.944 227.85C226.89 228.13 226.444 226.498 227.495 226.22C228.612 225.923 229.605 225.384 230.275 224.417C230.892 223.528 232.356 224.374 231.735 225.27M225.894 165.741C225.644 165.272 225.267 165.074 224.799 165.064C223.711 165.039 223.711 163.348 224.799 163.373C225.865 163.397 226.844 163.933 227.354 164.887C227.867 165.847 226.407 166.701 225.894 165.741M215.174 177.233C214.871 177.563 214.283 177.555 213.979 177.233C213.792 177.036 213.635 176.816 213.512 176.575C213.465 176.484 213.421 176.39 213.369 176.302C213.346 176.262 213.321 176.223 213.295 176.185C213.286 176.177 213.267 176.158 213.248 176.138C212.924 175.794 212.932 175.287 213.248 174.942C213.552 174.612 214.139 174.62 214.444 174.942C214.63 175.139 214.787 175.359 214.91 175.6C214.957 175.692 215.001 175.785 215.053 175.874C215.076 175.914 215.102 175.953 215.128 175.991C215.137 175.999 215.155 176.018 215.174 176.038C215.499 176.381 215.491 176.888 215.174 177.233M214.273 202.2C213.172 202.704 211.965 202.704 210.864 202.2C210.448 202.009 210.349 201.407 210.561 201.043C210.808 200.622 211.303 200.55 211.717 200.74C212.217 200.969 212.921 200.968 213.42 200.74C213.837 200.549 214.327 200.617 214.576 201.043C214.79 201.409 214.688 202.01 214.273 202.2M211.27 219.872C211.081 220.32 210.673 220.558 210.195 220.576C209.722 220.594 209.37 220.174 209.35 219.731C209.338 219.444 209.493 219.199 209.715 219.047C209.715 219.032 209.716 219.016 209.716 219C209.716 218.526 210.103 218.175 210.561 218.155C211.017 218.134 211.406 218.558 211.406 219C211.406 219.299 211.387 219.595 211.27 219.872M206.91 247.967C205.561 247.989 204.243 248.31 202.894 248.332C201.804 248.35 201.808 246.659 202.894 246.641C204.243 246.619 205.561 246.298 206.91 246.276C208 246.258 207.996 247.949 206.91 247.967M201.302 139.616C200.512 140.369 199.537 140.74 198.575 141.21C197.601 141.686 196.745 140.227 197.722 139.75C198.537 139.351 199.439 139.057 200.107 138.421C200.895 137.67 202.091 138.864 201.302 139.616M199.182 159.105C198.628 158.828 198.051 158.512 197.419 158.49C196.332 158.452 196.331 156.761 197.419 156.799C198.367 156.832 199.2 157.228 200.035 157.645C201.01 158.132 200.153 159.589 199.182 159.105M189.022 237.322C188.772 236.854 188.395 236.656 187.927 236.645C186.839 236.621 186.839 234.93 187.927 234.955C188.994 234.979 189.972 235.515 190.482 236.469C190.995 237.429 189.535 238.282 189.022 237.322M185.503 200.607C185.167 200.298 185.191 199.724 185.503 199.411C185.868 199.046 186.234 198.681 186.599 198.316C186.933 197.982 187.456 198.006 187.794 198.316C188.13 198.625 188.107 199.198 187.794 199.511C187.428 199.877 187.064 200.242 186.699 200.607C186.364 200.941 185.841 200.917 185.503 200.607M181.355 257.828C180.136 257.799 178.993 257.449 177.845 257.067C176.816 256.725 177.26 255.092 178.294 255.437C179.292 255.769 180.294 256.112 181.355 256.137C182.443 256.162 182.443 257.853 181.355 257.828M175.879 221.672C174.777 221.641 173.864 221.08 173.091 220.328C172.31 219.568 173.506 218.374 174.286 219.133C174.728 219.563 175.239 219.963 175.879 219.981C176.966 220.011 176.967 221.702 175.879 221.672M179.28 175.175C179.293 175.625 179.483 176.107 179.762 176.403C180.509 177.194 179.316 178.391 178.567 177.599C177.95 176.945 177.616 176.069 177.59 175.175C177.558 174.084 179.249 174.089 179.28 175.175M166.388 138.35C166.035 137.657 165.571 136.845 164.866 136.462C163.909 135.942 164.763 134.483 165.719 135.002C166.677 135.522 167.363 136.548 167.848 137.496C168.342 138.465 166.883 139.319 166.388 138.35M164.197 155.933C163.805 155.922 163.416 155.855 163.038 155.753C162.876 155.709 162.717 155.658 162.555 155.614C162.485 155.595 162.191 155.559 162.372 155.568C161.914 155.544 161.527 155.201 161.527 154.723C161.527 154.283 161.916 153.853 162.372 153.877C162.999 153.911 163.57 154.225 164.197 154.243C165.284 154.273 165.285 155.964 164.197 155.933M158.721 182.959H156.896C155.806 182.959 155.808 181.268 156.896 181.268H158.721C159.81 181.268 159.808 182.959 158.721 182.959M156.592 257.712C156.038 257.989 155.386 258.252 154.937 258.676C154.147 259.423 152.95 258.229 153.742 257.48C154.313 256.94 155.043 256.6 155.739 256.252C156.148 256.047 156.652 256.14 156.895 256.556C157.114 256.931 157 257.508 156.592 257.712M152.514 236.349C152.443 236.329 152.368 236.316 152.297 236.306C152.009 236.267 151.709 236.281 151.42 236.28C150.331 236.28 150.332 234.589 151.42 234.589C152.277 234.59 153.169 234.602 153.843 235.202C154.185 235.507 154.152 236.089 153.843 236.398C153.507 236.734 152.988 236.702 152.648 236.398C152.684 236.43 152.561 236.362 152.514 236.349M151.42 207.617C151.665 207.111 151.669 206.781 151.67 206.218C151.67 205.128 153.36 205.13 153.36 206.218C153.359 207.035 153.238 207.731 152.879 208.471C152.679 208.883 152.094 208.991 151.723 208.774C151.308 208.531 151.221 208.028 151.42 207.617M146.533 167.955C145.553 168.289 144.678 168.761 143.814 169.331C142.903 169.932 142.058 168.468 142.961 167.871C143.946 167.221 144.965 166.705 146.084 166.325C147.118 165.973 147.557 167.607 146.533 167.955M140.833 139.499C140.104 139.519 139.353 139.799 138.704 140.114C137.728 140.588 136.872 139.129 137.851 138.654C138.778 138.203 139.792 137.837 140.833 137.808C141.922 137.777 141.918 139.468 140.833 139.499M138.277 215.463C137.99 215.476 137.746 215.321 137.594 215.098C137.578 215.098 137.562 215.098 137.547 215.098C137.073 215.098 136.722 214.711 136.702 214.252C136.681 213.796 137.105 213.407 137.547 213.407C137.845 213.407 138.141 213.425 138.418 213.542C138.866 213.731 139.104 214.14 139.122 214.618C139.14 215.091 138.72 215.443 138.277 215.463M134.121 156.999C133.083 157.338 132.642 155.705 133.672 155.369C134.88 154.974 136.115 154.668 137.323 154.273C138.361 153.933 138.801 155.567 137.772 155.903C136.564 156.298 135.329 156.604 134.121 156.999M130.331 188.912C130.009 189.95 128.378 189.505 128.701 188.463C129.013 187.457 129.035 186.445 129.036 185.401C129.036 184.311 130.726 184.313 130.726 185.401C130.725 186.59 130.685 187.768 130.331 188.912M119.03 227.136C118.969 227.557 118.635 227.861 118.198 227.88C117.754 227.9 117.337 227.477 117.353 227.035C117.384 226.184 118.078 225.49 118.928 225.459C119.402 225.442 119.754 225.86 119.773 226.305C119.793 226.736 119.432 227.073 119.03 227.136M113.312 178.547C112.419 178.845 111.464 179.129 110.764 179.79C109.973 180.537 108.776 179.343 109.569 178.594C110.492 177.722 111.68 177.311 112.863 176.916C113.898 176.57 114.338 178.204 113.312 178.547M109.436 211.392C109.191 211.812 108.694 211.888 108.28 211.695C107.726 211.438 107.114 211.446 106.516 211.446C105.427 211.445 105.429 209.754 106.516 209.755C107.438 209.756 108.289 209.843 109.133 210.235C109.549 210.429 109.65 211.027 109.436 211.392M107.246 251.254C106.773 251.271 106.421 250.853 106.401 250.408C106.382 249.977 106.742 249.64 107.145 249.577C107.206 249.156 107.54 248.852 107.977 248.833C108.421 248.813 108.838 249.235 108.822 249.678C108.791 250.529 108.097 251.223 107.246 251.254M261.223 257.647C260.936 256.613 260.279 255.778 259.783 254.849C259.616 254.535 259.558 254.34 259.468 254.111C259.346 254.356 259.108 254.541 258.75 254.541C258.064 254.541 257.261 254.497 256.621 254.791C256.205 254.981 255.714 254.914 255.465 254.487C255.251 254.121 255.353 253.521 255.768 253.331C256.712 252.898 257.726 252.85 258.75 252.85C259.003 252.85 259.194 252.943 259.33 253.083C259.721 247.723 259.711 242.359 259.341 236.996C258.946 231.264 258.038 225.646 257.087 219.988C256.626 217.245 256.029 214.474 256.145 211.68C256.261 208.905 257.45 206.318 256.607 203.535C256.269 202.419 255.691 201.396 255.314 200.293C254.911 199.105 254.947 197.932 255.131 196.702C255.509 194.197 256.136 191.722 255.133 189.277C254.689 188.193 253.971 187.225 253.624 186.105C253.193 184.712 253.253 183.171 253.181 181.728C253.035 178.815 252.997 175.884 252.756 172.978C252.648 171.676 252.414 170.442 251.879 169.247C251.366 168.098 250.603 167.052 250.263 165.832C249.925 164.632 249.895 163.366 249.714 162.138C249.524 160.84 249.226 159.561 248.824 158.314C247.274 153.487 244.432 149.15 241.075 145.39C237.507 141.394 233.241 138.384 228.714 135.579C226.333 134.105 223.952 132.63 221.573 131.155C221.523 131.432 221.346 131.686 221.008 131.799C220.114 132.098 219.16 132.381 218.46 133.043C217.669 133.789 216.472 132.596 217.265 131.847C218.092 131.066 219.131 130.655 220.188 130.294C219.104 129.61 218.009 128.902 216.786 128.508C215.714 128.161 214.134 128.463 213.266 127.677C212.583 127.058 212.368 125.91 212.106 125.069C211.779 124.025 211.495 122.924 211.079 121.909C210.796 121.216 210.384 120.55 209.864 120.013C209.636 119.134 209.218 118.331 208.478 117.843C206.543 116.562 204.167 117.834 203.315 119.66C202.612 119.658 201.87 119.813 201.186 119.855C199.779 119.944 198.369 119.984 196.96 119.98C194.203 119.971 191.444 119.792 188.71 119.426C183.822 118.771 179.079 117.45 174.272 116.42C174.245 116.357 174.213 116.294 174.175 116.23C173.14 114.493 170.56 114.787 168.935 115.444C168.238 115.725 167.529 116.08 167.129 116.74C166.707 117.025 166.341 117.372 166.098 117.737C165.595 118.492 165.207 120.013 164.186 120.14C163.514 120.223 162.832 120.094 162.15 120.191C161.296 120.309 160.531 120.609 159.743 120.952C153.743 123.558 147.541 126.455 141.029 127.466C139.502 127.702 137.947 127.948 136.62 128.803C135.543 129.499 134.71 130.454 133.821 131.361C132.955 132.244 132.241 132.635 131.005 132.794C129.505 132.986 128.205 133.4 127.109 134.491C126.198 135.398 125.605 136.556 124.891 137.608C124.164 138.682 123.097 139.286 121.99 139.91C119.372 141.385 116.934 143.167 114.811 145.304C110.338 149.81 107.63 155.601 104.9 161.244C101.949 167.347 99.1898 173.525 97.2757 180.043C95.3997 186.443 94.2842 193.026 93.7687 199.671C93.2257 206.644 93.1497 213.644 92.6976 220.62C92.4715 224.106 92.3004 227.595 92.1271 231.082C91.9581 234.527 91.7109 237.979 91.7509 241.428C91.8271 248.096 93.16 254.785 95.4905 261.028C96.0715 262.582 96.7157 264.114 97.4023 265.623C98.0046 266.948 100.064 266.8 100.711 265.623C100.859 265.353 100.975 265.074 101.072 264.79C102.762 264.805 104.469 264.674 106.149 264.831C109.115 265.108 112.087 265.262 115.062 265.446C120.948 265.811 126.845 266.054 132.733 266.39C133.304 266.423 133.875 266.456 134.446 266.49C130.25 253.497 130.795 239.451 130.131 225.939C130.077 224.85 131.768 224.856 131.821 225.939C132.488 239.509 131.92 253.591 136.264 266.605C137.95 266.719 139.633 266.858 141.31 267.062C142.666 267.225 144.029 267.418 145.398 267.35C146.951 267.276 148.468 266.921 149.983 266.612C152.736 266.052 155.387 266.306 158.15 266.65C161.106 267.02 164.072 267.225 167.047 267.354C178.958 267.876 190.95 268.352 202.857 267.555C205.738 267.363 208.614 267.092 211.476 266.724C214.426 266.346 217.343 265.71 220.29 265.348C223.195 264.993 225.866 265.968 228.737 266.147C231.665 266.331 234.672 265.72 237.572 265.37C238.518 265.255 239.466 265.143 240.413 265.032C239.193 256.668 238.5 248.241 237.826 239.817C237.739 238.731 239.43 238.74 239.516 239.817C240.185 248.175 240.863 256.54 242.081 264.838C247.104 264.253 252.131 263.662 257.102 262.751C258.517 262.493 259.924 262.073 260.772 260.809C261.399 259.872 261.526 258.725 261.223 257.647" fill="black"/>
<path fill-rule="evenodd" clip-rule="evenodd" d="M222.623 59.4504C226.444 56.9933 231.659 50.7236 228.695 45.9692C227.492 44.11 225.85 43.4111 224.049 43.3551C223.619 42.8148 222.906 42.6565 222.24 42.6527L222.243 42.6242C219.809 42.669 217.416 43.5239 215.458 44.9514C214.196 43.8395 212.628 43.2071 211.109 42.5234C211.746 39.3119 212.718 36.1793 213.822 33.1008C214.417 31.3282 212.531 29.4609 210.752 29.9964C211.189 28.0748 210.184 25.843 207.993 25.8677C206.822 25.8677 205.497 26.4971 204.364 26.7808C203.525 26.9908 202.699 27.2064 201.89 27.4805C201.886 27.4586 201.884 27.4364 201.881 27.414C204.003 25.9248 203.929 22.4963 200.811 22.8287C199.481 22.9464 198.129 23.854 196.899 24.4081C194.872 24.5305 192.924 25.1764 190.954 25.6399C185.561 26.9809 179.792 28.3285 175.349 31.7312C167.654 34.7041 158.084 39.2999 157.131 48.3843C143.578 43.1276 133.34 59.9135 145.63 66.5188C148.042 67.646 150.83 68.2295 153.468 67.6874C152.845 69.9987 152.249 72.3179 151.692 74.6463C146.998 85.4571 143.203 96.882 144.568 108.748C144.588 110.9 147.346 112.142 148.87 110.534C150.131 109.009 151.661 110.792 151.25 112.264C150.86 113.9 152.009 115.401 153.68 115.462C155.68 115.567 157.268 114.223 158.683 112.981C158.656 113.008 158.72 112.967 158.814 112.903C162.306 121.159 165.578 114.74 169.881 118.455C170.887 119.386 171.592 120.489 172.881 121.095C175.902 122.63 178.288 119.894 181.174 119.578C183.842 119.381 186.48 120.307 189.038 120.93C192.026 121.658 195.038 122.038 198.107 121.697C202.031 121.261 209.86 119.483 212.177 118.02C215.016 119.93 217.937 117.664 219.498 115.055C220.589 116.109 222.654 116.27 223.531 114.646C224.404 112.834 226.034 110.066 227.909 110.476C228.077 110.527 228.175 110.559 228.277 110.634C230.029 112.127 232.292 110.993 232.548 108.823C234.21 94.758 230.821 80.6487 226.315 67.4126C225.331 64.6448 224.515 61.7677 222.623 59.4504Z" fill="#D08B5B"/>
<path fill-rule="evenodd" clip-rule="evenodd" d="M221.073 59.0618C221.002 58.8669 221.3 58.7549 221.398 58.9244C224.618 64.474 227.193 70.369 229.394 76.3908C231.343 81.721 233.071 87.1542 234.302 92.6988L234.386 93.0804C235.544 98.4311 236.115 104.091 234.596 109.429L234.523 109.683C234.173 110.871 233.711 112.076 232.631 112.781C231.723 113.374 230.696 113.448 229.652 113.283C228.771 113.144 227.933 112.76 227.05 112.653C226.385 112.573 226.212 112.893 226.018 113.432L225.857 113.888C225.165 115.821 224.321 117.621 222.066 118.028C220.851 118.247 219.532 118.02 218.479 117.38C218.467 117.421 218.455 117.461 218.445 117.501L218.395 117.691C218.175 118.518 217.892 119.358 217.308 120.001C216.494 120.897 215.325 121.215 214.148 120.977C213.613 120.869 213.11 120.625 212.602 120.422C212.478 121.172 211.619 121.783 210.833 121.598C210.408 121.499 210.08 121.305 209.836 121.055C208.622 121.994 206.984 122.474 205.566 122.838C203.512 123.365 201.326 123.581 199.208 123.518C197.058 123.454 194.871 123.039 192.848 122.309L192.532 122.193C190.788 121.548 188.951 120.731 187.538 119.525C187.257 119.387 187.421 118.875 187.756 118.984C189.676 119.606 191.467 120.337 193.482 120.636C195.383 120.919 197.292 120.965 199.208 120.849C201.15 120.731 203.035 120.334 204.889 119.747C206.502 119.235 208.091 118.312 209.804 118.191C209.894 118.067 209.991 117.948 210.103 117.838C211.584 116.395 213.086 117.117 214.753 117.643C214.808 117.66 214.823 117.689 214.824 117.718L214.844 117.689V117.689L214.857 117.671L214.847 117.683C214.778 117.762 214.917 117.47 214.942 117.411L214.944 117.404C215.136 116.88 215.21 116.316 215.372 115.783C215.759 114.509 216.482 113.344 217.866 113.04C218.55 112.889 219.481 113.118 219.798 113.827C220.058 114.411 220.485 114.706 221.142 114.691C221.827 114.675 222.08 114.274 222.319 113.67C222.707 112.687 222.917 111.665 223.555 110.798C224.273 109.822 225.346 109.253 226.558 109.206C227.492 109.171 228.407 109.444 229.296 109.696L229.378 109.721C229.783 109.849 230.508 110.136 230.825 109.924C231.3 109.607 231.545 107.754 231.683 107.061L231.692 107.017C231.936 105.837 232.078 104.647 232.136 103.442C232.377 98.4044 231.341 93.3926 230.195 88.5166C227.832 78.461 224.597 68.7604 221.073 59.0618ZM153.735 71.3566C153.799 71.2606 153.939 71.3437 153.889 71.4466C153.657 71.9245 153.573 72.4265 153.416 72.9242C153.243 73.4752 152.949 74.0095 152.731 74.5442C152.378 75.4101 152.035 76.2811 151.69 77.1503C150.996 78.8982 150.351 80.6725 149.74 82.4512C148.512 86.0245 147.509 89.698 146.775 93.4051C146.054 97.0473 145.45 100.856 145.473 104.579C145.483 106.272 145.668 108.015 146.338 109.587C146.443 109.834 146.567 110.076 146.697 110.311L146.777 110.451C146.788 110.471 146.8 110.49 146.811 110.51L146.884 110.626C147.096 110.315 147.705 109.903 147.957 109.685L147.992 109.653L149.173 108.558C149.687 108.081 150.429 107.966 151.051 108.315C152.941 109.375 152.88 111.344 153.284 113.203L153.302 113.283C153.478 114.064 153.782 114.713 154.716 114.56C155.689 114.4 156.252 113.408 156.569 112.555L156.61 112.442C157.172 110.854 159.193 110.917 159.774 112.442L159.992 113.019C160.443 114.203 161.058 115.631 162.222 116.1C163.201 116.494 164.322 115.905 165.213 115.539C165.702 115.338 166.274 115.757 166.404 116.217C166.44 116.342 166.463 116.462 166.482 116.58C167.413 116.489 168.304 116.712 169.219 117.136C170.417 117.69 171.924 118.886 172.149 120.273C172.416 121.912 170.522 122.686 169.544 121.374C168.929 120.547 168.706 119.544 167.97 118.758C167.538 118.297 167.001 117.896 166.437 117.556C165.933 119.342 163.104 119.857 161.417 119.328C159.798 118.821 158.725 117.625 157.923 116.225C156.425 117.694 154.345 118.405 152.262 117.124C151.055 116.382 150.493 115.084 150.275 113.737C150.209 113.331 150.205 112.665 150.089 112.08L149.977 112.195C148.959 113.227 147.776 114.197 146.442 113.974C144.694 113.682 143.864 111.731 143.319 110.246C142.185 107.158 142.394 103.724 142.778 100.517C143.199 97.0071 143.903 93.53 144.835 90.1207C145.743 86.7951 146.92 83.5678 148.304 80.4121C149.01 78.8039 149.824 77.2353 150.698 75.7127C151.138 74.9485 151.616 74.2052 152.097 73.4665C152.593 72.704 153.238 72.1033 153.735 71.3566ZM143.261 49.6263C145.829 47.2379 149.261 46.149 152.723 46.6402C154.357 46.8716 155.913 47.4638 157.292 48.3775C158.691 49.3042 159.598 50.4514 160.435 51.8863C160.494 51.9863 160.361 52.0812 160.28 52.0061C158.048 49.9442 154.668 48.8437 151.664 48.9599C146.31 49.1669 141.872 53.9151 142.205 59.3267C142.369 61.9918 143.863 64.6836 146.174 66.055C148.622 67.5085 151.41 67.026 154.034 66.386C154.981 66.155 155.459 67.2225 154.918 67.9094C152.257 71.2944 146.784 70.4093 143.712 68.081C137.775 63.5824 137.978 54.5417 143.261 49.6263ZM151.882 54.9561L152.11 54.9169C154.025 54.5999 158.103 54.2341 158.702 56.5772C159.008 57.7704 157.826 58.4129 156.791 58.3601C155.938 58.3166 155.111 58.0488 154.269 57.867C154.027 58.705 153.945 59.5802 153.827 60.443C153.724 61.1983 152.512 60.9933 152.526 60.2667C152.547 59.2562 153.015 58.3971 153.752 57.77C153.58 57.7434 153.407 57.721 153.232 57.7092C151.139 57.5682 149.07 57.9579 147.114 58.6778L147.321 58.7942V58.7942C147.419 58.8285 147.377 58.9606 147.278 58.947L146.306 58.9961V58.9961C145.898 59.0916 145.658 58.6254 145.915 58.3227C147.422 56.5429 149.597 55.3646 151.882 54.9561ZM221.719 42.4129C224.644 42.0616 227.549 43.1421 229.119 45.7214C230.575 48.1141 230.702 51.1434 229.669 53.7147C229.082 55.1755 228.195 56.4857 227.097 57.6122C226.555 58.1691 225.933 58.7437 225.245 59.1121C224.444 59.5412 223.848 59.5037 223.003 59.3463C222.459 59.2448 222.083 58.5446 222.257 58.03L222.387 57.6398C222.528 57.2208 222.66 56.9102 223.047 56.515C223.385 56.1703 223.789 55.8911 224.161 55.5838C224.959 54.9225 225.701 54.1845 226.256 53.3025C227.27 51.6897 227.622 49.836 227.049 47.9966C226.434 46.0213 224.807 44.742 222.768 44.5036C221.611 44.3685 220.436 44.4907 219.294 44.6932L218.598 44.8193C217.627 44.9995 216.835 45.2089 216.165 46.1018C216.108 46.1768 215.999 46.1701 215.966 46.0758C215.63 45.1059 216.656 44.2405 217.382 43.7818C218.644 42.9861 220.254 42.589 221.719 42.4129ZM208.974 41.232C208.831 41.0491 208.954 40.6784 209.233 40.785C212.491 42.0249 215.234 45.0441 217.112 47.8965C217.681 48.7594 218.19 49.6555 218.651 50.5768C219.307 49.7767 220.289 49.1978 221.207 48.8043L221.308 48.7613C222.367 48.3204 224.657 47.5659 225.305 48.9786C225.514 49.4332 225.43 49.8996 225.065 50.252C224.499 50.7964 223.597 50.5901 222.891 50.5838C221.466 50.5715 220.335 51.023 219.074 51.4613C219.303 51.9631 219.52 52.4709 219.722 52.9858C219.998 53.686 220.201 54.4238 220.535 55.0991C220.853 55.7409 221.351 56.3143 221.776 56.8835C222.351 57.6516 221.583 58.9497 220.647 58.8575C218.709 58.6665 217.937 57.061 217.403 55.3595L217.112 54.4288C216.676 53.0387 216.227 51.6762 215.573 50.3538C214.731 48.6537 213.726 46.9929 212.57 45.4879C211.437 44.0123 210.116 42.6949 208.974 41.232ZM203.93 21.1955C205.133 20.7457 206.146 22.2947 205.546 23.3035C205.019 24.1894 204.706 25.1044 204.583 26.0643L209.891 24.7966V24.7966C210.946 24.5447 211.944 25.4795 211.652 26.5631L210.833 29.6076V29.6076C211.892 29.2528 212.999 29.0425 214.137 28.9683C215.112 28.9049 215.65 29.9139 215.49 30.7491C215.155 32.4893 214.69 34.1976 214.07 35.857L213.618 37.0514C213.085 38.442 212.464 39.8454 211.18 40.6289C210.56 41.0074 209.755 40.5179 209.752 39.808C209.745 38.0891 210.803 36.6204 211.392 35.0355C211.749 34.0734 212.052 33.0947 212.309 32.1034C211.313 32.3859 210.375 32.8337 209.49 33.4243L209.358 33.514C208.311 34.2333 206.996 33.0644 207.257 31.9425L207.266 31.9025L208.267 28.143L203.509 29.2938V29.2938C202.529 29.5311 201.776 28.8442 201.683 27.8991C201.584 26.8943 201.648 25.8944 201.856 24.926C198.712 25.9185 195.503 26.6908 192.285 27.4123L191.802 27.5201C184.738 29.0926 177.521 30.4809 171.041 33.8465C168.179 35.3325 165.555 37.0917 163.168 39.2676C161.988 40.3427 160.91 41.5259 159.965 42.8136C159.522 43.4178 159.108 44.043 158.728 44.689L158.424 45.2149C158.278 45.4687 158.136 45.7301 158.049 46.0035L158.006 46.1404C157.936 46.3716 157.86 46.6755 157.924 46.8783C158.016 47.1704 158.544 47.6506 158.916 47.5191C158.967 47.5012 158.993 47.5675 158.964 47.602C158.636 47.9985 158.173 48.0699 157.703 47.8706C156.958 47.5551 156.773 46.8348 156.855 46.0832C157.059 44.2231 158.35 42.172 159.371 40.6536C163.574 34.4004 170.492 30.6587 177.469 28.3144C186.144 25.3994 195.34 24.4042 203.93 21.1955Z" fill="black"/>
<path fill-rule="evenodd" clip-rule="evenodd" d="M202.152 106.274C200.732 105.695 199.465 104.728 198.538 103.493C198.216 103.063 198.133 102.61 198.2 102.195C198.276 101.729 198.552 101.306 198.928 101.023C199.305 100.739 199.777 100.598 200.233 100.67C200.63 100.732 201.024 100.949 201.337 101.399L201.402 101.489C201.953 102.235 202.67 102.846 203.488 103.241C204.276 103.621 205.158 103.798 206.07 103.695C207.807 103.499 209.005 102.559 210.278 101.282C210.436 101.121 210.593 100.955 210.752 100.786C210.852 100.633 210.991 100.534 211.146 100.483C211.317 100.425 211.511 100.429 211.689 100.491C211.86 100.55 212.013 100.664 212.116 100.815C212.213 100.958 212.268 101.135 212.251 101.339C212.134 102.661 211.443 103.842 210.461 104.769C209.37 105.799 207.924 106.511 206.563 106.761C205.064 107.036 203.536 106.839 202.152 106.274V106.274ZM207.271 85.8662C208.866 86.8363 211.297 89.0984 209.58 91.5035C207.56 93.624 204.652 91.1926 203.218 90.093C201.889 89.2408 200.396 91.4326 201.629 92.4277C211.986 100.099 216.189 86.1199 208.077 84.7256C207.184 84.572 206.853 85.5661 207.271 85.8662ZM188.711 76.9429C188.887 74.7541 192.219 74.257 192.551 76.423C192.847 78.3631 192.498 80.1455 191.624 81.8923C190.79 83.5611 188.692 82.7825 188.533 81.2629C188.32 79.2259 188.601 78.3044 188.711 76.9429ZM214.076 75.9738C214.541 75.3652 215.212 74.9496 216.015 75.1845C218.526 75.9185 217.786 79.4846 216.904 81.2204C216.425 82.163 214.876 82.4021 214.176 81.5721C213.035 80.2186 212.489 77.5156 213.939 76.1825C213.979 76.1136 214.023 76.044 214.076 75.9738ZM191.589 67.3654L191.986 67.2959C193.213 67.0836 194.738 66.8796 195.606 67.8665C196.067 68.3898 196.225 69.3624 195.606 69.8633C194.518 70.7446 193.314 70.4031 192.01 70.4777C190.935 70.5394 189.902 70.7174 188.867 71.0135C186.595 71.663 184.744 72.8486 182.804 74.1506C182.55 74.3213 182.29 73.9956 182.411 73.7574C183.531 71.563 185.701 69.7604 187.875 68.6616C189.036 68.0751 190.305 67.5885 191.589 67.3654ZM211.787 66.3823L212.091 66.4445C215.394 67.1353 219.687 68.5153 221.251 71.7615C221.311 72.2205 221.248 72.3189 221.196 72.3832L221.179 72.4046C221.137 72.4595 221.103 72.5351 220.905 72.5976C220.849 72.5844 220.794 72.5705 220.737 72.5557C220.02 72.3677 219.453 72.1087 218.904 71.84L218.308 71.5465C217.617 71.2076 216.92 70.881 216.181 70.6399C214.605 70.1254 212.983 69.7631 211.336 69.5696C210.98 69.5277 210.636 69.4072 210.365 69.2006C210.107 69.0046 209.911 68.7332 209.821 68.3724C209.705 67.9056 209.738 67.5521 209.989 67.1309C210.177 66.8146 210.446 66.5953 210.756 66.4694C211.071 66.3411 211.43 66.3108 211.787 66.3823Z" fill="black"/>
<path fill-rule="evenodd" clip-rule="evenodd" d="M218.218 95.6511C216.825 95.3893 215.385 95.4628 214.001 95.1581C212.651 94.8605 211.579 93.9756 210.275 93.5636C209.127 93.201 207.782 93.4466 206.888 94.1495C206.057 93.7655 205.114 93.6824 204.169 93.8092C202.736 94.0016 201.399 94.6081 200.123 95.2642C199.975 95.3402 199.827 95.4127 199.679 95.4861C197.321 95.4271 194.903 95.4318 192.589 95.9373C190.54 96.3852 188.603 97.4275 187.381 99.1686C186.013 101.118 185.767 103.599 185.556 105.902C185.422 107.364 187.451 107.66 188.139 106.602C188.852 105.505 189.594 104.405 190.544 103.495C191.623 102.463 192.936 102.056 194.407 101.962C197.653 101.754 200.922 101.928 204.172 101.784C206.056 101.701 208.153 100.976 208.912 99.3375C209.723 100.608 211.559 101.363 213.069 101.478C214.666 101.599 216.286 101.309 217.866 101.642C219.376 101.96 221.171 103.084 220.835 104.883C220.638 105.94 221.973 106.563 222.588 105.623C225.097 101.78 222.624 96.4799 218.218 95.6511" fill="black"/>
</g>
<defs>
<clipPath id="clip0">
<rect width="359" height="280" fill="white"/>
</clipPath>
</defs>
</svg>
