<svg width="564" height="440" viewBox="0 0 564 440" fill="none" xmlns="http://www.w3.org/2000/svg">
<g clip-path="url(#clip0)">
<path d="M152.845 323.952C229.025 359.552 393.93 348.92 467.374 334.632C539.731 314.805 522.461 259.098 544.657 197.982C572.403 121.588 518.544 124.212 433.131 71.1441C347.717 18.0762 293.75 49.5671 152.845 71.1442C11.9404 92.7213 20.2397 169.092 1.74261 232.074C-16.7545 295.055 61.0414 281.051 152.845 323.952Z" fill="#A5DFFB"/>
<path fill-rule="evenodd" clip-rule="evenodd" d="M68.4643 347.957C96.0653 352.151 124.167 352.362 151.997 350.839C163.012 350.014 174.06 349.865 185.065 350.92C191.568 351.404 220.081 353.584 222.41 347.757C220.944 316.73 217.975 285.438 208.865 255.598C205.118 245.002 201.901 236.208 194.589 227.44C192.284 225.046 187.314 220.025 184.467 218.387C182 216.969 180.968 217.475 179.552 215.079C178.144 212.433 177.106 208.012 175.107 206.145C173.072 204.243 170.055 204.924 166.317 205.536C167.004 196.251 162.72 193.887 156.818 192.121C146.444 188.16 136.198 190.15 133.587 202.784C128.745 202.784 126.026 204.868 123.086 206.871C121.884 207.689 122.72 209.775 121.285 210.419C118.629 211.365 113.935 211.133 111.378 212.297C99.7489 217.591 89.3914 225.269 82.5894 236.481C67.3401 260.42 56.865 310.847 58.6777 339.22C57.8835 340.466 58.9817 342.253 59.2608 343.593C59.6132 344.758 60.7543 345.533 61.9451 345.401C63.6069 347.189 66.1773 347.587 68.4643 347.957Z" fill="white"/>
<path fill-rule="evenodd" clip-rule="evenodd" d="M125.887 204.681C127.588 202.906 130.254 201.846 132.78 201.906L132.898 201.91L133.755 201.948L133.182 204.759L133.153 204.893L133.037 205.381L132.881 206.02L132.826 206.255L132.767 206.515C132.758 206.557 132.749 206.599 132.74 206.64L132.715 206.763L132.471 207.958L132.516 208.064L132.503 208.335C132.465 209.317 132.676 209.856 133.142 210.029L133.179 210.042L133.445 210.127L133.662 210.598C134.16 211.673 134.625 212.613 135.103 213.498C136.496 216.079 138.158 218.66 140.074 221.253C141.895 223.717 143.791 226.069 145.763 228.302C146.65 229.306 147.586 230.314 148.583 231.341L149.441 232.22L149.714 232.496L149.898 232.679L150.127 232.904L150.457 233.218L150.696 233.454L150.773 233.527C150.871 233.618 150.946 233.679 151.014 233.723L151.039 233.739L151.115 233.783L155.093 237.969L156.498 238.742L157.165 239.112L157.3 238.842L157.328 238.756L158.806 235.508L159.709 233.518C161.562 229.425 163.004 226.169 164.322 223.069L164.487 222.682L164.973 221.529L165.23 220.913C166.408 218.088 167.279 215.908 168.058 213.79L168.169 213.488L168.333 213.035L168.577 212.352L168.621 212.236C168.832 211.694 168.313 209.724 167.801 208.645L167.772 208.585L167.639 208.318L167.494 208.036C167.156 207.375 166.911 206.641 166.704 205.753C166.671 205.609 166.64 205.465 166.61 205.319L166.567 205.099L166.54 204.954L166.502 204.752L166.448 204.463L167.593 204.271L168.222 204.169L168.496 204.126C168.851 204.071 169.168 204.026 169.465 203.988L169.576 203.974L169.775 203.951L169.782 203.99L170.191 204.03L170.494 204.062C171.99 204.22 173.143 204.394 173.962 204.587L174.042 204.607L174.189 204.644L174.255 204.661C175 204.862 175.574 205.295 176.028 205.934C176.34 206.373 176.542 206.793 176.862 207.589L176.977 207.876L177.358 208.818C177.402 208.932 177.471 209.116 177.564 209.368L177.888 210.248L179.507 214.723L181.165 215.595C181.936 215.998 182.499 216.289 182.778 216.427L182.876 216.475L182.947 216.507L183.518 216.734L183.457 216.912L183.526 216.951C190.35 220.879 195.613 226.92 199.71 234.941L199.834 235.184L199.961 235.437C203.227 241.97 205.566 249.26 207.851 258.994L207.992 259.599L208.103 260.08L208.699 262.678C210.936 272.485 212.474 279.798 213.747 286.974L213.829 287.442L214.041 288.661C215.639 297.949 216.978 307.153 218.048 316.267L218.226 317.8C218.673 321.716 219.076 325.764 219.514 330.625L219.573 331.278L219.766 333.462C219.971 335.815 220.158 338.163 220.328 340.506L220.412 341.677L220.583 344.223L220.684 345.674L220.696 345.87L220.737 346.627L220.748 346.804C220.763 347.031 220.781 347.223 220.803 347.4L220.82 347.531L220.84 347.658C220.896 348.004 221.008 348.315 221.192 348.661L221.24 348.749L221.557 349.316L220.982 349.619C217.985 351.199 212.083 351.894 203.987 351.93L203.741 351.931H203.234C199.3 351.929 195.13 351.777 190.78 351.518L189.796 351.457L188.975 351.405C188.621 351.382 188.277 351.359 187.92 351.334L187.372 351.295L185.084 351.128C174.794 350.142 164.002 350.158 152.112 351.049C121.111 352.745 94.3536 352.029 69.204 348.274L68.4424 348.16L67.8811 348.068L67.5464 348.012C64.8787 347.557 63.2037 346.973 61.8967 345.747L61.8282 345.682L61.7712 345.626L61.7464 345.627C60.4304 345.621 59.2256 344.76 58.7786 343.49L58.7554 343.421L58.7259 343.327L58.7055 343.232C58.6847 343.141 58.6587 343.043 58.6271 342.935L58.6023 342.852L58.3945 342.171L59.0945 342.043C59.1548 342.032 59.2175 341.99 59.2783 341.902L59.3366 341.818L59.4375 341.678L59.6814 341.344C59.9411 340.98 60.0688 340.751 60.1321 340.521C60.1881 340.318 60.2091 340.057 60.203 339.695L60.1984 339.517L60.1708 338.875C60.169 338.824 60.1677 338.778 60.1669 338.735L60.1661 338.67L60.1656 337.766L60.1679 336.772C60.1695 336.338 60.1719 335.915 60.1752 335.5L60.1809 334.882L60.1865 334.385C60.2202 331.631 60.301 328.88 60.4289 326.134C60.6788 320.771 61.1075 315.417 61.714 310.083C62.9663 299.07 64.8844 288.389 67.4937 278.068L67.7558 277.037C70.5772 266.007 73.2974 257.503 76.7548 249.639C81.1522 239.637 86.5139 231.405 93.2649 224.824C96.9766 221.206 101.087 218.152 105.455 215.81C107.464 214.732 109.6 213.776 111.889 212.916L112.217 212.794L112.747 212.601L113.153 212.451L114.463 211.961C114.738 211.858 115.037 211.742 115.392 211.603L115.611 211.517L117.956 210.581L118.345 210.428L118.778 210.259L119.096 210.137C119.616 209.939 120.088 209.765 120.525 209.613L120.783 209.523L121.018 209.444L122.019 209.098L121.999 210.009C121.986 210.614 122.142 211.072 122.488 211.4L122.5 211.411L122.512 211.42L122.523 211.427L122.583 211.426L122.82 211.425C122.844 211.411 122.867 211.395 122.888 211.377C123.225 211.091 123.381 210.708 123.533 209.829L123.574 209.584L123.644 209.126L123.672 208.952C123.773 208.342 123.861 208.005 124.033 207.62C124.28 207.063 124.608 206.52 124.993 206.021L125.083 205.907L125.443 205.474L125.498 205.406C125.625 205.244 125.689 205.13 125.716 205.025L125.723 204.997L125.759 204.815L125.887 204.681Z" fill="#FAD551"/>
<path fill-rule="evenodd" clip-rule="evenodd" d="M182.709 217.686C182.54 217.591 182.689 217.349 182.859 217.429C191.045 221.27 197.324 228.01 201.743 235.797C206.318 243.861 208.926 253.016 211.174 261.963L211.255 262.287C213.652 271.859 215.69 281.53 217.525 291.224C219.384 301.042 220.876 310.92 222.076 320.839C222.669 325.744 223.199 330.657 223.611 335.58C223.818 338.04 224.005 340.502 224.173 342.965C224.241 343.95 224.304 344.935 224.358 345.921L224.397 346.661C224.431 347.331 224.511 348.004 224.345 348.666C224.202 349.236 223.9 349.753 223.634 350.276C223.109 351.312 221.669 351.141 221.103 350.276L220.939 350.025C220.564 349.444 220.252 348.905 220.134 348.183C220.02 347.483 220.016 346.751 219.965 346.044C219.871 344.745 219.791 343.444 219.7 342.144C219.508 339.407 219.293 336.672 219.054 333.94C218.583 328.545 218.077 323.155 217.457 317.774C216.353 308.213 214.969 298.677 213.337 289.191C211.742 279.925 209.726 270.753 207.623 261.593L207.405 260.645C203.723 244.652 198.048 226.233 182.709 217.686ZM95.5219 280.313C95.5821 280.153 95.8411 280.117 95.8848 280.313C96.4362 282.797 96.4907 285.355 96.575 287.898C96.6581 290.406 96.6547 292.926 96.6181 295.435C96.4833 304.659 96.2302 313.876 96.0114 323.098C95.9019 327.711 95.7993 332.325 95.7205 336.939C95.6907 338.669 95.6656 340.4 95.6448 342.13L95.6194 344.412C95.6067 345.422 95.5802 346.418 95.4572 347.426C95.3761 348.089 95.2033 348.722 94.8374 349.29C94.5777 349.693 94.2076 349.898 93.8468 350.172L93.7793 350.225C93.3192 350.588 92.8345 350.591 92.3788 350.225L92.2465 350.12C91.8112 349.779 91.435 349.513 91.1571 348.975C90.7704 348.226 90.7085 347.412 90.6428 346.587C90.5431 345.336 90.6092 344.067 90.6221 342.812C90.6479 340.295 90.6828 337.778 90.7269 335.261C90.889 326.031 91.2093 316.799 91.793 307.586C92.068 303.246 92.4409 298.892 92.941 294.57L93.0363 293.76C93.188 292.488 93.3264 291.194 93.4823 289.896C91.1547 288.258 89.1088 286.271 87.3642 284.016C87.2357 283.851 87.4472 283.618 87.6023 283.778C89.385 285.625 91.429 287.097 93.6919 288.255C94.0626 285.536 94.5724 282.833 95.5219 280.313ZM134.406 198.038C134.438 198.013 134.488 198.002 134.518 198.038C135.019 198.621 134.917 199.513 134.933 200.253L134.935 200.322C134.971 201.403 134.978 202.48 134.974 203.562L134.963 207.005V207.005C134.962 207.478 134.923 207.971 134.948 208.448L134.96 208.632V208.632C135.223 208.901 135.345 209.29 135.256 209.681C135.24 210.182 134.978 210.601 134.596 210.863L135.415 212.026V212.026L136.235 213.188C137.925 215.586 139.633 217.962 141.414 220.294C143.229 222.671 145.166 224.959 147.193 227.159C148.183 228.234 149.191 229.294 150.221 230.33C150.64 230.751 151.069 231.162 151.494 231.577L151.916 231.995C152.165 232.244 152.479 232.491 152.645 232.808C152.742 232.994 152.765 233.454 152.799 233.53C153.112 234.218 152.579 235.314 151.692 234.971L151.732 234.944C151.894 234.832 151.79 234.83 151.422 234.939C151.19 234.939 150.972 234.885 150.768 234.779L150.707 234.746C150.421 234.6 150.165 234.318 149.932 234.092L149.874 234.037C149.342 233.538 148.834 233.009 148.324 232.487C147.258 231.398 146.217 230.286 145.209 229.145C143.197 226.867 141.291 224.496 139.485 222.053C137.646 219.563 135.936 216.947 134.466 214.222C133.908 213.188 133.396 212.135 132.906 211.068C131.952 210.762 131.73 209.746 131.796 208.602C131.444 207.782 131.127 206.945 130.939 206.089C130.914 205.972 131.064 205.861 131.155 205.964C131.46 206.311 131.743 206.68 132.014 207.059C132.178 206.257 132.386 205.519 132.483 205.048L132.906 202.971V202.971C130.522 202.847 127.909 203.827 126.265 205.542C126.177 205.989 125.833 206.309 125.498 206.727C125.115 207.204 124.781 207.74 124.532 208.3C123.98 209.542 124.291 211.372 123.219 212.283C123.107 212.378 122.983 212.444 122.854 212.485C123.363 214.98 123.132 217.73 123.121 220.262L123.12 220.485C123.123 223.319 123.028 226.154 122.919 228.986L122.807 231.788C122.663 235.525 122.569 239.264 122.932 242.98C124.59 241.512 126.304 240.11 128.076 238.775C129.242 237.897 130.431 237.05 131.642 236.235L132.625 235.578C133.804 234.787 135.011 233.973 136.302 233.407C137.99 232.667 139.595 232.921 141.225 233.681C142.848 234.437 144.422 235.316 146.014 236.135C147.633 236.969 149.256 237.796 150.877 238.624C151.951 239.173 153.525 239.669 154.313 240.68C154.363 240.456 154.422 240.233 154.49 240.011C154.412 239.672 154.442 239.306 154.632 238.957C157.28 234.091 159.729 229.109 162.161 224.133C163.392 221.615 164.562 219.067 165.796 216.55L166.995 214.099C167.195 213.691 167.396 213.282 167.598 212.875C167.901 212.265 168.216 211.661 168.522 211.053C168.651 210.796 168.813 210.54 168.939 210.281L168.998 210.151C169.001 210.144 169.292 209.23 169.067 209.317L169.048 209.326C168.934 209.391 168.842 209.247 168.916 209.155C169.233 208.763 169.675 209.11 169.856 209.474C170.355 210.473 169.441 212.043 169.09 213L169.07 213.054C167.979 216.144 166.744 219.175 165.478 222.197C163.05 227.989 160.443 233.693 157.841 239.406L157.81 239.504V239.504C158.365 239.079 158.957 238.693 159.465 238.317C160.744 237.369 162.061 236.467 163.376 235.568C165.788 233.92 168.265 232.381 170.782 230.902L171.286 230.607C172.544 229.874 173.79 229.28 175.283 229.5C176.67 229.704 177.959 230.45 179.212 231.055L179.341 231.117L183.213 232.958C182.799 231.307 182.351 229.664 181.883 228.027C180.972 224.835 179.968 221.669 178.88 218.531C177.864 215.599 176.765 212.7 175.604 209.823L175.254 208.96C174.78 207.775 174.309 206.484 172.955 206.119C171.602 205.754 170.049 206.295 168.813 205.523C168.7 205.453 168.714 205.268 168.851 205.234L169.614 205.041C171.047 204.685 172.726 204.326 174.081 204.673C175.556 205.051 176.776 206.289 177.491 207.575C178.286 209.007 178.847 210.609 179.451 212.136L179.546 212.376C180.239 214.104 180.905 215.842 181.543 217.591C182.818 221.086 183.978 224.624 185.029 228.194C185.535 229.914 186.015 231.643 186.477 233.376C186.609 233.874 186.828 234.478 187.008 235.109C187.214 235.309 187.408 235.533 187.591 235.789C187.894 236.213 187.677 236.71 187.3 236.964C187.285 237.397 187.189 237.805 186.959 238.155C186.06 239.52 183.683 239.168 183.78 237.333C183.794 237.052 183.904 236.784 184.069 236.558L184.065 236.521V236.521L184.046 236.454V236.454C183.633 236.256 183.219 236.035 182.782 235.819L178.719 233.811V233.811C177.542 233.229 176.238 232.33 174.93 232.109C173.71 231.902 172.422 232.811 171.374 233.36L171.306 233.395C168.772 234.694 166.257 236.037 163.751 237.39C162.528 238.051 161.321 238.74 160.103 239.408C159.084 239.968 157.984 240.77 156.839 241.086C156.35 241.466 155.769 241.415 155.302 241.128C155.516 242.45 155.503 243.806 155.568 245.158C155.656 246.965 155.67 248.777 155.699 250.586L155.711 251.265C155.787 255.265 155.829 259.266 155.844 263.266C155.898 277.513 155.741 291.764 155.704 306.011C155.685 313.169 155.543 320.333 155.357 327.488C155.279 330.52 155.114 333.549 154.936 336.576L154.838 338.227C154.631 341.711 154.508 345.234 153.864 348.671C153.78 349.119 153.021 349.131 152.947 348.671C152.353 344.988 152.32 341.224 152.206 337.498L152.182 336.753C152.045 332.752 151.98 328.754 151.994 324.751C152.045 310.499 152.415 296.255 152.718 282.007C152.87 274.848 152.973 267.686 153.209 260.529C153.328 256.948 153.462 253.37 153.62 249.79C153.691 248.192 153.76 246.596 153.866 245L153.914 244.316C153.947 243.87 153.973 243.429 154.006 242.992C152.564 243.519 151.246 242.544 149.949 241.877C148.455 241.108 146.961 240.337 145.466 239.57L143.969 238.803V238.803L140.975 237.275C139.626 236.586 138.587 235.901 137.149 236.709C131.968 239.617 127.208 243.486 122.893 247.545C122.066 248.324 120.317 248.115 120.108 246.81C119.213 241.235 119.757 235.58 120.214 229.989L120.383 227.913C120.587 225.434 120.809 222.954 121.106 220.485C121.238 219.38 121.37 218.276 121.516 217.174L121.628 216.347C121.811 215.041 121.93 213.742 122.319 212.488C122.196 212.449 122.078 212.383 121.973 212.283C120.803 211.173 121.367 209.246 121.901 207.925C122.428 206.621 123.232 205.483 124.238 204.504C124.458 204.29 124.767 204.152 125.078 204.145C127.519 202.528 130.197 201.72 132.984 202.603C133.062 202.229 133.142 201.855 133.226 201.482L133.311 201.11C133.528 200.185 133.609 198.656 134.406 198.038ZM159.422 344.127C160.179 343.919 161.008 344.138 161.563 344.693C162.118 345.249 162.338 346.078 162.129 346.836C162.025 347.209 161.836 347.532 161.563 347.807C161.308 348.061 161.011 348.242 160.671 348.35L160.592 348.374L160.468 348.425C160.088 348.527 159.709 348.527 159.329 348.425C158.966 348.323 158.651 348.14 158.384 347.874C158.118 347.607 157.935 347.292 157.833 346.928C157.731 346.548 157.731 346.169 157.833 345.789L157.884 345.665V345.665C157.989 345.292 158.177 344.968 158.45 344.693C158.725 344.421 159.049 344.232 159.422 344.127ZM204.394 268.624C204.518 268.482 204.72 268.665 204.643 268.817C203.463 271.13 202.148 273.427 200.856 275.682C200.959 276.307 201.062 276.927 201.18 277.531C201.684 280.107 202.3 282.636 202.702 285.236C204.147 294.582 204.898 304.029 205.541 313.458C206.187 322.922 206.27 332.389 206.366 341.871C206.375 342.693 205.743 343.648 204.896 343.803C204.509 343.874 204.219 343.86 203.832 343.803C202.95 343.673 202.399 342.664 202.361 341.871C202.109 336.572 201.769 331.279 201.375 325.988C200.677 316.608 200.25 307.203 199.687 297.812L199.488 294.53C199.275 290.974 199.08 287.416 199.016 283.854C198.974 281.495 199.1 279.136 199.023 276.779C198.951 274.603 198.731 272.237 199.21 270.099C199.228 270.019 199.354 269.999 199.391 270.076C199.89 271.126 200.205 272.267 200.449 273.432C201.734 271.806 203.042 270.177 204.394 268.624ZM120.226 211.149C120.406 211.135 120.399 211.406 120.226 211.427C117.704 211.719 115.268 212.746 112.887 213.618L112.683 213.693C110.277 214.566 107.932 215.581 105.675 216.791C101.262 219.157 97.2102 222.209 93.6276 225.701C79.3237 239.645 72.805 259.751 68.0285 278.646C65.3745 289.144 63.4873 299.82 62.264 310.577C61.6592 315.897 61.2316 321.238 60.9823 326.586C60.8547 329.327 60.7742 332.071 60.7406 334.815C60.7233 336.221 60.7182 337.627 60.7199 339.032C60.7207 339.676 60.8357 340.487 60.6635 341.113C60.5038 341.692 60.0533 342.202 59.7202 342.685C59.3253 343.258 58.6157 343.227 58.2153 342.685L58.0677 342.487C57.6407 341.921 57.2229 341.379 57.1619 340.638C57.0966 339.845 57.1427 339.026 57.1397 338.229C57.133 336.622 57.1528 335.016 57.185 333.41C57.2469 330.331 57.3681 327.254 57.5483 324.18C57.9142 317.942 58.5166 311.717 59.379 305.528C60.9119 294.527 63.2097 283.631 66.2194 272.94C69.0588 262.855 72.4226 252.799 77.2146 243.457C81.6639 234.783 87.5008 226.714 95.2028 220.652C98.7844 217.833 102.683 215.484 106.887 213.715C109.007 212.822 111.233 212.094 113.497 211.678C115.737 211.268 117.966 211.325 120.226 211.149ZM159.855 326.3C160.255 326.297 160.701 326.385 161.044 326.607L161.503 326.961V326.961C161.627 327.121 161.751 327.281 161.874 327.441C162.16 327.815 162.199 328.42 162.139 328.865C162.125 329.162 162.037 329.439 161.874 329.695L161.525 330.147V330.147C161.189 330.421 160.91 330.616 160.503 330.748C160.291 330.817 160.086 330.831 159.883 330.821L159.815 330.816L159.855 330.822L159.784 330.814V330.814C159.718 330.808 159.651 330.801 159.584 330.792C159.539 330.786 159.493 330.783 159.448 330.776C159.404 330.773 159.362 330.771 159.318 330.775C158.801 330.824 158.282 330.531 157.916 330.194C157.585 329.891 157.289 329.248 157.335 328.792L157.355 328.601C157.39 328.28 157.418 328.154 157.554 327.831C157.686 327.517 157.871 327.24 158.123 327.005C158.605 326.557 159.194 326.305 159.855 326.3ZM158.257 302.781C158.942 302.033 160.119 301.978 160.969 302.43C161.176 302.541 161.367 302.718 161.549 302.865C162.009 303.237 162.19 303.908 162.215 304.473C162.24 305.032 161.945 305.696 161.549 306.082L161.453 306.175V306.175C161.216 306.406 160.877 306.606 160.546 306.667C160.011 306.765 159.563 306.762 159.065 306.552C158.637 306.372 158.269 306.082 158.018 305.688L157.978 305.622C157.961 305.594 157.944 305.566 157.929 305.537L157.907 305.494C157.431 304.578 157.559 303.541 158.257 302.781ZM158.612 279.137C158.921 279.04 159.23 279.026 159.539 279.096C159.749 279.096 159.944 279.149 160.126 279.254C160.323 279.309 160.494 279.409 160.639 279.553C160.813 279.656 160.952 279.796 161.056 279.97C161.261 280.195 161.4 280.459 161.472 280.761L161.555 281.379L161.472 281.998L161.237 282.553V282.553C161.173 282.638 161.108 282.722 161.043 282.805C160.939 282.981 160.8 283.12 160.625 283.224C160.511 283.337 160.38 283.422 160.234 283.481C159.717 283.852 159.027 283.973 158.414 283.804C158.049 283.702 157.733 283.517 157.465 283.251C157.199 282.982 157.014 282.666 156.912 282.302L156.87 282.011C156.816 281.621 156.808 281.405 156.918 280.909C156.966 280.691 157.107 280.383 157.18 280.254C157.495 279.701 158.008 279.322 158.612 279.137ZM185.45 262.127C186.337 262.121 187.225 262.123 188.112 262.132L188.778 262.141C189.892 262.159 190.847 262.044 191.723 262.817C192.359 263.379 192.079 264.32 191.475 264.743C190.561 265.384 189.413 265.062 188.362 264.991C187.253 264.917 186.144 264.855 185.034 264.805C182.885 264.709 180.734 264.648 178.583 264.638C176.436 264.629 174.287 264.649 172.14 264.684C169.956 264.719 167.682 264.923 165.51 264.697C165.212 264.666 165.145 264.273 165.439 264.171C167.486 263.463 169.788 263.233 171.933 262.963C174.145 262.683 176.357 262.485 178.583 262.357C180.87 262.226 183.16 262.143 185.45 262.127ZM158.608 255.171L158.682 255.172C159.072 255.173 159.438 255.265 159.779 255.448L159.851 255.488L160.32 255.851C160.607 256.14 160.806 256.481 160.916 256.874L160.999 257.49V257.49C161.011 257.809 160.944 258.107 160.799 258.383C160.706 258.671 160.546 258.919 160.32 259.129C160.11 259.355 159.862 259.515 159.575 259.609C159.319 259.743 159.046 259.81 158.755 259.81L158.682 259.808C158.263 259.807 157.873 259.701 157.512 259.492L157.043 259.129V259.129C156.756 258.84 156.557 258.499 156.447 258.106L156.364 257.49V257.49C156.352 257.171 156.419 256.873 156.564 256.597C156.657 256.31 156.817 256.061 157.043 255.851C157.253 255.625 157.501 255.465 157.789 255.372C158.044 255.238 158.317 255.17 158.608 255.171V255.171ZM165.478 200.712C165.978 199.988 166.882 200.632 166.753 201.213C166.787 202.847 166.871 204.432 167.242 206.032C167.412 206.765 167.635 207.498 167.979 208.169L168.123 208.452C168.568 209.331 168.914 210.161 168.314 211.125C168.032 211.58 167.521 211.922 166.968 211.898C164.514 211.792 164.177 208.375 164.028 206.468C163.874 204.503 164.352 202.344 165.478 200.712Z" fill="black"/>
<path fill-rule="evenodd" clip-rule="evenodd" d="M190.646 157.119C189.847 143.972 185.591 129.068 173.068 122.613C145.459 111.505 109.159 139.478 107.237 168.055C106.567 177.838 111.984 188.527 121.885 191.246C124.086 194.17 127.415 195.955 130.701 197.505C169.835 217.859 195.114 201.314 190.646 157.119V157.119Z" fill="white"/>
<path fill-rule="evenodd" clip-rule="evenodd" d="M199.561 148.941C198.178 145.09 196.717 141.269 195.18 137.477C193.683 133.787 192.331 130.017 190.473 126.502C179.371 105.506 159.182 105.506 148.747 108.25C143.335 105.912 133.198 106.571 127.563 108.681C118.441 112.096 107.32 125.529 103.518 131.564C95.1231 144.889 89.8842 162.625 95.4605 178.023C96.1893 180.036 97.1188 181.9 98.1653 183.696C97.5061 184.592 96.7473 185.44 95.9068 186.274C93.4089 188.751 90.9111 191.147 88.7534 193.941C86.6091 196.718 84.8314 199.671 83.5081 202.927C81.0128 209.067 80.8927 216.02 84.1916 221.879C87.0617 226.976 92.1461 230.772 97.8744 231.134C98.1685 231.175 98.463 231.213 98.7588 231.243C99.5177 232.496 100.443 233.65 101.499 234.656C104.736 237.742 112.45 239.325 116.849 239.426C117.075 239.608 117.303 239.79 117.53 239.97C120.223 242.094 123.048 244.237 126.138 245.748C128.232 246.773 130.977 247.629 133.161 246.889C134.152 247.553 135.777 247.413 136.759 246.87C138.374 245.978 139.688 244.372 140.487 242.728C142.424 238.735 141.958 234.367 141.461 230.102C140.913 225.391 140.386 220.677 139.85 215.966C139.431 212.283 138.992 208.538 137.875 204.989C137.297 203.15 136.54 201.383 135.562 199.722C135.587 199.583 135.583 199.443 135.543 199.312C135.223 198.268 134.561 197.721 133.776 197.01C133.675 196.92 133.574 196.827 133.475 196.731C133.083 196.283 132.663 195.867 132.214 195.514C132.041 195.339 131.87 195.161 131.7 194.984C130.281 193.494 128.94 191.927 127.749 190.249C126.594 188.622 125.55 186.923 124.557 185.192C123.547 183.431 122.879 181.489 121.871 179.741C121.785 179.591 121.565 179.561 121.443 179.686C121.131 180.009 120.931 180.369 120.969 180.747L120.813 180.77C120.754 180.2 120.229 179.735 119.516 179.859C118.45 180.045 117.573 180.115 116.649 179.76C116.811 178.68 116.961 177.598 117.109 176.514C117.379 174.519 117.629 172.517 117.844 170.516C118.365 170.64 118.882 170.82 119.388 171.048C120.109 171.372 120.79 171.807 121.372 172.342C121.945 172.87 122.341 173.582 123.041 173.95C123.847 174.371 124.818 173.675 124.582 172.762C124.104 170.917 121.395 169.86 119.719 169.512C119.143 169.391 118.555 169.34 117.967 169.353C118.1 168.068 118.218 166.783 118.315 165.496C118.361 164.887 118.403 164.279 118.443 163.668C119.746 163.273 121.142 163.154 122.497 163.34C122.944 163.697 123.391 164.05 123.823 164.408C125.196 165.545 126.562 166.688 127.911 167.853C128.033 167.956 128.154 168.06 128.276 168.165C129.077 168.856 130.076 168.172 129.941 167.193C128.841 159.175 133.74 152.796 139.477 147.855C145.827 142.383 157.371 141.746 164.923 132.268C168.401 132.977 176.166 135.085 179.371 140.204C183.857 147.377 183.271 153.804 183.612 161.941C183.954 170.084 184.823 178.579 182.978 186.608C181.277 194.011 176.67 200.337 169.523 203.245C169.346 203.317 169.167 203.387 168.988 203.455C165.292 204.852 161.259 205.247 157.371 204.511C153.069 203.695 149.476 201.721 145.896 199.293C145.69 199.156 145.388 199.439 145.544 199.646C150.263 205.915 159.53 208.009 166.882 206.354C167.225 206.276 167.567 206.192 167.906 206.099C166.262 210.839 166.593 216.043 168.735 220.658C170.023 223.436 171.988 225.839 174.381 227.734C177.018 229.823 180.29 231.509 182.12 234.441C183.796 237.127 183.298 240.145 180.429 241.696C179.706 242.089 179.428 243.36 180.144 243.918C180.419 244.129 180.693 244.344 180.973 244.556C182.579 245.771 186.992 248.054 187.707 248.138C194.052 248.893 198.319 244.222 201.054 238.712C204.265 232.245 203.43 224.363 199.892 218.205C197.054 213.263 191.466 208.394 193.688 202.14C194.48 199.906 196.102 198.002 197.676 196.281C199.473 194.322 201.404 192.488 203.126 190.459C204.838 188.444 206.356 186.253 207.203 183.725C208.441 180.031 207.825 176.036 206.896 172.348C204.903 164.431 202.317 156.619 199.561 148.941Z" fill="black"/>
<path fill-rule="evenodd" clip-rule="evenodd" d="M164.152 190.274C162.732 189.694 161.465 188.727 160.538 187.492C160.216 187.063 160.133 186.61 160.2 186.195C160.276 185.729 160.552 185.306 160.928 185.023C161.305 184.738 161.777 184.598 162.233 184.67C162.63 184.732 163.024 184.949 163.337 185.399L163.402 185.489C163.953 186.235 164.67 186.846 165.488 187.24C166.276 187.62 167.158 187.798 168.07 187.695C169.807 187.498 171.005 186.558 172.278 185.282C172.436 185.121 172.593 184.954 172.752 184.786C172.852 184.632 172.991 184.534 173.146 184.482C173.317 184.425 173.511 184.428 173.689 184.49C173.86 184.55 174.013 184.663 174.116 184.814C174.213 184.958 174.268 185.135 174.251 185.338C174.134 186.661 173.443 187.842 172.461 188.769C171.37 189.798 169.924 190.511 168.563 190.76C167.064 191.036 165.536 190.838 164.152 190.274V190.274ZM169.271 169.866C170.866 170.836 173.297 173.098 171.581 175.503C169.561 177.624 166.652 175.192 165.219 174.093C163.89 173.241 162.396 175.432 163.63 176.428C173.987 184.099 178.19 170.12 170.078 168.725C169.185 168.572 168.853 169.566 169.271 169.866ZM150.711 160.943C150.887 158.754 154.219 158.257 154.551 160.423C154.847 162.363 154.498 164.145 153.624 165.892C152.79 167.561 150.692 166.782 150.533 165.263C150.32 163.226 150.601 162.304 150.711 160.943ZM176.077 159.974C176.541 159.365 177.212 158.949 178.016 159.184C180.526 159.918 179.786 163.484 178.905 165.22C178.425 166.163 176.877 166.402 176.177 165.572C175.036 164.218 174.49 161.515 175.94 160.182C175.979 160.113 176.023 160.044 176.077 159.974ZM153.589 151.365L153.986 151.296C155.213 151.083 156.738 150.879 157.606 151.866C158.067 152.39 158.225 153.362 157.606 153.863C156.518 154.744 155.314 154.403 154.01 154.477C152.935 154.539 151.902 154.717 150.867 155.013C148.595 155.663 146.744 156.848 144.804 158.15C144.55 158.321 144.29 157.995 144.411 157.757C145.531 155.563 147.701 153.76 149.875 152.661C151.036 152.075 152.305 151.588 153.589 151.365ZM173.788 150.382L174.091 150.444C177.395 151.135 181.687 152.515 183.251 155.761C183.311 156.22 183.248 156.319 183.197 156.383L183.18 156.404C183.138 156.459 183.104 156.535 182.905 156.597C182.85 156.584 182.794 156.57 182.738 156.556C182.021 156.368 181.453 156.109 180.904 155.84L180.308 155.546C179.617 155.207 178.92 154.881 178.182 154.64C176.605 154.125 174.984 153.763 173.337 153.569C172.98 153.527 172.636 153.407 172.365 153.2C172.108 153.004 171.911 152.733 171.822 152.372C171.705 151.905 171.739 151.552 171.989 151.131C172.177 150.814 172.447 150.595 172.756 150.469C173.072 150.341 173.431 150.311 173.788 150.382Z" fill="black"/>
<path fill-rule="evenodd" clip-rule="evenodd" d="M360.611 304.271C362.165 299.487 360.314 293.961 361.524 288.803C361.938 286.763 362.726 279.184 363.518 274.752C363.96 272.272 361.312 271.503 360.906 270.513C358.042 261.624 378.931 240.713 380.206 239.942C382.117 238.836 383.808 237.883 385.675 236.753C391.121 234.836 397.652 229.502 402.59 232.928C411.145 220.166 407.76 204.444 412.403 202.575C417.045 200.707 430.753 196.93 438.59 201.753C443.288 205.236 442.942 211.231 445.085 216.176C446.343 218.504 446.961 221.875 448.426 223.394C453.402 228.552 459.608 229.441 466.545 230.316C467.074 230.383 467.63 228.943 468.143 229.121C479.845 233.174 493.462 234.357 506.715 257.051C508.587 260.297 513.636 265.505 511.948 269.255C523.072 295.177 534.018 353.521 503.494 368.071C502.519 368.696 495.9 365.343 494.821 365.374C493.023 365.425 496.468 369.8 494.821 369.02C482.73 369.94 416.198 367.568 390.696 369.94C373.159 369.808 362.051 372.889 358.001 369.808C359.62 365.888 359.545 361.689 359.033 357.544C355.307 354.765 359.914 335.18 359.524 329.445C356.035 325.254 358.813 309.536 360.611 304.271Z" fill="white"/>
<path fill-rule="evenodd" clip-rule="evenodd" d="M467.229 230.278L467.341 230.35C467.36 230.363 467.378 230.375 467.396 230.388C467.515 230.478 467.496 230.641 467.355 230.695C467.168 230.769 466.971 230.824 466.769 230.868C466.153 231.762 465.672 232.868 465.337 233.428C464.372 235.039 456.091 245.162 454.853 246.463C452.842 248.576 442.939 256.524 442.805 256.365C441.212 257.319 439.562 258.174 437.847 258.904C427.702 263.225 414.689 263.616 405.97 256.44C405.321 256.618 399.156 247.725 398.203 244.539C397.739 244.668 397.163 241.254 397.485 241.306C397.204 239.375 400.58 232.442 400.901 232.11C400.853 232.095 400.804 232.081 400.756 232.067C400.728 232.128 400.664 232.174 400.588 232.154C399.944 231.986 399.292 231.897 398.64 231.91C398.144 231.92 394.603 233.537 394.466 233.603C394.381 233.644 394.297 233.685 394.211 233.726C365.887 247.37 361.521 269.543 360.542 269.493C360.954 270.017 372.146 285.873 372.748 287.274C372.873 284.244 370.805 365.024 370.66 366.711C370.601 367.407 370.596 369.049 370.499 369.71C371.209 369.749 396.117 368.045 442.434 368.324C457.224 368.414 493.78 370.026 493.78 370.026L493.792 369.925C493.897 368.936 493.805 367.018 493.82 366.032C492.416 365.219 491.038 364.356 489.676 363.507C486.576 361.574 467.443 344.014 453.382 328.301C445.047 318.987 434.648 312.718 434.085 312.109C434.074 312.096 434.069 312.083 434.06 312.07C434.031 312.091 433.995 312.112 433.948 312.105C427.472 311.178 417.808 313.174 410.693 309.483C407.517 307.836 396.74 296.62 393.564 293.52C393.469 293.427 393.4 293.329 393.352 293.228C391.234 291.935 382.98 285.379 382.396 284.57L382.222 284.326C381.577 283.41 380.607 282.445 381.731 281.566C382.916 280.64 385.187 281.753 386.437 282.286L386.611 282.359C387.219 282.609 387.816 282.881 388.403 283.171C389.145 281.089 390.953 281.046 392.902 281.333C394.291 281.538 395.639 282.015 396.993 282.377C398.712 282.837 400.439 283.271 402.171 283.677C405.291 284.409 408.897 285.747 412.053 286.301C412.137 286.204 412.252 286.128 412.407 286.089C413.488 285.818 414.68 286.026 415.788 286.046C416.738 286.064 417.688 286.066 418.638 286.052L419.208 286.042C421.244 286.001 423.975 285.052 426.01 285.017L426.132 284.942L426.252 284.865C426.778 284.526 427.347 284.071 427.502 283.499C427.522 283.428 425.44 278.628 425.41 274.744C425.393 272.585 426.133 270.564 426.31 269.493C426.74 266.878 427.704 268.562 429.098 271.123C430.493 273.685 432.352 276.014 433.746 277.877C435.544 280.278 437.306 281.003 438.222 282.395C438.378 282.631 438.53 282.874 438.679 283.124C439.038 282.766 442.059 289.898 441.531 291.272C441.899 291.15 456.753 310.246 489.056 323.986C488.85 322.701 483.246 288.822 484.641 283.233C486.035 277.644 504.475 256.987 506.393 256.529C506.201 256.215 513.69 261.342 500.211 248.068C486.732 234.794 477.75 232.547 471.04 230.08C470.664 229.963 470.291 229.845 469.919 229.725C470.013 229.892 469.8 230.076 469.636 229.94C468.708 229.172 467.903 229.532 467.229 230.278Z" fill="#FAD551"/>
<path fill-rule="evenodd" clip-rule="evenodd" d="M366.171 275.583C367.844 278.021 369.381 280.532 370.771 283.143C371.487 284.489 372.156 285.863 372.757 287.264C372.882 284.234 372.91 281.168 373.263 278.168C373.289 277.951 373.649 277.846 373.687 278.11C374.077 280.831 374.142 283.622 374.289 286.371C374.459 286.319 374.647 286.289 374.854 286.289C376.862 286.289 378.839 286.454 380.84 286.617C381.737 286.689 382.675 286.745 383.589 286.888C382.853 286.074 382.167 285.213 381.535 284.316C380.889 283.4 380.152 281.97 381.276 281.09C382.518 280.119 384.954 281.389 386.156 281.883C386.764 282.133 387.361 282.406 387.948 282.695C388.69 280.613 390.963 280.337 392.911 280.625C394.301 280.83 395.649 281.306 397.003 281.669C398.722 282.129 400.448 282.562 402.181 282.968C405.301 283.7 408.442 284.34 411.598 284.894C411.682 284.797 411.797 284.72 411.952 284.682C413.032 284.411 414.225 284.618 415.333 284.639C416.473 284.66 417.613 284.658 418.753 284.635C420.789 284.593 422.823 284.576 424.858 284.541C425.437 284.189 426.17 283.685 426.35 283.023C426.574 282.198 425.874 281.283 425.549 280.581C424.3 277.882 423.863 274.862 424.353 271.923C424.441 271.399 424.621 270.826 424.88 270.289C422.65 270.529 420.449 270.691 418.206 270.764C413.729 270.91 409.252 271.063 404.772 271.097C395.815 271.163 386.858 271.164 377.902 271.098C372.837 271.061 367.785 271.015 362.726 270.755C363.139 271.279 363.54 271.814 363.931 272.357C364.012 272.333 364.118 272.376 364.105 272.477C364.101 272.512 364.097 272.547 364.093 272.582C364.807 273.581 365.495 274.597 366.171 275.583M376.13 368.377C378.212 368.311 380.293 368.244 382.374 368.178C386.46 368.047 390.545 367.917 394.63 367.787C402.724 367.529 410.817 367.28 418.912 367.056C426.987 366.833 435.067 366.597 443.144 366.849C451.24 367.102 459.315 367.757 467.396 368.282C471.888 368.574 476.384 368.827 480.885 368.948C485.171 369.063 489.496 368.889 493.776 369.195C493.919 368.135 493.814 367.078 493.829 366.022C492.425 365.209 491.048 364.346 489.686 363.497C484.721 360.402 480.028 356.902 475.601 353.075C474.921 352.487 474.254 351.886 473.593 351.279C474.053 352.285 473.685 353.583 472.367 354.009C470.761 354.528 469.116 354.344 467.447 354.304C465.753 354.265 464.059 354.227 462.364 354.191C459.052 354.12 455.74 354.057 452.428 354.002C445.958 353.893 439.487 353.813 433.016 353.76C419.998 353.655 406.988 353.833 393.971 354.068C390.311 354.134 386.655 354.216 382.994 354.133C381.163 354.092 379.324 354.079 377.495 353.98C376.03 353.9 374.555 353.693 373.09 353.506C372.905 356.063 372.712 358.62 372.497 361.174C372.355 362.861 372.208 364.548 372.064 366.235C372.004 366.931 372 367.641 371.902 368.303C373.309 368.38 374.707 368.422 376.13 368.377M374.699 296.167C374.75 298.124 374.777 300.083 374.791 302.042C374.96 301.945 375.15 301.874 375.365 301.842C377.641 301.494 380.077 301.758 382.38 301.796C384.606 301.834 386.84 301.821 389.064 301.926C391.292 302.032 393.52 302.158 395.748 302.273C396.793 302.328 397.827 302.375 398.864 302.517C399.575 302.614 400.484 302.607 401.243 302.81C398.058 299.719 394.89 296.609 391.714 293.51C391.619 293.417 391.55 293.318 391.502 293.218C389.384 291.925 387.351 290.47 385.51 288.803C384.05 289.367 382.388 289.438 380.84 289.564C378.839 289.727 376.862 289.891 374.853 289.891C374.718 289.891 374.591 289.878 374.471 289.855C374.569 291.958 374.644 294.061 374.699 296.167M457.396 334.193C452.533 335.749 447.265 335.731 442.207 336.043C436.814 336.375 431.429 336.651 426.031 336.862C415.248 337.282 404.472 337.852 393.691 338.306C387.532 338.565 381.375 338.851 375.22 339.162C374.783 339.184 374.367 339.072 373.999 338.866C373.793 342.928 373.551 346.989 373.269 351.047C373.234 351.554 373.194 352.061 373.158 352.569C376.056 352.204 378.931 351.856 381.85 351.609C385.127 351.331 388.404 351.098 391.686 350.879C398.082 350.455 404.488 349.885 410.896 349.678C423.959 349.255 437.05 349.399 450.117 349.492C453.815 349.518 457.512 349.554 461.209 349.599C463.057 349.622 464.906 349.646 466.754 349.673C468.612 349.7 470.609 349.507 472.368 350.156C472.384 350.163 472.399 350.172 472.415 350.178C467.108 345.139 462.354 339.571 457.396 334.193M440.303 318.084C432.177 319.567 423.924 319.465 415.687 319.612C407.258 319.762 398.819 319.663 390.389 319.68C385.601 319.69 380.771 319.901 376 319.474C375.436 319.424 374.999 319.209 374.687 318.905C374.6 323.991 374.441 329.074 374.222 334.155C374.531 334.023 374.869 333.943 375.22 333.922C385.992 333.287 396.764 332.711 407.549 332.359C418.325 332.007 429.114 331.59 439.896 331.72C445.158 331.784 450.722 331.447 455.911 332.596C453.939 330.496 451.925 328.435 449.817 326.462C446.745 323.585 443.467 320.89 440.303 318.084M434.095 312.099C434.084 312.086 434.079 312.072 434.07 312.06C434.041 312.081 434.005 312.096 433.958 312.095C426.352 311.923 417.818 314.328 410.703 310.637C407.527 308.99 404.897 306.386 402.344 303.884C402.342 303.902 402.341 303.921 402.339 303.939C402.323 304.142 402.237 304.387 402.031 304.477C401.192 304.846 400.209 304.87 399.308 305.001C398.272 305.153 397.254 305.241 396.209 305.304C393.904 305.442 391.6 305.589 389.295 305.72C386.994 305.85 384.684 305.861 382.381 305.918C380.071 305.976 377.652 306.256 375.365 305.926C375.156 305.896 374.969 305.829 374.803 305.738C374.8 308.701 374.773 311.664 374.745 314.626C374.741 315.109 374.731 315.591 374.726 316.073C375.034 315.79 375.458 315.592 376 315.544C380.239 315.17 384.511 315.337 388.765 315.351C392.942 315.365 397.12 315.379 401.297 315.393C409.732 315.421 418.161 315.503 426.595 315.664C430.696 315.743 434.779 316.088 438.821 316.753C437.184 315.26 435.594 313.722 434.095 312.099M500.188 365.978C501.745 366.455 503.291 366.248 504.852 366.575C504.947 366.595 505.036 366.632 505.117 366.682C509.79 364.681 512.904 360.667 515.036 356.169C517.283 351.427 518.831 346.358 519.869 341.22C522.008 330.627 522.011 319.644 520.904 308.927C519.816 298.399 517.662 287.928 514.589 277.802C512.478 270.85 509.789 263.826 506.055 257.487C501.743 260.382 498.398 264.551 495.248 268.625C491.483 273.494 488.091 278.647 485.054 284.001C485.368 284.918 485.417 286.068 485.568 286.888C485.858 288.469 486.12 290.069 486.326 291.664C486.767 295.071 487.189 298.481 487.639 301.887C488.53 308.623 489.592 315.34 490.767 322.032C490.862 322.574 490.71 323.033 490.43 323.376C492.759 324.607 495.058 325.891 497.298 327.284C502.221 330.346 506.823 333.912 510.436 338.486C510.53 338.605 510.382 338.764 510.266 338.656C502.519 331.483 492.893 326.979 483.443 322.528C478.614 320.253 473.808 317.942 469.175 315.282C464.329 312.502 459.708 309.359 455.279 305.954C450.222 302.065 445.461 297.814 440.999 293.253C440.473 292.715 440.6 292.042 440.996 291.617C440.862 291.575 440.754 291.459 440.747 291.265C440.64 288.286 439.748 285.748 438 283.338C436.379 281.101 434.313 279.258 432.449 277.234C431.621 276.334 430.829 275.398 430.122 274.398C429.395 273.369 428.952 272.234 428.318 271.159C427.579 269.903 426.949 270.545 426.606 271.682C426.218 272.971 426.242 274.479 426.398 275.804C426.563 277.206 426.989 278.573 427.603 279.84C428.179 281.03 428.843 282.241 428.456 283.605C427.818 285.847 425.085 287.145 423.015 287.65C420.709 288.212 418.298 288.103 415.963 287.812C413.04 287.446 410.13 286.911 407.241 286.343C403.894 285.684 400.567 284.925 397.266 284.066C395.714 283.662 394.173 283.132 392.607 282.797C392.048 282.678 391.014 282.5 390.358 282.791C398.797 287.833 407.998 291.191 417.342 294.118C418.504 294.481 418.027 296.238 416.839 295.947C406.8 293.487 397.355 288.922 388.366 283.922C388.229 283.846 388.112 283.727 388.026 283.587C387.122 283.268 386.203 282.991 385.265 282.763C384.846 282.661 382.691 281.948 382.422 282.222C382.04 282.61 383.361 283.869 383.691 284.235C386.04 286.843 388.834 288.971 391.858 290.73C394.926 292.514 398.19 293.937 401.47 295.28C405.144 296.784 409.027 297.966 412.598 299.694C414.016 300.381 413.021 302.714 411.526 302.241C409.6 301.631 407.729 300.735 405.857 299.973C404.267 299.327 402.677 298.68 401.096 298.012C399.994 297.546 398.899 297.064 397.815 296.56C399.439 298.092 401.063 299.623 402.687 301.155C405.498 303.808 408.17 306.83 411.608 308.691C415.004 310.529 418.879 310.743 422.659 310.703C424.557 310.683 426.447 310.623 428.344 310.7C430.342 310.78 432.116 311.088 434.009 311.718C434.043 311.729 434.069 311.75 434.09 311.774C434.156 311.693 434.269 311.653 434.385 311.721C439.528 314.769 444.217 318.722 448.726 322.629C453.373 326.657 457.746 330.939 461.913 335.463C465.901 339.792 469.857 344.138 474.197 348.122C478.434 352.011 482.963 355.543 487.691 358.812C490.267 360.593 492.907 362.308 495.639 363.841C497.098 364.66 498.581 365.486 500.188 365.978M499.756 248.748C497.914 246.675 495.931 244.753 493.833 242.976C492.908 243.25 491.936 243.327 490.957 243.337C489.463 243.352 487.966 243.414 486.472 243.399C483.595 243.369 480.719 243.278 477.842 243.263C471.958 243.231 466.073 243.229 460.189 243.28C459.418 243.287 458.862 242.957 458.519 242.477C457.328 243.83 456.1 245.152 454.863 246.453C452.852 248.566 450.708 250.583 448.426 252.42C448.87 252.423 449.314 252.427 449.756 252.424C451.791 252.411 453.826 252.398 455.861 252.387C459.945 252.364 464.029 252.347 468.113 252.337C476.232 252.315 484.376 252.383 492.485 252.799C494.735 252.915 497.003 252.962 499.246 253.182C500.462 253.301 501.677 253.44 502.892 253.57C503.141 253.596 503.379 253.629 503.613 253.667C502.423 251.953 501.142 250.308 499.756 248.748M467.238 230.268C467.293 230.305 467.352 230.339 467.405 230.378C467.524 230.468 467.506 230.631 467.365 230.685C467.177 230.759 466.981 230.814 466.778 230.858C466.163 231.752 465.682 232.858 465.346 233.418C464.381 235.028 463.272 236.562 462.143 238.06C461.917 238.36 461.685 238.658 461.453 238.954C466.918 238.941 472.38 238.969 477.841 239.176C480.717 239.285 483.602 239.377 486.471 239.593C487.651 239.682 488.83 239.831 490.007 239.979C483.885 235.545 477.001 232.159 469.87 229.645C469.88 229.656 469.89 229.665 469.899 229.676C470.057 229.85 469.822 230.077 469.645 229.93C468.717 229.162 467.912 229.522 467.238 230.268M439.626 282.385C439.781 282.621 439.934 282.864 440.083 283.114C440.441 282.756 440.942 282.516 441.587 282.496C448.746 282.273 455.901 282.077 463.064 282.072C466.596 282.07 470.161 281.951 473.689 282.126C475.46 282.214 477.231 282.319 479.002 282.419C480.24 282.489 481.555 282.577 482.764 282.936C485.55 278.053 488.643 273.358 492.021 268.868C484.357 269.81 476.562 269.71 468.855 269.972C460.124 270.268 451.387 270.332 442.652 270.539C440.256 270.596 437.86 270.658 435.465 270.725C434.228 270.76 432.992 270.796 431.755 270.833C431.369 270.845 430.969 270.856 430.569 270.845C430.599 270.908 430.629 270.971 430.659 271.033C431.334 272.428 432.181 273.712 433.169 274.904C435.27 277.438 437.807 279.621 439.626 282.385M449.019 297.428C449.284 296.689 449.93 296.121 450.959 296.168C456.825 296.435 462.701 296.62 468.56 297.007C471.414 297.195 474.28 297.322 477.129 297.572C478.599 297.702 480.066 297.942 481.529 298.133C482.533 298.264 483.583 298.416 484.545 298.773C484.359 296.709 484.194 294.643 484.051 292.573C483.937 290.911 483.902 289.234 483.911 287.567C483.915 286.724 483.944 285.875 483.984 285.032C483.898 285.05 483.811 285.058 483.726 285.048C483.576 285.029 483.436 285.011 483.306 284.977C481.957 285.505 480.431 285.622 479.003 285.724C477.308 285.845 475.615 285.974 473.921 286.095C470.316 286.353 466.677 286.336 463.065 286.454C455.953 286.686 448.84 286.821 441.727 287.012C442.057 288.431 442.069 289.888 441.541 291.262C441.909 291.14 442.332 291.196 442.694 291.554C444.743 293.582 446.853 295.539 449.019 297.428M469.709 312.515C469.854 312.113 470.128 311.745 470.451 311.495C471.695 310.534 473.965 311.087 475.458 311.16C477.226 311.247 478.993 311.334 480.761 311.421C481.297 311.447 484.034 311.587 486.045 312.016C485.63 308.872 485.253 305.723 484.916 302.568C484.845 301.905 484.78 301.243 484.715 300.58C483.767 300.886 482.738 300.998 481.761 301.044C480.297 301.114 478.826 301.232 477.361 301.256C474.433 301.302 471.488 301.157 468.56 301.108C463.287 301.02 458.012 300.768 452.741 300.559C458.034 304.864 463.626 308.792 469.459 312.365C469.542 312.416 469.626 312.464 469.709 312.515M486.365 314.38C485.92 314.44 485.478 314.459 485.14 314.494C483.444 314.665 481.774 314.821 480.068 314.845C478.378 314.87 476.687 314.895 474.997 314.92C474.637 314.925 474.278 314.93 473.918 314.935C478.37 317.372 482.958 319.555 487.482 321.853C487.083 319.366 486.711 316.875 486.365 314.38M437.857 258.894C427.711 263.214 414.698 263.606 405.98 256.43C405.113 256.668 404.155 256.747 403.39 256.823C401.671 256.996 399.968 257.155 398.241 257.21C394.875 257.315 391.506 257.473 388.138 257.514C381.325 257.599 374.512 257.638 367.7 257.699C367.12 257.704 366.656 257.527 366.304 257.243C365.614 258.415 364.972 259.616 364.386 260.849C363.532 262.646 362.808 264.503 362.213 266.402C362.34 266.38 362.473 266.364 362.614 266.362C371.568 266.207 380.528 266.465 389.483 266.502C398.44 266.54 407.396 266.501 416.353 266.565C418.832 266.583 421.292 266.583 423.765 266.768C425.052 266.864 426.354 266.906 427.628 267.114C427.771 267.137 427.916 267.157 428.062 267.178C429.77 266.178 431.89 266.386 433.842 266.35C436.083 266.307 438.325 266.27 440.566 266.236C444.971 266.171 449.377 266.123 453.783 266.093C462.526 266.033 471.249 266.256 479.987 266.562C484.335 266.713 488.666 266.971 492.958 267.642C493.246 267.268 493.531 266.892 493.823 266.521C496.864 262.659 500.469 257.715 505.473 256.519C505.281 256.205 505.086 255.893 504.888 255.584C501.421 256.5 497.597 256.454 494.055 256.646C489.972 256.867 485.897 257.019 481.81 257.12C473.684 257.32 465.56 257.446 457.433 257.569C455.177 257.604 452.921 257.64 450.666 257.678C449.449 257.698 448.232 257.721 447.015 257.74C446.336 257.75 445.728 257.749 445.08 257.522C444.481 257.313 443.896 256.999 443.316 256.739C443.113 256.648 442.949 256.514 442.814 256.355C441.222 257.309 439.571 258.164 437.857 258.894M398.213 244.529C396.937 244.884 395.62 244.942 394.271 245.044C392.5 245.179 390.734 245.201 388.958 245.213C386.127 245.231 383.296 245.211 380.466 245.133C379.25 245.1 378.54 244.284 378.329 243.351C378.3 243.374 378.27 243.398 378.241 243.422C374.796 246.265 371.676 249.518 369.031 253.118C375.4 253.138 381.77 253.142 388.139 253.185C391.506 253.208 394.876 253.346 398.242 253.433C399.893 253.476 401.52 253.613 403.165 253.769C403.197 253.772 403.232 253.775 403.265 253.778C403.091 253.577 402.918 253.373 402.749 253.163C400.783 250.722 399.166 247.714 398.213 244.529M356.803 372.655C356.241 371.106 356.46 369.444 356.492 367.815C356.524 366.144 356.542 364.473 356.548 362.801C356.558 359.533 356.581 356.265 356.617 352.997C356.69 346.387 356.766 339.771 357.025 333.164C357.538 320.103 358.527 307.074 360.14 294.1C360.924 287.793 361.897 281.5 363.218 275.282C363.2 275.257 363.181 275.232 363.163 275.206C361.848 273.445 360.352 271.818 359.06 270.045C358.945 269.887 358.897 269.686 358.899 269.482C358.851 269.459 358.804 269.435 358.756 269.407C357.684 268.796 358.652 267.128 359.724 267.748C359.6 267.677 361.38 263.1 361.568 262.639C362.246 260.984 363.007 259.365 363.866 257.797C364.385 256.85 364.939 255.924 365.52 255.015C365.622 254.336 365.988 253.706 366.617 253.369C367.72 251.785 368.912 250.263 370.183 248.812C375.384 242.874 381.88 238.08 388.978 234.665C390.003 234.172 391.059 233.761 392.112 233.33C393.232 232.871 394.271 232.271 395.375 231.79C397.171 231.006 398.944 231.051 400.708 231.881C400.859 231.952 400.751 232.184 400.598 232.144C399.462 231.847 398.298 231.798 397.16 232.12C396.044 232.436 395.196 233.133 394.221 233.715C392.485 234.753 390.544 235.429 388.765 236.398C386.412 237.679 384.112 239.086 381.913 240.63C384.192 240.751 386.472 240.838 388.754 240.899C390.448 240.944 392.142 240.952 393.834 241.05C395.038 241.12 396.291 241.101 397.494 241.296C397.204 239.296 397.204 237.279 397.566 235.332C397.566 235.331 397.567 235.33 397.567 235.33C397.654 234.86 397.76 234.395 397.891 233.934C398.169 232.954 399.06 232.807 399.707 233.178C399.771 233.131 399.836 233.084 399.898 233.034C400.673 232.403 401.371 231.649 401.978 230.856C403.238 229.208 404.256 227.301 405.028 225.378C405.809 223.432 406.363 221.395 406.905 219.371C407.177 218.356 407.471 217.347 407.748 216.333C407.989 215.451 408.164 214.478 408.606 213.675C408.689 213.524 408.939 213.553 408.978 213.723C409.213 214.73 409.089 215.877 409.046 216.903C408.998 218.041 408.933 219.169 408.782 220.299C408.468 222.644 407.963 224.949 407.152 227.175C406.375 229.31 405.35 231.302 403.958 233.101C403.032 234.296 401.718 235.878 400.197 236.522C399.998 238.765 400.02 241.01 400.549 243.231C401.241 246.138 402.565 248.901 404.385 251.268C408.2 256.232 414.103 259.036 420.261 259.614C426.633 260.212 433.153 258.784 438.878 255.976C445.245 252.853 450.528 248.034 455.273 242.833C458.008 239.835 460.844 236.885 463.379 233.713C463.828 233.151 464.547 232.01 465.4 230.982C464.532 230.974 463.642 230.843 462.873 230.745C461.284 230.54 459.73 230.224 458.177 229.828C455.273 229.088 452.21 228.058 449.672 226.429C444.302 222.982 442.206 218.609 441.49 212.585C441.264 210.68 444.55 210.218 444.856 212.128C445.326 215.065 446.038 216.494 446.973 219.314C447.873 222.026 449.176 223.036 451.666 224.53C454.004 225.934 456.662 226.749 459.237 227.591C460.665 228.058 462.109 228.483 463.549 228.912C464.465 229.186 465.553 229.424 466.482 229.846C466.967 229.419 467.473 229.098 467.983 228.976C467.945 228.913 467.994 228.815 468.088 228.833C468.237 228.863 468.387 228.896 468.536 228.927C468.687 228.938 468.836 228.968 468.986 229.022C477.958 230.969 486.573 235.115 493.879 240.762C494.248 240.916 494.604 241.105 494.943 241.344C495.118 241.467 495.233 241.661 495.267 241.863C496.365 242.762 497.431 243.694 498.46 244.659C506.754 252.432 512.008 262.772 515.687 273.407C519.311 283.884 521.763 294.871 523.112 305.871C524.487 317.084 524.646 328.53 522.651 339.68C521.581 345.667 519.847 351.55 517.288 357.072C514.99 362.031 511.25 367.681 505.375 368.285C505.356 368.304 505.338 368.324 505.317 368.341C503.012 370.243 499.58 368.93 497.17 367.793C496.788 367.613 496.409 367.424 496.032 367.229C496.231 367.998 496.321 368.804 496.362 369.559C496.449 371.126 494.244 371.215 493.826 369.914C490.251 370.544 486.558 370.553 482.942 370.533C478.902 370.511 474.862 370.37 470.826 370.18C462.818 369.801 454.82 369.223 446.807 368.96C430.582 368.428 414.312 369.565 398.1 370.138C393.552 370.299 389.004 370.46 384.456 370.62C379.809 370.785 375.167 370.816 370.558 371.446C368.863 371.677 368.213 370.013 368.692 368.976C368.572 368.279 368.691 367.516 368.756 366.695C368.878 365.162 368.993 363.629 369.101 362.095C369.312 359.104 369.515 356.111 369.708 353.119C370.099 347.055 370.435 340.987 370.762 334.919C371.413 322.855 371.911 310.782 372.277 298.706C372.366 295.762 372.483 292.817 372.63 289.876C372.455 289.597 372.28 289.318 372.111 289.036C371.547 288.094 370.995 287.146 370.424 286.209C369.28 284.33 368.128 282.464 366.925 280.622C365.886 279.031 364.814 277.465 363.694 275.932C362.303 287.7 361.067 299.479 360.499 311.323C359.874 324.367 359.543 337.432 359.363 350.489C359.312 354.137 359.278 357.785 359.239 361.433C359.219 363.333 359.199 365.232 359.214 367.131C359.23 368.948 359.504 370.936 358.86 372.655C358.485 373.658 357.174 373.676 356.803 372.655Z" fill="black"/>
<path fill-rule="evenodd" clip-rule="evenodd" d="M425.779 117.589C415.397 117.589 402.939 122.644 401.88 122.745L401.851 122.746C401.294 122.746 399.117 124.412 395.319 127.744L399.432 135.8L399.1 136.119C397.507 137.653 396.147 139.051 395.073 140.153C386.309 149.15 384.734 184.474 386.8 196.793C388.865 209.112 392.691 221.167 410.5 221.167C428.31 221.167 448.124 210.413 451.176 207.064C453.211 204.832 455.497 203.762 458.033 203.856C458.138 203.724 458.241 203.592 458.343 203.461L458.717 203.407C462.227 202.897 464.742 202.21 466.262 201.346C469.231 199.659 472.495 190.792 472.495 188.838C472.495 186.904 477.368 172.836 477.465 171.347L477.467 171.306C477.467 170.061 483.833 164.34 483.833 162.523C483.833 160.706 485.116 160.816 483.833 154.413L483.46 152.533C482.094 145.716 479.422 134.428 469.231 129.523C458.033 124.133 436.267 117.589 425.779 117.589Z" fill="white"/>
<path fill-rule="evenodd" clip-rule="evenodd" d="M470.96 129.269C465.375 123.317 433.668 114.109 417.627 116.061L417.146 116.124C415.866 116.287 414.604 116.533 413.359 116.869C409.335 117.813 405.178 119.242 401.852 121.629C399.076 123.582 390.319 126.771 392.9 131.88C391.943 133.701 391.586 135.95 392.233 137.744C392.314 138.363 392.504 138.934 392.747 139.525C390.703 142.555 389.084 145.982 387.773 149.241C385.483 157.443 384.058 165.979 383.85 174.347C383.155 190.246 384.891 209.238 398.681 219.519C407.011 226.033 420.06 226.252 429.421 218.175C429.952 217.543 432.451 215.84 431.617 215.541C431.369 215.804 431.114 216.06 430.854 216.312C430.866 216.284 430.868 216.256 430.863 216.226L431.108 216.003C431.568 215.576 432.164 214.956 431.485 215.078C431.455 215.112 431.422 215.143 431.39 215.178C431.246 215.264 431.137 215.339 431.053 215.406L431.01 215.44L431.023 215.426C431.414 215.008 431.648 214.581 431.064 214.853L430.986 214.891C430.726 215.166 430.462 215.429 430.193 215.685C430.198 215.655 430.193 215.625 430.177 215.592L430.428 215.349C430.672 215.108 430.635 215.107 430.515 214.912C431.036 214.18 430.064 214.615 429.996 214.901C429.388 214.756 428.855 215.902 428.463 216.042C411.303 229.29 386.399 217.535 386.802 180.618L386.809 179.896C386.926 168.091 387.916 155.958 392.778 145.273C393.251 144.243 393.78 143.242 394.362 142.273C394.763 141.547 395.192 140.839 395.653 140.149C396.945 140.045 398.221 139.807 399.477 139.439C399.909 139.33 400.336 139.209 400.762 139.067C406.996 139.408 413.09 139.779 419.341 140.132L421.294 140.254C426.589 140.596 432.066 141.143 436.339 144.432C440.532 147.426 440.551 153.331 444.14 156.619C449.258 160.107 449.295 163.252 450.281 168.393C450.208 172.268 447.532 177.898 452.442 179.529C451.614 180.715 452.768 180.145 452.859 179.729C452.869 179.732 452.878 179.734 452.885 179.734C452.147 181.112 453.232 180.244 453.328 179.801C453.386 179.785 453.444 179.743 453.502 179.685C452.758 180.892 453.96 180.047 453.889 179.827C455.326 177.609 458.284 177.264 460.369 177.852C460.394 177.931 460.487 177.938 460.545 177.896C469.41 179.826 467.122 198.255 458.038 196.473C457.649 196.393 457.658 196.581 457.581 196.599C457.791 196.045 457.199 196.271 457.205 196.387L457.169 196.385C457.141 196.383 457.153 196.379 457.131 196.387C457.334 195.255 456.192 196.895 456.282 196.962C456.247 196.941 456.208 196.929 456.173 196.925L456.213 196.817C456.402 196.31 456.386 196.521 456.384 196.231C456.527 195.872 456.537 196.029 456.504 195.795C456.003 195.406 455.856 196.587 455.689 196.673C455.975 196.273 455.747 195.946 455.478 196.163C453.431 200.485 450.788 204.545 447.373 207.744C446.999 208.04 446.621 208.331 446.229 208.606C444.777 209.877 442.548 210.694 441.188 211.82C441.188 211.838 441.197 211.862 441.211 211.885L441.18 211.913V211.913L441.148 211.943L440.675 212.171C440.536 212.29 440.411 212.423 440.3 212.569C440.181 212.707 440.077 212.858 439.989 213.019C439.945 213.215 440.042 213.296 440.228 213.212C440.309 213.184 440.39 213.152 440.471 213.121C440.466 213.128 440.464 213.133 440.459 213.138C440.433 213.178 440.253 213.597 440.46 213.529L440.485 213.52C440.599 213.478 440.712 213.431 440.823 213.387C440.691 213.552 440.571 213.732 440.464 213.883C440.35 214.002 440.281 214.141 440.253 214.3C440.258 214.388 440.306 214.425 440.394 214.414C440.529 214.37 440.661 214.323 440.794 214.274L440.756 214.346C440.662 214.531 440.529 214.841 440.766 214.738C440.968 214.675 441.162 214.602 441.357 214.523C441.373 214.556 441.406 214.568 441.471 214.537C442.09 214.316 442.688 214.046 443.261 213.727C443.764 213.359 444.272 212.998 444.777 212.632C445.253 212.346 445.712 212.027 446.15 211.668C449.083 209.766 451.65 207.35 453.687 204.659C457.094 207.621 463.904 204.791 468.117 202.472C471.844 200.399 473.309 196.567 473.687 192.435C474.475 186.873 479.001 184.969 478.686 172.764C478.693 172.766 478.701 172.766 478.71 172.766C478.875 172.717 479.034 172.652 479.185 172.568C479.34 172.494 479.487 172.405 479.624 172.298L479.793 172.063V172.063C479.881 172.014 479.96 171.963 480.02 171.912L480.051 171.952C480.15 172.072 480.084 171.892 480.078 171.856L480.372 171.454C481.069 170.498 481.834 169.425 482.457 168.567L482.477 168.602C482.491 168.629 482.499 168.648 482.492 168.656C483.975 166.516 485.37 163.932 485.757 161.43C486.215 159.502 486.036 157.516 485.637 155.731C483.926 149.48 478.32 135.333 470.96 129.269ZM430.713 215.726L430.806 215.643L430.725 215.745C430.682 215.799 430.638 215.846 430.566 215.895C430.571 215.879 430.571 215.862 430.569 215.844C430.616 215.807 430.665 215.768 430.713 215.726ZM417.699 119.202C428.577 118.263 439.276 120.67 449.657 123.583L450.373 123.789C456.276 125.481 462.517 127.002 467.505 130.622C474.474 135.983 478.072 144.51 481.213 152.382C483.955 158.232 482.553 164.828 478.421 168.912C477.991 164.853 477.258 160.913 476.112 157.005C475.873 156.394 476.054 156.194 475.539 156.115C474.76 166.647 478.593 174.429 471.008 186.912C467.717 192.801 471.527 197.111 462.232 200.21L461.98 200.307C460.044 201.041 457.929 201.62 456.033 201.21L456.203 200.932C456.376 200.646 456.429 200.508 456.176 200.385C456.183 200.371 456.192 200.357 456.202 200.341C456.406 199.954 456.603 199.563 456.791 199.167C456.867 199.193 456.944 199.212 457.023 199.233C456.972 199.328 456.965 199.424 457.109 199.456C457.62 199.632 458.144 199.703 458.681 199.67L458.797 199.661C459.404 199.624 459.786 199.513 460.128 199.41C460.242 199.391 460.355 199.372 460.467 199.349C461.567 199.104 462.732 198.481 463.486 197.863C472.08 192.962 471.192 176.276 460.599 174.699C460.381 164.193 455.405 146.47 447.147 136.459C439.683 127.251 419.304 123.26 405.127 124.667C404.92 124.736 404.714 124.805 404.507 124.875C402.32 125.07 400.235 126.049 398.046 126.504C399.618 125.321 401.401 124.533 403.237 123.863C406.896 121.616 411.091 120.4 415.143 119.542C415.983 119.335 416.834 119.221 417.699 119.202ZM461.082 183.138C460.513 182.828 460.578 183.128 460.447 183.041C456.35 182.705 451.932 186.307 449.642 189.31C449.823 189.498 450.313 188.939 450.398 188.851C450.41 188.863 450.424 188.872 450.438 188.877L450.374 188.967C449.446 190.304 451.286 188.731 451.458 188.406C451.488 188.422 451.519 188.432 451.553 188.425C451.407 188.568 450.962 188.943 450.885 189.21L450.767 189.308C449.654 190.266 449.746 190.986 451.01 189.626C450.98 189.689 450.969 189.747 450.99 189.794L450.946 189.823C450.324 190.259 449.813 191.476 451.113 190.227C450.977 191.139 452.4 189.377 452.446 189.389C454.908 187.448 458.534 185.56 461.623 185.307L461.729 185.294C462.296 185.221 462.564 185.052 462.365 184.68C463.063 184.513 462.899 184.168 462.569 184.179C463.061 183.854 462.618 183.543 462.332 183.665C462.529 183.119 461.741 183.482 461.669 183.406C461.26 182.773 461.15 183.301 461.082 183.138ZM469.67 149.29C467.702 148.566 461.89 150.733 462.355 153.602C462.632 154.261 463.544 154.639 464.185 154.267L465.022 153.702C466.478 152.723 467.792 151.864 469.356 151.01C470.207 150.586 470.573 149.685 469.67 149.29ZM458.475 145.026L459.235 144.529C463.336 141.834 469.133 137.75 458.852 141.975C457.68 142.48 456.123 142.778 455.484 143.899C454.479 145.964 457.123 146.103 458.475 145.026ZM458.014 132.933C458.343 131.678 454.248 133.15 453.056 133.538L452.874 133.607C451.715 134.041 450.386 134.443 449.692 135.448C448.88 136.836 450.524 137.124 451.543 136.497C453.632 135.126 455.922 134.092 458.014 132.933ZM447.602 127.091C449.906 124.563 443.738 126.985 442.814 127.657L442.788 127.676C442.098 128.164 442.238 129.214 442.886 129.522C444.729 129.557 446.085 128.015 447.602 127.091ZM437.113 124.322C440.778 121.677 435.951 122.935 434.274 123.971C433.132 124.983 434.309 126.691 437.113 124.322Z" fill="black"/>
<path fill-rule="evenodd" clip-rule="evenodd" d="M411.533 203.339C413.095 202.701 414.489 201.635 415.508 200.275C415.862 199.801 415.954 199.302 415.88 198.845C415.796 198.331 415.493 197.866 415.079 197.553C414.664 197.24 414.145 197.085 413.644 197.164C413.208 197.233 412.773 197.472 412.43 197.968L412.358 198.067C411.752 198.889 410.963 199.563 410.063 199.997C409.196 200.416 408.227 200.611 407.223 200.497C405.312 200.281 403.995 199.245 402.595 197.839C402.421 197.661 402.247 197.478 402.073 197.292C401.963 197.123 401.81 197.015 401.64 196.958C401.451 196.895 401.238 196.898 401.043 196.967C400.854 197.033 400.686 197.157 400.573 197.324C400.466 197.482 400.405 197.677 400.425 197.901C400.553 199.359 401.313 200.66 402.393 201.681C403.593 202.815 405.183 203.6 406.681 203.875C408.33 204.179 410.011 203.961 411.533 203.339V203.339ZM405.902 180.853C404.147 181.922 401.473 184.414 403.361 187.064C405.583 189.401 408.783 186.722 410.36 185.51C411.821 184.571 413.464 186.986 412.108 188.083C400.715 196.535 396.091 181.132 405.015 179.596C405.997 179.427 406.362 180.522 405.902 180.853ZM426.319 171.021C426.125 168.609 422.459 168.061 422.095 170.448C421.768 172.586 422.152 174.549 423.113 176.474C424.032 178.313 426.339 177.455 426.514 175.781C426.748 173.536 426.439 172.521 426.319 171.021ZM398.416 169.953C397.905 169.282 397.167 168.824 396.283 169.083C393.521 169.892 394.335 173.821 395.305 175.734C395.832 176.772 397.536 177.036 398.306 176.121C399.561 174.63 400.162 171.652 398.566 170.183C398.523 170.107 398.475 170.03 398.416 169.953ZM423.152 160.468L422.716 160.391C421.366 160.157 419.688 159.932 418.733 161.02C418.227 161.596 418.053 162.668 418.733 163.22C419.93 164.191 421.254 163.815 422.689 163.897C423.871 163.965 425.008 164.161 426.147 164.487C428.646 165.203 430.682 166.509 432.816 167.944C433.096 168.132 433.381 167.773 433.248 167.511C432.016 165.093 429.629 163.107 427.237 161.896C425.961 161.25 424.564 160.714 423.152 160.468ZM400.934 159.384L400.6 159.453C396.966 160.214 392.245 161.735 390.524 165.312C390.458 165.817 390.527 165.926 390.584 165.997L390.602 166.02C390.649 166.081 390.686 166.164 390.905 166.233C390.965 166.218 391.027 166.203 391.089 166.187C391.877 165.98 392.502 165.694 393.106 165.398L393.761 165.075C394.521 164.701 395.288 164.341 396.1 164.076C397.835 163.509 399.618 163.11 401.43 162.896C401.822 162.85 402.2 162.717 402.499 162.49C402.782 162.274 402.998 161.975 403.096 161.577C403.224 161.063 403.188 160.673 402.912 160.209C402.705 159.861 402.409 159.619 402.068 159.48C401.721 159.339 401.326 159.306 400.934 159.384Z" fill="black"/>
</g>
<defs>
<clipPath id="clip0">
<rect width="564" height="440" fill="white"/>
</clipPath>
</defs>
</svg>
