<svg width="359" height="280" viewBox="0 0 359 280" fill="none" xmlns="http://www.w3.org/2000/svg">
<g clip-path="url(#clip0)">
<path d="M195.5 242C145.824 262.99 59.3317 250.371 18.5792 226.661C-20.2968 199.052 2.80945 170.197 3.06288 121.069C3.37965 59.6582 35.0029 71.2435 97.8182 47.3344C160.555 23.4553 239.585 64.4031 318.96 105.529L319.259 105.685C398.735 146.863 327.957 157.119 325.079 206.963C322.2 256.808 257.595 215.762 195.5 242Z" fill="#92D2FA"/>
<path fill-rule="evenodd" clip-rule="evenodd" d="M96.1861 259.982C92.1712 259.788 93.786 252.776 94.0741 250.2C97.2528 240.794 96.5056 230.532 97.7558 220.673C98.5346 211.469 99.5354 202.295 100.377 193.098C102.03 174.43 113.902 136.427 127.451 130.315C129.157 122.838 136.206 115.858 145.125 115.858C151.208 108.668 158.529 103.609 167.92 104.63C171.801 104.807 175.564 108.916 179.283 109.71C181.365 109.997 199.842 109.259 203.543 111.454C206.121 112.775 208.449 115.218 207.69 118.328C206.481 122.095 210.24 118.019 218.081 122.04C234.07 131.628 224.515 144.455 224.092 144.853C234.07 158.714 242.79 169.96 246.826 186.903C249.441 199.481 249.146 212.467 251.337 225.11C252.111 229.494 253.298 233.728 254.582 237.985C255.974 243.557 256.651 257.443 257.418 257.567C258.816 257.914 256.61 260.779 255.13 260.781C214.074 267.581 172.371 261.063 131.095 259.998C119.463 259.594 107.818 259.501 96.1861 259.982Z" fill="white"/>
<path fill-rule="evenodd" clip-rule="evenodd" d="M179.231 121.916C179.231 126.278 164.059 142.49 158.823 141.42C155.333 140.707 150.059 136.058 143.002 127.471V121.916L144.526 115.868C135.892 116.172 129.119 123.006 127.451 130.315C114.038 136.366 102.268 173.673 100.43 192.532L100.377 193.098C99.5354 202.294 98.5346 211.469 97.7558 220.673C96.5056 230.532 97.2528 240.794 94.0741 250.2L94.0553 250.36C93.7236 253.053 92.2515 259.792 96.1861 259.981C107.818 259.501 119.463 259.594 131.095 259.998C172.371 261.063 214.074 267.581 255.13 260.781C256.61 260.779 258.816 257.914 257.418 257.567C256.651 257.443 255.974 243.556 254.582 237.985L254.318 237.104C253.136 233.143 252.058 229.191 251.337 225.11C249.146 212.466 249.441 199.481 246.826 186.902C242.79 169.96 234.07 158.714 224.092 144.852C224.515 144.455 234.07 131.628 218.081 122.04C210.24 118.018 206.481 122.095 207.69 118.327C208.449 115.218 206.121 112.775 203.543 111.453C199.842 109.259 181.365 109.996 179.283 109.71C178.316 109.503 177.345 109.072 176.371 108.545L176.54 109.107C178.334 115.111 179.231 119.381 179.231 121.916Z" fill="#FAD551"/>
<path fill-rule="evenodd" clip-rule="evenodd" d="M158.412 146.076C158.393 145.888 158.14 145.889 158.12 146.076L157.83 148.87C157.478 152.282 157.138 155.688 156.892 159.116C156.585 163.391 156.38 167.665 156.281 171.95C155.936 186.872 155.868 201.803 155.838 216.729C153.817 216.589 151.795 216.454 149.772 216.324C148.4 216.235 147.027 216.151 145.655 216.067L142.155 215.855V215.855L140.714 215.767C139.74 215.707 138.634 215.462 137.953 216.323C137.681 216.668 137.544 217.116 137.798 217.525C138.384 218.469 139.284 218.436 140.302 218.477C141.263 218.516 142.224 218.554 143.184 218.591C145.243 218.671 147.301 218.746 149.36 218.804C151.521 218.864 153.681 218.913 155.841 218.95C155.863 225.251 156.124 231.545 156.407 237.839L156.534 240.671C156.88 248.331 157.252 255.998 157.779 263.647C157.823 264.273 158.71 264.272 158.753 263.647C159.348 255.033 159.74 246.4 160.129 237.773C160.411 231.519 160.575 225.263 160.653 219.006C160.939 219.008 161.224 219.012 161.51 219.013C169.617 219.048 177.723 219.083 185.831 219.007C185.817 219.023 185.804 219.039 185.795 219.06C185.208 220.443 185.153 222.208 185.167 223.692C185.183 225.395 185.413 227.076 185.805 228.732C187.212 234.662 190.841 239.973 194.973 244.365L195.108 244.507C196.083 245.536 197.201 246.569 197.8 247.879C198.411 249.217 198.623 250.781 198.925 252.218L198.96 252.384L200.14 257.824C200.515 259.552 200.621 262.072 201.991 263.319C203.269 264.482 204.962 263.874 205.563 262.377C206.033 261.208 205.565 259.924 205.287 258.756L203.108 249.608C202.749 248.116 202.358 246.614 201.585 245.274C200.794 243.902 199.633 242.906 198.449 241.888C196.206 239.96 194.147 237.753 192.406 235.364C190.665 232.975 189.178 230.342 188.135 227.573C187.613 226.187 187.185 224.747 186.889 223.295C186.609 221.917 186.611 220.491 186.311 219.128C186.291 219.034 186.211 218.969 186.12 218.941C186.141 218.88 186.108 218.798 186.023 218.792L179.392 218.367C173.498 217.987 167.604 217.598 161.716 217.153L160.675 217.078V217.078C160.756 208.729 160.687 200.38 160.536 192.028C160.398 184.37 160.395 176.709 160.167 169.052C160.053 165.252 159.809 161.46 159.537 157.668C159.258 153.789 158.813 149.943 158.412 146.076ZM220.672 190.481C220.742 190.056 220.207 189.792 219.96 190.181C217.136 194.625 215.775 199.452 215.201 204.652C214.694 209.241 214.843 213.897 215.096 218.499C215.365 223.407 215.679 228.313 215.997 233.219L216.485 240.741V240.741L217.71 259.599C217.797 260.948 218.104 262.174 219.267 262.801C219.414 262.924 219.568 263.034 219.747 263.13C220.375 263.465 221.209 263.296 221.572 262.652L221.426 262.747C221.299 262.827 221.442 262.716 221.854 262.414L222.204 261.962V261.962C222.458 261.581 222.62 261.206 222.685 260.752C222.786 260.048 222.655 259.276 222.609 258.568L221.806 246.202V246.202C221.182 236.589 220.453 226.979 219.904 217.36C219.648 212.878 219.468 208.391 219.59 203.9C219.711 199.434 219.938 194.893 220.672 190.481ZM196.246 107.702L196.09 107.676C190.482 106.746 184.384 106.92 179.258 109.619C179.216 109.642 179.235 109.712 179.283 109.71L180.932 109.644C186.155 109.44 191.361 109.319 196.496 110.544L197.022 110.671C198.871 111.121 200.803 111.672 202.288 112.892C203.708 114.058 204.415 115.856 205.094 117.511L205.185 117.73C205.875 119.365 206.748 120.916 208.26 121.938C210.218 123.262 212.572 123.1 214.818 123.28C218.771 123.597 222.002 126.458 223.61 129.958C224.584 132.078 224.999 134.454 225.082 136.772C225.124 137.952 225.13 139.178 224.972 140.35C224.922 140.725 224.458 142.091 224.221 142.058C223.696 141.985 223.215 142.259 223.051 142.679C221.752 141.426 220.416 140.209 219.037 139.036C215.599 136.112 211.896 133.463 207.996 131.186C205.019 129.448 201.88 127.726 198.629 126.425C198.887 126.419 199.141 126.47 199.386 126.598C199.494 126.654 199.601 126.519 199.516 126.43C198.492 125.354 197.265 125.201 196.029 125.488C195.765 125.404 195.501 125.323 195.236 125.246C195.104 125.208 195.038 125.389 195.146 125.46L195.45 125.653V125.653C194.101 126.105 192.776 126.991 191.728 127.691C188.716 129.701 186.065 132.158 183.378 134.569L182.889 135.006C180.523 137.115 178.098 139.165 175.41 140.857C174.003 141.742 172.526 142.561 170.976 143.171C169.646 143.693 167.482 144.023 166.859 145.426C166.306 146.097 166.537 146.954 167.185 147.405C168.278 148.607 170.465 147.831 171.767 147.33C173.338 146.727 174.859 146.002 176.31 145.152C179.127 143.501 181.724 141.448 184.144 139.264C186.67 136.983 189.054 134.56 191.512 132.207C192.576 131.188 193.617 130.144 194.683 129.127L195.219 128.62C195.763 128.11 196.539 127.316 197.368 126.835C198.93 127.765 200.516 128.657 202.064 129.612C204.225 130.944 206.322 132.372 208.387 133.848C212.362 136.688 216.128 139.868 219.625 143.278C226.039 149.53 231.503 156.67 236.277 164.23L236.639 164.807C239.352 169.134 241.917 173.601 243.735 178.382C245.737 183.644 246.71 189.177 247.239 194.762C247.763 200.307 247.94 205.88 248.527 211.42C249.128 217.102 250.313 222.659 251.661 228.205L251.983 229.52C253.202 234.487 254.461 239.453 255.088 244.538C255.423 247.253 255.624 250.006 255.578 252.744C255.533 255.498 255.099 258.19 254.75 260.915C254.616 261.959 255.645 262.83 256.565 262.969C257.624 263.127 258.533 262.453 258.862 261.471C259.888 258.41 260.075 255.026 260.042 251.813C260.01 248.551 259.593 245.31 259.006 242.105C257.852 235.799 256.072 229.624 254.582 223.394C253.27 217.902 252.389 212.402 251.914 206.776C251.421 200.94 251.125 195.084 250.226 189.289C249.338 183.569 247.668 178.105 245.149 172.889C242.856 168.14 239.997 163.67 236.999 159.337C233.359 154.076 229.362 149.07 224.893 144.508C225.294 144.491 225.707 144.361 226.085 144.126C227.243 143.405 227.782 141.994 227.948 140.706C228.336 137.692 228.243 134.546 227.466 131.6C226.214 126.847 222.965 122.624 218.255 120.911C217.043 120.47 215.754 120.309 214.47 120.277C213.251 120.247 211.919 120.406 210.743 120.02C208.871 119.405 208.068 117.204 207.365 115.534L207.333 115.458C206.431 113.331 205.349 111.508 203.397 110.18C201.314 108.763 198.704 108.118 196.246 107.702V107.702ZM142.96 116.113C141.275 115.53 139.168 116.06 137.52 116.569C135.684 117.138 133.987 118.185 132.533 119.428C130.998 120.739 129.73 122.358 128.834 124.166L128.748 124.34C127.93 126.018 126.998 128.321 127.41 130.164C127.422 130.216 127.436 130.266 127.451 130.315C124.107 131.959 121.019 134.017 118.33 136.626C115.199 139.664 112.548 143.121 110.304 146.856C101.393 161.689 99.8249 179.504 98.7724 196.42L98.51 200.709C97.9385 209.971 97.2697 219.211 95.5325 228.345L95.4057 229.004C93.5488 238.567 90.8906 248.204 91.1598 258.014C91.2407 260.954 95.5913 260.934 95.7174 258.014C96.1923 247.026 98.7605 236.416 100.5 225.599C103.559 206.569 102.026 186.95 106.362 168.11C108.063 160.716 110.699 153.545 114.463 146.945C116.322 143.685 118.449 140.535 120.941 137.722C123.084 135.302 125.313 132.973 127.818 130.938C128.618 131.739 130.218 131.331 130.636 130.164C130.923 129.361 130.839 128.424 131.023 127.583C131.194 126.804 131.43 126.03 131.744 125.296C132.37 123.833 133.29 122.427 134.351 121.243C135.497 119.962 136.814 118.899 138.288 118.02C139.772 117.136 141.395 116.872 142.96 116.226C143.013 116.204 143.018 116.134 142.96 116.113ZM136.413 217.819C136.41 217.741 136.319 217.705 136.263 217.757C135.672 218.299 135.315 219.079 134.88 219.746C134.379 220.516 133.852 221.27 133.3 222.005C132.193 223.477 130.962 224.865 129.72 226.224C128.566 227.488 127.335 228.699 126.058 229.84C124.675 231.077 123.125 232.18 121.868 233.55C119.246 236.408 118.823 240.33 118.269 244.012L118.209 244.411C117.871 246.596 117.569 248.788 117.297 250.982C117.164 252.05 117.032 253.118 116.924 254.188L116.891 254.527C116.795 255.575 116.769 256.638 117.371 257.553C118.016 258.533 119.483 258.876 120.355 257.937C121.853 256.324 121.572 253.458 121.767 251.383C121.928 249.666 122.11 247.952 122.315 246.241L122.419 245.385C122.66 243.438 122.855 241.453 123.302 239.539C123.695 237.855 124.444 236.583 125.674 235.362C126.912 234.133 128.199 232.985 129.342 231.661C130.555 230.257 131.649 228.751 132.634 227.18C133.477 225.835 134.153 224.373 134.772 222.911L134.875 222.668C135.473 221.243 136.46 219.388 136.413 217.819ZM114.784 156.615C114.771 156.417 114.476 156.414 114.472 156.615C114.435 158.325 114.399 160.034 114.364 161.744C114.078 175.518 114.254 189.324 112.87 203.051C112.217 209.524 111.015 215.901 109.624 222.251C108.912 225.501 108.166 228.742 107.456 231.992C106.765 235.16 106.024 238.342 105.475 241.539C104.936 244.681 104.453 247.847 104.237 251.029L104.21 251.445C104.117 252.986 103.672 255.253 104.522 256.62C105.443 258.1 107.206 258.127 108.193 256.713C109.12 255.387 108.89 253.027 109.054 251.445C109.22 249.832 109.396 248.219 109.596 246.61C109.986 243.472 110.499 240.341 111.034 237.225C112.147 230.734 113.761 224.326 114.952 217.846C116.173 211.206 117.041 204.519 117.078 197.758C117.114 190.941 116.392 184.136 116.027 177.333C115.656 170.424 115.235 163.52 114.784 156.615ZM179.949 113.773C179.579 112.528 178.272 111.749 176.997 112.099C175.828 112.419 174.863 113.836 175.32 115.047C175.819 116.369 176.69 117.497 177.425 118.699C178.103 119.809 179.093 120.683 179.784 121.774L179.022 122.594C178.641 123.003 178.259 123.409 177.873 123.809L176.544 125.183C175.51 126.251 174.468 127.313 173.398 128.344C170.25 131.375 167.053 134.308 163.527 136.904C162.725 137.495 161.916 138.082 161.085 138.632L160.775 138.837C160.204 139.21 159.568 139.577 158.879 139.514C157.204 139.36 155.692 137.585 154.541 136.479L154.481 136.422C151.63 133.713 148.989 130.751 146.681 127.567C146.169 126.859 145.672 126.14 145.189 125.411C146.305 124.11 146.038 121.569 146.1 119.99C146.143 118.88 146.147 117.77 146.153 116.659L146.156 116.435C146.169 115.716 146.202 115.027 145.735 114.435C145.707 114.401 145.651 114.402 145.616 114.42C144.976 114.755 144.779 115.316 144.506 115.944L144.477 116.01C144.145 116.765 143.827 117.527 143.505 118.286C143.168 119.081 142.858 119.887 142.545 120.692C142.399 121.066 142.26 121.442 142.124 121.819C142.041 122.06 141.955 122.3 141.867 122.54L141.847 122.559C141.73 122.657 141.632 122.761 141.547 122.869C141.189 123.047 140.906 123.372 140.772 123.85C140.483 124.889 141.082 125.737 141.617 126.562C143.79 129.914 146.268 133.108 149.021 136.006C150.389 137.445 151.828 138.82 153.325 140.124L153.587 140.351C154.933 141.505 156.394 142.599 158.191 142.869C160.294 143.185 162.005 142.141 163.615 140.938L163.775 140.817C165.302 139.664 166.797 138.47 168.246 137.221C171.2 134.674 174.01 131.94 176.504 128.94C178.93 126.023 181.328 122.76 182.823 119.249C182.914 119.035 182.675 118.811 182.487 118.99C181.756 119.684 181.054 120.416 180.359 121.158C180.34 120.066 180.542 118.966 180.429 117.868C180.293 116.533 180.332 115.058 179.949 113.773Z" fill="black"/>
<path fill-rule="evenodd" clip-rule="evenodd" d="M142.527 46.7732C156.161 35.6844 178.011 32.084 192.606 43.2712C203.947 53.7702 208.64 83.605 206.633 98.5968C206.075 108.213 198.733 119.111 187.956 116.07C186.126 115.89 184.349 115.188 182.502 115.041C180.292 114.786 178.066 114.782 175.861 115.094C171.057 115.774 166.798 118.326 162.134 119.52C153.482 121.734 143.827 120.244 136.379 115.257C111.766 99.0648 122.915 62.445 142.527 46.7732V46.7732Z" fill="white"/>
<path fill-rule="evenodd" clip-rule="evenodd" d="M144.343 119.786C144.09 119.699 143.837 119.608 143.586 119.514C143.57 119.573 143.543 119.628 143.512 119.682C143.476 119.77 143.441 119.854 143.402 119.94C143.717 119.942 144.032 119.886 144.343 119.786M144.848 12.3297C144.96 12.0789 145.089 11.8383 145.234 11.6058C144.881 11.7201 144.529 11.8777 144.21 12.081C144.425 12.1536 144.637 12.2366 144.848 12.3297M198.705 45.1381C198.719 45.1356 198.734 45.1335 198.748 45.131C198.563 44.6384 198.234 44.1733 197.87 43.8375C197.805 43.7771 197.734 43.7213 197.665 43.6636C198.052 44.1239 198.402 44.6149 198.705 45.1381M100.162 96.6548C100.344 94.9247 100.576 93.2011 100.877 91.4875C101.165 89.8469 101.408 88.092 102.243 86.6358C103.072 85.1858 103.904 83.7771 104.89 82.5016C104.749 81.8502 104.563 81.2383 104.401 80.7446C103.468 77.9027 102.55 74.2933 104.488 71.6527C104.938 71.0407 105.487 70.5719 106.116 70.1487C106.383 69.9683 106.826 69.8044 107.032 69.5555C107.177 69.3791 107.127 69.4746 107.133 69.3874C107.169 68.9186 106.07 67.9292 105.813 67.5579C105.332 66.871 104.973 66.0975 104.7 65.3072C103.617 62.179 104.353 58.7335 105.004 55.5989C105.348 53.9376 105.728 52.2719 105.852 50.575C105.968 48.9819 105.751 47.4262 105.622 45.8413C105.498 44.2771 105.531 42.6634 106.201 41.2153C106.528 40.51 107.023 39.8877 107.627 39.4023C108.215 38.9275 108.949 38.6516 109.523 38.1786C110.096 37.7076 109.932 37.0709 109.783 36.4196C109.578 35.5359 109.318 34.6584 109.294 33.7457C109.248 32.1547 109.897 30.6049 110.91 29.402C111.955 28.1595 113.448 27.3191 115.061 27.1304C115.799 27.0432 116.524 27.1907 117.258 27.1389C117.984 27.0891 118.141 26.7261 118.278 26.0623C118.593 24.5418 118.465 23.0399 119.213 21.6211C119.876 20.3599 121.056 19.505 122.36 19.0011C124.75 18.076 127.53 18.2668 130.051 18.8122C131.54 14.4313 136.185 11.5583 140.757 11.5231C141.47 10.3116 142.678 9.40721 144.057 8.87597C146.337 7.99436 148.753 8.50901 151.128 8.50901H151.139C151.377 8.49428 151.616 8.48827 151.854 8.49034C152.078 8.47769 152.302 8.45902 152.526 8.43433C155.229 8.11468 157.903 7.00697 160.582 8.09206C161.776 8.57539 162.725 9.32009 163.326 10.2701C164.232 10.5168 165.126 10.7991 166.003 11.1269C169.803 11.2262 173.567 13.2653 175.489 16.57C178.194 16.263 181.13 16.7837 182.919 18.9949C183.385 19.5704 183.746 20.2464 183.985 20.9641C185.81 21.5545 187.498 22.6064 188.602 24.1908C189.611 25.6366 189.804 27.506 189.122 29.0581C190.751 30.2386 192.024 31.9286 192.637 33.9241C193.009 35.1366 193.065 36.3893 192.825 37.5827C194.492 37.9527 196.087 38.6387 197.5 39.6682C198.981 40.7467 200.83 42.4632 200.928 44.4389C200.935 44.5839 200.929 44.7289 200.918 44.8734C204.178 44.6442 207.502 45.1968 209.705 47.812C211.36 49.7741 212.079 52.3009 211.637 54.6014C215.516 55.3896 219.183 57.4184 221.742 60.4179C223.601 62.5981 225.253 65.3694 225.154 68.3376C225.123 69.2319 224.913 70.1321 224.55 70.964V70.9658C224.706 71.2585 224.866 71.5842 225.019 71.9306C227.422 73.6127 229.167 76.2494 230.15 79.1556C230.944 81.5098 231.443 84.5676 230.596 86.9635C230.467 87.3286 230.303 87.673 230.113 87.9922C230.272 88.1625 230.424 88.3326 230.571 88.5048C232.19 90.3985 233.83 92.784 233.718 95.3915C233.672 96.4413 233.283 97.4972 232.646 98.364C234.885 100.636 236.688 103.502 236.51 106.703C236.357 109.489 234.829 112.318 232.435 113.656C232.835 115.803 232.3 118.069 230.629 119.745C229.795 120.583 228.813 121.135 227.772 121.429C227.54 123.958 225.297 125.993 222.915 126.577C222.471 126.688 222.028 126.754 221.586 126.785C219.443 127.837 216.887 127.716 214.699 126.752C214.055 127.571 213.215 128.239 212.237 128.718C211.841 128.913 211.422 129.075 210.984 129.206C207.896 130.12 204.728 128.88 202.027 127.432C201.94 127.387 201.78 127.329 201.639 127.264C201.266 127.681 200.586 128.094 200.231 128.297C199.029 128.988 197.559 129.309 196.178 129.218C194.559 129.11 193.131 128.575 191.808 127.814C191.615 127.847 191.421 127.866 191.226 127.876C189.982 127.942 188.873 127.548 187.876 126.926C187.217 127.013 186.541 127.005 185.857 126.885C184.349 127.268 182.882 126.659 181.702 125.69C181.18 125.26 180.738 124.756 180.265 124.275C179.774 123.775 179.401 123.659 178.827 123.323C177.469 122.529 177.305 120.514 177.894 119.058C177.782 118.803 177.718 118.519 177.718 118.203C177.722 115.453 178.988 112.93 180.543 110.73C181.238 109.748 181.992 108.788 182.82 107.917C183.485 107.217 184.42 106.083 185.404 105.799C185.465 105.755 185.527 105.711 185.589 105.67C185.398 105.002 185.287 104.322 185.334 103.627C185.384 102.913 185.614 102.237 185.983 101.66C184.745 99.2604 184.223 96.628 184.472 93.8815C183.464 92.4521 182.701 90.8737 182.308 89.1437C182.065 88.0733 181.926 86.9469 181.945 85.8494C181.953 85.3227 182.146 84.6566 182.15 84.1113C182.121 84.2835 181.897 83.6404 181.81 83.4805C180.811 81.6241 179.528 80.1762 179.314 77.9878C179.19 76.7077 179.492 75.2932 180.259 74.2435C179.768 72.3061 179.774 70.2253 180.547 68.3772C180.755 67.8835 180.993 67.4002 181.267 66.9418C181.14 66.5559 181.024 66.166 180.875 65.8152C180.817 65.6762 180.759 65.5354 180.701 65.3943C180.139 64.8983 179.616 64.3571 179.177 63.8259C178.203 62.6499 177.458 61.3016 177.365 59.7477C177.319 58.9698 177.502 58.2251 177.728 57.4868C177.828 57.1528 177.888 56.7815 178.006 56.4559C178.072 56.2752 178.232 56.0908 178.288 55.9207C178.3 55.8833 178.311 55.8522 178.319 55.8273C178.311 55.8024 178.304 55.7506 178.304 55.6529C178.302 54.9082 178.205 54.1801 178.201 53.4626C177.518 54.1512 176.698 54.6655 175.765 54.9665C173.885 55.5701 171.923 55.2963 170.259 54.3649C168.467 55.5929 166.455 56.7046 164.344 57.1508C163.09 57.4161 161.834 57.3064 160.575 57.4702C159.325 57.6341 158.117 58.1797 156.939 58.6049C154.319 59.5529 151.705 60.5256 149.076 61.4489C146.953 62.1936 144.656 62.7847 142.434 62.3657C141.81 63.328 140.999 64.1414 139.96 64.7388C139.216 65.164 138.4 65.4522 137.556 65.5955C136.81 65.722 135.935 65.6723 135.329 66.1846C134.739 66.6825 134.37 67.4249 133.839 67.9852C133.248 68.6116 132.518 69.1551 131.753 69.5451C131.14 69.8583 130.513 70.0842 129.877 70.2317C129.933 71.6485 129.987 73.0632 130.004 74.4821C130.035 77.5646 130.022 80.6469 130.064 83.7296C130.105 86.8015 130.202 89.8739 130.364 92.9418C130.518 95.8211 130.733 98.7104 131.42 101.519C133.696 110.839 142.222 117.513 151.767 117.853C154.601 117.955 157.406 117.556 160.115 116.722C162.922 115.857 165.428 114.077 168.306 113.53C169.058 113.389 169.767 114.146 169.336 114.874C168.594 116.125 167.692 116.888 166.459 117.641C165.167 118.427 163.729 119.01 162.308 119.521C159.696 120.458 156.933 121.002 154.161 121.153C152.047 121.269 149.924 121.124 147.853 120.726C147.708 121.172 147.451 121.605 147.256 122.018C147.227 122.078 147.129 122.037 147.148 121.975C147.179 121.871 147.2 121.78 147.208 121.705C146.512 122.614 145.436 123.242 144.331 123.547C143.551 123.763 142.724 123.829 141.922 123.738C141.662 123.709 141.416 123.665 141.171 123.611C140.355 124.327 139.31 124.804 138.261 125.043C138.441 126.138 137.9 127.333 136.646 127.644C136.119 127.775 135.613 127.777 135.107 127.729C134.699 127.92 134.259 128.069 133.793 128.171C133.186 128.304 132.46 128.133 132.002 127.694C131.751 127.87 131.517 127.992 131.285 128.272C130.329 129.426 128.268 128.507 128.177 127.173C127.875 127.173 127.57 127.177 127.265 127.188C127.193 127.221 127.12 127.254 127.045 127.289C125.712 127.909 124.332 128.451 122.858 127.963C122.586 127.874 122.337 127.76 122.111 127.627C121.073 127.721 120.049 127.723 118.995 127.383C118.373 127.181 117.789 126.862 117.302 126.443C115.677 126.92 113.962 127.136 112.345 126.544C111.134 126.103 110.16 125.406 109.474 124.486C108.425 124.524 107.359 124.271 106.4 123.771C104.758 122.921 103.607 121.304 102.805 119.685C101.038 116.11 99.9935 112.271 99.5833 108.311C99.179 104.411 99.7553 100.532 100.162 96.6548" fill="black"/>
<path fill-rule="evenodd" clip-rule="evenodd" d="M154.14 106.091C154.14 106.091 151.196 108.36 145.707 108.36C140.218 108.36 137.03 106.331 137.03 106.331C137.03 106.331 141.841 103.412 145.707 103.176C149.573 102.94 154.14 106.091 154.14 106.091Z" fill="#FF6C6C"/>
<path fill-rule="evenodd" clip-rule="evenodd" d="M160.684 100.323C160.662 98.0377 158.679 97.6436 156.795 97.9483C153.605 98.4636 150.403 98.8262 147.17 98.8915L146.613 98.9013C146.523 98.7706 146.373 98.6715 146.169 98.6497C144.377 98.4563 142.546 98.4877 140.744 98.4346C139.172 98.3885 137.557 98.2315 135.985 98.3547L135.86 98.3657C133.939 98.5514 131.911 99.5304 132.143 101.782C132.357 103.866 134.352 105.711 135.946 106.87C136.268 107.102 136.598 107.319 136.937 107.518C137.043 107.653 137.198 107.748 137.378 107.767C138.947 108.613 140.678 109.114 142.471 109.281C146.271 109.634 150.689 109.252 154.339 107.607C155.525 107.073 156.632 106.405 157.611 105.586C159.12 104.321 160.701 102.403 160.684 100.323ZM145.503 104.44C147.027 104.394 148.548 104.607 149.999 105.076C150.982 105.393 151.878 106.002 152.82 106.426C149.645 107.635 145.956 107.899 142.699 107.679C141.27 107.582 139.884 107.253 138.593 106.687C138.795 106.542 138.998 106.395 139.211 106.266C139.855 105.877 140.529 105.545 141.231 105.282C142.599 104.769 144.043 104.486 145.503 104.44ZM145.201 84.8687C145.612 84.5741 145.286 83.5984 144.408 83.7492C136.431 85.1177 140.564 98.8376 150.748 91.3087C151.961 90.332 150.492 88.1808 149.186 89.0172L148.722 89.3744C147.213 90.5291 144.717 92.2747 142.93 90.4015C141.242 88.041 143.632 85.8208 145.201 84.8687ZM139.8 74.4849C138.105 73.0402 135.978 74.1049 134.73 75.568L134.51 75.8296C134.26 76.1281 133.983 76.4758 133.817 76.8476C132.434 75.6714 130.558 74.8437 128.763 75.381C127.022 75.9039 126.029 77.5634 126.328 79.3451C126.667 81.3712 128.202 82.7329 129.852 83.786L130.32 84.0826C132.302 85.3444 134.157 86.6156 135.789 88.3501C136.055 88.632 136.63 88.5947 136.805 88.2194L136.945 87.9174L137.087 87.6156C138.244 85.1514 139.484 82.7035 140.503 80.1813C141.257 78.3121 141.502 75.9328 139.8 74.4849ZM158.871 75.4952C157.629 74.0514 155.525 73.0847 153.865 74.4849C152.097 75.9764 152.444 78.4428 153.231 80.345C154.179 82.6393 155.287 84.8829 156.351 87.1333L156.578 87.6157C156.673 87.8169 156.767 88.0181 156.86 88.2193C157.035 88.5948 157.612 88.6321 157.876 88.35C159.457 86.6698 161.246 85.4265 163.156 84.2046L163.733 83.8383C165.409 82.7762 166.994 81.405 167.339 79.3452C167.634 77.5674 166.647 75.8976 164.904 75.3809C163.105 74.848 161.234 75.6694 159.848 76.8476C159.683 76.4665 159.398 76.1075 159.13 75.7934L158.871 75.4952ZM156.857 65.4357C156.25 66.2223 156.898 67.5078 157.784 67.7111C158.881 67.9631 159.99 67.8098 161.067 68.1224C162.054 68.4089 163 68.9828 163.846 69.555C164.811 70.2071 165.7 70.9352 166.516 71.7648C167.002 72.2583 167.614 73.4274 168.363 73.4492C169.108 73.4709 168.108 71.1454 168.026 70.9442C167.438 69.5118 166.613 68.1938 165.582 67.0392C163.545 64.7609 159.233 62.3569 156.857 65.4357ZM134.118 64.8061L133.61 64.9471C132.352 65.2962 131.009 65.7252 129.93 66.478L129.846 66.5379L129.715 66.6333C128.36 67.6417 126.444 69.6538 127.404 71.4091C127.47 71.5301 127.611 71.5421 127.724 71.4927C129 70.9345 129.946 69.8198 131.304 69.3534L131.554 69.2683C132.869 68.8261 134.496 68.3611 135.911 68.4034C136.906 68.7263 138.25 68.4588 138.509 67.2493L138.521 67.1901L138.543 67.0648C138.692 66.2384 138.471 65.1848 137.615 64.7865C136.442 64.2409 135.298 64.4837 134.118 64.8061Z" fill="black"/>
</g>
<defs>
<clipPath id="clip0">
<rect width="359" height="280" fill="white"/>
</clipPath>
</defs>
</svg>
