<svg width="359" height="280" viewBox="0 0 359 280" fill="none" xmlns="http://www.w3.org/2000/svg">
<g clip-path="url(#clip0)">
<path d="M246.02 71.883C204.456 36.4662 95.5887 40.8237 49.7463 52.1812C4.58306 67.9427 18.4376 103.267 4.58306 151.849C-12.7352 212.577 20.8826 210.491 74.1955 252.676C127.442 294.808 214.898 277.752 302.736 260.621L303.068 260.556C391.017 243.404 326.159 212.345 337.704 162.279C349.25 112.214 297.974 116.154 246.02 71.883Z" fill="#FAD551"/>
<path fill-rule="evenodd" clip-rule="evenodd" d="M298.861 194.94C301.025 193.81 303.138 192.583 305.217 191.305C306.682 190.428 305.385 188.22 303.883 189.018C303.115 189.426 302.35 189.838 301.583 190.244C302.187 189.723 302.747 189.156 303.249 188.539L303.215 188.504C305.151 186.769 302.664 183.495 300.462 184.92C298.52 186.328 296.561 187.765 294.332 188.692C289.715 190.65 284.623 190.974 279.668 191.031C277.855 190.895 276.123 191.209 274.363 191.559C275.053 188.791 276.779 186.7 277.695 184.019C278.371 181.312 274.465 179.468 273.08 182.07C272.741 182.709 272.417 183.356 272.1 184.005C269.108 186.728 264.112 186.488 261.095 189.411C259.376 190.937 258.535 193.008 258.202 195.086C257.977 196.497 258.327 197.912 257.474 199.162C253.351 204.997 246.835 214.22 243.526 220.641C241.183 205.382 234.927 186.509 228.464 172.556C226.327 168.094 223.882 163.734 220.672 159.951C221.036 158.69 219.752 156.451 218.935 157.14C216.422 154.069 211.979 153.273 208.406 151.746C203.584 149.683 199.583 145.395 197.616 140.522C195.089 131.241 188.867 130.062 180.239 130.472C171.982 130.462 165.873 133.995 164.071 142.404C160.411 148.786 151.769 147.73 145.552 149.42C140.995 150.461 136.573 152.071 132.37 154.115C127.695 149.679 110.951 168.298 109.429 173.089C110.325 173.263 111.216 173.472 112.098 173.727C112.884 173.954 112.554 175.142 111.761 174.952C110.775 174.715 109.782 174.552 108.785 174.439C108.755 174.534 108.728 174.629 108.708 174.723C108.596 174.715 108.484 174.705 108.372 174.698C108.621 174.827 108.86 174.977 109.092 175.171C109.655 175.638 108.922 176.54 108.324 176.168C107.761 175.746 107.023 175.813 106.347 175.671C106.307 177.061 101.348 175.506 100.578 175.045C97.154 174.617 93.632 175.077 90.4359 173.425C86.1833 172.529 81.8988 171.538 77.694 170.397C76.5808 170.831 75.5346 172.385 76.4187 173.525C76.9161 174.044 76.2768 174.891 75.6506 174.522C73.5504 173.285 71.9261 171.355 70.5491 169.275C69.9009 168.621 68.7504 168.762 67.8795 168.49C67.7631 168.699 67.6944 168.933 67.6955 169.172C64.0015 169.78 66.6366 173.816 68.4937 175.074C67.5085 175.716 67.4711 176.972 67.5573 178.022C67.3486 178.395 67.2789 178.859 67.4606 179.277C68.1552 180.879 69.6575 182.227 70.7999 183.525C72.0611 184.958 73.1857 186.398 74.7204 187.56C80.5699 192.021 87.629 194.514 94.8709 195.49C97.4422 195.885 101.141 196.49 102.733 198.665C102.342 201.246 101.625 203.722 100.974 206.239C100.064 209.581 100.126 213.079 100.114 216.485C99.9871 216.383 99.7429 216.404 99.7066 216.599C99.4949 218.011 99.3375 219.455 98.4795 220.641C97.7274 222.848 97.2269 225.201 96.9457 227.519C95.8192 238.508 95.5503 249.822 98.0902 260.64C99.0702 264.653 100.664 268.467 102.836 271.979C103.484 273.027 104.525 273.334 105.46 273.128C108.588 274.754 112.53 275.275 115.903 274.862C127.4 271.606 123.394 279.447 139.514 277.046C167.34 273.5 195.46 280.468 223.227 276.377C223.91 281.661 232.863 280.145 235.972 277.911C245.296 270.977 249.926 249.023 254.605 237.886C257.822 229.107 263.208 213.56 270.262 207.669C272.377 206.014 274.933 205.143 277.491 204.44C287.038 201.979 296.622 199.652 306.186 197.259C307.809 196.859 307.517 194.092 305.782 194.269C303.481 194.505 301.171 194.718 298.861 194.94Z" fill="white"/>
<path fill-rule="evenodd" clip-rule="evenodd" d="M86.3371 193.294C85.6906 193.214 85.0568 192.984 84.4272 192.802C83.466 192.521 82.5237 192.193 81.5962 191.819C79.6822 191.052 77.8251 190.145 76.0843 189.035C73.2723 187.241 70.7878 184.942 68.9138 182.173L68.7852 181.98C67.7154 180.35 65.742 176.73 67.9547 175.492C66.5286 174.3 65.1807 172.159 65.2567 170.506C65.3645 168.169 68.2293 168.201 69.7103 169.192C70.68 169.841 71.4067 170.749 72.1356 171.644C72.9427 172.637 73.8046 173.584 74.7004 174.495C74.9381 174.735 75.1781 174.972 75.4223 175.204L75.668 175.435C75.63 175.344 75.5962 175.251 75.5666 175.156C75.0722 173.615 75.6617 171.61 77.2018 170.904C78.1443 170.472 79.1231 170.735 80.0365 171.102L80.1765 171.159C81.406 171.669 82.6504 172.119 83.9307 172.48C89.149 173.954 94.5955 174.199 99.9427 174.934C102.003 175.22 104.1 175.579 106.15 176.107C106.931 172.787 108.848 169.604 110.926 166.985C120.881 154.458 137.299 150.318 152.318 147.638C153.687 147.395 154.822 149.209 155.618 148.78C157.129 147.968 158.457 146.818 159.624 145.569C162.11 142.904 163.874 139.77 165.947 136.8C166.972 135.333 169.329 136.646 168.379 138.221L167.913 138.99C165.995 142.142 163.872 145.39 161.122 147.835C159.66 149.133 158.037 150.158 156.182 150.798C154.777 151.282 152.806 151.69 151.268 151.22L151.083 150.952C151.145 151.041 151.206 151.131 151.268 151.221C155.282 157.039 160.319 161.964 165.626 166.611C170.983 171.3 176.761 175.498 182.575 179.603L183.06 179.945C192.531 173.034 200.531 164.02 206.145 153.721C204.968 153.579 203.804 152.825 202.798 152.263C201.588 151.582 200.449 150.77 199.562 149.688C197.629 147.332 197.88 144.295 197.531 141.435C197.51 141.258 197.745 141.213 197.853 141.302C198.9 142.173 199.268 143.599 199.705 144.832C200.187 146.186 200.732 147.302 201.837 148.255C202.866 149.143 204.121 149.796 205.34 150.377C205.969 150.676 209.089 151.442 209.445 152.077C214.836 150.811 220.088 152.998 224.084 156.688C227.943 160.254 230.777 164.889 233.278 169.464C235.946 174.347 238.133 179.436 240.017 184.667C241.927 189.976 243.391 195.401 244.196 200.989C244.876 205.701 245.292 210.486 245.562 215.25L245.595 215.845C249.583 209.583 253.672 203.386 257.844 197.244C256.895 194.71 257.945 192.123 259.722 190.166C261.691 188 264.414 186.994 267.019 185.823L267.362 185.668C268.617 185.095 269.869 184.464 270.953 183.606C271.997 182.777 272.764 181.636 273.862 180.873C275.46 179.761 278.358 179.998 278.432 182.427C278.47 183.76 277.898 185.223 277.374 186.421C276.78 187.776 275.979 189.004 275.029 190.132C274.985 190.185 274.937 190.226 274.888 190.259L274.851 190.282C276.165 190.5 277.49 190.676 278.84 190.737C281.563 190.862 284.316 190.661 286.982 190.086C289.712 189.498 292.357 188.543 294.812 187.212C296.91 186.074 298.853 184.603 301.236 184.257C301.456 184.223 301.678 184.202 301.906 184.189C302.286 184.168 302.667 184.616 302.517 184.992C302.434 185.199 302.348 185.404 302.253 185.612C301.429 187.427 300.165 189.188 298.588 190.525L298.467 190.627C299.022 190.435 299.569 190.219 300.108 189.976C303.275 188.549 306.148 186.394 309.543 185.527C309.704 185.485 309.867 185.447 310.029 185.411C311.079 185.185 311.633 186.326 311.016 187.108C310.917 187.235 310.817 187.359 310.714 187.484C309.199 189.365 307.528 191.111 305.686 192.679C305.054 193.216 304.403 193.736 303.74 194.233C303.46 194.443 303.179 194.649 302.895 194.852L302.755 194.951C303.087 194.717 303.414 194.478 303.74 194.233C305.819 193.603 307.868 192.857 309.873 192.03C310.669 191.703 311.288 192.51 311.373 193.174C311.656 195.397 309.188 197.006 307.583 198.075C305.973 199.149 304.2 199.965 302.386 200.62C298.896 201.881 295.231 202.454 291.572 202.967L289.795 203.215C282.761 204.199 275.413 205.375 270.366 210.851C267.537 213.92 265.623 217.733 263.872 221.484C262.122 225.231 260.586 229.078 259.129 232.946C257.618 236.948 256.302 241.025 254.903 245.069C253.619 248.781 252.084 252.446 250.565 256.074L250.325 256.646C247.099 264.357 243.245 271.618 237.875 278.056C236.99 279.119 235.56 277.61 236.377 276.558C241.995 269.313 245.903 260.764 249.129 252.235C250.598 248.355 251.827 244.382 253.238 240.48L254.078 238.162C255.199 235.073 256.331 231.987 257.51 228.922C259.004 225.043 260.645 221.211 262.524 217.504L262.723 217.114C264.562 213.538 266.746 210.013 269.753 207.307C275.165 202.433 282.367 201.264 289.33 200.338L291.521 200.049C294.464 199.658 297.417 199.226 300.279 198.438C301.931 197.986 303.545 197.407 305.062 196.608C305.667 196.291 306.256 195.943 306.826 195.562C305.2 196.04 303.55 196.431 301.87 196.737C301.048 196.887 300.235 196.999 299.424 197.077C297.334 197.284 295.262 197.276 293.122 197.164C292.94 197.153 292.881 196.868 293.075 196.832C294.566 196.567 296.058 196.236 297.544 195.876L297.989 195.767C297.998 195.52 298.095 195.258 298.298 195.008C299.037 194.108 300.442 193.647 301.416 193.011C302.436 192.345 303.425 191.627 304.367 190.857C305.229 190.154 306.057 189.409 306.854 188.632L307.093 188.397C307.014 188.476 306.934 188.554 306.854 188.632C304.703 189.625 302.665 190.9 300.419 191.686C298.634 192.314 296.762 192.736 294.873 192.886L294.756 192.896L294.638 192.903C292.667 193.045 290.684 192.988 288.742 193.415C288.524 193.463 288.457 193.172 288.651 193.089C290.348 192.383 292.112 192.111 293.895 191.781C293.933 191.641 294.03 191.517 294.199 191.436L294.655 191.218C296.014 190.566 297.28 189.907 298.41 188.847C299.407 187.911 300.237 186.816 300.86 185.603C298.365 186.151 296.174 188.042 293.905 189.105C291.434 190.266 288.818 191.098 286.131 191.572L285.825 191.624C280.803 192.462 274.764 192.356 270.264 189.743C270.121 189.659 270.224 189.467 270.372 189.49C271.648 189.699 272.912 189.946 274.175 190.166C273.928 189.94 273.818 189.534 274.103 189.209C275.238 187.908 276.135 186.421 276.709 184.794L276.819 184.476C277.083 183.721 277.529 182.549 277.074 181.869C276.638 181.22 275.614 181.308 275.001 181.583C273.727 182.158 272.88 183.593 271.807 184.46C270.636 185.407 269.305 186.108 267.943 186.736L267.655 186.867C265.298 187.927 262.78 188.82 260.926 190.692C259.929 191.698 259.072 192.956 258.784 194.366C258.653 195.012 258.653 195.678 258.826 196.319C258.964 196.819 259.251 197.128 259.086 197.637C258.871 198.295 258.108 199.081 257.715 199.666C257.259 200.343 256.805 201.021 256.35 201.7C255.444 203.056 254.542 204.418 253.64 205.777C251.836 208.499 250.05 211.234 248.28 213.977C247.704 214.87 247.13 215.764 246.557 216.66L245.7 218.003L245.248 218.711L244.475 219.926C244.503 220.038 244.5 220.157 244.465 220.26C244.333 220.635 244.086 220.892 243.78 221.078L243.725 221.11C239.217 228.239 234.78 235.414 230.299 242.56C230.06 244.741 229.836 246.924 229.642 249.107C229.2 254.049 228.898 259.003 228.801 263.963C228.755 266.364 228.947 268.78 229.05 271.179C229.101 272.324 229.17 273.467 229.261 274.61L229.328 275.421C229.417 276.534 229.468 277.639 229.067 278.701C228.712 279.633 227.631 279.842 226.991 279.132C218.639 278.796 210.281 278.54 201.924 278.382C186.964 278.094 171.998 278.139 157.036 278.428C149.521 278.574 142.004 278.779 134.491 279.033C130.79 279.155 127.086 279.329 123.383 279.379C121.387 279.406 118.247 278.68 118.086 276.434L118.082 276.365C117.833 276.433 117.575 276.488 117.311 276.528C117.193 276.546 117.08 276.541 116.976 276.517L116.924 276.503C113.95 277.41 110.188 276.116 107.361 275.362L107.128 275.3C104.43 274.596 102.262 273.59 100.494 271.354C97.399 267.438 96.3427 262.179 95.7934 257.333C95.2779 252.772 95.2483 248.127 95.8758 243.575C95.5061 239.865 95.8673 236.038 96.2877 232.35C96.4948 230.526 96.7377 228.704 97.0293 226.89C97.192 225.878 97.4053 224.876 97.623 223.876C97.7098 223.477 97.7822 223.047 97.8923 222.631L97.9419 222.454C97.6039 222.498 97.2342 222.425 96.8772 222.228C96.0279 221.761 95.7807 220.816 95.7659 219.912C95.7194 217.185 96.0448 214.381 96.3321 211.671C96.6215 208.966 97.0187 206.25 97.5384 203.578L97.6729 202.89C98.0667 200.891 98.5173 198.828 99.311 196.95C96.33 196.443 93.3575 195.904 90.4653 194.987C89.054 194.537 87.6638 193.977 86.3371 193.294ZM241.927 221.668C241.881 221.679 241.836 221.691 241.792 221.704C240.6 222.038 239.396 222.321 238.196 222.625C236.122 223.147 234.093 223.731 232.164 224.637C231.76 229.74 231.161 234.825 230.592 239.913L230.479 240.931C231.353 239.307 232.249 237.697 233.185 236.106C236.035 231.255 238.95 226.442 241.927 221.668ZM98.6686 222.173C98.6749 222.78 98.5482 223.41 98.4806 223.993C98.3707 224.94 98.282 225.891 98.17 226.838C97.9419 228.74 97.7475 230.644 97.6059 232.555C97.5151 233.774 97.4559 234.998 97.4031 236.222C98.601 231.743 100.188 227.362 101.696 222.974C101.444 222.947 101.186 222.886 100.92 222.815L100.473 222.695C100.209 222.627 99.3526 222.416 98.6686 222.173ZM245.7 218.003L245.709 218.204C245.74 218.916 245.314 219.318 244.796 219.421C245.096 218.948 245.398 218.474 245.7 218.003ZM108.63 184.246C109.891 184.358 111.127 184.627 112.306 185.092L112.42 185.136C113.291 185.473 114.566 185.896 114.852 186.827C114.932 187.091 114.716 187.309 114.469 187.33C113.523 187.406 112.407 186.391 111.53 186.049C110.554 185.669 109.532 185.385 108.497 185.235C106.171 184.895 103.745 185.153 101.556 186.001C101.428 186.051 101.347 185.846 101.464 185.785C103.669 184.584 106.122 184.024 108.63 184.246ZM81.9027 190.291C81.7568 190.162 81.6111 190.027 81.4674 189.892C80.3347 188.82 79.3317 187.569 78.589 186.194L78.3935 185.822C77.7886 184.65 77.0459 182.981 78.4674 182.137C79.3167 181.632 80.3392 181.759 81.2857 182.065C81.347 182.084 81.4083 182.105 81.4695 182.126C81.8921 182.275 82.2998 182.452 82.6632 182.621C84.2414 183.346 85.6336 184.401 87.0914 185.331C88.6709 186.339 90.2305 186.983 92.0535 187.361L92.2252 187.395C93.9364 187.734 95.7914 187.951 96.985 189.359C97.285 189.714 97.0104 190.38 96.4928 190.204C93.1928 189.091 89.7005 188.845 86.6709 187.017C85.416 186.26 84.2287 185.392 82.9463 184.675C82.266 184.295 81.5636 183.962 80.8151 183.733L80.4062 183.613C80.1667 183.543 79.8808 183.474 79.6885 183.543C79.3226 183.669 79.4394 183.865 79.5526 184.207L79.5639 184.242C80.4533 186.994 82.9885 189.297 85.3378 190.821C85.8766 191.172 86.428 191.494 86.9899 191.792C90.7939 193.82 95.0503 194.764 99.2307 195.885C99.2307 195.885 101.648 196.56 102.448 196.813C103.34 196.739 104.356 197.054 105.028 197.43C105.681 197.796 106.207 198.286 106.604 198.863C106.604 198.863 106.986 199.182 107.056 199.677C107.257 200.136 107.392 200.63 107.46 201.146C107.498 201.448 107.422 201.68 107.278 201.845C107.71 208.48 105.919 215.078 103.899 221.383L103.699 222.005L103.57 222.399C101.392 229.084 98.8928 235.721 97.7773 242.691C97.0316 247.347 97.0548 252.166 97.602 256.843L97.6406 257.165C98.1797 261.588 99.217 266.548 102.028 270.107C103.462 271.924 105.161 272.731 107.332 273.316L107.451 273.347C109.416 273.865 111.444 274.599 113.47 274.821C115.351 275.025 116.927 274.326 118.619 273.671L118.621 273.669C122.185 270.513 123.803 265.918 124.999 261.281C128.098 249.281 127.714 236.824 125.956 224.648C125.039 218.286 123.793 211.98 122.551 205.675C121.929 202.524 121.26 199.379 120.704 196.217L120.374 194.356C120.192 193.323 120.016 192.288 119.865 191.248C119.663 189.851 119.601 188.478 119.532 187.072C117.824 184.242 115.346 181.911 112.475 180.239C110.42 179.041 108.244 178.21 105.998 177.608C99.5773 175.877 92.578 175.999 86.1174 174.668C83.9471 174.221 81.8869 173.558 79.8278 172.763L79.547 172.654C78.6026 172.286 77.6393 172.081 77.1703 173.195C76.8364 173.987 77.035 174.812 77.5357 175.477C78.7632 177.109 81.2308 177.866 83.0879 178.453C84.2055 178.808 85.3463 179.089 86.4998 179.299C87.6533 179.508 88.8111 179.561 89.9181 179.969C90.3449 180.125 90.4294 180.803 89.9181 180.924C88.5153 181.251 87.1041 180.97 85.7097 180.698C84.178 180.395 82.6695 179.966 81.2033 179.423C80.9329 179.324 80.653 179.218 80.368 179.107L80.1533 179.022C80.3752 179.182 80.597 179.341 80.821 179.5C80.8801 179.542 80.8442 179.654 80.766 179.626C77.3186 178.339 74.1818 176.018 71.7517 173.271L71.6308 173.134C70.7752 172.153 68.8252 169.185 67.1815 170.012C65.6381 170.787 68.2691 173.775 69.269 174.996L69.3851 175.139C70.5217 175.169 71.6224 175.877 72.5435 176.447C74.1428 177.439 75.814 178.293 77.5168 179.091C80.9013 180.683 84.4949 181.805 87.8435 183.477C87.8879 183.5 87.8541 183.557 87.8118 183.551C85.6802 183.211 83.5717 182.667 81.5118 181.993L81.4199 181.965L81.328 181.934C80.0414 181.511 78.7717 181.034 77.5231 180.524C76.1351 179.958 74.7787 179.322 73.4625 178.601C72.271 177.95 70.9485 176.777 69.5668 176.604C69.4189 176.585 69.2879 176.583 69.1738 176.593C67.5872 176.726 68.8992 179.356 69.3429 180.142C70.0675 181.433 70.9421 182.625 71.9457 183.714C73.9802 185.924 76.4457 187.676 79.114 189.04C80.0245 189.505 80.9562 189.915 81.9027 190.291Z" fill="black"/>
<path fill-rule="evenodd" clip-rule="evenodd" d="M203.99 69.0517C190.124 57.7538 167.904 54.0854 153.061 65.4837C141.529 76.1808 136.756 106.578 138.797 121.853C139.365 131.65 146.831 142.755 157.791 139.656C159.652 139.473 161.459 138.757 163.337 138.608C165.584 138.348 167.848 138.344 170.09 138.661C174.976 139.354 179.308 141.955 184.05 143.171C192.849 145.427 202.667 143.909 210.242 138.828C235.272 122.33 223.934 85.0192 203.99 69.0517V69.0517Z" fill="white"/>
<path fill-rule="evenodd" clip-rule="evenodd" d="M202.143 143.442C202.4 143.353 202.657 143.261 202.912 143.166C202.929 143.225 202.956 143.282 202.988 143.337C203.024 143.426 203.06 143.512 203.1 143.599C202.78 143.601 202.459 143.544 202.143 143.442M201.629 33.9585C201.515 33.703 201.384 33.4578 201.237 33.2209C201.595 33.3373 201.954 33.498 202.278 33.7051C202.059 33.7791 201.844 33.8636 201.629 33.9585M146.859 67.3859C146.845 67.3834 146.83 67.3812 146.816 67.3787C147.004 66.8767 147.339 66.4029 147.709 66.0607C147.775 65.9992 147.847 65.9424 147.916 65.8836C147.524 66.3526 147.167 66.8529 146.859 67.3859M247.073 119.875C246.887 118.112 246.651 116.356 246.346 114.61C246.053 112.938 245.806 111.15 244.956 109.667C244.113 108.189 243.268 106.754 242.264 105.454C242.407 104.791 242.597 104.167 242.762 103.664C243.71 100.769 244.644 97.0912 242.673 94.4007C242.216 93.7773 241.657 93.2996 241.018 92.8684C240.746 92.6846 240.295 92.5176 240.086 92.264C239.939 92.0843 239.989 92.1816 239.983 92.0928C239.947 91.6151 241.064 90.607 241.326 90.2287C241.815 89.5289 242.18 88.7408 242.458 87.9355C243.558 84.7484 242.81 81.2378 242.148 78.0441C241.798 76.3514 241.413 74.6543 241.286 72.9254C241.168 71.3023 241.389 69.7171 241.52 68.1024C241.647 66.5086 241.613 64.8645 240.932 63.3891C240.599 62.6705 240.095 62.0365 239.481 61.5419C238.883 61.0581 238.136 60.777 237.552 60.2951C236.97 59.8152 237.137 59.1665 237.289 58.5029C237.497 57.6025 237.761 56.7085 237.786 55.7786C237.833 54.1575 237.173 52.5785 236.142 51.3529C235.079 50.0869 233.561 49.2307 231.921 49.0384C231.171 48.9496 230.433 49.0999 229.686 49.0471C228.949 48.9964 228.789 48.6265 228.649 47.9502C228.329 46.401 228.459 44.8708 227.699 43.4252C227.024 42.1401 225.824 41.2692 224.498 40.7558C222.068 39.8132 219.24 40.0076 216.677 40.5633C215.163 36.0998 210.439 33.1726 205.79 33.1366C205.065 31.9023 203.835 30.9809 202.434 30.4396C200.115 29.5413 197.658 30.0657 195.243 30.0657H195.232C194.989 30.0507 194.747 30.0446 194.505 30.0467C194.277 30.0338 194.049 30.0148 193.821 29.9896C191.072 29.6639 188.353 28.5353 185.629 29.6409C184.415 30.1333 183.449 30.8921 182.838 31.8601C181.916 32.1114 181.008 32.399 180.116 32.7329C176.251 32.8342 172.423 34.9118 170.469 38.2788C167.718 37.966 164.732 38.4965 162.913 40.7495C162.439 41.3357 162.072 42.0245 161.829 42.7558C159.973 43.3573 158.257 44.4291 157.133 46.0434C156.108 47.5165 155.911 49.4212 156.604 51.0025C154.948 52.2053 153.654 53.9272 153.031 55.9603C152.652 57.1957 152.595 58.472 152.839 59.6879C151.143 60.065 149.522 60.7639 148.085 61.8128C146.579 62.9117 144.698 64.6606 144.599 66.6735C144.592 66.8212 144.597 66.9689 144.609 67.1163C141.294 66.8827 137.914 67.4458 135.673 70.1102C133.99 72.1094 133.259 74.6839 133.708 77.0277C129.763 77.8309 126.034 79.8979 123.432 82.954C121.541 85.1753 119.861 87.9989 119.962 91.0231C119.994 91.9343 120.207 92.8515 120.576 93.699V93.701C120.418 93.9992 120.255 94.331 120.099 94.6839C117.656 96.3978 115.881 99.0843 114.881 102.045C114.074 104.444 113.566 107.559 114.428 110C114.559 110.372 114.725 110.723 114.919 111.049C114.757 111.222 114.603 111.395 114.453 111.571C112.807 113.5 111.139 115.931 111.253 118.587C111.3 119.657 111.696 120.733 112.343 121.616C110.066 123.931 108.232 126.851 108.413 130.113C108.569 132.951 110.123 135.834 112.558 137.197C112.151 139.385 112.695 141.692 114.394 143.4C115.242 144.254 116.241 144.816 117.3 145.116C117.536 147.693 119.817 149.766 122.239 150.362C122.69 150.474 123.141 150.542 123.59 150.573C125.77 151.645 128.37 151.522 130.594 150.539C131.249 151.374 132.103 152.055 133.098 152.543C133.501 152.742 133.927 152.907 134.372 153.04C137.513 153.972 140.735 152.708 143.481 151.233C143.57 151.186 143.732 151.127 143.876 151.062C144.255 151.486 144.947 151.907 145.307 152.114C146.53 152.818 148.025 153.145 149.429 153.053C151.075 152.943 152.528 152.397 153.873 151.622C154.069 151.656 154.267 151.675 154.465 151.685C155.73 151.753 156.858 151.351 157.872 150.717C158.542 150.806 159.23 150.797 159.925 150.675C161.458 151.066 162.951 150.444 164.15 149.457C164.682 149.02 165.131 148.506 165.612 148.016C166.111 147.506 166.491 147.388 167.074 147.046C168.456 146.237 168.622 144.184 168.023 142.7C168.137 142.441 168.203 142.151 168.203 141.83C168.198 139.027 166.91 136.457 165.329 134.215C164.623 133.215 163.855 132.236 163.014 131.349C162.337 130.637 161.387 129.481 160.385 129.191C160.324 129.147 160.261 129.102 160.197 129.06C160.392 128.379 160.505 127.686 160.457 126.978C160.406 126.251 160.172 125.562 159.797 124.975C161.055 122.529 161.587 119.847 161.334 117.049C162.358 115.593 163.134 113.984 163.535 112.222C163.781 111.131 163.923 109.984 163.904 108.865C163.895 108.329 163.699 107.65 163.695 107.094C163.725 107.27 163.952 106.615 164.041 106.452C165.057 104.56 166.362 103.085 166.579 100.855C166.705 99.5511 166.398 98.1099 165.618 97.0405C166.117 95.0665 166.111 92.9464 165.325 91.0635C165.114 90.5605 164.872 90.068 164.593 89.601C164.722 89.2079 164.84 88.8105 164.991 88.4531C165.051 88.3115 165.11 88.168 165.169 88.0243C165.74 87.519 166.271 86.9675 166.718 86.4263C167.709 85.2281 168.466 83.8544 168.561 82.2711C168.607 81.4786 168.422 80.7198 168.192 79.9676C168.091 79.6273 168.029 79.249 167.909 78.9172C167.842 78.7331 167.679 78.5452 167.623 78.3719C167.61 78.3339 167.599 78.3022 167.591 78.2768C167.599 78.2515 167.606 78.1986 167.606 78.0991C167.608 77.3403 167.707 76.5985 167.711 75.8674C168.405 76.5691 169.24 77.093 170.188 77.3997C172.1 78.0147 174.095 77.7358 175.788 76.7868C177.609 78.038 179.656 79.1706 181.803 79.6252C183.078 79.8956 184.356 79.7837 185.635 79.9507C186.906 80.1177 188.136 80.6735 189.333 81.1068C191.998 82.0727 194.656 83.0637 197.329 84.0044C199.488 84.7632 201.824 85.3655 204.084 84.9386C204.719 85.919 205.543 86.7477 206.6 87.3564C207.356 87.7897 208.187 88.0833 209.045 88.2293C209.804 88.3582 210.694 88.3075 211.309 88.8295C211.91 89.3368 212.285 90.0932 212.825 90.6641C213.426 91.3023 214.168 91.8561 214.946 92.2534C215.57 92.5726 216.207 92.8027 216.854 92.953C216.797 94.3965 216.742 95.8379 216.725 97.2835C216.694 100.424 216.706 103.565 216.664 106.706C216.622 109.835 216.523 112.966 216.358 116.092C216.202 119.025 215.983 121.969 215.285 124.831C212.97 134.327 204.299 141.126 194.593 141.473C191.711 141.576 188.859 141.17 186.103 140.321C183.249 139.439 180.7 137.626 177.774 137.068C177.008 136.924 176.287 137.696 176.726 138.437C177.481 139.712 178.398 140.49 179.652 141.257C180.966 142.058 182.429 142.652 183.873 143.172C186.529 144.127 189.34 144.681 192.158 144.835C194.308 144.953 196.467 144.806 198.573 144.4C198.721 144.854 198.983 145.296 199.18 145.717C199.21 145.778 199.309 145.736 199.29 145.672C199.258 145.567 199.238 145.474 199.229 145.397C199.937 146.323 201.031 146.963 202.155 147.274C202.948 147.494 203.789 147.561 204.605 147.469C204.869 147.439 205.119 147.395 205.368 147.34C206.199 148.069 207.261 148.555 208.328 148.798C208.145 149.914 208.695 151.131 209.971 151.448C210.506 151.582 211.02 151.584 211.535 151.535C211.95 151.729 212.397 151.882 212.871 151.985C213.489 152.12 214.227 151.947 214.693 151.499C214.948 151.679 215.186 151.803 215.422 152.089C216.394 153.264 218.49 152.328 218.582 150.969C218.89 150.969 219.2 150.973 219.51 150.983C219.584 151.017 219.658 151.051 219.734 151.087C221.089 151.719 222.493 152.271 223.992 151.774C224.268 151.683 224.521 151.567 224.751 151.431C225.807 151.527 226.849 151.529 227.92 151.182C228.552 150.977 229.147 150.652 229.642 150.225C231.295 150.711 233.039 150.931 234.683 150.328C235.914 149.878 236.905 149.168 237.603 148.231C238.67 148.27 239.753 148.012 240.729 147.502C242.399 146.636 243.569 144.989 244.385 143.339C246.181 139.697 247.244 135.785 247.661 131.751C248.072 127.777 247.486 123.825 247.073 119.875" fill="black"/>
<path fill-rule="evenodd" clip-rule="evenodd" d="M196.152 128.274C194.732 127.695 193.465 126.728 192.538 125.493C192.216 125.063 192.133 124.61 192.2 124.195C192.276 123.729 192.552 123.306 192.928 123.023C193.305 122.739 193.777 122.598 194.233 122.67C194.63 122.732 195.024 122.949 195.337 123.399L195.402 123.489C195.953 124.235 196.67 124.846 197.488 125.241C198.276 125.621 199.158 125.798 200.07 125.695C201.807 125.499 203.005 124.559 204.278 123.282C204.436 123.121 204.593 122.955 204.752 122.786C204.852 122.633 204.991 122.534 205.146 122.483C205.317 122.425 205.511 122.429 205.689 122.491C205.86 122.55 206.013 122.664 206.116 122.815C206.213 122.958 206.268 123.135 206.251 123.339C206.134 124.661 205.443 125.842 204.461 126.769C203.37 127.799 201.924 128.511 200.563 128.761C199.064 129.036 197.536 128.839 196.152 128.274V128.274ZM201.271 107.866C202.866 108.836 205.297 111.098 203.58 113.503C201.56 115.624 198.652 113.193 197.218 112.093C195.889 111.241 194.396 113.433 195.629 114.428C205.986 122.099 210.189 108.12 202.077 106.726C201.184 106.572 200.853 107.566 201.271 107.866ZM182.711 98.9429C182.887 96.7541 186.219 96.257 186.551 98.423C186.847 100.363 186.498 102.145 185.624 103.892C184.79 105.561 182.692 104.783 182.533 103.263C182.32 101.226 182.601 100.304 182.711 98.9429ZM208.076 97.9738C208.541 97.3652 209.212 96.9496 210.015 97.1845C212.526 97.9185 211.786 101.485 210.904 103.22C210.425 104.163 208.876 104.402 208.176 103.572C207.035 102.219 206.489 99.5156 207.939 98.1825C207.979 98.1136 208.023 98.044 208.076 97.9738ZM185.589 89.3654L185.986 89.2959C187.213 89.0836 188.738 88.8796 189.606 89.8665C190.067 90.3898 190.225 91.3624 189.606 91.8633C188.518 92.7446 187.314 92.4031 186.01 92.4777C184.935 92.5394 183.902 92.7174 182.867 93.0135C180.595 93.663 178.744 94.8486 176.804 96.1506C176.55 96.3213 176.29 95.9956 176.411 95.7574C177.531 93.563 179.701 91.7604 181.875 90.6616C183.036 90.0751 184.305 89.5885 185.589 89.3654ZM205.787 88.3823L206.091 88.4445C209.394 89.1353 213.687 90.5153 215.251 93.7615C215.311 94.2205 215.248 94.3189 215.196 94.3832L215.179 94.4046C215.137 94.4595 215.103 94.5351 214.905 94.5976C214.849 94.5844 214.794 94.5705 214.737 94.5557C214.02 94.3677 213.453 94.1087 212.904 93.84L212.308 93.5465C211.617 93.2076 210.92 92.881 210.181 92.6399C208.605 92.1254 206.983 91.7631 205.336 91.5696C204.98 91.5277 204.636 91.4072 204.365 91.2006C204.107 91.0046 203.911 90.7332 203.821 90.3724C203.705 89.9056 203.738 89.5521 203.989 89.1309C204.177 88.8146 204.446 88.5953 204.756 88.4694C205.071 88.3411 205.43 88.3108 205.787 88.3823Z" fill="black"/>
</g>
<defs>
<clipPath id="clip0">
<rect width="359" height="280" fill="white"/>
</clipPath>
</defs>
</svg>
