<svg width="359" height="280" viewBox="0 0 359 280" fill="none" xmlns="http://www.w3.org/2000/svg">
<g clip-path="url(#clip0)">
<path d="M246.02 71.883C204.456 36.4662 95.5887 40.8237 49.7463 52.1812C4.58306 67.9427 18.4376 103.267 4.58306 151.849C-12.7352 212.577 20.8826 210.491 74.1955 252.676C127.442 294.808 214.898 277.752 302.736 260.621L303.068 260.556C391.017 243.404 326.159 212.345 337.704 162.279C349.25 112.214 297.974 116.154 246.02 71.883Z" fill="#FAD551"/>
<path fill-rule="evenodd" clip-rule="evenodd" d="M170.498 128.859C181.834 128.047 197.375 130.295 200.654 143.225C201.671 147.931 203.674 149.996 207.04 153.073C228.405 180.429 153.862 185.028 150.03 158.352C141.957 161.293 133.169 161.916 125.092 164.889C120.711 166.508 116.738 169.062 112.931 171.734C97.4073 182.764 82.1033 194.109 66.6349 205.218C72.6207 207.975 84.0013 218.503 79.364 225.578C78.2837 226.956 76.6802 227.906 75.2617 228.914L74.5138 229.448C72.9046 230.601 70.1958 232.568 68.6979 233.636L68.4217 233.837C68.3134 233.916 68.1912 234.004 68.0808 234.083C78.8829 249.882 91.525 264.46 105.548 277.475C106.742 278.586 106.253 281.068 104.525 281.358L102.466 281.66C95.8182 282.628 89.044 283.5 82.3448 282.974C75.8202 282.264 71.8885 276.486 67.4282 272.301C58.5214 263.194 50.2302 253.479 42.6782 243.216L42.5209 242.999C40.1705 239.786 37.0508 236.502 36.8225 232.353C36.4061 231.106 37.5019 229.318 38.5549 228.468L38.9144 227.949C44.5618 219.824 50.9534 211.988 58.9612 206.103C58.9314 205.226 59.3366 204.305 60.139 203.724L93.6055 179.495V179.495C102.24 173.551 110.266 166.564 119.626 161.764C129.196 157.154 139.997 156.973 149.804 153.126C150.012 150.353 155.839 149.645 155.655 150.073C161.804 146.361 164.969 141.943 165.945 137.883C166.922 133.824 165.708 130.121 170.498 128.859ZM253.258 215.845C263.606 200.268 273.47 217.502 277.778 227.89C282.868 242.105 272.327 259.59 265.518 271.845C263.01 275.248 259.711 282.426 255.29 282.947C244.152 282.901 232.998 282.117 221.854 281.883C214.657 280.097 224.754 269.279 231.728 273.23C233.841 274.021 234.897 276.421 236.957 277.191C237.708 277.351 237.76 277.016 238.065 276.269L238.109 276.164C238.653 274.87 239.181 273.569 239.717 272.271C244.255 261.093 249.052 250.013 253.821 238.938C254.84 236.534 253.411 234.553 251.553 233.122C250.131 231.95 244.016 229.091 249.777 230.349C247.559 225.198 250.225 219.97 253.258 215.845ZM227.566 194.522C228.562 194.397 229.842 195.402 229.995 196.375C231.266 204.441 229.85 212.416 228.152 220.306L227.84 221.751C227.214 224.629 226.514 227.564 224.953 230.086C223.359 232.66 220.948 234.601 218.181 235.78C209.302 239.319 198.26 235.819 191.729 229.202C187.551 223.476 191.224 216.284 191.925 210.008C191.262 208.317 191.018 206.362 190.635 204.618L190.588 204.41L189.099 197.906C188.77 196.472 189.815 194.509 191.533 194.706C203.505 196.08 215.607 196.018 227.566 194.522Z" fill="#FFF6EF"/>
<rect x="188.422" y="194.865" width="42.0423" height="42.27" fill="#A5DFFB"/>
<path fill-rule="evenodd" clip-rule="evenodd" d="M269.38 213.807C269.344 213.646 269.536 213.524 269.661 213.644C271.767 215.675 273.254 218.271 274.887 220.676C276.442 222.967 278.135 225.169 279.294 227.697C280.372 230.047 281.067 232.431 281.274 235.014C281.481 237.578 281.213 240.148 280.761 242.673C279.871 247.648 277.97 252.359 275.882 256.935C273.853 261.383 271.56 265.705 269.138 269.948L268.271 271.463C267.212 273.308 266.142 275.148 264.996 276.935C263.57 279.159 262.268 281.454 260.388 283.31C259.053 284.63 256.537 283.31 257.145 281.422C257.409 280.6 257.616 279.826 258.026 279.063C258.337 278.482 258.687 277.918 259.017 277.345C259.676 276.2 260.329 275.05 260.988 273.904C262.372 271.497 263.83 269.134 265.201 266.719C267.58 262.53 269.825 258.262 271.811 253.871L272.045 253.352C273.872 249.285 275.604 245.073 276.406 240.674C277.251 236.039 276.495 231.67 274.849 227.314C273.998 225.061 273.041 222.859 272.046 220.665L271.855 220.246C270.894 218.152 269.875 216.07 269.38 213.807ZM167.095 133.637C167.114 133.555 167.253 133.549 167.266 133.637C167.857 137.573 166.541 141.736 164.397 145.01C163.226 146.798 161.783 148.413 160.083 149.711L159.95 149.811C158.213 151.11 155.865 152.365 153.709 151.522C153.641 151.496 153.578 151.467 153.519 151.433C153.762 151.809 153.985 152.205 154.214 152.6C154.892 153.777 155.5 154.997 156.162 156.184C157.345 158.308 158.754 160.208 160.535 161.872C167.656 168.522 177.656 170.102 187.048 170.026L187.711 170.02C191.836 169.991 197.231 170.202 200.416 167.215C202.127 165.611 203.069 163.33 203.921 161.189C204.757 159.09 205.33 156.924 206.025 154.789C204.573 153.794 203.242 152.579 202.197 151.158C201.107 149.679 200.283 148.014 199.807 146.236L199.737 145.971C199.37 144.553 199 142.678 199.592 141.339C199.659 141.185 199.913 141.195 199.985 141.339C200.304 141.98 200.365 142.702 200.562 143.387C200.79 144.184 201.047 144.976 201.388 145.731C202.045 147.194 202.913 148.584 203.954 149.802C204.814 150.81 205.746 151.735 206.811 152.513C207.438 151.429 208.894 151.283 210.113 151.64C211.747 152.118 213.359 152.731 214.934 153.379L215.249 153.509C216.806 154.155 218.566 154.749 220.023 155.631C220.909 156.053 221.758 156.478 222.557 156.854C226.536 158.724 230.456 160.709 234.359 162.731L235.195 163.165C236.83 164.017 238.45 164.877 239.872 166.065C241.319 167.274 242.443 168.927 243.5 170.476C245.914 174.018 248.19 177.662 250.577 181.223C255.398 188.409 260.219 195.595 265.068 202.764C266.24 204.499 267.563 206.192 268.615 208.001C269.623 209.73 269.595 211.505 269.399 213.435L269.362 213.789C268.985 217.329 268.338 220.728 266.352 223.764C263.228 228.536 258.305 231.507 253.097 233.553C253.733 234.027 254.331 234.538 255.09 234.864C256.256 235.363 257.5 235.621 258.762 235.724C260.107 235.832 261.624 235.496 262.714 236.411C263.152 236.776 263.164 237.656 262.714 238.021C261.666 238.877 260.312 238.632 259.035 238.488L258.958 238.48C257.773 238.349 256.604 238.129 255.491 237.694C255.216 237.586 254.944 237.465 254.68 237.332C254.688 237.356 254.692 237.383 254.688 237.413C254.498 238.869 254.086 240.246 253.65 241.637L253.374 242.519C252.812 244.32 252.246 246.116 251.663 247.912C250.553 251.332 249.345 254.72 248.132 258.103L247.085 261.023C246.009 264.018 244.92 267.009 243.717 269.954C242.973 271.772 242.226 273.589 241.48 275.405C240.751 277.178 240.145 279.093 239.24 280.782C238.497 282.172 236.469 281.177 236.794 279.748C237.221 277.874 238.026 276.014 238.64 274.19C239.266 272.338 239.878 270.485 240.514 268.637C241.62 265.428 242.845 262.262 244.076 259.099L245.297 255.963C246.494 252.891 247.705 249.821 248.999 246.788L249.14 246.456C250.485 243.284 251.873 239.717 254.316 237.259C254.348 237.225 254.393 237.208 254.437 237.203C253.837 236.878 253.275 236.483 252.781 236.016L252.756 235.991C252.561 235.784 251.754 234.764 251.494 234.154C251.156 234.274 250.818 234.39 250.48 234.504C249.89 234.703 249.402 234.559 249.058 234.244L248.402 234.651C247.701 235.079 246.947 235.485 246.172 235.506C245.196 235.532 244.429 234.993 243.907 234.198C243.438 233.488 243.159 232.721 242.566 232.084C241.982 231.459 241.306 230.931 240.616 230.428L239.802 229.835C238.31 228.745 236.863 227.644 235.662 226.205C235.057 225.478 234.248 224.615 233.881 223.742C233.809 223.574 233.764 223.415 233.756 223.261C233.676 223.806 233.593 224.353 233.511 224.899C232.357 232.573 231.426 240.3 231.128 248.06C230.982 251.888 230.916 255.72 231.088 259.549C231.172 261.462 231.312 263.373 231.504 265.279C231.599 266.234 231.698 267.188 231.814 268.139L231.841 268.359C231.875 268.65 231.897 268.932 231.871 269.2C232.801 269.658 233.335 270.817 233.707 271.721C233.99 272.41 233.771 273.08 233.314 273.564C233.859 274.061 234.345 274.644 234.753 275.312C234.835 275.447 234.658 275.553 234.552 275.468C233.883 274.936 233.162 274.498 232.41 274.162C232.015 274.312 231.584 274.352 231.187 274.243C230.756 274.124 230.384 273.837 230.116 273.471C227.98 273.12 225.759 273.549 223.837 274.887C223.438 275.166 223.076 275.481 222.732 275.823C222.673 275.883 222.612 275.959 222.55 276.033L222.97 276.194C223.143 276.26 223.286 276.311 223.34 276.322C223.707 276.397 224.078 276.437 224.45 276.469L225.007 276.515C227.147 276.692 229.281 276.751 231.271 277.647C231.69 277.835 231.544 278.48 231.149 278.588C229.696 278.982 228.253 278.952 226.774 278.846L226.457 278.822C225.081 278.717 223.604 278.723 222.263 278.343C222.584 279.222 222.147 280.37 220.805 280.549C216.776 281.086 212.722 280.833 208.689 280.477C204.616 280.118 200.545 279.778 196.461 279.565C183.251 278.869 170.021 279.003 156.799 279.192L149.328 279.3C143.369 279.384 137.41 279.449 131.451 279.404L128.662 279.378C127.484 279.366 126.304 279.352 125.127 279.317L124.421 279.294C123.018 279.243 121.161 279.454 119.942 278.624C118.936 277.939 118.712 276.684 119.319 275.671C119.494 275.38 119.735 275.12 119.986 274.866C120.502 270.46 120.791 266.032 121.087 261.606C122.114 246.118 121.514 230.711 119.145 215.379C112.79 217.322 106.533 219.759 100.435 222.373C97.1376 223.787 93.8566 225.254 90.6136 226.792C87.6538 228.198 84.6812 229.954 81.5186 230.867C81.2311 231.122 80.8291 231.244 80.4725 231.131L80.4263 231.114H80.4242C80.0988 231.19 79.7376 231.144 79.3826 230.931C79.3108 230.887 79.239 230.843 79.1671 230.798L79.0594 230.73C77.946 230.028 76.8263 229.164 76.0383 228.107C75.0812 228.995 74.0524 229.808 73.0404 230.633C71.9418 231.529 70.8474 232.429 69.7615 233.338C69.3305 233.699 68.8552 234.044 68.4749 234.46L68.4196 234.521C68.4108 234.531 68.4024 234.541 68.3946 234.551C70.0404 235.616 71.4812 237.233 72.7721 238.638C74.1582 240.147 75.4964 241.703 76.8237 243.266L78.1086 244.782C87.1944 255.515 96.3732 266.637 108.136 274.526C109.995 275.773 108.223 278.81 106.376 277.535C102.882 275.128 99.5756 272.454 96.4002 269.641C90.8355 264.715 85.8284 259.188 81.1404 253.429C78.7678 250.514 76.465 247.528 74.2087 244.522L73.4429 243.503C72.4224 242.143 71.4073 240.779 70.4355 239.385L70.2321 239.092C69.3797 237.862 68.4732 236.479 67.9235 235.062C67.7122 235.276 67.4735 235.455 67.1249 235.591C66.5291 235.823 65.7981 235.335 65.6524 234.754C65.2974 233.344 66.5228 232.505 67.52 231.757C68.7305 230.852 69.9643 229.979 71.2002 229.111L71.6417 228.799C73.1872 227.702 74.7409 226.577 76.4249 225.71C76.4756 225.643 76.5369 225.579 76.6066 225.524C76.6869 225.461 76.765 225.399 76.8453 225.338C74.834 222.075 72.6284 218.938 70.1671 215.975C68.3164 213.746 66.3516 211.617 64.2728 209.601L63.3389 208.696C61.9263 207.332 60.4575 205.947 58.8897 204.761L58.3989 205.318C57.7435 206.059 57.0817 206.795 56.3819 207.492C55.0045 208.861 53.646 210.259 52.2939 211.655C50.0484 213.98 47.879 216.375 45.7165 218.774L44.6355 219.974C42.3833 222.474 39.9707 224.928 37.9235 227.599L37.8212 227.735C36.9275 228.934 36.2913 230.261 36.7066 231.784C37.1073 233.253 38.0601 234.555 38.8813 235.823L38.9629 235.95C42.3157 241.175 45.9073 246.266 49.7545 251.138C57.4594 260.896 66.2481 270.144 76.7355 276.929C78.189 277.869 76.8305 280.207 75.3749 279.256C69.2502 275.251 63.6242 270.441 58.4481 265.275C53.6967 260.534 49.3911 255.314 45.3559 249.956C43.389 247.342 41.5045 244.673 39.6981 241.944C37.9467 239.296 35.9207 236.572 34.6509 233.651C33.9855 232.114 33.7404 230.451 34.2855 228.832C34.7853 227.344 35.7739 226.108 36.8023 224.946L36.8988 224.837C39.2629 222.181 41.6693 219.556 44.0967 216.956C46.5326 214.348 49.0805 211.833 51.6812 209.392C53.7242 207.471 55.8538 205.778 58.1312 204.209C57.9263 204.064 57.7214 203.924 57.5122 203.789C56.8763 203.375 56.7157 202.489 57.2735 201.927C58.7967 200.388 60.5524 199.05 62.2045 197.649C63.7573 196.332 65.3101 195.014 66.8629 193.695C70.0235 191.015 73.184 188.333 76.3446 185.651C82.0214 180.834 87.6664 175.984 93.3242 171.146C95.6833 169.129 98.0645 167.138 100.44 165.14L104.659 161.588V161.588L106.723 159.854C107.781 158.968 108.86 158.092 110.063 157.417C112.892 155.827 116.294 155.139 119.411 154.296L119.619 154.24C123.115 153.283 126.631 152.382 130.165 151.579C133.704 150.776 137.257 150.045 140.826 149.383C144.033 148.787 147.316 148.276 150.586 148.2C151.397 147.891 152.416 147.783 153.214 148.113C153.544 148.25 153.888 148.451 154.195 148.705C155.794 148.142 157.372 147.874 158.866 146.923C160.357 145.974 161.678 144.727 162.789 143.353C165.085 140.509 166.288 137.148 167.095 133.637ZM203.857 229.969C202.59 229.88 201.449 230.404 200.317 230.962C200.955 231.239 201.593 231.514 202.231 231.786L206.477 233.6V233.6C207.88 234.198 209.365 234.718 210.698 235.455C210.793 235.508 210.869 235.572 210.926 235.646C212.312 234.758 213.779 233.966 215.183 233.122C215.505 232.93 215.828 232.738 216.151 232.545C214.478 233.105 212.762 233.386 210.945 232.86C208.522 232.161 206.418 230.149 203.857 229.969ZM207.331 225.717L207.103 225.562C205.873 224.718 204.406 223.633 202.913 224.391C202.209 224.749 201.633 225.326 200.94 225.71C200.243 226.099 199.476 226.397 198.698 226.577C197.407 226.875 195.928 226.919 194.54 226.631L194.562 228.508V228.508C195.612 228.942 196.655 229.386 197.699 229.834C198.376 229.602 199.029 229.324 199.714 229.018L200.177 228.811C201.497 228.217 202.831 227.82 204.29 228.008C207.039 228.361 209.116 230.404 211.744 231.085C214.966 231.922 217.873 229.517 220.917 228.923C221.419 228.824 221.937 228.766 222.451 228.757L222.622 228.756L222.698 228.711C223.353 228.327 224.333 227.959 224.79 227.312C225.286 226.611 225.328 225.435 225.491 224.611C225.508 224.529 225.525 224.444 225.54 224.362C225.252 224.362 224.961 224.376 224.665 224.432C223.735 224.603 222.861 224.932 221.995 225.3C220.357 225.996 218.756 226.788 217.032 227.251C215.344 227.705 213.58 227.921 211.841 227.669C210.145 227.424 208.735 226.659 207.331 225.717ZM207.595 219.118L207.34 218.954C206.669 218.525 205.899 218.081 205.076 218.239C204.341 218.381 203.709 218.966 203.069 219.327C201.664 220.12 200.088 220.553 198.48 220.663C197.143 220.754 195.755 220.591 194.468 220.194L194.513 224.349V224.349C194.984 224.499 195.472 224.607 195.985 224.645C197.544 224.761 199.066 224.387 200.373 223.527L201.035 223.088C202.167 222.343 203.229 221.753 204.728 222.024C206.211 222.295 207.455 223.246 208.668 224.074L208.867 224.208C210.259 225.128 211.671 225.721 213.379 225.736C215.223 225.75 217.047 225.237 218.764 224.605C220.469 223.979 222.09 223.229 223.913 222.999C224.471 222.929 225.151 222.908 225.791 223.018C225.875 222.546 225.956 222.077 226.032 221.606C226.197 220.593 226.338 219.583 226.461 218.571C223.226 217.7 220.239 220.517 217.235 221.386C215.492 221.889 213.594 221.883 211.852 221.397C210.239 220.946 208.971 220.012 207.595 219.118ZM207.603 212.12C206.912 211.987 206.23 212.306 205.643 212.634C204.145 213.465 202.852 214.621 201.155 215.058C198.973 215.62 196.586 215.136 194.418 214.217C194.426 215.5 194.437 216.783 194.447 218.066C194.855 218.22 195.274 218.345 195.7 218.444C197.217 218.79 198.825 218.744 200.319 218.306C201.842 217.86 203.01 216.656 204.538 216.28C206.1 215.894 207.572 216.645 208.831 217.498L209.209 217.757C210.648 218.733 212.044 219.582 213.844 219.748C215.747 219.923 217.402 219.327 219.102 218.537L219.498 218.354C221.652 217.364 224.447 216.238 226.596 217.364C226.765 215.766 226.888 214.168 226.97 212.568C226.674 212.458 226.368 212.378 226.015 212.376C225.172 212.372 224.287 212.638 223.501 212.915C221.783 213.522 220.184 214.426 218.483 215.075C216.871 215.692 215.086 216.013 213.366 215.737C211.774 215.481 210.578 214.648 209.477 213.507L209.317 213.338C208.834 212.824 208.318 212.259 207.603 212.12ZM208.865 206.188C208.068 205.767 207.098 205.376 206.177 205.499C205.298 205.615 204.713 206.211 204.171 206.849L203.878 207.198C202.91 208.344 201.957 209.307 200.465 209.779C198.918 210.265 197.279 210.074 195.84 209.362C195.329 209.109 194.853 208.794 194.376 208.483L194.401 211.854V211.854C195.356 212.329 196.328 212.759 197.395 213.019C199.364 213.498 201.037 213.143 202.721 212.057L202.898 211.942C204.166 211.109 205.466 210.117 207.033 210.024C208.562 209.932 209.709 210.78 210.716 211.818L210.834 211.941C212.103 213.28 213.386 213.934 215.274 213.779C217.106 213.63 218.819 212.821 220.497 212.124L220.649 212.061C222.183 211.431 223.951 210.782 225.635 211.023C226.038 211.08 226.56 211.205 227.025 211.423C227.093 209.846 227.124 208.267 227.131 206.687C226.174 205.856 224.684 205.719 223.486 206.059C221.61 206.591 220.074 207.965 218.283 208.711C216.694 209.373 215.038 209.521 213.417 208.895C211.744 208.248 210.432 207.016 208.865 206.188ZM227.025 199.547C224.222 199.644 221.479 201.468 218.803 202.164C215.813 202.94 213.372 201.882 210.708 200.707L210.365 200.556C208.998 199.955 207.529 199.416 206.015 199.661C204.538 199.902 203.232 200.72 201.963 201.46L201.719 201.6C199.406 202.917 197.051 203.819 194.351 203.594C194.365 204.442 194.359 205.287 194.361 206.116C194.805 206.37 195.232 206.657 195.637 206.919L195.783 207.011C197.07 207.817 198.397 208.346 199.932 207.849C201.415 207.367 202.113 206.076 203.131 205.013C204.067 204.036 205.288 203.443 206.657 203.499C208.129 203.558 209.522 204.207 210.739 205C211.955 205.793 213.132 206.817 214.556 207.215C217.751 208.102 220.486 204.723 223.508 204.197C224.775 203.975 226.174 204.256 227.131 205.021C227.12 203.199 227.08 201.373 227.025 199.547ZM202.894 198.782C202.499 198.797 202.104 198.814 201.709 198.831C200.247 198.894 198.785 198.966 197.323 199.048C196.311 199.103 195.067 199.414 194.074 199.105C194.048 199.207 194.014 199.304 193.97 199.399C194.12 200.147 194.213 200.921 194.27 201.703C195.187 201.802 196.119 201.768 197.023 201.58C199.193 201.13 200.955 199.761 202.894 198.782ZM226.983 198.154C221.644 198.522 216.264 198.396 210.917 198.511L210.276 198.526C210.25 198.526 210.225 198.529 210.199 198.529C210.813 198.766 211.421 199.038 212.027 199.316L212.633 199.594C214.066 200.253 215.523 200.792 217.127 200.676C218.845 200.551 220.463 199.849 222.068 199.283C223.6 198.742 225.364 198.378 226.997 198.615C226.993 198.461 226.989 198.309 226.983 198.154Z" fill="black"/>
<path fill-rule="evenodd" clip-rule="evenodd" d="M203.99 69.0517C190.124 57.7538 167.904 54.0854 153.061 65.4837C141.529 76.1808 136.756 106.578 138.797 121.853C139.365 131.65 146.831 142.755 157.791 139.656C159.652 139.473 161.459 138.757 163.337 138.608C165.584 138.348 167.848 138.344 170.09 138.661C174.976 139.354 179.308 141.955 184.05 143.171C192.849 145.427 202.667 143.909 210.242 138.828C235.272 122.33 223.934 85.0192 203.99 69.0517V69.0517Z" fill="white"/>
<path fill-rule="evenodd" clip-rule="evenodd" d="M202.143 143.442C202.4 143.353 202.657 143.261 202.912 143.166C202.929 143.225 202.956 143.282 202.988 143.337C203.024 143.426 203.06 143.512 203.1 143.599C202.78 143.601 202.459 143.544 202.143 143.442M201.629 33.9585C201.515 33.703 201.384 33.4578 201.237 33.2209C201.595 33.3373 201.954 33.498 202.278 33.7051C202.059 33.7791 201.844 33.8636 201.629 33.9585M146.859 67.3859C146.845 67.3834 146.83 67.3812 146.816 67.3787C147.004 66.8767 147.339 66.4029 147.709 66.0607C147.775 65.9992 147.847 65.9424 147.916 65.8836C147.524 66.3526 147.167 66.8529 146.859 67.3859M247.073 119.875C246.887 118.112 246.651 116.356 246.346 114.61C246.053 112.938 245.806 111.15 244.956 109.667C244.113 108.189 243.268 106.754 242.264 105.454C242.407 104.791 242.597 104.167 242.762 103.664C243.71 100.769 244.644 97.0912 242.673 94.4007C242.216 93.7773 241.657 93.2996 241.018 92.8684C240.746 92.6846 240.295 92.5176 240.086 92.264C239.939 92.0843 239.989 92.1816 239.983 92.0928C239.947 91.6151 241.064 90.607 241.326 90.2287C241.815 89.5289 242.18 88.7408 242.458 87.9355C243.558 84.7484 242.81 81.2378 242.148 78.0441C241.798 76.3514 241.413 74.6543 241.286 72.9254C241.168 71.3023 241.389 69.7171 241.52 68.1024C241.647 66.5086 241.613 64.8645 240.932 63.3891C240.599 62.6705 240.095 62.0365 239.481 61.5419C238.883 61.0581 238.136 60.777 237.552 60.2951C236.97 59.8152 237.137 59.1665 237.289 58.5029C237.497 57.6025 237.761 56.7085 237.786 55.7786C237.833 54.1575 237.173 52.5785 236.142 51.3529C235.079 50.0869 233.561 49.2307 231.921 49.0384C231.171 48.9496 230.433 49.0999 229.686 49.0471C228.949 48.9964 228.789 48.6265 228.649 47.9502C228.329 46.401 228.459 44.8708 227.699 43.4252C227.024 42.1401 225.824 41.2692 224.498 40.7558C222.068 39.8132 219.24 40.0076 216.677 40.5633C215.163 36.0998 210.439 33.1726 205.79 33.1366C205.065 31.9023 203.835 30.9809 202.434 30.4396C200.115 29.5413 197.658 30.0657 195.243 30.0657H195.232C194.989 30.0507 194.747 30.0446 194.505 30.0467C194.277 30.0338 194.049 30.0148 193.821 29.9896C191.072 29.6639 188.353 28.5353 185.629 29.6409C184.415 30.1333 183.449 30.8921 182.838 31.8601C181.916 32.1114 181.008 32.399 180.116 32.7329C176.251 32.8342 172.423 34.9118 170.469 38.2788C167.718 37.966 164.732 38.4965 162.913 40.7495C162.439 41.3357 162.072 42.0245 161.829 42.7558C159.973 43.3573 158.257 44.4291 157.133 46.0434C156.108 47.5165 155.911 49.4212 156.604 51.0025C154.948 52.2053 153.654 53.9272 153.031 55.9603C152.652 57.1957 152.595 58.472 152.839 59.6879C151.143 60.065 149.522 60.7639 148.085 61.8128C146.579 62.9117 144.698 64.6606 144.599 66.6735C144.592 66.8212 144.597 66.9689 144.609 67.1163C141.294 66.8827 137.914 67.4458 135.673 70.1102C133.99 72.1094 133.259 74.6839 133.708 77.0277C129.763 77.8309 126.034 79.8979 123.432 82.954C121.541 85.1753 119.861 87.9989 119.962 91.0231C119.994 91.9343 120.207 92.8515 120.576 93.699V93.701C120.418 93.9992 120.255 94.331 120.099 94.6839C117.656 96.3978 115.881 99.0843 114.881 102.045C114.074 104.444 113.566 107.559 114.428 110C114.559 110.372 114.725 110.723 114.919 111.049C114.757 111.222 114.603 111.395 114.453 111.571C112.807 113.5 111.139 115.931 111.253 118.587C111.3 119.657 111.696 120.733 112.343 121.616C110.066 123.931 108.232 126.851 108.413 130.113C108.569 132.951 110.123 135.834 112.558 137.197C112.151 139.385 112.695 141.692 114.394 143.4C115.242 144.254 116.241 144.816 117.3 145.116C117.536 147.693 119.817 149.766 122.239 150.362C122.69 150.474 123.141 150.542 123.59 150.573C125.77 151.645 128.37 151.522 130.594 150.539C131.249 151.374 132.103 152.055 133.098 152.543C133.501 152.742 133.927 152.907 134.372 153.04C137.513 153.972 140.735 152.708 143.481 151.233C143.57 151.186 143.732 151.127 143.876 151.062C144.255 151.486 144.947 151.907 145.307 152.114C146.53 152.818 148.025 153.145 149.429 153.053C151.075 152.943 152.528 152.397 153.873 151.622C154.069 151.656 154.267 151.675 154.465 151.685C155.73 151.753 156.858 151.351 157.872 150.717C158.542 150.806 159.23 150.797 159.925 150.675C161.458 151.066 162.951 150.444 164.15 149.457C164.682 149.02 165.131 148.506 165.612 148.016C166.111 147.506 166.491 147.388 167.074 147.046C168.456 146.237 168.622 144.184 168.023 142.7C168.137 142.441 168.203 142.151 168.203 141.83C168.198 139.027 166.91 136.457 165.329 134.215C164.623 133.215 163.855 132.236 163.014 131.349C162.337 130.637 161.387 129.481 160.385 129.191C160.324 129.147 160.261 129.102 160.197 129.06C160.392 128.379 160.505 127.686 160.457 126.978C160.406 126.251 160.172 125.562 159.797 124.975C161.055 122.529 161.587 119.847 161.334 117.049C162.358 115.593 163.134 113.984 163.535 112.222C163.781 111.131 163.923 109.984 163.904 108.865C163.895 108.329 163.699 107.65 163.695 107.094C163.725 107.27 163.952 106.615 164.041 106.452C165.057 104.56 166.362 103.085 166.579 100.855C166.705 99.5511 166.398 98.1099 165.618 97.0405C166.117 95.0665 166.111 92.9464 165.325 91.0635C165.114 90.5605 164.872 90.068 164.593 89.601C164.722 89.2079 164.84 88.8105 164.991 88.4531C165.051 88.3115 165.11 88.168 165.169 88.0243C165.74 87.519 166.271 86.9675 166.718 86.4263C167.709 85.2281 168.466 83.8544 168.561 82.2711C168.607 81.4786 168.422 80.7198 168.192 79.9676C168.091 79.6273 168.029 79.249 167.909 78.9172C167.842 78.7331 167.679 78.5452 167.623 78.3719C167.61 78.3339 167.599 78.3022 167.591 78.2768C167.599 78.2515 167.606 78.1986 167.606 78.0991C167.608 77.3403 167.707 76.5985 167.711 75.8674C168.405 76.5691 169.24 77.093 170.188 77.3997C172.1 78.0147 174.095 77.7358 175.788 76.7868C177.609 78.038 179.656 79.1706 181.803 79.6252C183.078 79.8956 184.356 79.7837 185.635 79.9507C186.906 80.1177 188.136 80.6735 189.333 81.1068C191.998 82.0727 194.656 83.0637 197.329 84.0044C199.488 84.7632 201.824 85.3655 204.084 84.9386C204.719 85.919 205.543 86.7477 206.6 87.3564C207.356 87.7897 208.187 88.0833 209.045 88.2293C209.804 88.3582 210.694 88.3075 211.309 88.8295C211.91 89.3368 212.285 90.0932 212.825 90.6641C213.426 91.3023 214.168 91.8561 214.946 92.2534C215.57 92.5726 216.207 92.8027 216.854 92.953C216.797 94.3965 216.742 95.8379 216.725 97.2835C216.694 100.424 216.706 103.565 216.664 106.706C216.622 109.835 216.523 112.966 216.358 116.092C216.202 119.025 215.983 121.969 215.285 124.831C212.97 134.327 204.299 141.126 194.593 141.473C191.711 141.576 188.859 141.17 186.103 140.321C183.249 139.439 180.7 137.626 177.774 137.068C177.008 136.924 176.287 137.696 176.726 138.437C177.481 139.712 178.398 140.49 179.652 141.257C180.966 142.058 182.429 142.652 183.873 143.172C186.529 144.127 189.34 144.681 192.158 144.835C194.308 144.953 196.467 144.806 198.573 144.4C198.721 144.854 198.983 145.296 199.18 145.717C199.21 145.778 199.309 145.736 199.29 145.672C199.258 145.567 199.238 145.474 199.229 145.397C199.937 146.323 201.031 146.963 202.155 147.274C202.948 147.494 203.789 147.561 204.605 147.469C204.869 147.439 205.119 147.395 205.368 147.34C206.199 148.069 207.261 148.555 208.328 148.798C208.145 149.914 208.695 151.131 209.971 151.448C210.506 151.582 211.02 151.584 211.535 151.535C211.95 151.729 212.397 151.882 212.871 151.985C213.489 152.12 214.227 151.947 214.693 151.499C214.948 151.679 215.186 151.803 215.422 152.089C216.394 153.264 218.49 152.328 218.582 150.969C218.89 150.969 219.2 150.973 219.51 150.983C219.584 151.017 219.658 151.051 219.734 151.087C221.089 151.719 222.493 152.271 223.992 151.774C224.268 151.683 224.521 151.567 224.751 151.431C225.807 151.527 226.849 151.529 227.92 151.182C228.552 150.977 229.147 150.652 229.642 150.225C231.295 150.711 233.039 150.931 234.683 150.328C235.914 149.878 236.905 149.168 237.603 148.231C238.67 148.27 239.753 148.012 240.729 147.502C242.399 146.636 243.569 144.989 244.385 143.339C246.181 139.697 247.244 135.785 247.661 131.751C248.072 127.777 247.486 123.825 247.073 119.875" fill="black"/>
<path fill-rule="evenodd" clip-rule="evenodd" d="M181.916 119.159C184.223 117.769 192.848 118.788 199.623 119.159C205.003 119.454 208.845 118.87 210.075 119.698C212.854 121.569 211.504 130.616 206.716 131.853C201.928 133.09 184.179 134.818 181.119 131.853C178.058 128.888 177.776 121.653 181.916 119.159Z" fill="white"/>
<path fill-rule="evenodd" clip-rule="evenodd" d="M184.904 116.766C188.526 116.326 192.036 117.435 195.577 117.995C197.446 118.29 199.317 118.51 201.209 118.592C201.59 118.608 201.97 118.618 202.351 118.626C202.386 118.291 202.574 117.983 202.981 117.798C203.814 117.421 204.48 117.25 205.395 117.287C206.233 117.32 207.073 117.406 207.897 117.557C209.395 117.831 210.898 118.455 211.994 119.537C214.528 122.042 214.142 126.066 212.184 128.795C208.138 134.433 200.753 134.695 194.428 134.621L193.844 134.614C188.085 134.531 179.846 135.39 177.229 128.836C176.267 126.425 176.401 123.631 177.579 121.319C178.984 118.562 181.942 117.126 184.904 116.766ZM202.893 126.154L202.842 126.156C200.186 126.258 197.532 126.33 194.875 126.377C194.955 127.06 195.036 127.742 195.128 128.424C195.201 128.959 195.279 129.495 195.36 130.029C195.395 130.256 195.521 130.607 195.485 130.832L195.472 130.92V130.92C195.609 130.982 195.732 131.081 195.825 131.226C195.857 131.276 195.88 131.326 195.903 131.376C197.966 131.392 200.185 131.352 202.288 130.977L202.292 130.931V130.931C202.33 130.663 202.442 130.482 202.59 130.358C202.738 129.501 202.725 128.588 202.782 127.738C202.817 127.209 202.856 126.682 202.893 126.154ZM192.846 126.413C190.932 126.446 189.017 126.471 187.104 126.448L186.235 126.434V126.434C186.419 127.419 186.619 128.4 186.784 129.391C186.958 130.424 186.049 131.081 185.262 131.054C185.35 131.069 185.439 131.084 185.527 131.096C187.984 131.444 190.536 131.351 193.03 131.349C192.896 130.565 192.95 129.681 192.93 129.027L192.926 128.926C192.888 128.088 192.861 127.251 192.846 126.413ZM179.846 126.233C179.913 126.745 180.042 127.246 180.235 127.712C181.052 129.683 182.925 130.603 184.907 130.99C184.563 130.871 184.29 130.586 184.221 130.097C184.049 128.882 183.987 127.646 183.983 126.412C182.602 126.399 181.211 126.37 179.846 126.233ZM210.095 125.812C209.112 126.044 207.969 125.938 207.005 125.982C206.101 126.023 205.197 126.058 204.293 126.095C204.336 126.712 204.377 127.329 204.422 127.946C204.48 128.743 204.486 129.586 204.639 130.38C206.457 129.759 208.087 128.763 209.31 127.171C209.615 126.774 209.887 126.308 210.095 125.812ZM184.489 119.999C182.852 120.387 181.303 121.206 180.47 122.704C179.976 123.594 179.759 124.647 179.8 125.686C181.184 125.525 182.591 125.464 183.991 125.413C183.996 125.161 184.002 124.909 184.01 124.657L184.031 124.013C184.069 122.783 184.089 121.24 184.489 119.999ZM192.96 120.149L192.24 120.068C190.239 119.84 188.238 119.601 186.237 119.738C185.947 119.758 185.653 119.79 185.358 119.833C185.712 121.11 185.682 122.61 185.83 123.874C185.887 124.363 185.959 124.847 186.039 125.33L186.387 125.314V125.314C188.534 125.198 190.684 125.126 192.833 125.041C192.833 124.637 192.835 124.233 192.842 123.829L192.849 123.425C192.874 122.393 192.807 121.23 192.96 120.149ZM203.011 119.985C200.915 120.324 198.748 120.396 196.689 120.398C195.867 120.399 195.045 120.349 194.223 120.276C194.277 120.714 194.305 121.156 194.345 121.588C194.426 122.46 194.519 123.331 194.62 124.2L194.71 124.961V124.961C197.351 124.842 199.993 124.712 202.634 124.578L203.007 124.558V124.558L203.111 123.095C203.182 122.12 203.26 121.145 203.371 120.174L203.288 120.144V120.144C203.191 120.104 203.098 120.049 203.011 119.985ZM203.921 120.349C204.036 121.728 204.1 123.113 204.185 124.494L205.926 124.401C206.217 124.385 206.507 124.369 206.797 124.352C207.925 124.287 209.375 123.945 210.49 124.264C210.575 123.25 210.286 122.262 209.37 121.58C207.764 120.383 205.718 120.809 203.921 120.349ZM197.972 108.02C200.565 106.534 207.07 105.016 207.482 109.684C207.672 111.832 206.075 113.612 204.211 114.406L204.141 114.435C202.393 115.154 199.295 115.966 197.782 114.407C196.522 113.109 198.193 110.782 199.757 111.846C200.561 112.392 202.254 111.989 203.151 111.729L203.207 111.713C204.175 111.428 205.466 110.517 205.066 109.325C204.712 108.27 203.204 108.077 202.26 108.043C200.851 107.992 199.479 108.319 198.082 108.426C197.861 108.443 197.793 108.122 197.972 108.02ZM208.711 100.514C212.23 100.349 214.419 104.193 213.61 107.342C213.47 107.886 212.863 108.419 212.276 108.358L212.128 108.344C212.053 108.337 211.978 108.328 211.909 108.309C211.352 108.154 210.852 107.575 210.893 106.974L210.904 106.799C210.986 105.311 210.825 103.597 209.057 103.237C207.558 102.931 206.722 104.375 206.704 105.703C206.7 105.939 206.436 106.104 206.227 105.977C205.143 105.317 204.956 104.005 205.37 102.875C205.894 101.443 207.207 100.584 208.711 100.514ZM182.599 101.338C185.16 100.484 187.922 101.849 189.162 104.114C189.597 104.24 190.032 104.576 189.971 105.089C189.884 105.828 189.752 106.294 189.24 106.854C188.439 107.731 186.939 107.282 186.606 106.203L186.592 106.155C186.214 104.76 184.679 103.84 183.281 104.328C181.648 104.898 181.696 106.624 180.55 107.629C180.416 107.747 180.254 107.766 180.093 107.688C178.876 107.1 179.095 105.329 179.528 104.316C180.097 102.987 181.203 101.804 182.599 101.338ZM179.111 93.5592C181.186 91.4411 186.597 89.3914 188.017 93.3029C188.287 94.0479 187.711 95.0524 186.936 95.2069C185.666 95.4597 184.54 94.9083 183.279 95.0072C182.257 95.0877 181.192 95.429 180.376 96.0618C178.115 97.8143 177.618 100.779 176.042 103.009C175.966 103.118 175.817 103.072 175.803 102.944C175.444 99.6966 176.838 95.879 179.111 93.5592ZM206.173 91.4741C207.55 90.9875 209.11 91.0292 210.494 91.4607C211.888 91.8957 213.168 92.7217 214.155 93.8008C214.602 94.2907 215.016 94.8314 215.348 95.4069C215.525 95.7118 215.71 96.3419 215.911 96.717C216.995 97.3436 217.459 98.7713 216.488 99.787L216.444 99.8315L216.314 99.9604C215.792 100.477 215.005 100.701 214.292 100.495C212.698 100.033 212.504 98.7769 211.952 97.4432C211.587 96.5623 210.962 95.7829 210.205 95.2103C208.415 93.8577 205.48 93.4267 203.325 94.0642C203.21 94.0982 203.075 93.9519 203.157 93.8458C203.565 93.3166 203.801 92.8823 204.347 92.4554C204.902 92.0221 205.508 91.7091 206.173 91.4741Z" fill="black"/>
</g>
<defs>
<clipPath id="clip0">
<rect width="359" height="280" fill="white"/>
</clipPath>
</defs>
</svg>
